ISO-10303-21;
HEADER;
/* Generated by software containing ST-Developer
 * from STEP Tools, Inc. (www.steptools.com) 
 */

FILE_DESCRIPTION(
/* description */ (''),
/* implementation_level */ '2;1');

FILE_NAME(
/* name */ 'Left_Outer_Wing.step',
/* time_stamp */ '2026-09-06T19:32:12+03:00',
/* author */ (''),
/* organization */ (''),
/* preprocessor_version */ 'ST-DEVELOPER v20.1',
/* originating_system */ 'Autodesk Translation Framework v15.8.0.0',
/* authorisation */ '');

FILE_SCHEMA (('AUTOMOTIVE_DESIGN { 1 0 10303 214 3 1 1 }'));
ENDSEC;

DATA;
#10=MECHANICAL_DESIGN_GEOMETRIC_PRESENTATION_REPRESENTATION('',(#13),#1743);
#11=SHAPE_REPRESENTATION_RELATIONSHIP('SRR','None',#1750,#12);
#12=ADVANCED_BREP_SHAPE_REPRESENTATION('',(#14),#1742);
#13=STYLED_ITEM('',(#1760),#14);
#14=MANIFOLD_SOLID_BREP('Body1',#988);
#15=(
BOUNDED_SURFACE()
B_SPLINE_SURFACE(2,2,((#1722,#1723,#1724),(#1725,#1726,#1727),(#1728,#1729,
#1730)),.UNSPECIFIED.,.F.,.F.,.F.)
B_SPLINE_SURFACE_WITH_KNOTS((3,3),(3,3),(-0.776629624597777,-0.656358732223278),
(-1.57079632679472,-0.78539816339795),.UNSPECIFIED.)
GEOMETRIC_REPRESENTATION_ITEM()
RATIONAL_B_SPLINE_SURFACE(((1.,0.923879532511417,1.),(0.998192408883016,
0.922209536075286,0.998192408883016),(1.,0.923879532511417,1.)))
REPRESENTATION_ITEM('')
SURFACE()
);
#16=TOROIDAL_SURFACE('',#1085,46.5308548620226,1.);
#17=TOROIDAL_SURFACE('',#1089,7.35000000000017,1.);
#18=TOROIDAL_SURFACE('',#1093,18.0500000000001,1.);
#19=TOROIDAL_SURFACE('',#1106,11.2677866341743,6.35000000000015);
#20=TOROIDAL_SURFACE('',#1110,48.1873364267625,45.5308548620226);
#21=ELLIPSE('',#1079,7.25560399101212,6.35);
#22=ELLIPSE('',#1082,17.4394283773579,6.35);
#23=B_SPLINE_CURVE_WITH_KNOTS('',3,(#1501,#1502,#1503,#1504,#1505,#1506,
#1507,#1508,#1509,#1510),.UNSPECIFIED.,.F.,.F.,(4,2,2,2,4),(0.153322146882644,
0.193897518808763,0.233123388231463,0.270680474474039,0.306864375141582),
 .UNSPECIFIED.);
#24=B_SPLINE_CURVE_WITH_KNOTS('',3,(#1575,#1576,#1577,#1578,#1579,#1580,
#1581,#1582,#1583,#1584),.UNSPECIFIED.,.F.,.F.,(4,2,2,2,4),(-0.687005860966906,
-0.652824569926923,-0.614183296057343,-0.569112300672468,-0.517048175982923),
 .UNSPECIFIED.);
#25=FACE_BOUND('',#132,.T.);
#26=FACE_BOUND('',#133,.T.);
#27=FACE_BOUND('',#135,.T.);
#28=FACE_BOUND('',#137,.T.);
#29=FACE_BOUND('',#138,.T.);
#30=FACE_BOUND('',#140,.T.);
#31=FACE_BOUND('',#149,.T.);
#32=FACE_BOUND('',#150,.T.);
#33=FACE_BOUND('',#153,.T.);
#34=FACE_BOUND('',#157,.T.);
#35=FACE_BOUND('',#166,.T.);
#36=FACE_BOUND('',#169,.T.);
#37=PLANE('',#1008);
#38=PLANE('',#1012);
#39=PLANE('',#1016);
#40=PLANE('',#1020);
#41=PLANE('',#1021);
#42=PLANE('',#1022);
#43=PLANE('',#1025);
#44=PLANE('',#1029);
#45=PLANE('',#1033);
#46=PLANE('',#1037);
#47=PLANE('',#1041);
#48=PLANE('',#1042);
#49=PLANE('',#1043);
#50=PLANE('',#1044);
#51=PLANE('',#1048);
#52=PLANE('',#1056);
#53=PLANE('',#1060);
#54=PLANE('',#1064);
#55=PLANE('',#1068);
#56=PLANE('',#1072);
#57=PLANE('',#1073);
#58=PLANE('',#1078);
#59=PLANE('',#1080);
#60=PLANE('',#1083);
#61=PLANE('',#1084);
#62=PLANE('',#1096);
#63=PLANE('',#1099);
#64=FACE_OUTER_BOUND('',#122,.T.);
#65=FACE_OUTER_BOUND('',#123,.T.);
#66=FACE_OUTER_BOUND('',#124,.T.);
#67=FACE_OUTER_BOUND('',#125,.T.);
#68=FACE_OUTER_BOUND('',#126,.T.);
#69=FACE_OUTER_BOUND('',#127,.T.);
#70=FACE_OUTER_BOUND('',#128,.T.);
#71=FACE_OUTER_BOUND('',#129,.T.);
#72=FACE_OUTER_BOUND('',#130,.T.);
#73=FACE_OUTER_BOUND('',#131,.T.);
#74=FACE_OUTER_BOUND('',#134,.T.);
#75=FACE_OUTER_BOUND('',#136,.T.);
#76=FACE_OUTER_BOUND('',#139,.T.);
#77=FACE_OUTER_BOUND('',#141,.T.);
#78=FACE_OUTER_BOUND('',#142,.T.);
#79=FACE_OUTER_BOUND('',#143,.T.);
#80=FACE_OUTER_BOUND('',#144,.T.);
#81=FACE_OUTER_BOUND('',#145,.T.);
#82=FACE_OUTER_BOUND('',#146,.T.);
#83=FACE_OUTER_BOUND('',#147,.T.);
#84=FACE_OUTER_BOUND('',#148,.T.);
#85=FACE_OUTER_BOUND('',#151,.T.);
#86=FACE_OUTER_BOUND('',#152,.T.);
#87=FACE_OUTER_BOUND('',#154,.T.);
#88=FACE_OUTER_BOUND('',#155,.T.);
#89=FACE_OUTER_BOUND('',#156,.T.);
#90=FACE_OUTER_BOUND('',#158,.T.);
#91=FACE_OUTER_BOUND('',#159,.T.);
#92=FACE_OUTER_BOUND('',#160,.T.);
#93=FACE_OUTER_BOUND('',#161,.T.);
#94=FACE_OUTER_BOUND('',#162,.T.);
#95=FACE_OUTER_BOUND('',#163,.T.);
#96=FACE_OUTER_BOUND('',#164,.T.);
#97=FACE_OUTER_BOUND('',#165,.T.);
#98=FACE_OUTER_BOUND('',#167,.T.);
#99=FACE_OUTER_BOUND('',#168,.T.);
#100=FACE_OUTER_BOUND('',#170,.T.);
#101=FACE_OUTER_BOUND('',#171,.T.);
#102=FACE_OUTER_BOUND('',#172,.T.);
#103=FACE_OUTER_BOUND('',#173,.T.);
#104=FACE_OUTER_BOUND('',#174,.T.);
#105=FACE_OUTER_BOUND('',#175,.T.);
#106=FACE_OUTER_BOUND('',#176,.T.);
#107=FACE_OUTER_BOUND('',#177,.T.);
#108=FACE_OUTER_BOUND('',#178,.T.);
#109=FACE_OUTER_BOUND('',#179,.T.);
#110=FACE_OUTER_BOUND('',#180,.T.);
#111=FACE_OUTER_BOUND('',#181,.T.);
#112=FACE_OUTER_BOUND('',#182,.T.);
#113=FACE_OUTER_BOUND('',#183,.T.);
#114=FACE_OUTER_BOUND('',#184,.T.);
#115=FACE_OUTER_BOUND('',#185,.T.);
#116=FACE_OUTER_BOUND('',#186,.T.);
#117=FACE_OUTER_BOUND('',#187,.T.);
#118=FACE_OUTER_BOUND('',#188,.T.);
#119=FACE_OUTER_BOUND('',#189,.T.);
#120=FACE_OUTER_BOUND('',#190,.T.);
#121=FACE_OUTER_BOUND('',#191,.T.);
#122=EDGE_LOOP('',(#629,#630,#631,#632));
#123=EDGE_LOOP('',(#633,#634,#635,#636));
#124=EDGE_LOOP('',(#637));
#125=EDGE_LOOP('',(#638,#639,#640,#641));
#126=EDGE_LOOP('',(#642));
#127=EDGE_LOOP('',(#643,#644,#645,#646));
#128=EDGE_LOOP('',(#647));
#129=EDGE_LOOP('',(#648,#649,#650,#651));
#130=EDGE_LOOP('',(#652));
#131=EDGE_LOOP('',(#653,#654,#655,#656));
#132=EDGE_LOOP('',(#657));
#133=EDGE_LOOP('',(#658));
#134=EDGE_LOOP('',(#659,#660,#661,#662,#663,#664,#665,#666,#667));
#135=EDGE_LOOP('',(#668));
#136=EDGE_LOOP('',(#669,#670,#671,#672,#673,#674,#675,#676,#677,#678,#679,
#680,#681,#682,#683));
#137=EDGE_LOOP('',(#684));
#138=EDGE_LOOP('',(#685));
#139=EDGE_LOOP('',(#686,#687,#688,#689,#690,#691,#692,#693));
#140=EDGE_LOOP('',(#694));
#141=EDGE_LOOP('',(#695,#696,#697,#698));
#142=EDGE_LOOP('',(#699));
#143=EDGE_LOOP('',(#700,#701,#702,#703));
#144=EDGE_LOOP('',(#704));
#145=EDGE_LOOP('',(#705,#706,#707,#708));
#146=EDGE_LOOP('',(#709,#710,#711,#712));
#147=EDGE_LOOP('',(#713,#714,#715,#716));
#148=EDGE_LOOP('',(#717,#718,#719,#720));
#149=EDGE_LOOP('',(#721));
#150=EDGE_LOOP('',(#722));
#151=EDGE_LOOP('',(#723,#724,#725,#726,#727,#728,#729,#730,#731,#732,#733,
#734,#735));
#152=EDGE_LOOP('',(#736,#737));
#153=EDGE_LOOP('',(#738));
#154=EDGE_LOOP('',(#739,#740,#741,#742));
#155=EDGE_LOOP('',(#743,#744,#745,#746));
#156=EDGE_LOOP('',(#747,#748));
#157=EDGE_LOOP('',(#749));
#158=EDGE_LOOP('',(#750,#751,#752,#753));
#159=EDGE_LOOP('',(#754,#755,#756,#757));
#160=EDGE_LOOP('',(#758,#759,#760,#761));
#161=EDGE_LOOP('',(#762,#763,#764,#765));
#162=EDGE_LOOP('',(#766,#767,#768,#769));
#163=EDGE_LOOP('',(#770,#771,#772,#773));
#164=EDGE_LOOP('',(#774,#775,#776,#777));
#165=EDGE_LOOP('',(#778,#779,#780,#781,#782,#783));
#166=EDGE_LOOP('',(#784,#785,#786,#787,#788,#789));
#167=EDGE_LOOP('',(#790,#791,#792,#793,#794,#795,#796,#797,#798));
#168=EDGE_LOOP('',(#799,#800,#801,#802,#803,#804));
#169=EDGE_LOOP('',(#805,#806,#807,#808,#809,#810));
#170=EDGE_LOOP('',(#811,#812,#813,#814,#815));
#171=EDGE_LOOP('',(#816,#817,#818));
#172=EDGE_LOOP('',(#819,#820,#821,#822,#823));
#173=EDGE_LOOP('',(#824,#825,#826,#827));
#174=EDGE_LOOP('',(#828,#829,#830,#831));
#175=EDGE_LOOP('',(#832,#833,#834,#835));
#176=EDGE_LOOP('',(#836,#837,#838,#839));
#177=EDGE_LOOP('',(#840,#841,#842,#843,#844,#845));
#178=EDGE_LOOP('',(#846,#847,#848,#849));
#179=EDGE_LOOP('',(#850,#851,#852,#853));
#180=EDGE_LOOP('',(#854,#855,#856,#857));
#181=EDGE_LOOP('',(#858,#859,#860,#861));
#182=EDGE_LOOP('',(#862,#863,#864,#865));
#183=EDGE_LOOP('',(#866,#867,#868,#869));
#184=EDGE_LOOP('',(#870,#871,#872,#873));
#185=EDGE_LOOP('',(#874,#875,#876,#877));
#186=EDGE_LOOP('',(#878,#879,#880,#881));
#187=EDGE_LOOP('',(#882,#883,#884,#885,#886));
#188=EDGE_LOOP('',(#887,#888,#889,#890,#891,#892));
#189=EDGE_LOOP('',(#893,#894,#895,#896));
#190=EDGE_LOOP('',(#897,#898,#899,#900));
#191=EDGE_LOOP('',(#901,#902,#903,#904));
#192=LINE('',#1434,#269);
#193=LINE('',#1440,#270);
#194=LINE('',#1447,#271);
#195=LINE('',#1454,#272);
#196=LINE('',#1461,#273);
#197=LINE('',#1467,#274);
#198=LINE('',#1469,#275);
#199=LINE('',#1471,#276);
#200=LINE('',#1472,#277);
#201=LINE('',#1475,#278);
#202=LINE('',#1481,#279);
#203=LINE('',#1483,#280);
#204=LINE('',#1485,#281);
#205=LINE('',#1487,#282);
#206=LINE('',#1488,#283);
#207=LINE('',#1491,#284);
#208=LINE('',#1495,#285);
#209=LINE('',#1499,#286);
#210=LINE('',#1512,#287);
#211=LINE('',#1516,#288);
#212=LINE('',#1518,#289);
#213=LINE('',#1520,#290);
#214=LINE('',#1522,#291);
#215=LINE('',#1523,#292);
#216=LINE('',#1526,#293);
#217=LINE('',#1528,#294);
#218=LINE('',#1530,#295);
#219=LINE('',#1532,#296);
#220=LINE('',#1534,#297);
#221=LINE('',#1535,#298);
#222=LINE('',#1540,#299);
#223=LINE('',#1547,#300);
#224=LINE('',#1554,#301);
#225=LINE('',#1557,#302);
#226=LINE('',#1558,#303);
#227=LINE('',#1560,#304);
#228=LINE('',#1561,#305);
#229=LINE('',#1565,#306);
#230=LINE('',#1567,#307);
#231=LINE('',#1569,#308);
#232=LINE('',#1573,#309);
#233=LINE('',#1586,#310);
#234=LINE('',#1590,#311);
#235=LINE('',#1598,#312);
#236=LINE('',#1604,#313);
#237=LINE('',#1611,#314);
#238=LINE('',#1614,#315);
#239=LINE('',#1617,#316);
#240=LINE('',#1619,#317);
#241=LINE('',#1620,#318);
#242=LINE('',#1626,#319);
#243=LINE('',#1629,#320);
#244=LINE('',#1631,#321);
#245=LINE('',#1632,#322);
#246=LINE('',#1638,#323);
#247=LINE('',#1640,#324);
#248=LINE('',#1641,#325);
#249=LINE('',#1647,#326);
#250=LINE('',#1650,#327);
#251=LINE('',#1653,#328);
#252=LINE('',#1654,#329);
#253=LINE('',#1656,#330);
#254=LINE('',#1657,#331);
#255=LINE('',#1663,#332);
#256=LINE('',#1668,#333);
#257=LINE('',#1670,#334);
#258=LINE('',#1673,#335);
#259=LINE('',#1676,#336);
#260=LINE('',#1677,#337);
#261=LINE('',#1698,#338);
#262=LINE('',#1700,#339);
#263=LINE('',#1702,#340);
#264=LINE('',#1706,#341);
#265=LINE('',#1709,#342);
#266=LINE('',#1733,#343);
#267=LINE('',#1735,#344);
#268=LINE('',#1738,#345);
#269=VECTOR('',#1124,1.45);
#270=VECTOR('',#1131,2.09999999999999);
#271=VECTOR('',#1140,2.10000000000001);
#272=VECTOR('',#1149,2.10000000000001);
#273=VECTOR('',#1158,2.10000000000001);
#274=VECTOR('',#1165,10.);
#275=VECTOR('',#1166,10.);
#276=VECTOR('',#1167,10.);
#277=VECTOR('',#1168,10.);
#278=VECTOR('',#1171,10.);
#279=VECTOR('',#1176,10.);
#280=VECTOR('',#1177,10.);
#281=VECTOR('',#1178,10.);
#282=VECTOR('',#1179,10.);
#283=VECTOR('',#1180,10.);
#284=VECTOR('',#1183,10.);
#285=VECTOR('',#1186,10.);
#286=VECTOR('',#1189,10.);
#287=VECTOR('',#1190,10.);
#288=VECTOR('',#1193,10.);
#289=VECTOR('',#1194,10.);
#290=VECTOR('',#1195,10.);
#291=VECTOR('',#1196,10.);
#292=VECTOR('',#1197,10.);
#293=VECTOR('',#1200,10.);
#294=VECTOR('',#1201,10.);
#295=VECTOR('',#1202,10.);
#296=VECTOR('',#1203,10.);
#297=VECTOR('',#1204,10.);
#298=VECTOR('',#1205,10.);
#299=VECTOR('',#1210,2.3);
#300=VECTOR('',#1219,2.3);
#301=VECTOR('',#1228,2.65649276105604);
#302=VECTOR('',#1233,10.);
#303=VECTOR('',#1234,10.);
#304=VECTOR('',#1237,10.);
#305=VECTOR('',#1238,10.);
#306=VECTOR('',#1243,10.);
#307=VECTOR('',#1244,10.);
#308=VECTOR('',#1245,10.);
#309=VECTOR('',#1248,10.);
#310=VECTOR('',#1249,10.);
#311=VECTOR('',#1252,10.);
#312=VECTOR('',#1263,10.);
#313=VECTOR('',#1272,10.);
#314=VECTOR('',#1279,10.);
#315=VECTOR('',#1282,10.);
#316=VECTOR('',#1285,10.);
#317=VECTOR('',#1286,10.);
#318=VECTOR('',#1287,10.);
#319=VECTOR('',#1292,10.);
#320=VECTOR('',#1295,10.);
#321=VECTOR('',#1298,10.);
#322=VECTOR('',#1299,10.);
#323=VECTOR('',#1306,10.);
#324=VECTOR('',#1309,10.);
#325=VECTOR('',#1310,10.);
#326=VECTOR('',#1315,2.);
#327=VECTOR('',#1318,2.);
#328=VECTOR('',#1321,10.);
#329=VECTOR('',#1322,10.);
#330=VECTOR('',#1323,10.);
#331=VECTOR('',#1324,10.);
#332=VECTOR('',#1331,10.);
#333=VECTOR('',#1338,10.);
#334=VECTOR('',#1339,10.);
#335=VECTOR('',#1342,10.);
#336=VECTOR('',#1345,10.);
#337=VECTOR('',#1346,10.);
#338=VECTOR('',#1379,10.);
#339=VECTOR('',#1382,10.);
#340=VECTOR('',#1385,10.);
#341=VECTOR('',#1390,10.);
#342=VECTOR('',#1393,10.);
#343=VECTOR('',#1418,10.);
#344=VECTOR('',#1421,10.);
#345=VECTOR('',#1426,10.);
#346=CIRCLE('',#1003,1.45);
#347=CIRCLE('',#1004,1.45);
#348=CIRCLE('',#1006,2.09999999999999);
#349=CIRCLE('',#1007,2.09999999999999);
#350=CIRCLE('',#1010,2.10000000000001);
#351=CIRCLE('',#1011,2.10000000000001);
#352=CIRCLE('',#1014,2.10000000000001);
#353=CIRCLE('',#1015,2.10000000000001);
#354=CIRCLE('',#1018,2.10000000000001);
#355=CIRCLE('',#1019,2.10000000000001);
#356=CIRCLE('',#1023,52.0308548620225);
#357=CIRCLE('',#1024,12.85);
#358=CIRCLE('',#1026,2.99999999999999);
#359=CIRCLE('',#1027,1.);
#360=CIRCLE('',#1028,5.83148156474034);
#361=CIRCLE('',#1031,2.3);
#362=CIRCLE('',#1032,2.3);
#363=CIRCLE('',#1035,2.3);
#364=CIRCLE('',#1036,2.3);
#365=CIRCLE('',#1039,2.65649276105604);
#366=CIRCLE('',#1040,2.65649276105604);
#367=CIRCLE('',#1045,8.24226112865468);
#368=CIRCLE('',#1046,1.);
#369=CIRCLE('',#1047,2.99999999999999);
#370=CIRCLE('',#1049,17.803913967771);
#371=CIRCLE('',#1050,45.5308548620226);
#372=CIRCLE('',#1052,17.803913967771);
#373=CIRCLE('',#1054,45.5308548620226);
#374=CIRCLE('',#1055,45.5308548620226);
#375=CIRCLE('',#1058,2.);
#376=CIRCLE('',#1059,2.);
#377=CIRCLE('',#1062,2.);
#378=CIRCLE('',#1063,2.);
#379=CIRCLE('',#1066,2.);
#380=CIRCLE('',#1067,2.);
#381=CIRCLE('',#1070,2.);
#382=CIRCLE('',#1071,2.);
#383=CIRCLE('',#1074,6.35);
#384=CIRCLE('',#1075,19.0500000000001);
#385=CIRCLE('',#1076,12.85);
#386=CIRCLE('',#1077,52.0308548620225);
#387=CIRCLE('',#1086,46.5308548620226);
#388=CIRCLE('',#1087,0.99999999999997);
#389=CIRCLE('',#1088,45.5308548620226);
#390=CIRCLE('',#1090,1.00000000000001);
#391=CIRCLE('',#1091,6.35000000000015);
#392=CIRCLE('',#1092,7.35000000000017);
#393=CIRCLE('',#1094,19.0500000000001);
#394=CIRCLE('',#1095,18.0500000000001);
#395=CIRCLE('',#1101,6.35000000000015);
#396=CIRCLE('',#1103,45.5308548620226);
#397=CIRCLE('',#1105,19.0500000000001);
#398=CIRCLE('',#1107,6.35);
#399=CIRCLE('',#1108,5.28427397196889);
#400=CIRCLE('',#1109,6.73845983180418);
#401=CIRCLE('',#1111,45.5308548620226);
#402=CIRCLE('',#1112,19.0500000000001);
#403=VERTEX_POINT('',#1431);
#404=VERTEX_POINT('',#1433);
#405=VERTEX_POINT('',#1437);
#406=VERTEX_POINT('',#1439);
#407=VERTEX_POINT('',#1444);
#408=VERTEX_POINT('',#1446);
#409=VERTEX_POINT('',#1451);
#410=VERTEX_POINT('',#1453);
#411=VERTEX_POINT('',#1458);
#412=VERTEX_POINT('',#1460);
#413=VERTEX_POINT('',#1465);
#414=VERTEX_POINT('',#1466);
#415=VERTEX_POINT('',#1468);
#416=VERTEX_POINT('',#1470);
#417=VERTEX_POINT('',#1474);
#418=VERTEX_POINT('',#1476);
#419=VERTEX_POINT('',#1478);
#420=VERTEX_POINT('',#1480);
#421=VERTEX_POINT('',#1482);
#422=VERTEX_POINT('',#1484);
#423=VERTEX_POINT('',#1486);
#424=VERTEX_POINT('',#1490);
#425=VERTEX_POINT('',#1492);
#426=VERTEX_POINT('',#1494);
#427=VERTEX_POINT('',#1496);
#428=VERTEX_POINT('',#1498);
#429=VERTEX_POINT('',#1500);
#430=VERTEX_POINT('',#1511);
#431=VERTEX_POINT('',#1513);
#432=VERTEX_POINT('',#1515);
#433=VERTEX_POINT('',#1517);
#434=VERTEX_POINT('',#1519);
#435=VERTEX_POINT('',#1521);
#436=VERTEX_POINT('',#1525);
#437=VERTEX_POINT('',#1527);
#438=VERTEX_POINT('',#1529);
#439=VERTEX_POINT('',#1531);
#440=VERTEX_POINT('',#1533);
#441=VERTEX_POINT('',#1537);
#442=VERTEX_POINT('',#1539);
#443=VERTEX_POINT('',#1544);
#444=VERTEX_POINT('',#1546);
#445=VERTEX_POINT('',#1551);
#446=VERTEX_POINT('',#1553);
#447=VERTEX_POINT('',#1564);
#448=VERTEX_POINT('',#1566);
#449=VERTEX_POINT('',#1568);
#450=VERTEX_POINT('',#1570);
#451=VERTEX_POINT('',#1572);
#452=VERTEX_POINT('',#1574);
#453=VERTEX_POINT('',#1585);
#454=VERTEX_POINT('',#1587);
#455=VERTEX_POINT('',#1589);
#456=VERTEX_POINT('',#1593);
#457=VERTEX_POINT('',#1597);
#458=VERTEX_POINT('',#1601);
#459=VERTEX_POINT('',#1607);
#460=VERTEX_POINT('',#1608);
#461=VERTEX_POINT('',#1610);
#462=VERTEX_POINT('',#1612);
#463=VERTEX_POINT('',#1616);
#464=VERTEX_POINT('',#1618);
#465=VERTEX_POINT('',#1622);
#466=VERTEX_POINT('',#1623);
#467=VERTEX_POINT('',#1625);
#468=VERTEX_POINT('',#1627);
#469=VERTEX_POINT('',#1634);
#470=VERTEX_POINT('',#1636);
#471=VERTEX_POINT('',#1643);
#472=VERTEX_POINT('',#1644);
#473=VERTEX_POINT('',#1646);
#474=VERTEX_POINT('',#1648);
#475=VERTEX_POINT('',#1652);
#476=VERTEX_POINT('',#1655);
#477=VERTEX_POINT('',#1659);
#478=VERTEX_POINT('',#1661);
#479=VERTEX_POINT('',#1664);
#480=VERTEX_POINT('',#1669);
#481=VERTEX_POINT('',#1671);
#482=VERTEX_POINT('',#1675);
#483=VERTEX_POINT('',#1683);
#484=VERTEX_POINT('',#1685);
#485=VERTEX_POINT('',#1689);
#486=VERTEX_POINT('',#1690);
#487=VERTEX_POINT('',#1705);
#488=VERTEX_POINT('',#1707);
#489=VERTEX_POINT('',#1715);
#490=VERTEX_POINT('',#1716);
#491=EDGE_CURVE('',#403,#403,#346,.T.);
#492=EDGE_CURVE('',#403,#404,#192,.T.);
#493=EDGE_CURVE('',#404,#404,#347,.T.);
#494=EDGE_CURVE('',#405,#405,#348,.T.);
#495=EDGE_CURVE('',#405,#406,#193,.T.);
#496=EDGE_CURVE('',#406,#406,#349,.T.);
#497=EDGE_CURVE('',#407,#407,#350,.T.);
#498=EDGE_CURVE('',#407,#408,#194,.T.);
#499=EDGE_CURVE('',#408,#408,#351,.T.);
#500=EDGE_CURVE('',#409,#409,#352,.T.);
#501=EDGE_CURVE('',#409,#410,#195,.T.);
#502=EDGE_CURVE('',#410,#410,#353,.T.);
#503=EDGE_CURVE('',#411,#411,#354,.T.);
#504=EDGE_CURVE('',#411,#412,#196,.T.);
#505=EDGE_CURVE('',#412,#412,#355,.T.);
#506=EDGE_CURVE('',#413,#414,#197,.T.);
#507=EDGE_CURVE('',#415,#413,#198,.T.);
#508=EDGE_CURVE('',#416,#415,#199,.T.);
#509=EDGE_CURVE('',#414,#416,#200,.T.);
#510=EDGE_CURVE('',#414,#417,#201,.T.);
#511=EDGE_CURVE('',#418,#417,#356,.T.);
#512=EDGE_CURVE('',#419,#418,#357,.T.);
#513=EDGE_CURVE('',#420,#419,#202,.T.);
#514=EDGE_CURVE('',#420,#421,#203,.T.);
#515=EDGE_CURVE('',#421,#422,#204,.T.);
#516=EDGE_CURVE('',#422,#423,#205,.T.);
#517=EDGE_CURVE('',#413,#423,#206,.T.);
#518=EDGE_CURVE('',#416,#424,#207,.T.);
#519=EDGE_CURVE('',#424,#425,#358,.T.);
#520=EDGE_CURVE('',#425,#426,#208,.T.);
#521=EDGE_CURVE('',#426,#427,#359,.T.);
#522=EDGE_CURVE('',#427,#428,#209,.T.);
#523=EDGE_CURVE('',#428,#429,#23,.T.);
#524=EDGE_CURVE('',#430,#429,#210,.T.);
#525=EDGE_CURVE('',#431,#430,#360,.T.);
#526=EDGE_CURVE('',#432,#431,#211,.T.);
#527=EDGE_CURVE('',#433,#432,#212,.T.);
#528=EDGE_CURVE('',#434,#433,#213,.T.);
#529=EDGE_CURVE('',#435,#434,#214,.T.);
#530=EDGE_CURVE('',#435,#417,#215,.T.);
#531=EDGE_CURVE('',#436,#415,#216,.T.);
#532=EDGE_CURVE('',#436,#437,#217,.T.);
#533=EDGE_CURVE('',#437,#438,#218,.T.);
#534=EDGE_CURVE('',#438,#439,#219,.T.);
#535=EDGE_CURVE('',#440,#439,#220,.T.);
#536=EDGE_CURVE('',#440,#424,#221,.T.);
#537=EDGE_CURVE('',#441,#441,#361,.T.);
#538=EDGE_CURVE('',#441,#442,#222,.T.);
#539=EDGE_CURVE('',#442,#442,#362,.T.);
#540=EDGE_CURVE('',#443,#443,#363,.T.);
#541=EDGE_CURVE('',#443,#444,#223,.T.);
#542=EDGE_CURVE('',#444,#444,#364,.T.);
#543=EDGE_CURVE('',#445,#445,#365,.T.);
#544=EDGE_CURVE('',#445,#446,#224,.T.);
#545=EDGE_CURVE('',#446,#446,#366,.T.);
#546=EDGE_CURVE('',#422,#437,#225,.T.);
#547=EDGE_CURVE('',#423,#436,#226,.T.);
#548=EDGE_CURVE('',#439,#420,#227,.T.);
#549=EDGE_CURVE('',#438,#421,#228,.T.);
#550=EDGE_CURVE('',#447,#419,#229,.T.);
#551=EDGE_CURVE('',#448,#447,#230,.T.);
#552=EDGE_CURVE('',#448,#449,#231,.T.);
#553=EDGE_CURVE('',#449,#450,#367,.T.);
#554=EDGE_CURVE('',#450,#451,#232,.T.);
#555=EDGE_CURVE('',#451,#452,#24,.T.);
#556=EDGE_CURVE('',#452,#453,#233,.T.);
#557=EDGE_CURVE('',#453,#454,#368,.T.);
#558=EDGE_CURVE('',#455,#454,#234,.T.);
#559=EDGE_CURVE('',#455,#440,#369,.T.);
#560=EDGE_CURVE('',#456,#432,#370,.T.);
#561=EDGE_CURVE('',#432,#456,#371,.T.);
#562=EDGE_CURVE('',#457,#456,#235,.T.);
#563=EDGE_CURVE('',#433,#457,#372,.T.);
#564=EDGE_CURVE('',#458,#434,#373,.T.);
#565=EDGE_CURVE('',#457,#433,#374,.T.);
#566=EDGE_CURVE('',#458,#457,#236,.T.);
#567=EDGE_CURVE('',#459,#460,#375,.T.);
#568=EDGE_CURVE('',#461,#459,#237,.T.);
#569=EDGE_CURVE('',#462,#461,#376,.T.);
#570=EDGE_CURVE('',#460,#462,#238,.T.);
#571=EDGE_CURVE('',#462,#463,#239,.T.);
#572=EDGE_CURVE('',#463,#464,#240,.T.);
#573=EDGE_CURVE('',#464,#460,#241,.T.);
#574=EDGE_CURVE('',#465,#466,#377,.T.);
#575=EDGE_CURVE('',#467,#465,#242,.T.);
#576=EDGE_CURVE('',#468,#467,#378,.T.);
#577=EDGE_CURVE('',#466,#468,#243,.T.);
#578=EDGE_CURVE('',#459,#466,#244,.T.);
#579=EDGE_CURVE('',#468,#461,#245,.T.);
#580=EDGE_CURVE('',#464,#469,#379,.T.);
#581=EDGE_CURVE('',#470,#463,#380,.T.);
#582=EDGE_CURVE('',#469,#470,#246,.T.);
#583=EDGE_CURVE('',#465,#469,#247,.T.);
#584=EDGE_CURVE('',#470,#467,#248,.T.);
#585=EDGE_CURVE('',#471,#472,#381,.T.);
#586=EDGE_CURVE('',#473,#471,#249,.T.);
#587=EDGE_CURVE('',#474,#473,#382,.T.);
#588=EDGE_CURVE('',#472,#474,#250,.T.);
#589=EDGE_CURVE('',#475,#472,#251,.T.);
#590=EDGE_CURVE('',#475,#447,#252,.T.);
#591=EDGE_CURVE('',#476,#419,#253,.T.);
#592=EDGE_CURVE('',#476,#471,#254,.T.);
#593=EDGE_CURVE('',#477,#458,#383,.T.);
#594=EDGE_CURVE('',#477,#478,#384,.T.);
#595=EDGE_CURVE('',#478,#473,#255,.T.);
#596=EDGE_CURVE('',#476,#479,#385,.T.);
#597=EDGE_CURVE('',#479,#435,#386,.T.);
#598=EDGE_CURVE('',#478,#448,#256,.T.);
#599=EDGE_CURVE('',#480,#448,#257,.T.);
#600=EDGE_CURVE('',#481,#480,#21,.F.);
#601=EDGE_CURVE('',#474,#481,#258,.T.);
#602=EDGE_CURVE('',#481,#482,#259,.T.);
#603=EDGE_CURVE('',#482,#475,#260,.T.);
#604=EDGE_CURVE('',#482,#480,#22,.T.);
#605=EDGE_CURVE('',#483,#428,#387,.T.);
#606=EDGE_CURVE('',#484,#483,#388,.T.);
#607=EDGE_CURVE('',#429,#484,#389,.T.);
#608=EDGE_CURVE('',#485,#486,#390,.T.);
#609=EDGE_CURVE('',#484,#485,#391,.T.);
#610=EDGE_CURVE('',#486,#483,#392,.T.);
#611=EDGE_CURVE('',#485,#451,#393,.T.);
#612=EDGE_CURVE('',#452,#486,#394,.T.);
#613=EDGE_CURVE('',#427,#453,#261,.T.);
#614=EDGE_CURVE('',#454,#426,#262,.T.);
#615=EDGE_CURVE('',#425,#455,#263,.T.);
#616=EDGE_CURVE('',#487,#485,#264,.T.);
#617=EDGE_CURVE('',#488,#487,#395,.T.);
#618=EDGE_CURVE('',#488,#484,#265,.T.);
#619=EDGE_CURVE('',#430,#488,#396,.T.);
#620=EDGE_CURVE('',#487,#450,#397,.T.);
#621=EDGE_CURVE('',#489,#490,#398,.T.);
#622=EDGE_CURVE('',#489,#488,#399,.T.);
#623=EDGE_CURVE('',#490,#487,#400,.T.);
#624=EDGE_CURVE('',#431,#489,#401,.T.);
#625=EDGE_CURVE('',#490,#449,#402,.T.);
#626=EDGE_CURVE('',#477,#490,#266,.T.);
#627=EDGE_CURVE('',#456,#489,#267,.T.);
#628=EDGE_CURVE('',#479,#418,#268,.T.);
#629=ORIENTED_EDGE('',*,*,#491,.F.);
#630=ORIENTED_EDGE('',*,*,#492,.T.);
#631=ORIENTED_EDGE('',*,*,#493,.F.);
#632=ORIENTED_EDGE('',*,*,#492,.F.);
#633=ORIENTED_EDGE('',*,*,#494,.F.);
#634=ORIENTED_EDGE('',*,*,#495,.T.);
#635=ORIENTED_EDGE('',*,*,#496,.T.);
#636=ORIENTED_EDGE('',*,*,#495,.F.);
#637=ORIENTED_EDGE('',*,*,#496,.F.);
#638=ORIENTED_EDGE('',*,*,#497,.F.);
#639=ORIENTED_EDGE('',*,*,#498,.T.);
#640=ORIENTED_EDGE('',*,*,#499,.T.);
#641=ORIENTED_EDGE('',*,*,#498,.F.);
#642=ORIENTED_EDGE('',*,*,#499,.F.);
#643=ORIENTED_EDGE('',*,*,#500,.F.);
#644=ORIENTED_EDGE('',*,*,#501,.T.);
#645=ORIENTED_EDGE('',*,*,#502,.T.);
#646=ORIENTED_EDGE('',*,*,#501,.F.);
#647=ORIENTED_EDGE('',*,*,#502,.F.);
#648=ORIENTED_EDGE('',*,*,#503,.F.);
#649=ORIENTED_EDGE('',*,*,#504,.T.);
#650=ORIENTED_EDGE('',*,*,#505,.T.);
#651=ORIENTED_EDGE('',*,*,#504,.F.);
#652=ORIENTED_EDGE('',*,*,#505,.F.);
#653=ORIENTED_EDGE('',*,*,#506,.F.);
#654=ORIENTED_EDGE('',*,*,#507,.F.);
#655=ORIENTED_EDGE('',*,*,#508,.F.);
#656=ORIENTED_EDGE('',*,*,#509,.F.);
#657=ORIENTED_EDGE('',*,*,#500,.T.);
#658=ORIENTED_EDGE('',*,*,#503,.T.);
#659=ORIENTED_EDGE('',*,*,#506,.T.);
#660=ORIENTED_EDGE('',*,*,#510,.T.);
#661=ORIENTED_EDGE('',*,*,#511,.F.);
#662=ORIENTED_EDGE('',*,*,#512,.F.);
#663=ORIENTED_EDGE('',*,*,#513,.F.);
#664=ORIENTED_EDGE('',*,*,#514,.T.);
#665=ORIENTED_EDGE('',*,*,#515,.T.);
#666=ORIENTED_EDGE('',*,*,#516,.T.);
#667=ORIENTED_EDGE('',*,*,#517,.F.);
#668=ORIENTED_EDGE('',*,*,#491,.T.);
#669=ORIENTED_EDGE('',*,*,#509,.T.);
#670=ORIENTED_EDGE('',*,*,#518,.T.);
#671=ORIENTED_EDGE('',*,*,#519,.T.);
#672=ORIENTED_EDGE('',*,*,#520,.T.);
#673=ORIENTED_EDGE('',*,*,#521,.T.);
#674=ORIENTED_EDGE('',*,*,#522,.T.);
#675=ORIENTED_EDGE('',*,*,#523,.T.);
#676=ORIENTED_EDGE('',*,*,#524,.F.);
#677=ORIENTED_EDGE('',*,*,#525,.F.);
#678=ORIENTED_EDGE('',*,*,#526,.F.);
#679=ORIENTED_EDGE('',*,*,#527,.F.);
#680=ORIENTED_EDGE('',*,*,#528,.F.);
#681=ORIENTED_EDGE('',*,*,#529,.F.);
#682=ORIENTED_EDGE('',*,*,#530,.T.);
#683=ORIENTED_EDGE('',*,*,#510,.F.);
#684=ORIENTED_EDGE('',*,*,#494,.T.);
#685=ORIENTED_EDGE('',*,*,#497,.T.);
#686=ORIENTED_EDGE('',*,*,#508,.T.);
#687=ORIENTED_EDGE('',*,*,#531,.F.);
#688=ORIENTED_EDGE('',*,*,#532,.T.);
#689=ORIENTED_EDGE('',*,*,#533,.T.);
#690=ORIENTED_EDGE('',*,*,#534,.T.);
#691=ORIENTED_EDGE('',*,*,#535,.F.);
#692=ORIENTED_EDGE('',*,*,#536,.T.);
#693=ORIENTED_EDGE('',*,*,#518,.F.);
#694=ORIENTED_EDGE('',*,*,#493,.T.);
#695=ORIENTED_EDGE('',*,*,#537,.F.);
#696=ORIENTED_EDGE('',*,*,#538,.T.);
#697=ORIENTED_EDGE('',*,*,#539,.T.);
#698=ORIENTED_EDGE('',*,*,#538,.F.);
#699=ORIENTED_EDGE('',*,*,#539,.F.);
#700=ORIENTED_EDGE('',*,*,#540,.F.);
#701=ORIENTED_EDGE('',*,*,#541,.T.);
#702=ORIENTED_EDGE('',*,*,#542,.T.);
#703=ORIENTED_EDGE('',*,*,#541,.F.);
#704=ORIENTED_EDGE('',*,*,#542,.F.);
#705=ORIENTED_EDGE('',*,*,#543,.F.);
#706=ORIENTED_EDGE('',*,*,#544,.T.);
#707=ORIENTED_EDGE('',*,*,#545,.F.);
#708=ORIENTED_EDGE('',*,*,#544,.F.);
#709=ORIENTED_EDGE('',*,*,#516,.F.);
#710=ORIENTED_EDGE('',*,*,#546,.T.);
#711=ORIENTED_EDGE('',*,*,#532,.F.);
#712=ORIENTED_EDGE('',*,*,#547,.F.);
#713=ORIENTED_EDGE('',*,*,#514,.F.);
#714=ORIENTED_EDGE('',*,*,#548,.F.);
#715=ORIENTED_EDGE('',*,*,#534,.F.);
#716=ORIENTED_EDGE('',*,*,#549,.T.);
#717=ORIENTED_EDGE('',*,*,#515,.F.);
#718=ORIENTED_EDGE('',*,*,#549,.F.);
#719=ORIENTED_EDGE('',*,*,#533,.F.);
#720=ORIENTED_EDGE('',*,*,#546,.F.);
#721=ORIENTED_EDGE('',*,*,#537,.T.);
#722=ORIENTED_EDGE('',*,*,#540,.T.);
#723=ORIENTED_EDGE('',*,*,#548,.T.);
#724=ORIENTED_EDGE('',*,*,#513,.T.);
#725=ORIENTED_EDGE('',*,*,#550,.F.);
#726=ORIENTED_EDGE('',*,*,#551,.F.);
#727=ORIENTED_EDGE('',*,*,#552,.T.);
#728=ORIENTED_EDGE('',*,*,#553,.T.);
#729=ORIENTED_EDGE('',*,*,#554,.T.);
#730=ORIENTED_EDGE('',*,*,#555,.T.);
#731=ORIENTED_EDGE('',*,*,#556,.T.);
#732=ORIENTED_EDGE('',*,*,#557,.T.);
#733=ORIENTED_EDGE('',*,*,#558,.F.);
#734=ORIENTED_EDGE('',*,*,#559,.T.);
#735=ORIENTED_EDGE('',*,*,#535,.T.);
#736=ORIENTED_EDGE('',*,*,#560,.T.);
#737=ORIENTED_EDGE('',*,*,#561,.T.);
#738=ORIENTED_EDGE('',*,*,#543,.T.);
#739=ORIENTED_EDGE('',*,*,#560,.F.);
#740=ORIENTED_EDGE('',*,*,#562,.F.);
#741=ORIENTED_EDGE('',*,*,#563,.F.);
#742=ORIENTED_EDGE('',*,*,#527,.T.);
#743=ORIENTED_EDGE('',*,*,#564,.T.);
#744=ORIENTED_EDGE('',*,*,#528,.T.);
#745=ORIENTED_EDGE('',*,*,#565,.F.);
#746=ORIENTED_EDGE('',*,*,#566,.F.);
#747=ORIENTED_EDGE('',*,*,#563,.T.);
#748=ORIENTED_EDGE('',*,*,#565,.T.);
#749=ORIENTED_EDGE('',*,*,#545,.T.);
#750=ORIENTED_EDGE('',*,*,#567,.F.);
#751=ORIENTED_EDGE('',*,*,#568,.F.);
#752=ORIENTED_EDGE('',*,*,#569,.F.);
#753=ORIENTED_EDGE('',*,*,#570,.F.);
#754=ORIENTED_EDGE('',*,*,#570,.T.);
#755=ORIENTED_EDGE('',*,*,#571,.T.);
#756=ORIENTED_EDGE('',*,*,#572,.T.);
#757=ORIENTED_EDGE('',*,*,#573,.T.);
#758=ORIENTED_EDGE('',*,*,#574,.F.);
#759=ORIENTED_EDGE('',*,*,#575,.F.);
#760=ORIENTED_EDGE('',*,*,#576,.F.);
#761=ORIENTED_EDGE('',*,*,#577,.F.);
#762=ORIENTED_EDGE('',*,*,#568,.T.);
#763=ORIENTED_EDGE('',*,*,#578,.T.);
#764=ORIENTED_EDGE('',*,*,#577,.T.);
#765=ORIENTED_EDGE('',*,*,#579,.T.);
#766=ORIENTED_EDGE('',*,*,#580,.F.);
#767=ORIENTED_EDGE('',*,*,#572,.F.);
#768=ORIENTED_EDGE('',*,*,#581,.F.);
#769=ORIENTED_EDGE('',*,*,#582,.F.);
#770=ORIENTED_EDGE('',*,*,#575,.T.);
#771=ORIENTED_EDGE('',*,*,#583,.T.);
#772=ORIENTED_EDGE('',*,*,#582,.T.);
#773=ORIENTED_EDGE('',*,*,#584,.T.);
#774=ORIENTED_EDGE('',*,*,#585,.F.);
#775=ORIENTED_EDGE('',*,*,#586,.F.);
#776=ORIENTED_EDGE('',*,*,#587,.F.);
#777=ORIENTED_EDGE('',*,*,#588,.F.);
#778=ORIENTED_EDGE('',*,*,#585,.T.);
#779=ORIENTED_EDGE('',*,*,#589,.F.);
#780=ORIENTED_EDGE('',*,*,#590,.T.);
#781=ORIENTED_EDGE('',*,*,#550,.T.);
#782=ORIENTED_EDGE('',*,*,#591,.F.);
#783=ORIENTED_EDGE('',*,*,#592,.T.);
#784=ORIENTED_EDGE('',*,*,#579,.F.);
#785=ORIENTED_EDGE('',*,*,#576,.T.);
#786=ORIENTED_EDGE('',*,*,#584,.F.);
#787=ORIENTED_EDGE('',*,*,#581,.T.);
#788=ORIENTED_EDGE('',*,*,#571,.F.);
#789=ORIENTED_EDGE('',*,*,#569,.T.);
#790=ORIENTED_EDGE('',*,*,#564,.F.);
#791=ORIENTED_EDGE('',*,*,#593,.F.);
#792=ORIENTED_EDGE('',*,*,#594,.T.);
#793=ORIENTED_EDGE('',*,*,#595,.T.);
#794=ORIENTED_EDGE('',*,*,#586,.T.);
#795=ORIENTED_EDGE('',*,*,#592,.F.);
#796=ORIENTED_EDGE('',*,*,#596,.T.);
#797=ORIENTED_EDGE('',*,*,#597,.T.);
#798=ORIENTED_EDGE('',*,*,#529,.T.);
#799=ORIENTED_EDGE('',*,*,#587,.T.);
#800=ORIENTED_EDGE('',*,*,#595,.F.);
#801=ORIENTED_EDGE('',*,*,#598,.T.);
#802=ORIENTED_EDGE('',*,*,#599,.F.);
#803=ORIENTED_EDGE('',*,*,#600,.F.);
#804=ORIENTED_EDGE('',*,*,#601,.F.);
#805=ORIENTED_EDGE('',*,*,#578,.F.);
#806=ORIENTED_EDGE('',*,*,#567,.T.);
#807=ORIENTED_EDGE('',*,*,#573,.F.);
#808=ORIENTED_EDGE('',*,*,#580,.T.);
#809=ORIENTED_EDGE('',*,*,#583,.F.);
#810=ORIENTED_EDGE('',*,*,#574,.T.);
#811=ORIENTED_EDGE('',*,*,#588,.T.);
#812=ORIENTED_EDGE('',*,*,#601,.T.);
#813=ORIENTED_EDGE('',*,*,#602,.T.);
#814=ORIENTED_EDGE('',*,*,#603,.T.);
#815=ORIENTED_EDGE('',*,*,#589,.T.);
#816=ORIENTED_EDGE('',*,*,#600,.T.);
#817=ORIENTED_EDGE('',*,*,#604,.F.);
#818=ORIENTED_EDGE('',*,*,#602,.F.);
#819=ORIENTED_EDGE('',*,*,#603,.F.);
#820=ORIENTED_EDGE('',*,*,#604,.T.);
#821=ORIENTED_EDGE('',*,*,#599,.T.);
#822=ORIENTED_EDGE('',*,*,#551,.T.);
#823=ORIENTED_EDGE('',*,*,#590,.F.);
#824=ORIENTED_EDGE('',*,*,#507,.T.);
#825=ORIENTED_EDGE('',*,*,#517,.T.);
#826=ORIENTED_EDGE('',*,*,#547,.T.);
#827=ORIENTED_EDGE('',*,*,#531,.T.);
#828=ORIENTED_EDGE('',*,*,#523,.F.);
#829=ORIENTED_EDGE('',*,*,#605,.F.);
#830=ORIENTED_EDGE('',*,*,#606,.F.);
#831=ORIENTED_EDGE('',*,*,#607,.F.);
#832=ORIENTED_EDGE('',*,*,#608,.F.);
#833=ORIENTED_EDGE('',*,*,#609,.F.);
#834=ORIENTED_EDGE('',*,*,#606,.T.);
#835=ORIENTED_EDGE('',*,*,#610,.F.);
#836=ORIENTED_EDGE('',*,*,#555,.F.);
#837=ORIENTED_EDGE('',*,*,#611,.F.);
#838=ORIENTED_EDGE('',*,*,#608,.T.);
#839=ORIENTED_EDGE('',*,*,#612,.F.);
#840=ORIENTED_EDGE('',*,*,#605,.T.);
#841=ORIENTED_EDGE('',*,*,#522,.F.);
#842=ORIENTED_EDGE('',*,*,#613,.T.);
#843=ORIENTED_EDGE('',*,*,#556,.F.);
#844=ORIENTED_EDGE('',*,*,#612,.T.);
#845=ORIENTED_EDGE('',*,*,#610,.T.);
#846=ORIENTED_EDGE('',*,*,#521,.F.);
#847=ORIENTED_EDGE('',*,*,#614,.F.);
#848=ORIENTED_EDGE('',*,*,#557,.F.);
#849=ORIENTED_EDGE('',*,*,#613,.F.);
#850=ORIENTED_EDGE('',*,*,#519,.F.);
#851=ORIENTED_EDGE('',*,*,#536,.F.);
#852=ORIENTED_EDGE('',*,*,#559,.F.);
#853=ORIENTED_EDGE('',*,*,#615,.F.);
#854=ORIENTED_EDGE('',*,*,#614,.T.);
#855=ORIENTED_EDGE('',*,*,#520,.F.);
#856=ORIENTED_EDGE('',*,*,#615,.T.);
#857=ORIENTED_EDGE('',*,*,#558,.T.);
#858=ORIENTED_EDGE('',*,*,#609,.T.);
#859=ORIENTED_EDGE('',*,*,#616,.F.);
#860=ORIENTED_EDGE('',*,*,#617,.F.);
#861=ORIENTED_EDGE('',*,*,#618,.T.);
#862=ORIENTED_EDGE('',*,*,#607,.T.);
#863=ORIENTED_EDGE('',*,*,#618,.F.);
#864=ORIENTED_EDGE('',*,*,#619,.F.);
#865=ORIENTED_EDGE('',*,*,#524,.T.);
#866=ORIENTED_EDGE('',*,*,#611,.T.);
#867=ORIENTED_EDGE('',*,*,#554,.F.);
#868=ORIENTED_EDGE('',*,*,#620,.F.);
#869=ORIENTED_EDGE('',*,*,#616,.T.);
#870=ORIENTED_EDGE('',*,*,#621,.F.);
#871=ORIENTED_EDGE('',*,*,#622,.T.);
#872=ORIENTED_EDGE('',*,*,#617,.T.);
#873=ORIENTED_EDGE('',*,*,#623,.F.);
#874=ORIENTED_EDGE('',*,*,#624,.F.);
#875=ORIENTED_EDGE('',*,*,#525,.T.);
#876=ORIENTED_EDGE('',*,*,#619,.T.);
#877=ORIENTED_EDGE('',*,*,#622,.F.);
#878=ORIENTED_EDGE('',*,*,#625,.F.);
#879=ORIENTED_EDGE('',*,*,#623,.T.);
#880=ORIENTED_EDGE('',*,*,#620,.T.);
#881=ORIENTED_EDGE('',*,*,#553,.F.);
#882=ORIENTED_EDGE('',*,*,#594,.F.);
#883=ORIENTED_EDGE('',*,*,#626,.T.);
#884=ORIENTED_EDGE('',*,*,#625,.T.);
#885=ORIENTED_EDGE('',*,*,#552,.F.);
#886=ORIENTED_EDGE('',*,*,#598,.F.);
#887=ORIENTED_EDGE('',*,*,#593,.T.);
#888=ORIENTED_EDGE('',*,*,#566,.T.);
#889=ORIENTED_EDGE('',*,*,#562,.T.);
#890=ORIENTED_EDGE('',*,*,#627,.T.);
#891=ORIENTED_EDGE('',*,*,#621,.T.);
#892=ORIENTED_EDGE('',*,*,#626,.F.);
#893=ORIENTED_EDGE('',*,*,#627,.F.);
#894=ORIENTED_EDGE('',*,*,#561,.F.);
#895=ORIENTED_EDGE('',*,*,#526,.T.);
#896=ORIENTED_EDGE('',*,*,#624,.T.);
#897=ORIENTED_EDGE('',*,*,#597,.F.);
#898=ORIENTED_EDGE('',*,*,#628,.T.);
#899=ORIENTED_EDGE('',*,*,#511,.T.);
#900=ORIENTED_EDGE('',*,*,#530,.F.);
#901=ORIENTED_EDGE('',*,*,#596,.F.);
#902=ORIENTED_EDGE('',*,*,#591,.T.);
#903=ORIENTED_EDGE('',*,*,#512,.T.);
#904=ORIENTED_EDGE('',*,*,#628,.F.);
#905=CYLINDRICAL_SURFACE('',#1002,1.45);
#906=CYLINDRICAL_SURFACE('',#1005,2.09999999999999);
#907=CYLINDRICAL_SURFACE('',#1009,2.10000000000001);
#908=CYLINDRICAL_SURFACE('',#1013,2.10000000000001);
#909=CYLINDRICAL_SURFACE('',#1017,2.10000000000001);
#910=CYLINDRICAL_SURFACE('',#1030,2.3);
#911=CYLINDRICAL_SURFACE('',#1034,2.3);
#912=CYLINDRICAL_SURFACE('',#1038,2.65649276105604);
#913=CYLINDRICAL_SURFACE('',#1051,17.803913967771);
#914=CYLINDRICAL_SURFACE('',#1053,45.5308548620226);
#915=CYLINDRICAL_SURFACE('',#1057,2.);
#916=CYLINDRICAL_SURFACE('',#1061,2.);
#917=CYLINDRICAL_SURFACE('',#1065,2.);
#918=CYLINDRICAL_SURFACE('',#1069,2.);
#919=CYLINDRICAL_SURFACE('',#1081,6.35);
#920=CYLINDRICAL_SURFACE('',#1097,1.);
#921=CYLINDRICAL_SURFACE('',#1098,2.99999999999999);
#922=CYLINDRICAL_SURFACE('',#1100,6.35000000000015);
#923=CYLINDRICAL_SURFACE('',#1102,45.5308548620226);
#924=CYLINDRICAL_SURFACE('',#1104,19.0500000000001);
#925=CYLINDRICAL_SURFACE('',#1113,19.0500000000001);
#926=CYLINDRICAL_SURFACE('',#1114,6.35);
#927=CYLINDRICAL_SURFACE('',#1115,45.5308548620226);
#928=CYLINDRICAL_SURFACE('',#1116,52.0308548620225);
#929=CYLINDRICAL_SURFACE('',#1117,12.85);
#930=ADVANCED_FACE('',(#64),#905,.F.);
#931=ADVANCED_FACE('',(#65),#906,.F.);
#932=ADVANCED_FACE('',(#66),#37,.T.);
#933=ADVANCED_FACE('',(#67),#907,.F.);
#934=ADVANCED_FACE('',(#68),#38,.T.);
#935=ADVANCED_FACE('',(#69),#908,.F.);
#936=ADVANCED_FACE('',(#70),#39,.T.);
#937=ADVANCED_FACE('',(#71),#909,.F.);
#938=ADVANCED_FACE('',(#72),#40,.T.);
#939=ADVANCED_FACE('',(#73,#25,#26),#41,.F.);
#940=ADVANCED_FACE('',(#74,#27),#42,.T.);
#941=ADVANCED_FACE('',(#75,#28,#29),#43,.F.);
#942=ADVANCED_FACE('',(#76,#30),#44,.F.);
#943=ADVANCED_FACE('',(#77),#910,.F.);
#944=ADVANCED_FACE('',(#78),#45,.T.);
#945=ADVANCED_FACE('',(#79),#911,.F.);
#946=ADVANCED_FACE('',(#80),#46,.T.);
#947=ADVANCED_FACE('',(#81),#912,.F.);
#948=ADVANCED_FACE('',(#82),#47,.F.);
#949=ADVANCED_FACE('',(#83),#48,.F.);
#950=ADVANCED_FACE('',(#84,#31,#32),#49,.F.);
#951=ADVANCED_FACE('',(#85),#50,.F.);
#952=ADVANCED_FACE('',(#86,#33),#51,.F.);
#953=ADVANCED_FACE('',(#87),#913,.T.);
#954=ADVANCED_FACE('',(#88),#914,.F.);
#955=ADVANCED_FACE('',(#89,#34),#52,.T.);
#956=ADVANCED_FACE('',(#90),#915,.F.);
#957=ADVANCED_FACE('',(#91),#53,.T.);
#958=ADVANCED_FACE('',(#92),#916,.F.);
#959=ADVANCED_FACE('',(#93),#54,.T.);
#960=ADVANCED_FACE('',(#94),#917,.F.);
#961=ADVANCED_FACE('',(#95),#55,.T.);
#962=ADVANCED_FACE('',(#96),#918,.T.);
#963=ADVANCED_FACE('',(#97,#35),#56,.F.);
#964=ADVANCED_FACE('',(#98),#57,.T.);
#965=ADVANCED_FACE('',(#99,#36),#58,.F.);
#966=ADVANCED_FACE('',(#100),#59,.T.);
#967=ADVANCED_FACE('',(#101),#919,.F.);
#968=ADVANCED_FACE('',(#102),#60,.F.);
#969=ADVANCED_FACE('',(#103),#61,.F.);
#970=ADVANCED_FACE('',(#104),#16,.T.);
#971=ADVANCED_FACE('',(#105),#17,.T.);
#972=ADVANCED_FACE('',(#106),#18,.T.);
#973=ADVANCED_FACE('',(#107),#62,.F.);
#974=ADVANCED_FACE('',(#108),#920,.T.);
#975=ADVANCED_FACE('',(#109),#921,.F.);
#976=ADVANCED_FACE('',(#110),#63,.F.);
#977=ADVANCED_FACE('',(#111),#922,.F.);
#978=ADVANCED_FACE('',(#112),#923,.F.);
#979=ADVANCED_FACE('',(#113),#924,.T.);
#980=ADVANCED_FACE('',(#114),#19,.F.);
#981=ADVANCED_FACE('',(#115),#20,.F.);
#982=ADVANCED_FACE('',(#116),#15,.F.);
#983=ADVANCED_FACE('',(#117),#925,.T.);
#984=ADVANCED_FACE('',(#118),#926,.F.);
#985=ADVANCED_FACE('',(#119),#927,.F.);
#986=ADVANCED_FACE('',(#120),#928,.T.);
#987=ADVANCED_FACE('',(#121),#929,.T.);
#988=CLOSED_SHELL('',(#930,#931,#932,#933,#934,#935,#936,#937,#938,#939,
#940,#941,#942,#943,#944,#945,#946,#947,#948,#949,#950,#951,#952,#953,#954,
#955,#956,#957,#958,#959,#960,#961,#962,#963,#964,#965,#966,#967,#968,#969,
#970,#971,#972,#973,#974,#975,#976,#977,#978,#979,#980,#981,#982,#983,#984,
#985,#986,#987));
#989=DERIVED_UNIT_ELEMENT(#991,1.);
#990=DERIVED_UNIT_ELEMENT(#1745,-3.);
#991=(
MASS_UNIT()
NAMED_UNIT(*)
SI_UNIT(.KILO.,.GRAM.)
);
#992=DERIVED_UNIT((#989,#990));
#993=MEASURE_REPRESENTATION_ITEM('density measure',
POSITIVE_RATIO_MEASURE(7850.),#992);
#994=PROPERTY_DEFINITION_REPRESENTATION(#999,#996);
#995=PROPERTY_DEFINITION_REPRESENTATION(#1000,#997);
#996=REPRESENTATION('material name',(#998),#1742);
#997=REPRESENTATION('density',(#993),#1742);
#998=DESCRIPTIVE_REPRESENTATION_ITEM('Steel','Steel');
#999=PROPERTY_DEFINITION('material property','material name',#1752);
#1000=PROPERTY_DEFINITION('material property','density of part',#1752);
#1001=AXIS2_PLACEMENT_3D('',#1429,#1118,#1119);
#1002=AXIS2_PLACEMENT_3D('',#1430,#1120,#1121);
#1003=AXIS2_PLACEMENT_3D('',#1432,#1122,#1123);
#1004=AXIS2_PLACEMENT_3D('',#1435,#1125,#1126);
#1005=AXIS2_PLACEMENT_3D('',#1436,#1127,#1128);
#1006=AXIS2_PLACEMENT_3D('',#1438,#1129,#1130);
#1007=AXIS2_PLACEMENT_3D('',#1441,#1132,#1133);
#1008=AXIS2_PLACEMENT_3D('',#1442,#1134,#1135);
#1009=AXIS2_PLACEMENT_3D('',#1443,#1136,#1137);
#1010=AXIS2_PLACEMENT_3D('',#1445,#1138,#1139);
#1011=AXIS2_PLACEMENT_3D('',#1448,#1141,#1142);
#1012=AXIS2_PLACEMENT_3D('',#1449,#1143,#1144);
#1013=AXIS2_PLACEMENT_3D('',#1450,#1145,#1146);
#1014=AXIS2_PLACEMENT_3D('',#1452,#1147,#1148);
#1015=AXIS2_PLACEMENT_3D('',#1455,#1150,#1151);
#1016=AXIS2_PLACEMENT_3D('',#1456,#1152,#1153);
#1017=AXIS2_PLACEMENT_3D('',#1457,#1154,#1155);
#1018=AXIS2_PLACEMENT_3D('',#1459,#1156,#1157);
#1019=AXIS2_PLACEMENT_3D('',#1462,#1159,#1160);
#1020=AXIS2_PLACEMENT_3D('',#1463,#1161,#1162);
#1021=AXIS2_PLACEMENT_3D('',#1464,#1163,#1164);
#1022=AXIS2_PLACEMENT_3D('',#1473,#1169,#1170);
#1023=AXIS2_PLACEMENT_3D('',#1477,#1172,#1173);
#1024=AXIS2_PLACEMENT_3D('',#1479,#1174,#1175);
#1025=AXIS2_PLACEMENT_3D('',#1489,#1181,#1182);
#1026=AXIS2_PLACEMENT_3D('',#1493,#1184,#1185);
#1027=AXIS2_PLACEMENT_3D('',#1497,#1187,#1188);
#1028=AXIS2_PLACEMENT_3D('',#1514,#1191,#1192);
#1029=AXIS2_PLACEMENT_3D('',#1524,#1198,#1199);
#1030=AXIS2_PLACEMENT_3D('',#1536,#1206,#1207);
#1031=AXIS2_PLACEMENT_3D('',#1538,#1208,#1209);
#1032=AXIS2_PLACEMENT_3D('',#1541,#1211,#1212);
#1033=AXIS2_PLACEMENT_3D('',#1542,#1213,#1214);
#1034=AXIS2_PLACEMENT_3D('',#1543,#1215,#1216);
#1035=AXIS2_PLACEMENT_3D('',#1545,#1217,#1218);
#1036=AXIS2_PLACEMENT_3D('',#1548,#1220,#1221);
#1037=AXIS2_PLACEMENT_3D('',#1549,#1222,#1223);
#1038=AXIS2_PLACEMENT_3D('',#1550,#1224,#1225);
#1039=AXIS2_PLACEMENT_3D('',#1552,#1226,#1227);
#1040=AXIS2_PLACEMENT_3D('',#1555,#1229,#1230);
#1041=AXIS2_PLACEMENT_3D('',#1556,#1231,#1232);
#1042=AXIS2_PLACEMENT_3D('',#1559,#1235,#1236);
#1043=AXIS2_PLACEMENT_3D('',#1562,#1239,#1240);
#1044=AXIS2_PLACEMENT_3D('',#1563,#1241,#1242);
#1045=AXIS2_PLACEMENT_3D('',#1571,#1246,#1247);
#1046=AXIS2_PLACEMENT_3D('',#1588,#1250,#1251);
#1047=AXIS2_PLACEMENT_3D('',#1591,#1253,#1254);
#1048=AXIS2_PLACEMENT_3D('',#1592,#1255,#1256);
#1049=AXIS2_PLACEMENT_3D('',#1594,#1257,#1258);
#1050=AXIS2_PLACEMENT_3D('',#1595,#1259,#1260);
#1051=AXIS2_PLACEMENT_3D('',#1596,#1261,#1262);
#1052=AXIS2_PLACEMENT_3D('',#1599,#1264,#1265);
#1053=AXIS2_PLACEMENT_3D('',#1600,#1266,#1267);
#1054=AXIS2_PLACEMENT_3D('',#1602,#1268,#1269);
#1055=AXIS2_PLACEMENT_3D('',#1603,#1270,#1271);
#1056=AXIS2_PLACEMENT_3D('',#1605,#1273,#1274);
#1057=AXIS2_PLACEMENT_3D('',#1606,#1275,#1276);
#1058=AXIS2_PLACEMENT_3D('',#1609,#1277,#1278);
#1059=AXIS2_PLACEMENT_3D('',#1613,#1280,#1281);
#1060=AXIS2_PLACEMENT_3D('',#1615,#1283,#1284);
#1061=AXIS2_PLACEMENT_3D('',#1621,#1288,#1289);
#1062=AXIS2_PLACEMENT_3D('',#1624,#1290,#1291);
#1063=AXIS2_PLACEMENT_3D('',#1628,#1293,#1294);
#1064=AXIS2_PLACEMENT_3D('',#1630,#1296,#1297);
#1065=AXIS2_PLACEMENT_3D('',#1633,#1300,#1301);
#1066=AXIS2_PLACEMENT_3D('',#1635,#1302,#1303);
#1067=AXIS2_PLACEMENT_3D('',#1637,#1304,#1305);
#1068=AXIS2_PLACEMENT_3D('',#1639,#1307,#1308);
#1069=AXIS2_PLACEMENT_3D('',#1642,#1311,#1312);
#1070=AXIS2_PLACEMENT_3D('',#1645,#1313,#1314);
#1071=AXIS2_PLACEMENT_3D('',#1649,#1316,#1317);
#1072=AXIS2_PLACEMENT_3D('',#1651,#1319,#1320);
#1073=AXIS2_PLACEMENT_3D('',#1658,#1325,#1326);
#1074=AXIS2_PLACEMENT_3D('',#1660,#1327,#1328);
#1075=AXIS2_PLACEMENT_3D('',#1662,#1329,#1330);
#1076=AXIS2_PLACEMENT_3D('',#1665,#1332,#1333);
#1077=AXIS2_PLACEMENT_3D('',#1666,#1334,#1335);
#1078=AXIS2_PLACEMENT_3D('',#1667,#1336,#1337);
#1079=AXIS2_PLACEMENT_3D('',#1672,#1340,#1341);
#1080=AXIS2_PLACEMENT_3D('',#1674,#1343,#1344);
#1081=AXIS2_PLACEMENT_3D('',#1678,#1347,#1348);
#1082=AXIS2_PLACEMENT_3D('',#1679,#1349,#1350);
#1083=AXIS2_PLACEMENT_3D('',#1680,#1351,#1352);
#1084=AXIS2_PLACEMENT_3D('',#1681,#1353,#1354);
#1085=AXIS2_PLACEMENT_3D('',#1682,#1355,#1356);
#1086=AXIS2_PLACEMENT_3D('',#1684,#1357,#1358);
#1087=AXIS2_PLACEMENT_3D('',#1686,#1359,#1360);
#1088=AXIS2_PLACEMENT_3D('',#1687,#1361,#1362);
#1089=AXIS2_PLACEMENT_3D('',#1688,#1363,#1364);
#1090=AXIS2_PLACEMENT_3D('',#1691,#1365,#1366);
#1091=AXIS2_PLACEMENT_3D('',#1692,#1367,#1368);
#1092=AXIS2_PLACEMENT_3D('',#1693,#1369,#1370);
#1093=AXIS2_PLACEMENT_3D('',#1694,#1371,#1372);
#1094=AXIS2_PLACEMENT_3D('',#1695,#1373,#1374);
#1095=AXIS2_PLACEMENT_3D('',#1696,#1375,#1376);
#1096=AXIS2_PLACEMENT_3D('',#1697,#1377,#1378);
#1097=AXIS2_PLACEMENT_3D('',#1699,#1380,#1381);
#1098=AXIS2_PLACEMENT_3D('',#1701,#1383,#1384);
#1099=AXIS2_PLACEMENT_3D('',#1703,#1386,#1387);
#1100=AXIS2_PLACEMENT_3D('',#1704,#1388,#1389);
#1101=AXIS2_PLACEMENT_3D('',#1708,#1391,#1392);
#1102=AXIS2_PLACEMENT_3D('',#1710,#1394,#1395);
#1103=AXIS2_PLACEMENT_3D('',#1711,#1396,#1397);
#1104=AXIS2_PLACEMENT_3D('',#1712,#1398,#1399);
#1105=AXIS2_PLACEMENT_3D('',#1713,#1400,#1401);
#1106=AXIS2_PLACEMENT_3D('',#1714,#1402,#1403);
#1107=AXIS2_PLACEMENT_3D('',#1717,#1404,#1405);
#1108=AXIS2_PLACEMENT_3D('',#1718,#1406,#1407);
#1109=AXIS2_PLACEMENT_3D('',#1719,#1408,#1409);
#1110=AXIS2_PLACEMENT_3D('',#1720,#1410,#1411);
#1111=AXIS2_PLACEMENT_3D('',#1721,#1412,#1413);
#1112=AXIS2_PLACEMENT_3D('',#1731,#1414,#1415);
#1113=AXIS2_PLACEMENT_3D('',#1732,#1416,#1417);
#1114=AXIS2_PLACEMENT_3D('',#1734,#1419,#1420);
#1115=AXIS2_PLACEMENT_3D('',#1736,#1422,#1423);
#1116=AXIS2_PLACEMENT_3D('',#1737,#1424,#1425);
#1117=AXIS2_PLACEMENT_3D('',#1739,#1427,#1428);
#1118=DIRECTION('axis',(0.,0.,1.));
#1119=DIRECTION('refdir',(1.,0.,0.));
#1120=DIRECTION('center_axis',(-1.,0.,0.));
#1121=DIRECTION('ref_axis',(0.,-1.,0.));
#1122=DIRECTION('center_axis',(-1.,0.,0.));
#1123=DIRECTION('ref_axis',(0.,-1.,0.));
#1124=DIRECTION('',(-1.,0.,0.));
#1125=DIRECTION('center_axis',(1.,0.,0.));
#1126=DIRECTION('ref_axis',(0.,-1.,0.));
#1127=DIRECTION('center_axis',(0.,0.,-1.));
#1128=DIRECTION('ref_axis',(-1.,0.,0.));
#1129=DIRECTION('center_axis',(0.,-2.0044314507011E-14,-1.));
#1130=DIRECTION('ref_axis',(-1.,0.,0.));
#1131=DIRECTION('',(0.,0.,-1.));
#1132=DIRECTION('center_axis',(0.,0.,-1.));
#1133=DIRECTION('ref_axis',(-1.,0.,0.));
#1134=DIRECTION('center_axis',(0.,0.,1.));
#1135=DIRECTION('ref_axis',(-1.,0.,0.));
#1136=DIRECTION('center_axis',(0.,0.,-1.));
#1137=DIRECTION('ref_axis',(-1.,0.,0.));
#1138=DIRECTION('center_axis',(0.,-2.0044314507011E-14,-1.));
#1139=DIRECTION('ref_axis',(-1.,0.,0.));
#1140=DIRECTION('',(0.,0.,-1.));
#1141=DIRECTION('center_axis',(0.,0.,-1.));
#1142=DIRECTION('ref_axis',(-1.,0.,0.));
#1143=DIRECTION('center_axis',(0.,0.,1.));
#1144=DIRECTION('ref_axis',(-1.,0.,0.));
#1145=DIRECTION('center_axis',(0.,-1.,0.));
#1146=DIRECTION('ref_axis',(1.,0.,0.));
#1147=DIRECTION('center_axis',(0.,-1.,3.7720660981496E-14));
#1148=DIRECTION('ref_axis',(1.,0.,0.));
#1149=DIRECTION('',(0.,-1.,0.));
#1150=DIRECTION('center_axis',(0.,-1.,0.));
#1151=DIRECTION('ref_axis',(1.,0.,0.));
#1152=DIRECTION('center_axis',(0.,1.,0.));
#1153=DIRECTION('ref_axis',(1.,0.,0.));
#1154=DIRECTION('center_axis',(0.,-1.,0.));
#1155=DIRECTION('ref_axis',(1.,0.,0.));
#1156=DIRECTION('center_axis',(0.,-1.,3.7720660981496E-14));
#1157=DIRECTION('ref_axis',(1.,0.,0.));
#1158=DIRECTION('',(0.,-1.,0.));
#1159=DIRECTION('center_axis',(0.,-1.,0.));
#1160=DIRECTION('ref_axis',(1.,0.,0.));
#1161=DIRECTION('center_axis',(0.,1.,0.));
#1162=DIRECTION('ref_axis',(1.,0.,0.));
#1163=DIRECTION('center_axis',(0.,-1.,3.7720660981496E-14));
#1164=DIRECTION('ref_axis',(0.,3.7720660981496E-14,1.));
#1165=DIRECTION('',(0.,3.7720660981496E-14,1.));
#1166=DIRECTION('',(1.,0.,0.));
#1167=DIRECTION('',(0.,-3.7720660981496E-14,-1.));
#1168=DIRECTION('',(-1.,0.,0.));
#1169=DIRECTION('center_axis',(1.,0.,0.));
#1170=DIRECTION('ref_axis',(0.,-1.,0.));
#1171=DIRECTION('',(0.,-1.,3.76715823129133E-14));
#1172=DIRECTION('center_axis',(1.,0.,0.));
#1173=DIRECTION('ref_axis',(0.,0.942285458614975,-0.334810565070408));
#1174=DIRECTION('center_axis',(1.,0.,0.));
#1175=DIRECTION('ref_axis',(0.,0.713279811396852,-0.700879383812701));
#1176=DIRECTION('',(0.,-1.,-5.44406501227092E-17));
#1177=DIRECTION('',(0.,0.,1.));
#1178=DIRECTION('',(0.,1.,0.));
#1179=DIRECTION('',(0.,0.,-1.));
#1180=DIRECTION('',(0.,-1.,-5.44406501227092E-17));
#1181=DIRECTION('center_axis',(0.,-2.0044314507011E-14,-1.));
#1182=DIRECTION('ref_axis',(0.,-1.,2.0044314507011E-14));
#1183=DIRECTION('',(0.,-1.,3.76715823129133E-14));
#1184=DIRECTION('center_axis',(0.,-2.0044314507011E-14,-1.));
#1185=DIRECTION('ref_axis',(0.382683432365095,-0.923879532511285,1.85185319162465E-14));
#1186=DIRECTION('',(-0.707106781186548,0.707106781186548,-2.66919761300956E-14));
#1187=DIRECTION('center_axis',(0.,2.0044314507011E-14,1.));
#1188=DIRECTION('ref_axis',(0.,1.,-2.0044314507011E-14));
#1189=DIRECTION('',(-0.707106781186547,-0.707106781186547,2.6594928017331E-14));
#1190=DIRECTION('',(-0.707106781186548,0.707106781186548,-2.66919761300956E-14));
#1191=DIRECTION('center_axis',(-6.34867852567754E-15,-5.69278943053426E-14,
-1.));
#1192=DIRECTION('ref_axis',(6.092300283142E-15,-1.,5.69278943053426E-14));
#1193=DIRECTION('',(-1.,0.,0.));
#1194=DIRECTION('',(-1.,0.,0.));
#1195=DIRECTION('',(-1.,0.,0.));
#1196=DIRECTION('',(0.,-1.,2.0044314507011E-14));
#1197=DIRECTION('',(-1.,0.,0.));
#1198=DIRECTION('center_axis',(1.,0.,0.));
#1199=DIRECTION('ref_axis',(0.,-1.,0.));
#1200=DIRECTION('',(0.,1.,5.44406501227092E-17));
#1201=DIRECTION('',(0.,0.,1.));
#1202=DIRECTION('',(0.,-1.,0.));
#1203=DIRECTION('',(0.,0.,-1.));
#1204=DIRECTION('',(0.,1.,5.44406501227092E-17));
#1205=DIRECTION('',(0.,3.77204984119828E-14,1.));
#1206=DIRECTION('center_axis',(0.,0.,1.));
#1207=DIRECTION('ref_axis',(1.,0.,0.));
#1208=DIRECTION('center_axis',(0.,0.,1.));
#1209=DIRECTION('ref_axis',(1.,0.,0.));
#1210=DIRECTION('',(0.,0.,1.));
#1211=DIRECTION('center_axis',(0.,0.,1.));
#1212=DIRECTION('ref_axis',(1.,0.,0.));
#1213=DIRECTION('center_axis',(0.,0.,-1.));
#1214=DIRECTION('ref_axis',(1.,0.,0.));
#1215=DIRECTION('center_axis',(0.,0.,1.));
#1216=DIRECTION('ref_axis',(1.,0.,0.));
#1217=DIRECTION('center_axis',(0.,0.,1.));
#1218=DIRECTION('ref_axis',(1.,0.,0.));
#1219=DIRECTION('',(0.,0.,1.));
#1220=DIRECTION('center_axis',(0.,0.,1.));
#1221=DIRECTION('ref_axis',(1.,0.,0.));
#1222=DIRECTION('center_axis',(0.,0.,-1.));
#1223=DIRECTION('ref_axis',(1.,0.,0.));
#1224=DIRECTION('center_axis',(1.,0.,0.));
#1225=DIRECTION('ref_axis',(0.,1.,0.));
#1226=DIRECTION('center_axis',(1.,0.,0.));
#1227=DIRECTION('ref_axis',(0.,1.,0.));
#1228=DIRECTION('',(1.,0.,0.));
#1229=DIRECTION('center_axis',(-1.,0.,0.));
#1230=DIRECTION('ref_axis',(0.,1.,0.));
#1231=DIRECTION('center_axis',(-0.342020143325669,0.939692620785908,0.));
#1232=DIRECTION('ref_axis',(-0.939692620785908,-0.342020143325669,0.));
#1233=DIRECTION('',(-0.939692620785908,-0.342020143325669,0.));
#1234=DIRECTION('',(-0.939692620785908,-0.342020143325669,-9.8871427440911E-18));
#1235=DIRECTION('center_axis',(0.342020143325669,-0.939692620785908,0.));
#1236=DIRECTION('ref_axis',(0.939692620785908,0.342020143325669,0.));
#1237=DIRECTION('',(0.939692620785909,0.342020143325668,9.8871427440911E-18));
#1238=DIRECTION('',(0.939692620785908,0.342020143325669,0.));
#1239=DIRECTION('center_axis',(0.,0.,1.));
#1240=DIRECTION('ref_axis',(1.,0.,0.));
#1241=DIRECTION('center_axis',(0.,-2.89080714602141E-17,1.));
#1242=DIRECTION('ref_axis',(0.,1.,2.89080714602141E-17));
#1243=DIRECTION('',(1.,0.,0.));
#1244=DIRECTION('',(0.,1.,2.89080714602141E-17));
#1245=DIRECTION('',(-1.,0.,0.));
#1246=DIRECTION('center_axis',(4.66503266167324E-16,-3.6584791604409E-14,
-1.));
#1247=DIRECTION('ref_axis',(-8.62072585021432E-15,-1.,3.6584791604409E-14));
#1248=DIRECTION('',(-0.707106781186548,0.707106781186548,-2.66919761300956E-14));
#1249=DIRECTION('',(0.707106781186547,0.707106781186547,1.10358238079902E-14));
#1250=DIRECTION('center_axis',(0.,2.89080714602141E-17,-1.));
#1251=DIRECTION('ref_axis',(0.,1.,2.89080714602141E-17));
#1252=DIRECTION('',(-0.707106781186548,0.707106781186548,-2.66919761300956E-14));
#1253=DIRECTION('center_axis',(0.,-2.89080714602141E-17,1.));
#1254=DIRECTION('ref_axis',(0.382683432365095,-0.923879532511285,-2.67075755464654E-17));
#1255=DIRECTION('center_axis',(1.,0.,0.));
#1256=DIRECTION('ref_axis',(0.,-1.,0.));
#1257=DIRECTION('center_axis',(-1.,0.,0.));
#1258=DIRECTION('ref_axis',(0.,-0.456581823797934,0.889681425105275));
#1259=DIRECTION('center_axis',(-1.,0.,0.));
#1260=DIRECTION('ref_axis',(0.,0.942285458614975,-0.334810565070408));
#1261=DIRECTION('center_axis',(1.,0.,0.));
#1262=DIRECTION('ref_axis',(0.,-0.456581823797934,0.889681425105275));
#1263=DIRECTION('',(-1.,0.,0.));
#1264=DIRECTION('center_axis',(1.,0.,0.));
#1265=DIRECTION('ref_axis',(0.,-0.456581823797934,0.889681425105275));
#1266=DIRECTION('center_axis',(1.,0.,0.));
#1267=DIRECTION('ref_axis',(0.,0.942285458614975,-0.334810565070408));
#1268=DIRECTION('center_axis',(1.,0.,0.));
#1269=DIRECTION('ref_axis',(0.,0.942285458614975,-0.334810565070408));
#1270=DIRECTION('center_axis',(1.,0.,0.));
#1271=DIRECTION('ref_axis',(0.,0.942285458614975,-0.334810565070408));
#1272=DIRECTION('',(-1.,0.,0.));
#1273=DIRECTION('center_axis',(1.,0.,0.));
#1274=DIRECTION('ref_axis',(0.,-1.,0.));
#1275=DIRECTION('center_axis',(4.63693926051068E-16,-0.939692620785909,
0.342020143325667));
#1276=DIRECTION('ref_axis',(-0.936119501418396,0.120282352329131,0.330473046983175));
#1277=DIRECTION('center_axis',(0.,0.939692620785909,-0.342020143325667));
#1278=DIRECTION('ref_axis',(-0.936119501418396,0.120282352329131,0.330473046983175));
#1279=DIRECTION('',(4.63693926051068E-16,-0.939692620785909,0.342020143325667));
#1280=DIRECTION('center_axis',(0.,-0.939692620785909,0.342020143325668));
#1281=DIRECTION('ref_axis',(-0.936119501418396,0.120282352329132,0.330473046983175));
#1282=DIRECTION('',(-4.63693926051068E-16,0.939692620785909,-0.342020143325667));
#1283=DIRECTION('center_axis',(2.46519032881566E-32,-0.342020143325667,
-0.939692620785909));
#1284=DIRECTION('ref_axis',(-1.,-2.33633432291439E-16,8.50356150835315E-17));
#1285=DIRECTION('',(1.,8.43144749586583E-33,2.31652116082087E-32));
#1286=DIRECTION('',(3.49676543189026E-16,-0.939692620785909,0.342020143325667));
#1287=DIRECTION('',(-1.,-8.43144749586581E-33,-2.31652116082087E-32));
#1288=DIRECTION('center_axis',(3.49676543189026E-16,-0.939692620785909,
0.342020143325667));
#1289=DIRECTION('ref_axis',(0.413259670226774,-0.311448065619668,-0.855696527622863));
#1290=DIRECTION('center_axis',(0.,0.939692620785909,-0.342020143325667));
#1291=DIRECTION('ref_axis',(0.413259670226774,-0.311448065619668,-0.855696527622863));
#1292=DIRECTION('',(3.49676543189026E-16,-0.939692620785909,0.342020143325667));
#1293=DIRECTION('center_axis',(0.,-0.939692620785909,0.342020143325668));
#1294=DIRECTION('ref_axis',(0.413259670226774,-0.311448065619668,-0.855696527622863));
#1295=DIRECTION('',(-3.49676543189026E-16,0.939692620785909,-0.342020143325667));
#1296=DIRECTION('center_axis',(0.658432889928115,0.257417849781502,0.707249729639241));
#1297=DIRECTION('ref_axis',(0.752639441871678,-0.225197311383547,-0.61872452794819));
#1298=DIRECTION('',(0.752639441871678,-0.225197311383547,-0.61872452794819));
#1299=DIRECTION('',(-0.752639441871678,0.225197311383547,0.61872452794819));
#1300=DIRECTION('center_axis',(3.49676543189026E-16,-0.939692620785909,
0.342020143325667));
#1301=DIRECTION('ref_axis',(0.707106781186549,0.241844762647974,0.664463024388674));
#1302=DIRECTION('center_axis',(0.,0.939692620785909,-0.342020143325667));
#1303=DIRECTION('ref_axis',(0.707106781186549,0.241844762647974,0.664463024388674));
#1304=DIRECTION('center_axis',(0.,-0.939692620785909,0.342020143325668));
#1305=DIRECTION('ref_axis',(0.707106781186549,0.241844762647974,0.664463024388673));
#1306=DIRECTION('',(-3.49676543189026E-16,0.939692620785909,-0.342020143325667));
#1307=DIRECTION('center_axis',(-1.,-1.9563912567767E-16,4.8487173544865E-16));
#1308=DIRECTION('ref_axis',(3.88717870024369E-16,0.342020143325667,0.939692620785909));
#1309=DIRECTION('',(3.88717870024369E-16,0.342020143325667,0.939692620785909));
#1310=DIRECTION('',(-3.88717870024369E-16,-0.342020143325668,-0.939692620785909));
#1311=DIRECTION('center_axis',(0.,0.939692620785909,-0.342020143325668));
#1312=DIRECTION('ref_axis',(1.,0.,0.));
#1313=DIRECTION('center_axis',(0.,0.939692620785909,-0.342020143325668));
#1314=DIRECTION('ref_axis',(1.,0.,0.));
#1315=DIRECTION('',(0.,0.939692620785909,-0.342020143325667));
#1316=DIRECTION('center_axis',(0.,-0.939692620785909,0.342020143325667));
#1317=DIRECTION('ref_axis',(1.,0.,0.));
#1318=DIRECTION('',(0.,-0.939692620785909,0.342020143325667));
#1319=DIRECTION('center_axis',(0.,-0.939692620785909,0.342020143325668));
#1320=DIRECTION('ref_axis',(0.,0.342020143325668,0.939692620785909));
#1321=DIRECTION('',(0.752639441871677,-0.225197311383548,-0.618724527948191));
#1322=DIRECTION('',(0.,0.342020143325668,0.939692620785909));
#1323=DIRECTION('',(-1.,0.,0.));
#1324=DIRECTION('',(0.,-0.342020143325668,-0.939692620785909));
#1325=DIRECTION('center_axis',(1.,0.,0.));
#1326=DIRECTION('ref_axis',(0.,-1.,0.));
#1327=DIRECTION('center_axis',(1.,0.,0.));
#1328=DIRECTION('ref_axis',(0.,0.713279811396852,-0.700879383812701));
#1329=DIRECTION('center_axis',(1.,0.,0.));
#1330=DIRECTION('ref_axis',(0.,-0.713279811396847,0.700879383812706));
#1331=DIRECTION('',(0.,-0.342020143325667,-0.939692620785909));
#1332=DIRECTION('center_axis',(1.,0.,0.));
#1333=DIRECTION('ref_axis',(0.,0.713279811396852,-0.700879383812701));
#1334=DIRECTION('center_axis',(1.,0.,0.));
#1335=DIRECTION('ref_axis',(0.,0.942285458614975,-0.334810565070408));
#1336=DIRECTION('center_axis',(0.,0.939692620785909,-0.342020143325667));
#1337=DIRECTION('ref_axis',(0.,-0.342020143325667,-0.939692620785909));
#1338=DIRECTION('',(-1.,0.,0.));
#1339=DIRECTION('',(0.,0.342020143325667,0.939692620785909));
#1340=DIRECTION('center_axis',(0.,0.939692620785909,-0.342020143325667));
#1341=DIRECTION('ref_axis',(-0.752639441871678,0.225197311383547,0.61872452794819));
#1342=DIRECTION('',(-0.752639441871677,0.225197311383547,0.618724527948191));
#1343=DIRECTION('center_axis',(-0.658432889928116,-0.257417849781502,-0.70724972963924));
#1344=DIRECTION('ref_axis',(-0.752639441871677,0.225197311383547,0.618724527948191));
#1345=DIRECTION('',(-0.364117439092463,0.931353042915922,2.69236203193013E-17));
#1346=DIRECTION('',(0.,0.939692620785909,-0.342020143325667));
#1347=DIRECTION('center_axis',(-0.364117439092463,0.931353042915922,2.69236203193013E-17));
#1348=DIRECTION('ref_axis',(9.80335968176178E-18,-2.50753957106942E-17,
1.));
#1349=DIRECTION('center_axis',(1.,0.,0.));
#1350=DIRECTION('ref_axis',(0.,1.,2.50753957106942E-17));
#1351=DIRECTION('center_axis',(1.,0.,0.));
#1352=DIRECTION('ref_axis',(0.,0.,-1.));
#1353=DIRECTION('center_axis',(0.,-2.89080714602141E-17,1.));
#1354=DIRECTION('ref_axis',(0.,1.,2.89080714602141E-17));
#1355=DIRECTION('center_axis',(0.707106781186548,-0.707106781186548,2.66724202168494E-14));
#1356=DIRECTION('ref_axis',(-3.76716913531914E-14,0.,1.));
#1357=DIRECTION('center_axis',(0.707106781186548,-0.707106781186548,2.66724202168494E-14));
#1358=DIRECTION('ref_axis',(0.707003086376204,0.707003086376204,0.0171251776354086));
#1359=DIRECTION('center_axis',(-0.236746820974168,-0.236746820974203,-0.942285458614975));
#1360=DIRECTION('ref_axis',(-0.666296437600134,-0.666296437600116,0.334810565070408));
#1361=DIRECTION('center_axis',(-0.707106781186548,0.707106781186548,-2.66724202168494E-14));
#1362=DIRECTION('ref_axis',(0.707003086376203,0.707003086376204,0.0171251776354086));
#1363=DIRECTION('center_axis',(0.707106781186548,-0.707106781186548,2.66724202168494E-14));
#1364=DIRECTION('ref_axis',(-3.74417729023279E-14,0.,1.));
#1365=DIRECTION('center_axis',(-0.495596565087783,-0.495596565087809,-0.713279811396871));
#1366=DIRECTION('ref_axis',(-0.504364991522207,-0.504364991522171,0.700879383812681));
#1367=DIRECTION('center_axis',(-0.707106781186548,0.707106781186548,-2.66724202168494E-14));
#1368=DIRECTION('ref_axis',(0.59946880061902,0.599468800619,-0.530353009012687));
#1369=DIRECTION('center_axis',(0.707106781186548,-0.707106781186548,2.66724202168494E-14));
#1370=DIRECTION('ref_axis',(0.59946880061902,0.599468800619,-0.530353009012687));
#1371=DIRECTION('center_axis',(-0.707106781186548,0.707106781186548,-2.66724202168494E-14));
#1372=DIRECTION('ref_axis',(3.80448078989659E-14,0.,-1.));
#1373=DIRECTION('center_axis',(0.707106781186548,-0.707106781186548,2.66724202168494E-14));
#1374=DIRECTION('ref_axis',(-0.533238267084452,-0.533238267084427,0.656744928441452));
#1375=DIRECTION('center_axis',(-0.707106781186548,0.707106781186548,-2.66724202168494E-14));
#1376=DIRECTION('ref_axis',(-0.533238267084452,-0.533238267084427,0.656744928441452));
#1377=DIRECTION('center_axis',(0.707106781186548,-0.707106781186548,2.66724202168494E-14));
#1378=DIRECTION('ref_axis',(-0.707106781186548,-0.707106781186548,-1.10766542955822E-14));
#1379=DIRECTION('',(-1.30702754307384E-30,-3.77204984119828E-14,-1.));
#1380=DIRECTION('center_axis',(3.15544362088405E-30,-3.77204984119828E-14,
-1.));
#1381=DIRECTION('ref_axis',(1.20788499812831E-46,1.,-3.77204984119828E-14));
#1382=DIRECTION('',(-5.38667920286299E-30,3.77204984119828E-14,1.));
#1383=DIRECTION('center_axis',(0.,3.77204984119828E-14,1.));
#1384=DIRECTION('ref_axis',(0.382683432365095,-0.923879532511285,3.48491964389553E-14));
#1385=DIRECTION('',(0.,-3.77204984119828E-14,-1.));
#1386=DIRECTION('center_axis',(-0.707106781186548,-0.707106781186548,2.66724202168494E-14));
#1387=DIRECTION('ref_axis',(-3.78653234506086E-29,3.77204984119828E-14,
1.));
#1388=DIRECTION('center_axis',(0.707106781186548,-0.707106781186548,2.66919761300956E-14));
#1389=DIRECTION('ref_axis',(0.504364991522198,0.504364991522172,-0.700879383812688));
#1390=DIRECTION('',(-0.707106781186548,0.707106781186548,-2.66919761300956E-14));
#1391=DIRECTION('center_axis',(-0.707106781186548,0.707106781186548,-2.66724202168494E-14));
#1392=DIRECTION('ref_axis',(0.504364991522198,0.504364991522172,-0.700879383812688));
#1393=DIRECTION('',(-0.707106781186548,0.707106781186548,-2.66919761300956E-14));
#1394=DIRECTION('center_axis',(0.707106781186548,-0.707106781186548,2.66919761300956E-14));
#1395=DIRECTION('ref_axis',(0.666296437600134,0.666296437600121,-0.334810565070397));
#1396=DIRECTION('center_axis',(-0.707106781186548,0.707106781186548,-2.66724202168494E-14));
#1397=DIRECTION('ref_axis',(0.666296437600134,0.666296437600121,-0.334810565070397));
#1398=DIRECTION('center_axis',(0.707106781186548,-0.707106781186548,2.66919761300956E-14));
#1399=DIRECTION('ref_axis',(-0.504364991522191,-0.504364991522165,0.700879383812698));
#1400=DIRECTION('center_axis',(0.707106781186548,-0.707106781186548,2.66724202168494E-14));
#1401=DIRECTION('ref_axis',(-0.504364991522191,-0.504364991522165,0.700879383812698));
#1402=DIRECTION('center_axis',(0.,3.75008666095611E-14,1.));
#1403=DIRECTION('ref_axis',(-1.,0.,0.));
#1404=DIRECTION('center_axis',(-1.,0.,0.));
#1405=DIRECTION('ref_axis',(0.,0.713279811396852,-0.700879383812701));
#1406=DIRECTION('center_axis',(5.12953321350703E-16,-3.6062488473963E-14,
-1.));
#1407=DIRECTION('ref_axis',(6.72318221509014E-15,-1.,3.6062488473963E-14));
#1408=DIRECTION('center_axis',(2.71165454697951E-16,-3.75969113492454E-14,
-1.));
#1409=DIRECTION('ref_axis',(-1.05445866488138E-14,-1.,3.75969113492454E-14));
#1410=DIRECTION('center_axis',(0.,3.75008666095611E-14,1.));
#1411=DIRECTION('ref_axis',(-1.,0.,0.));
#1412=DIRECTION('center_axis',(-1.,0.,0.));
#1413=DIRECTION('ref_axis',(0.,0.942285458614975,-0.334810565070407));
#1414=DIRECTION('center_axis',(1.,0.,0.));
#1415=DIRECTION('ref_axis',(0.,-0.713279811396847,0.700879383812706));
#1416=DIRECTION('center_axis',(1.,0.,0.));
#1417=DIRECTION('ref_axis',(0.,-0.713279811396847,0.700879383812706));
#1418=DIRECTION('',(-1.,0.,0.));
#1419=DIRECTION('center_axis',(1.,0.,0.));
#1420=DIRECTION('ref_axis',(0.,0.713279811396852,-0.700879383812701));
#1421=DIRECTION('',(-1.,0.,0.));
#1422=DIRECTION('center_axis',(1.,0.,0.));
#1423=DIRECTION('ref_axis',(0.,0.942285458614975,-0.334810565070408));
#1424=DIRECTION('center_axis',(1.,0.,0.));
#1425=DIRECTION('ref_axis',(0.,0.942285458614975,-0.334810565070408));
#1426=DIRECTION('',(-1.,0.,0.));
#1427=DIRECTION('center_axis',(1.,0.,0.));
#1428=DIRECTION('ref_axis',(0.,0.713279811396852,-0.700879383812701));
#1429=CARTESIAN_POINT('',(0.,0.,0.));
#1430=CARTESIAN_POINT('Origin',(110.0125,-74.7394625938542,-0.003612746546095));
#1431=CARTESIAN_POINT('',(-104.0125,-73.2894625938542,-0.00361274654609518));
#1432=CARTESIAN_POINT('Origin',(-104.0125,-74.7394625938542,-0.003612746546095));
#1433=CARTESIAN_POINT('',(-110.0125,-73.2894625938542,-0.00361274654609482));
#1434=CARTESIAN_POINT('',(110.0125,-73.2894625938542,-0.00361274654609518));
#1435=CARTESIAN_POINT('Origin',(-110.0125,-74.7394625938542,-0.003612746546095));
#1436=CARTESIAN_POINT('Origin',(-106.702699192008,-33.7113696655124,19.));
#1437=CARTESIAN_POINT('',(-104.602699192008,-33.7113696655124,17.9999999999999));
#1438=CARTESIAN_POINT('Origin',(-106.702699192008,-33.7113696655124,17.9999999999999));
#1439=CARTESIAN_POINT('',(-104.602699192008,-33.7113696655124,4.00000000000001));
#1440=CARTESIAN_POINT('',(-104.602699192008,-33.7113696655124,19.));
#1441=CARTESIAN_POINT('Origin',(-106.702699192008,-33.7113696655124,4.00000000000001));
#1442=CARTESIAN_POINT('Origin',(-106.702699192008,-33.7113696655124,4.00000000000001));
#1443=CARTESIAN_POINT('Origin',(-106.702699192008,-47.6342244757565,19.));
#1444=CARTESIAN_POINT('',(-104.602699192008,-47.6342244757565,17.9999999999999));
#1445=CARTESIAN_POINT('Origin',(-106.702699192008,-47.6342244757565,17.9999999999999));
#1446=CARTESIAN_POINT('',(-104.602699192008,-47.6342244757565,4.00000000000001));
#1447=CARTESIAN_POINT('',(-104.602699192008,-47.6342244757565,19.));
#1448=CARTESIAN_POINT('Origin',(-106.702699192008,-47.6342244757565,4.00000000000001));
#1449=CARTESIAN_POINT('Origin',(-106.702699192008,-47.6342244757565,4.00000000000001));
#1450=CARTESIAN_POINT('Origin',(-106.478712755456,37.5212394364815,13.3532972796494));
#1451=CARTESIAN_POINT('',(-108.578712755456,35.5212394364809,13.3532972796494));
#1452=CARTESIAN_POINT('Origin',(-106.478712755456,35.5212394364809,13.3532972796494));
#1453=CARTESIAN_POINT('',(-108.578712755456,22.5212394364815,13.3532972796494));
#1454=CARTESIAN_POINT('',(-108.578712755456,37.5212394364815,13.3532972796494));
#1455=CARTESIAN_POINT('Origin',(-106.478712755456,22.5212394364815,13.3532972796494));
#1456=CARTESIAN_POINT('Origin',(-106.478712755456,22.5212394364815,13.3532972796494));
#1457=CARTESIAN_POINT('Origin',(-106.478712755456,37.5212394364815,-13.8413028573652));
#1458=CARTESIAN_POINT('',(-108.578712755456,35.5212394364809,-13.8413028573652));
#1459=CARTESIAN_POINT('Origin',(-106.478712755456,35.5212394364809,-13.8413028573652));
#1460=CARTESIAN_POINT('',(-108.578712755456,22.5212394364815,-13.8413028573652));
#1461=CARTESIAN_POINT('',(-108.578712755456,37.5212394364815,-13.8413028573652));
#1462=CARTESIAN_POINT('Origin',(-106.478712755456,22.5212394364815,-13.8413028573652));
#1463=CARTESIAN_POINT('Origin',(-106.478712755456,22.5212394364815,-13.8413028573652));
#1464=CARTESIAN_POINT('Origin',(110.0125,35.5212394364809,-18.));
#1465=CARTESIAN_POINT('',(-104.0125,35.5212394364809,-18.));
#1466=CARTESIAN_POINT('',(-104.0125,35.5212394364822,17.9999999999943));
#1467=CARTESIAN_POINT('',(-104.0125,35.5212394364812,-9.0000000000012));
#1468=CARTESIAN_POINT('',(-110.0125,35.5212394364809,-18.));
#1469=CARTESIAN_POINT('',(18.8749999999999,35.5212394364809,-18.));
#1470=CARTESIAN_POINT('',(-110.0125,35.5212394364822,17.9999999999943));
#1471=CARTESIAN_POINT('',(-110.0125,35.5212394364812,-9.0000000000012));
#1472=CARTESIAN_POINT('',(18.8749999999999,35.5212394364822,17.999999999997));
#1473=CARTESIAN_POINT('Origin',(-104.0125,-27.8436908519804,-2.22044604925031E-15));
#1474=CARTESIAN_POINT('',(-104.0125,-109.085396553908,17.9999999999999));
#1475=CARTESIAN_POINT('',(-104.0125,44.729385240537,17.9999999999939));
#1476=CARTESIAN_POINT('',(-104.0125,-109.333939066278,-16.1249794123121));
#1477=CARTESIAN_POINT('Origin',(-104.0125,-158.361857002068,1.29550050513803));
#1478=CARTESIAN_POINT('',(-104.0125,-110.174520575306,-18.));
#1479=CARTESIAN_POINT('Origin',(-104.0125,-121.44230720948,-11.8226636511574));
#1480=CARTESIAN_POINT('',(-104.0125,-30.7435549379518,-18.));
#1481=CARTESIAN_POINT('',(-104.0125,44.7294,-18.));
#1482=CARTESIAN_POINT('',(-104.0125,-30.7435549379518,-16.));
#1483=CARTESIAN_POINT('',(-104.0125,-30.7435549379518,-8.99999999999999));
#1484=CARTESIAN_POINT('',(-104.0125,23.6487090322823,-16.));
#1485=CARTESIAN_POINT('',(-104.0125,-13.3525895118774,-16.));
#1486=CARTESIAN_POINT('',(-104.0125,23.6487090322823,-18.));
#1487=CARTESIAN_POINT('',(-104.0125,23.6487090322823,-8.99999999999999));
#1488=CARTESIAN_POINT('',(-104.0125,44.7294,-18.));
#1489=CARTESIAN_POINT('Origin',(-72.2625,-109.085396553908,17.9999999999999));
#1490=CARTESIAN_POINT('',(-110.0125,-102.931879888185,17.9999999999995));
#1491=CARTESIAN_POINT('',(-110.0125,44.729385240537,17.9999999999939));
#1492=CARTESIAN_POINT('',(-115.13382034356,-105.053200231745,17.9999999999996));
#1493=CARTESIAN_POINT('Origin',(-113.0125,-102.931879888185,17.9999999999996));
#1494=CARTESIAN_POINT('',(-122.775777400417,-97.4112431748875,17.9999999999993));
#1495=CARTESIAN_POINT('',(-110.0125,-110.174520575305,17.9999999999998));
#1496=CARTESIAN_POINT('',(-124.18999096279,-97.4112431748875,17.9999999999993));
#1497=CARTESIAN_POINT('Origin',(-123.482884181604,-98.118349956074,17.9999999999994));
#1498=CARTESIAN_POINT('',(-126.847518960223,-100.068771172321,17.9999999999994));
#1499=CARTESIAN_POINT('',(-13.9492819469397,12.8294658409631,17.9999999999952));
#1500=CARTESIAN_POINT('',(-126.899257559209,-101.53472333368,17.9999999999994));
#1501=CARTESIAN_POINT('Ctrl Pts',(-126.847518960223,-100.068771172321,17.9999999999997));
#1502=CARTESIAN_POINT('Ctrl Pts',(-126.943156029017,-100.164408241114,17.9999999999997));
#1503=CARTESIAN_POINT('Ctrl Pts',(-127.034602809823,-100.298495001055,17.9999999999997));
#1504=CARTESIAN_POINT('Ctrl Pts',(-127.139941404917,-100.542753023904,17.9999999999997));
#1505=CARTESIAN_POINT('Ctrl Pts',(-127.174299700416,-100.695848447878,17.9999999999997));
#1506=CARTESIAN_POINT('Ctrl Pts',(-127.179877450522,-100.951730848472,17.9999999999997));
#1507=CARTESIAN_POINT('Ctrl Pts',(-127.154308788161,-101.099767327549,17.9999999999997));
#1508=CARTESIAN_POINT('Ctrl Pts',(-127.0636843869,-101.328254690708,17.9999999999997));
#1509=CARTESIAN_POINT('Ctrl Pts',(-126.984543830982,-101.449437061907,17.9999999999997));
#1510=CARTESIAN_POINT('Ctrl Pts',(-126.89925755921,-101.53472333368,17.9999999999997));
#1511=CARTESIAN_POINT('',(-114.135980158792,-114.298000734097,17.9999999999999));
#1512=CARTESIAN_POINT('',(-114.135980158792,-114.298000734097,17.9999999999999));
#1513=CARTESIAN_POINT('',(-110.0125,-116.006002140045,18.));
#1514=CARTESIAN_POINT('Origin',(-110.0125,-110.174520575305,17.9999999999997));
#1515=CARTESIAN_POINT('',(-100.4819,-116.006002140045,18.));
#1516=CARTESIAN_POINT('',(-72.2625,-116.006002140045,18.));
#1517=CARTESIAN_POINT('',(-81.7875,-116.006002140045,18.));
#1518=CARTESIAN_POINT('',(-72.2625,-116.006002140045,18.));
#1519=CARTESIAN_POINT('',(-72.2625,-116.006002140045,18.));
#1520=CARTESIAN_POINT('',(-72.2625,-116.006002140045,18.));
#1521=CARTESIAN_POINT('',(-72.2625,-109.085396553908,17.9999999999999));
#1522=CARTESIAN_POINT('',(-72.2625,35.2044,17.999999999997));
#1523=CARTESIAN_POINT('',(-72.2625,-109.085396553908,17.9999999999999));
#1524=CARTESIAN_POINT('Origin',(-110.0125,-27.8436908519804,-2.22044604925031E-15));
#1525=CARTESIAN_POINT('',(-110.0125,21.4648876266851,-18.));
#1526=CARTESIAN_POINT('',(-110.0125,44.7294,-18.));
#1527=CARTESIAN_POINT('',(-110.0125,21.4648876266851,-16.));
#1528=CARTESIAN_POINT('',(-110.0125,21.4648876266851,-8.99999999999999));
#1529=CARTESIAN_POINT('',(-110.0125,-32.9273763435492,-16.));
#1530=CARTESIAN_POINT('',(-110.0125,-13.3525895118774,-16.));
#1531=CARTESIAN_POINT('',(-110.0125,-32.9273763435492,-18.));
#1532=CARTESIAN_POINT('',(-110.0125,-32.9273763435492,-8.99999999999999));
#1533=CARTESIAN_POINT('',(-110.0125,-102.931879888187,-18.));
#1534=CARTESIAN_POINT('',(-110.0125,44.7294,-18.));
#1535=CARTESIAN_POINT('',(-110.0125,-102.931879888186,-8.99999999999872));
#1536=CARTESIAN_POINT('Origin',(-107.093468087598,-26.790641808825,-18.));
#1537=CARTESIAN_POINT('',(-109.393468087598,-26.790641808825,-16.));
#1538=CARTESIAN_POINT('Origin',(-107.093468087598,-26.790641808825,-16.));
#1539=CARTESIAN_POINT('',(-109.393468087598,-26.790641808825,-2.99999999999998));
#1540=CARTESIAN_POINT('',(-109.393468087598,-26.790641808825,-18.));
#1541=CARTESIAN_POINT('Origin',(-107.093468087598,-26.790641808825,-2.99999999999998));
#1542=CARTESIAN_POINT('Origin',(-107.093468087598,-26.790641808825,-2.99999999999998));
#1543=CARTESIAN_POINT('Origin',(-107.093468087598,16.5694621338491,-18.));
#1544=CARTESIAN_POINT('',(-109.393468087598,16.5694621338491,-16.));
#1545=CARTESIAN_POINT('Origin',(-107.093468087598,16.5694621338491,-16.));
#1546=CARTESIAN_POINT('',(-109.393468087598,16.5694621338491,-2.99999999999998));
#1547=CARTESIAN_POINT('',(-109.393468087598,16.5694621338491,-18.));
#1548=CARTESIAN_POINT('Origin',(-107.093468087598,16.5694621338491,-2.99999999999998));
#1549=CARTESIAN_POINT('Origin',(-107.093468087598,16.5694621338491,-2.99999999999998));
#1550=CARTESIAN_POINT('Origin',(-100.4819,-117.786927191347,2.02383879600698));
#1551=CARTESIAN_POINT('',(-100.4819,-120.443419952403,2.02383879600698));
#1552=CARTESIAN_POINT('Origin',(-100.4819,-117.786927191347,2.02383879600698));
#1553=CARTESIAN_POINT('',(-81.7875,-120.443419952403,2.02383879600698));
#1554=CARTESIAN_POINT('',(-100.4819,-120.443419952403,2.02383879600698));
#1555=CARTESIAN_POINT('Origin',(-81.7875,-117.786927191347,2.02383879600698));
#1556=CARTESIAN_POINT('Origin',(-72.2635,35.2044,-18.));
#1557=CARTESIAN_POINT('',(-110.0125,21.4648876266851,-16.));
#1558=CARTESIAN_POINT('',(-96.9495065350667,26.2194284183347,-18.));
#1559=CARTESIAN_POINT('Origin',(-110.0125,-32.9273763435492,-18.));
#1560=CARTESIAN_POINT('',(-107.08333819935,-31.8612486367631,-18.));
#1561=CARTESIAN_POINT('',(-72.2625,-19.1875,-16.));
#1562=CARTESIAN_POINT('Origin',(-1.77635683940025E-14,1.13851182822543,
-16.));
#1563=CARTESIAN_POINT('Origin',(-72.2625,-118.416781703961,-18.));
#1564=CARTESIAN_POINT('',(-110.0069,-110.174520575306,-18.));
#1565=CARTESIAN_POINT('',(-72.2625,-110.174520575306,-18.));
#1566=CARTESIAN_POINT('',(-110.0069,-118.416781703961,-18.));
#1567=CARTESIAN_POINT('',(-110.0069,-119.17959270495,-18.));
#1568=CARTESIAN_POINT('',(-110.0125,-118.416781703961,-18.));
#1569=CARTESIAN_POINT('',(-72.2625,-118.416781703961,-18.));
#1570=CARTESIAN_POINT('',(-115.840658736382,-116.002679311688,-18.0000000000001));
#1571=CARTESIAN_POINT('Origin',(-110.0125,-110.174520575306,-18.0000000000003));
#1572=CARTESIAN_POINT('',(-128.603936136799,-103.239401911271,-18.0000000000006));
#1573=CARTESIAN_POINT('',(-115.840658736382,-116.002679311688,-18.0000000000001));
#1574=CARTESIAN_POINT('',(-128.40329805614,-101.624550268238,-18.0000000000006));
#1575=CARTESIAN_POINT('Ctrl Pts',(-128.603936136799,-103.23940191127,-18.));
#1576=CARTESIAN_POINT('Ctrl Pts',(-128.684502212412,-103.158835835657,-18.));
#1577=CARTESIAN_POINT('Ctrl Pts',(-128.756520187568,-103.042615433967,-18.));
#1578=CARTESIAN_POINT('Ctrl Pts',(-128.838356960864,-102.814084551339,-18.));
#1579=CARTESIAN_POINT('Ctrl Pts',(-128.855806593036,-102.660507602947,-18.));
#1580=CARTESIAN_POINT('Ctrl Pts',(-128.83587206829,-102.382179671886,-18.));
#1581=CARTESIAN_POINT('Ctrl Pts',(-128.786304545321,-102.208843655241,-18.));
#1582=CARTESIAN_POINT('Ctrl Pts',(-128.647889548469,-101.916136985042,-18.));
#1583=CARTESIAN_POINT('Ctrl Pts',(-128.526014374888,-101.747266586986,-18.));
#1584=CARTESIAN_POINT('Ctrl Pts',(-128.403298056139,-101.624550268238,-18.));
#1585=CARTESIAN_POINT('',(-124.18999096279,-97.4112431748888,-18.0000000000005));
#1586=CARTESIAN_POINT('',(-129.311042917986,-102.532295130084,-18.0000000000006));
#1587=CARTESIAN_POINT('',(-122.775777400417,-97.4112431748888,-18.0000000000005));
#1588=CARTESIAN_POINT('Origin',(-123.482884181604,-98.1183499560755,-18.0000000000008));
#1589=CARTESIAN_POINT('',(-115.13382034356,-105.053200231746,-18.0000000000002));
#1590=CARTESIAN_POINT('',(-110.0125,-110.174520575306,-18.));
#1591=CARTESIAN_POINT('Origin',(-113.0125,-102.931879888187,-18.0000000000006));
#1592=CARTESIAN_POINT('Origin',(-100.4819,-119.255987368857,2.02564463032276));
#1593=CARTESIAN_POINT('',(-100.4819,-115.458794547275,-13.9487107393545));
#1594=CARTESIAN_POINT('Origin',(-100.4819,-107.877058629899,2.16018844870179));
#1595=CARTESIAN_POINT('Origin',(-100.4819,-158.361857002068,1.29550050513803));
#1596=CARTESIAN_POINT('Origin',(-72.2625,-107.877058629899,2.16018844870179));
#1597=CARTESIAN_POINT('',(-81.7875,-115.458794547275,-13.9487107393545));
#1598=CARTESIAN_POINT('',(-72.2625,-115.458794547275,-13.9487107393545));
#1599=CARTESIAN_POINT('Origin',(-81.7875,-107.877058629899,2.16018844870179));
#1600=CARTESIAN_POINT('Origin',(-72.2625,-158.361857002068,1.29550050513803));
#1601=CARTESIAN_POINT('',(-72.2625,-115.458794547275,-13.9487107393545));
#1602=CARTESIAN_POINT('Origin',(-72.2625,-158.361857002068,1.29550050513803));
#1603=CARTESIAN_POINT('Origin',(-81.7875,-158.361857002068,1.29550050513803));
#1604=CARTESIAN_POINT('',(-72.2625,-115.458794547275,-13.9487107393545));
#1605=CARTESIAN_POINT('Origin',(-81.7875,-119.255987368857,2.02564463032276));
#1606=CARTESIAN_POINT('Origin',(-96.2319059946486,-120.186735945671,-22.8629093125671));
#1607=CARTESIAN_POINT('',(-97.5487717745049,-120.701571645234,-24.2774087718456));
#1608=CARTESIAN_POINT('',(-96.2319059946486,-119.50269565902,-20.9835240709953));
#1609=CARTESIAN_POINT('Origin',(-96.2319059946486,-120.186735945671,-22.8629093125671));
#1610=CARTESIAN_POINT('',(-97.5487717745049,-113.423471912736,-26.9264204364957));
#1611=CARTESIAN_POINT('',(-97.5487717745049,-120.701571645234,-24.2774087718456));
#1612=CARTESIAN_POINT('',(-96.2319059946486,-112.224595926522,-23.6325357356454));
#1613=CARTESIAN_POINT('Origin',(-96.2319059946486,-112.908636213173,-25.5119209772173));
#1614=CARTESIAN_POINT('',(-96.2319059946486,-119.50269565902,-20.9835240709953));
#1615=CARTESIAN_POINT('Origin',(-75.4375,-119.50269565902,-20.9835240709953));
#1616=CARTESIAN_POINT('',(-77.4374999999999,-112.224595926522,-23.6325357356454));
#1617=CARTESIAN_POINT('',(-73.85,-112.224595926522,-23.6325357356454));
#1618=CARTESIAN_POINT('',(-77.4374999999999,-119.50269565902,-20.9835240709953));
#1619=CARTESIAN_POINT('',(-77.4374999999999,-119.50269565902,-20.9835240709953));
#1620=CARTESIAN_POINT('',(-73.85,-119.50269565902,-20.9835240709953));
#1621=CARTESIAN_POINT('Origin',(-77.4375000000001,-125.810211761023,-38.3132821340971));
#1622=CARTESIAN_POINT('',(-75.4375,-125.810211761023,-38.3132821340971));
#1623=CARTESIAN_POINT('',(-78.7543657798561,-126.325047460586,-39.7277815933754));
#1624=CARTESIAN_POINT('Origin',(-77.4375000000001,-125.810211761023,-38.3132821340971));
#1625=CARTESIAN_POINT('',(-75.4375,-118.532112028525,-40.9622937987472));
#1626=CARTESIAN_POINT('',(-75.4375,-125.810211761023,-38.3132821340971));
#1627=CARTESIAN_POINT('',(-78.7543657798561,-119.046947728088,-42.3767932580255));
#1628=CARTESIAN_POINT('Origin',(-77.4375000000001,-118.532112028525,-40.9622937987472));
#1629=CARTESIAN_POINT('',(-78.7543657798561,-126.325047460586,-39.7277815933754));
#1630=CARTESIAN_POINT('Origin',(-101.555575175461,-119.50269565902,-20.9835240709953));
#1631=CARTESIAN_POINT('',(-94.0455132865574,-121.749781915221,-27.1573428194762));
#1632=CARTESIAN_POINT('',(-85.9329111427222,-116.899054559824,-36.4755052788194));
#1633=CARTESIAN_POINT('Origin',(-77.4374999999999,-120.186735945671,-22.8629093125671));
#1634=CARTESIAN_POINT('',(-75.4375,-120.186735945671,-22.8629093125671));
#1635=CARTESIAN_POINT('Origin',(-77.4374999999999,-120.186735945671,-22.8629093125671));
#1636=CARTESIAN_POINT('',(-75.4375,-112.908636213173,-25.5119209772173));
#1637=CARTESIAN_POINT('Origin',(-77.4374999999999,-112.908636213173,-25.5119209772173));
#1638=CARTESIAN_POINT('',(-75.4375,-120.186735945671,-22.8629093125671));
#1639=CARTESIAN_POINT('Origin',(-75.4375,-127.317487152541,-42.4544872371902));
#1640=CARTESIAN_POINT('',(-75.4375,-122.867134428251,-30.2272436185951));
#1641=CARTESIAN_POINT('',(-75.4375,-121.188072146005,-48.2594842484935));
#1642=CARTESIAN_POINT('Origin',(-74.2625000000001,-128.652093972332,-44.7239925626003));
#1643=CARTESIAN_POINT('',(-72.2625,-120.924911712559,-47.5364568999075));
#1644=CARTESIAN_POINT('',(-75.5793657798561,-121.439747412122,-48.9509563591861));
#1645=CARTESIAN_POINT('Origin',(-74.2625000000001,-120.924911712559,-47.5364568999075));
#1646=CARTESIAN_POINT('',(-72.2625,-128.203011445057,-44.8874452352574));
#1647=CARTESIAN_POINT('',(-72.2625,-128.652093972332,-44.7239925626003));
#1648=CARTESIAN_POINT('',(-75.5793657798561,-128.71784714462,-46.301944694536));
#1649=CARTESIAN_POINT('Origin',(-74.2625000000001,-128.203011445057,-44.8874452352574));
#1650=CARTESIAN_POINT('',(-75.5793657798561,-129.166929671895,-46.1384920218786));
#1651=CARTESIAN_POINT('Origin',(-72.2625,-122.336756871967,-51.415469595147));
#1652=CARTESIAN_POINT('',(-110.0069,-111.138681971463,-20.64901166465));
#1653=CARTESIAN_POINT('',(-72.3316357677526,-122.41150098513,-51.6208273582993));
#1654=CARTESIAN_POINT('',(-110.0069,-110.174520575306,-18.));
#1655=CARTESIAN_POINT('',(-72.2625,-110.174520575306,-18.));
#1656=CARTESIAN_POINT('',(-72.2625,-110.174520575306,-18.));
#1657=CARTESIAN_POINT('',(-72.2625,-110.174520575306,-18.));
#1658=CARTESIAN_POINT('Origin',(-72.2625,-112.373891922003,0.));
#1659=CARTESIAN_POINT('',(-72.2625,-116.91298040711,-16.273247738368));
#1660=CARTESIAN_POINT('Origin',(-72.2625,-121.44230720948,-11.8226636511574));
#1661=CARTESIAN_POINT('',(-72.2625,-118.416781703961,-18.));
#1662=CARTESIAN_POINT('Origin',(-72.2625,-103.325,-29.6250000000001));
#1663=CARTESIAN_POINT('',(-72.2625,-118.416781703961,-18.));
#1664=CARTESIAN_POINT('',(-72.2625,-109.333939066278,-16.1249794123121));
#1665=CARTESIAN_POINT('Origin',(-72.2625,-121.44230720948,-11.8226636511574));
#1666=CARTESIAN_POINT('Origin',(-72.2625,-158.361857002068,1.29550050513803));
#1667=CARTESIAN_POINT('Origin',(-72.2625,-118.416781703961,-18.));
#1668=CARTESIAN_POINT('',(-72.2625,-118.416781703961,-18.));
#1669=CARTESIAN_POINT('',(-110.0069,-118.61263473537,-18.5381017813293));
#1670=CARTESIAN_POINT('',(-110.0069,-121.190894868678,-25.6218132790744));
#1671=CARTESIAN_POINT('',(-107.745587045066,-119.093389345438,-19.8589642167908));
#1672=CARTESIAN_POINT('Origin',(-111.926635896109,-120.727992691551,-24.35));
#1673=CARTESIAN_POINT('',(-80.4442379115877,-127.262228340527,-42.3026648989562));
#1674=CARTESIAN_POINT('Origin',(-72.2625,-129.710286836574,-49.0286503383508));
#1675=CARTESIAN_POINT('',(-110.0069,-113.309319494754,-19.8589642167908));
#1676=CARTESIAN_POINT('',(-103.270638263341,-130.53957872637,-19.8589642167908));
#1677=CARTESIAN_POINT('',(-110.0069,-116.405479540232,-18.7320541197123));
#1678=CARTESIAN_POINT('Origin',(-107.451687114385,-132.174182072482,-24.35));
#1679=CARTESIAN_POINT('Origin',(-110.0069,-125.638364117024,-24.35));
#1680=CARTESIAN_POINT('Origin',(-110.0069,-119.94240370594,-34.7077347975734));
#1681=CARTESIAN_POINT('Origin',(-72.2625,-118.416781703961,-18.));
#1682=CARTESIAN_POINT('Origin',(-156.849369755098,-131.484835529569,1.29550050513702));
#1683=CARTESIAN_POINT('',(-126.55313370323,-99.7743859153289,-14.2835213044254));
#1684=CARTESIAN_POINT('Origin',(-157.556476536285,-130.777728748383,1.29550050513699));
#1685=CARTESIAN_POINT('',(-126.512323359644,-101.147789134115,-13.948710739355));
#1686=CARTESIAN_POINT('Origin',(-125.846026922044,-100.481492696515,-14.2835213044254));
#1687=CARTESIAN_POINT('Origin',(-156.849369755098,-131.484835529569,1.29550050513702));
#1688=CARTESIAN_POINT('Origin',(-130.743305738405,-105.378771512876,-11.8226636511579));
#1689=CARTESIAN_POINT('',(-127.540588042239,-102.17605381671,-16.2732477383686));
#1690=CARTESIAN_POINT('',(-127.743329831903,-100.964582044002,-16.9741271221813));
#1691=CARTESIAN_POINT('Origin',(-127.036223050717,-101.671688825188,-16.9741271221813));
#1692=CARTESIAN_POINT('Origin',(-130.743305738405,-105.378771512876,-11.8226636511579));
#1693=CARTESIAN_POINT('Origin',(-131.450412519592,-104.67166473169,-11.8226636511579));
#1694=CARTESIAN_POINT('Origin',(-117.932434953741,-92.5679007282133,-29.6250000000006));
#1695=CARTESIAN_POINT('Origin',(-117.932434953741,-92.5679007282133,-29.6250000000006));
#1696=CARTESIAN_POINT('Origin',(-118.639541734928,-91.8607939470266,-29.6250000000006));
#1697=CARTESIAN_POINT('Origin',(-126.396963549795,-99.6182157618926,-5.54340631399314E-13));
#1698=CARTESIAN_POINT('',(-124.18999096279,-97.4112431748885,-9.00000000000055));
#1699=CARTESIAN_POINT('Origin',(-123.482884181604,-98.118349956075,-9.00000000000053));
#1700=CARTESIAN_POINT('',(-122.775777400417,-97.4112431748885,-9.00000000000055));
#1701=CARTESIAN_POINT('Origin',(-113.0125,-102.931879888186,-8.99999999999872));
#1702=CARTESIAN_POINT('',(-115.13382034356,-105.053200231746,-8.99999999999865));
#1703=CARTESIAN_POINT('Origin',(-110.0125,-110.174520575306,-18.));
#1704=CARTESIAN_POINT('Origin',(-117.980028337988,-118.142048913294,-11.8226636511574));
#1705=CARTESIAN_POINT('',(-114.777310641822,-114.939331217128,-16.2732477383681));
#1706=CARTESIAN_POINT('',(-114.777310641822,-114.939331217128,-16.2732477383681));
#1707=CARTESIAN_POINT('',(-113.749045959227,-113.911066534533,-13.9487107393545));
#1708=CARTESIAN_POINT('Origin',(-117.980028337988,-118.142048913294,-11.8226636511574));
#1709=CARTESIAN_POINT('',(-113.749045959227,-113.911066534533,-13.9487107393545));
#1710=CARTESIAN_POINT('Origin',(-144.086092354681,-144.248112929987,1.2955005051375));
#1711=CARTESIAN_POINT('Origin',(-144.086092354681,-144.248112929987,1.2955005051375));
#1712=CARTESIAN_POINT('Origin',(-105.169157553324,-105.33117812863,-29.6250000000001));
#1713=CARTESIAN_POINT('Origin',(-105.169157553324,-105.33117812863,-29.6250000000001));
#1714=CARTESIAN_POINT('Origin',(-110.0125,-110.174520575306,-11.8226636511577));
#1715=CARTESIAN_POINT('',(-110.0125,-115.458794547275,-13.9487107393545));
#1716=CARTESIAN_POINT('',(-110.0125,-116.91298040711,-16.273247738368));
#1717=CARTESIAN_POINT('Origin',(-110.0125,-121.44230720948,-11.8226636511574));
#1718=CARTESIAN_POINT('Origin',(-110.0125,-110.174520575306,-13.9487107393547));
#1719=CARTESIAN_POINT('Origin',(-110.0125,-110.174520575306,-16.2732477383683));
#1720=CARTESIAN_POINT('Origin',(-110.0125,-110.174520575305,1.29550050513623));
#1721=CARTESIAN_POINT('Origin',(-110.0125,-158.361857002068,1.29550050513803));
#1722=CARTESIAN_POINT('Ctrl Pts',(-110.012499999998,-116.912980407109,-16.2732477383668));
#1723=CARTESIAN_POINT('Ctrl Pts',(-112.803661451839,-116.912980407109,-16.2732477383664));
#1724=CARTESIAN_POINT('Ctrl Pts',(-114.777310641823,-114.939331217127,-16.2732477383679));
#1725=CARTESIAN_POINT('Ctrl Pts',(-110.012499999998,-117.716863240071,-17.0913534049388));
#1726=CARTESIAN_POINT('Ctrl Pts',(-113.13664062381,-117.716863240071,-17.0913534049384));
#1727=CARTESIAN_POINT('Ctrl Pts',(-115.34574164429,-115.507762219594,-17.0913534049401));
#1728=CARTESIAN_POINT('Ctrl Pts',(-110.012499999998,-118.416781703961,-18.));
#1729=CARTESIAN_POINT('Ctrl Pts',(-113.426556344108,-118.41678170396,-17.9999999999996));
#1730=CARTESIAN_POINT('Ctrl Pts',(-115.840658736383,-116.002679311689,-18.0000000000014));
#1731=CARTESIAN_POINT('Origin',(-110.0125,-103.325,-29.6250000000001));
#1732=CARTESIAN_POINT('Origin',(-72.2625,-103.325,-29.6250000000001));
#1733=CARTESIAN_POINT('',(-72.2625,-116.91298040711,-16.273247738368));
#1734=CARTESIAN_POINT('Origin',(-72.2625,-121.44230720948,-11.8226636511574));
#1735=CARTESIAN_POINT('',(-72.2625,-115.458794547275,-13.9487107393545));
#1736=CARTESIAN_POINT('Origin',(-72.2625,-158.361857002068,1.29550050513803));
#1737=CARTESIAN_POINT('Origin',(-72.2625,-158.361857002068,1.29550050513803));
#1738=CARTESIAN_POINT('',(-72.2625,-109.333939066278,-16.1249794123121));
#1739=CARTESIAN_POINT('Origin',(-72.2625,-121.44230720948,-11.8226636511574));
#1740=UNCERTAINTY_MEASURE_WITH_UNIT(LENGTH_MEASURE(0.01),#1744,
'DISTANCE_ACCURACY_VALUE',
'Maximum model space distance between geometric entities at asserted c
onnectivities');
#1741=UNCERTAINTY_MEASURE_WITH_UNIT(LENGTH_MEASURE(0.01),#1744,
'DISTANCE_ACCURACY_VALUE',
'Maximum model space distance between geometric entities at asserted c
onnectivities');
#1742=(
GEOMETRIC_REPRESENTATION_CONTEXT(3)
GLOBAL_UNCERTAINTY_ASSIGNED_CONTEXT((#1740))
GLOBAL_UNIT_ASSIGNED_CONTEXT((#1744,#1746,#1747))
REPRESENTATION_CONTEXT('','3D')
);
#1743=(
GEOMETRIC_REPRESENTATION_CONTEXT(3)
GLOBAL_UNCERTAINTY_ASSIGNED_CONTEXT((#1741))
GLOBAL_UNIT_ASSIGNED_CONTEXT((#1744,#1746,#1747))
REPRESENTATION_CONTEXT('','3D')
);
#1744=(
LENGTH_UNIT()
NAMED_UNIT(*)
SI_UNIT(.MILLI.,.METRE.)
);
#1745=(
LENGTH_UNIT()
NAMED_UNIT(*)
SI_UNIT($,.METRE.)
);
#1746=(
NAMED_UNIT(*)
PLANE_ANGLE_UNIT()
SI_UNIT($,.RADIAN.)
);
#1747=(
NAMED_UNIT(*)
SI_UNIT($,.STERADIAN.)
SOLID_ANGLE_UNIT()
);
#1748=SHAPE_DEFINITION_REPRESENTATION(#1749,#1750);
#1749=PRODUCT_DEFINITION_SHAPE('',$,#1752);
#1750=SHAPE_REPRESENTATION('',(#1001),#1742);
#1751=PRODUCT_DEFINITION_CONTEXT('part definition',#1756,'design');
#1752=PRODUCT_DEFINITION('Component133(Mirror) (2)',
'Component133(Mirror) (2)',#1753,#1751);
#1753=PRODUCT_DEFINITION_FORMATION('',$,#1758);
#1754=PRODUCT_RELATED_PRODUCT_CATEGORY('Component133(Mirror) (2)',
'Component133(Mirror) (2)',(#1758));
#1755=APPLICATION_PROTOCOL_DEFINITION('international standard',
'automotive_design',2009,#1756);
#1756=APPLICATION_CONTEXT(
'Core Data for Automotive Mechanical Design Process');
#1757=PRODUCT_CONTEXT('part definition',#1756,'mechanical');
#1758=PRODUCT('Component133(Mirror) (2)','Component133(Mirror) (2)',$,(#1757));
#1759=PRESENTATION_STYLE_ASSIGNMENT((#1761));
#1760=PRESENTATION_STYLE_ASSIGNMENT((#1762));
#1761=SURFACE_STYLE_USAGE(.BOTH.,#1763);
#1762=SURFACE_STYLE_USAGE(.BOTH.,#1764);
#1763=SURFACE_SIDE_STYLE('',(#1765));
#1764=SURFACE_SIDE_STYLE('',(#1766));
#1765=SURFACE_STYLE_FILL_AREA(#1767);
#1766=SURFACE_STYLE_FILL_AREA(#1768);
#1767=FILL_AREA_STYLE('Steel - Satin',(#1769));
#1768=FILL_AREA_STYLE('Opaque(63,63,63)',(#1770));
#1769=FILL_AREA_STYLE_COLOUR('Steel - Satin',#1771);
#1770=FILL_AREA_STYLE_COLOUR('Opaque(63,63,63)',#1772);
#1771=COLOUR_RGB('Steel - Satin',0.627450980392157,0.627450980392157,0.627450980392157);
#1772=COLOUR_RGB('Opaque(63,63,63)',0.247058823529412,0.247058823529412,
0.247058823529412);
ENDSEC;
END-ISO-10303-21;
