ISO-10303-21;
HEADER;
/* Generated by software containing ST-Developer
 * from STEP Tools, Inc. (www.steptools.com) 
 */

FILE_DESCRIPTION(
/* description */ (''),
/* implementation_level */ '2;1');

FILE_NAME(
/* name */ 'Fork.step',
/* time_stamp */ '2026-09-06T19:29:15+03:00',
/* author */ (''),
/* organization */ (''),
/* preprocessor_version */ 'ST-DEVELOPER v20.1',
/* originating_system */ 'Autodesk Translation Framework v15.8.0.0',
/* authorisation */ '');

FILE_SCHEMA (('AUTOMOTIVE_DESIGN { 1 0 10303 214 3 1 1 }'));
ENDSEC;

DATA;
#10=MECHANICAL_DESIGN_GEOMETRIC_PRESENTATION_REPRESENTATION('',(#13),#572);
#11=SHAPE_REPRESENTATION_RELATIONSHIP('SRR','None',#579,#12);
#12=ADVANCED_BREP_SHAPE_REPRESENTATION('',(#14),#571);
#13=STYLED_ITEM('',(#589),#14);
#14=MANIFOLD_SOLID_BREP('Body1',#328);
#15=FACE_BOUND('',#46,.T.);
#16=FACE_BOUND('',#47,.T.);
#17=FACE_BOUND('',#50,.T.);
#18=FACE_BOUND('',#51,.T.);
#19=PLANE('',#345);
#20=PLANE('',#356);
#21=PLANE('',#364);
#22=PLANE('',#366);
#23=PLANE('',#370);
#24=PLANE('',#372);
#25=PLANE('',#374);
#26=PLANE('',#375);
#27=FACE_OUTER_BOUND('',#44,.T.);
#28=FACE_OUTER_BOUND('',#45,.T.);
#29=FACE_OUTER_BOUND('',#48,.T.);
#30=FACE_OUTER_BOUND('',#49,.T.);
#31=FACE_OUTER_BOUND('',#52,.T.);
#32=FACE_OUTER_BOUND('',#53,.T.);
#33=FACE_OUTER_BOUND('',#54,.T.);
#34=FACE_OUTER_BOUND('',#55,.T.);
#35=FACE_OUTER_BOUND('',#56,.T.);
#36=FACE_OUTER_BOUND('',#57,.T.);
#37=FACE_OUTER_BOUND('',#58,.T.);
#38=FACE_OUTER_BOUND('',#59,.T.);
#39=FACE_OUTER_BOUND('',#60,.T.);
#40=FACE_OUTER_BOUND('',#61,.T.);
#41=FACE_OUTER_BOUND('',#62,.T.);
#42=FACE_OUTER_BOUND('',#63,.T.);
#43=FACE_OUTER_BOUND('',#64,.T.);
#44=EDGE_LOOP('',(#212,#213,#214,#215));
#45=EDGE_LOOP('',(#216,#217,#218,#219,#220));
#46=EDGE_LOOP('',(#221,#222));
#47=EDGE_LOOP('',(#223,#224,#225,#226,#227,#228,#229,#230));
#48=EDGE_LOOP('',(#231,#232,#233,#234));
#49=EDGE_LOOP('',(#235,#236,#237,#238,#239));
#50=EDGE_LOOP('',(#240,#241));
#51=EDGE_LOOP('',(#242,#243,#244,#245,#246,#247,#248,#249));
#52=EDGE_LOOP('',(#250,#251,#252,#253));
#53=EDGE_LOOP('',(#254,#255,#256,#257));
#54=EDGE_LOOP('',(#258,#259,#260,#261));
#55=EDGE_LOOP('',(#262,#263,#264,#265));
#56=EDGE_LOOP('',(#266,#267,#268,#269));
#57=EDGE_LOOP('',(#270,#271,#272,#273));
#58=EDGE_LOOP('',(#274,#275,#276,#277));
#59=EDGE_LOOP('',(#278,#279,#280,#281));
#60=EDGE_LOOP('',(#282,#283,#284,#285));
#61=EDGE_LOOP('',(#286,#287,#288,#289));
#62=EDGE_LOOP('',(#290,#291,#292,#293));
#63=EDGE_LOOP('',(#294,#295,#296,#297));
#64=EDGE_LOOP('',(#298,#299,#300,#301));
#65=LINE('',#482,#92);
#66=LINE('',#485,#93);
#67=LINE('',#491,#94);
#68=LINE('',#495,#95);
#69=LINE('',#496,#96);
#70=LINE('',#502,#97);
#71=LINE('',#506,#98);
#72=LINE('',#513,#99);
#73=LINE('',#518,#100);
#74=LINE('',#519,#101);
#75=LINE('',#522,#102);
#76=LINE('',#524,#103);
#77=LINE('',#527,#104);
#78=LINE('',#531,#105);
#79=LINE('',#535,#106);
#80=LINE('',#543,#107);
#81=LINE('',#546,#108);
#82=LINE('',#548,#109);
#83=LINE('',#549,#110);
#84=LINE('',#551,#111);
#85=LINE('',#553,#112);
#86=LINE('',#555,#113);
#87=LINE('',#557,#114);
#88=LINE('',#559,#115);
#89=LINE('',#561,#116);
#90=LINE('',#565,#117);
#91=LINE('',#567,#118);
#92=VECTOR('',#383,10.);
#93=VECTOR('',#386,10.);
#94=VECTOR('',#391,10.);
#95=VECTOR('',#394,10.);
#96=VECTOR('',#395,10.);
#97=VECTOR('',#400,10.);
#98=VECTOR('',#403,10.);
#99=VECTOR('',#410,10.);
#100=VECTOR('',#415,10.);
#101=VECTOR('',#416,10.);
#102=VECTOR('',#419,10.);
#103=VECTOR('',#420,10.);
#104=VECTOR('',#423,10.);
#105=VECTOR('',#426,10.);
#106=VECTOR('',#429,10.);
#107=VECTOR('',#436,10.);
#108=VECTOR('',#441,10.);
#109=VECTOR('',#444,10.);
#110=VECTOR('',#445,10.);
#111=VECTOR('',#448,10.);
#112=VECTOR('',#451,10.);
#113=VECTOR('',#454,10.);
#114=VECTOR('',#457,10.);
#115=VECTOR('',#460,10.);
#116=VECTOR('',#463,10.);
#117=VECTOR('',#470,10.);
#118=VECTOR('',#473,10.);
#119=CIRCLE('',#343,2.73986051527904);
#120=CIRCLE('',#344,2.73986051527904);
#121=CIRCLE('',#346,6.35);
#122=CIRCLE('',#347,4.99999999999999);
#123=CIRCLE('',#348,2.75);
#124=CIRCLE('',#349,2.);
#125=CIRCLE('',#350,2.);
#126=CIRCLE('',#351,2.);
#127=CIRCLE('',#352,4.99999999999999);
#128=CIRCLE('',#353,2.);
#129=CIRCLE('',#355,6.35);
#130=CIRCLE('',#357,4.99999999999999);
#131=CIRCLE('',#358,2.75);
#132=CIRCLE('',#359,2.);
#133=CIRCLE('',#360,2.);
#134=CIRCLE('',#361,4.99999999999999);
#135=CIRCLE('',#362,2.);
#136=CIRCLE('',#363,2.);
#137=VERTEX_POINT('',#478);
#138=VERTEX_POINT('',#479);
#139=VERTEX_POINT('',#481);
#140=VERTEX_POINT('',#483);
#141=VERTEX_POINT('',#487);
#142=VERTEX_POINT('',#488);
#143=VERTEX_POINT('',#490);
#144=VERTEX_POINT('',#492);
#145=VERTEX_POINT('',#494);
#146=VERTEX_POINT('',#498);
#147=VERTEX_POINT('',#499);
#148=VERTEX_POINT('',#501);
#149=VERTEX_POINT('',#503);
#150=VERTEX_POINT('',#505);
#151=VERTEX_POINT('',#507);
#152=VERTEX_POINT('',#509);
#153=VERTEX_POINT('',#511);
#154=VERTEX_POINT('',#515);
#155=VERTEX_POINT('',#516);
#156=VERTEX_POINT('',#521);
#157=VERTEX_POINT('',#523);
#158=VERTEX_POINT('',#525);
#159=VERTEX_POINT('',#529);
#160=VERTEX_POINT('',#530);
#161=VERTEX_POINT('',#532);
#162=VERTEX_POINT('',#534);
#163=VERTEX_POINT('',#536);
#164=VERTEX_POINT('',#538);
#165=VERTEX_POINT('',#540);
#166=VERTEX_POINT('',#542);
#167=EDGE_CURVE('',#137,#138,#119,.T.);
#168=EDGE_CURVE('',#139,#137,#65,.T.);
#169=EDGE_CURVE('',#140,#139,#120,.T.);
#170=EDGE_CURVE('',#138,#140,#66,.T.);
#171=EDGE_CURVE('',#141,#142,#121,.T.);
#172=EDGE_CURVE('',#142,#143,#67,.T.);
#173=EDGE_CURVE('',#143,#144,#122,.T.);
#174=EDGE_CURVE('',#145,#144,#68,.T.);
#175=EDGE_CURVE('',#141,#145,#69,.T.);
#176=EDGE_CURVE('',#139,#140,#123,.T.);
#177=EDGE_CURVE('',#146,#147,#124,.T.);
#178=EDGE_CURVE('',#147,#148,#70,.T.);
#179=EDGE_CURVE('',#148,#149,#125,.T.);
#180=EDGE_CURVE('',#149,#150,#71,.T.);
#181=EDGE_CURVE('',#150,#151,#126,.T.);
#182=EDGE_CURVE('',#151,#152,#127,.T.);
#183=EDGE_CURVE('',#152,#153,#128,.T.);
#184=EDGE_CURVE('',#153,#146,#72,.T.);
#185=EDGE_CURVE('',#154,#155,#129,.T.);
#186=EDGE_CURVE('',#142,#154,#73,.T.);
#187=EDGE_CURVE('',#155,#141,#74,.T.);
#188=EDGE_CURVE('',#156,#155,#75,.T.);
#189=EDGE_CURVE('',#157,#156,#76,.T.);
#190=EDGE_CURVE('',#158,#157,#130,.T.);
#191=EDGE_CURVE('',#154,#158,#77,.T.);
#192=EDGE_CURVE('',#137,#138,#131,.T.);
#193=EDGE_CURVE('',#159,#160,#78,.T.);
#194=EDGE_CURVE('',#159,#161,#132,.T.);
#195=EDGE_CURVE('',#162,#161,#79,.T.);
#196=EDGE_CURVE('',#162,#163,#133,.T.);
#197=EDGE_CURVE('',#164,#163,#134,.T.);
#198=EDGE_CURVE('',#164,#165,#135,.T.);
#199=EDGE_CURVE('',#166,#165,#80,.T.);
#200=EDGE_CURVE('',#166,#160,#136,.T.);
#201=EDGE_CURVE('',#143,#158,#81,.T.);
#202=EDGE_CURVE('',#160,#148,#82,.T.);
#203=EDGE_CURVE('',#149,#166,#83,.T.);
#204=EDGE_CURVE('',#165,#150,#84,.T.);
#205=EDGE_CURVE('',#151,#164,#85,.T.);
#206=EDGE_CURVE('',#163,#152,#86,.T.);
#207=EDGE_CURVE('',#153,#162,#87,.T.);
#208=EDGE_CURVE('',#161,#146,#88,.T.);
#209=EDGE_CURVE('',#147,#159,#89,.T.);
#210=EDGE_CURVE('',#145,#156,#90,.T.);
#211=EDGE_CURVE('',#144,#157,#91,.T.);
#212=ORIENTED_EDGE('',*,*,#167,.F.);
#213=ORIENTED_EDGE('',*,*,#168,.F.);
#214=ORIENTED_EDGE('',*,*,#169,.F.);
#215=ORIENTED_EDGE('',*,*,#170,.F.);
#216=ORIENTED_EDGE('',*,*,#171,.T.);
#217=ORIENTED_EDGE('',*,*,#172,.T.);
#218=ORIENTED_EDGE('',*,*,#173,.T.);
#219=ORIENTED_EDGE('',*,*,#174,.F.);
#220=ORIENTED_EDGE('',*,*,#175,.F.);
#221=ORIENTED_EDGE('',*,*,#169,.T.);
#222=ORIENTED_EDGE('',*,*,#176,.T.);
#223=ORIENTED_EDGE('',*,*,#177,.T.);
#224=ORIENTED_EDGE('',*,*,#178,.T.);
#225=ORIENTED_EDGE('',*,*,#179,.T.);
#226=ORIENTED_EDGE('',*,*,#180,.T.);
#227=ORIENTED_EDGE('',*,*,#181,.T.);
#228=ORIENTED_EDGE('',*,*,#182,.T.);
#229=ORIENTED_EDGE('',*,*,#183,.T.);
#230=ORIENTED_EDGE('',*,*,#184,.T.);
#231=ORIENTED_EDGE('',*,*,#185,.F.);
#232=ORIENTED_EDGE('',*,*,#186,.F.);
#233=ORIENTED_EDGE('',*,*,#171,.F.);
#234=ORIENTED_EDGE('',*,*,#187,.F.);
#235=ORIENTED_EDGE('',*,*,#185,.T.);
#236=ORIENTED_EDGE('',*,*,#188,.F.);
#237=ORIENTED_EDGE('',*,*,#189,.F.);
#238=ORIENTED_EDGE('',*,*,#190,.F.);
#239=ORIENTED_EDGE('',*,*,#191,.F.);
#240=ORIENTED_EDGE('',*,*,#167,.T.);
#241=ORIENTED_EDGE('',*,*,#192,.F.);
#242=ORIENTED_EDGE('',*,*,#193,.F.);
#243=ORIENTED_EDGE('',*,*,#194,.T.);
#244=ORIENTED_EDGE('',*,*,#195,.F.);
#245=ORIENTED_EDGE('',*,*,#196,.T.);
#246=ORIENTED_EDGE('',*,*,#197,.F.);
#247=ORIENTED_EDGE('',*,*,#198,.T.);
#248=ORIENTED_EDGE('',*,*,#199,.F.);
#249=ORIENTED_EDGE('',*,*,#200,.T.);
#250=ORIENTED_EDGE('',*,*,#186,.T.);
#251=ORIENTED_EDGE('',*,*,#191,.T.);
#252=ORIENTED_EDGE('',*,*,#201,.F.);
#253=ORIENTED_EDGE('',*,*,#172,.F.);
#254=ORIENTED_EDGE('',*,*,#179,.F.);
#255=ORIENTED_EDGE('',*,*,#202,.F.);
#256=ORIENTED_EDGE('',*,*,#200,.F.);
#257=ORIENTED_EDGE('',*,*,#203,.F.);
#258=ORIENTED_EDGE('',*,*,#203,.T.);
#259=ORIENTED_EDGE('',*,*,#199,.T.);
#260=ORIENTED_EDGE('',*,*,#204,.T.);
#261=ORIENTED_EDGE('',*,*,#180,.F.);
#262=ORIENTED_EDGE('',*,*,#181,.F.);
#263=ORIENTED_EDGE('',*,*,#204,.F.);
#264=ORIENTED_EDGE('',*,*,#198,.F.);
#265=ORIENTED_EDGE('',*,*,#205,.F.);
#266=ORIENTED_EDGE('',*,*,#205,.T.);
#267=ORIENTED_EDGE('',*,*,#197,.T.);
#268=ORIENTED_EDGE('',*,*,#206,.T.);
#269=ORIENTED_EDGE('',*,*,#182,.F.);
#270=ORIENTED_EDGE('',*,*,#183,.F.);
#271=ORIENTED_EDGE('',*,*,#206,.F.);
#272=ORIENTED_EDGE('',*,*,#196,.F.);
#273=ORIENTED_EDGE('',*,*,#207,.F.);
#274=ORIENTED_EDGE('',*,*,#207,.T.);
#275=ORIENTED_EDGE('',*,*,#195,.T.);
#276=ORIENTED_EDGE('',*,*,#208,.T.);
#277=ORIENTED_EDGE('',*,*,#184,.F.);
#278=ORIENTED_EDGE('',*,*,#177,.F.);
#279=ORIENTED_EDGE('',*,*,#208,.F.);
#280=ORIENTED_EDGE('',*,*,#194,.F.);
#281=ORIENTED_EDGE('',*,*,#209,.F.);
#282=ORIENTED_EDGE('',*,*,#202,.T.);
#283=ORIENTED_EDGE('',*,*,#178,.F.);
#284=ORIENTED_EDGE('',*,*,#209,.T.);
#285=ORIENTED_EDGE('',*,*,#193,.T.);
#286=ORIENTED_EDGE('',*,*,#170,.T.);
#287=ORIENTED_EDGE('',*,*,#176,.F.);
#288=ORIENTED_EDGE('',*,*,#168,.T.);
#289=ORIENTED_EDGE('',*,*,#192,.T.);
#290=ORIENTED_EDGE('',*,*,#187,.T.);
#291=ORIENTED_EDGE('',*,*,#175,.T.);
#292=ORIENTED_EDGE('',*,*,#210,.T.);
#293=ORIENTED_EDGE('',*,*,#188,.T.);
#294=ORIENTED_EDGE('',*,*,#174,.T.);
#295=ORIENTED_EDGE('',*,*,#211,.T.);
#296=ORIENTED_EDGE('',*,*,#189,.T.);
#297=ORIENTED_EDGE('',*,*,#210,.F.);
#298=ORIENTED_EDGE('',*,*,#173,.F.);
#299=ORIENTED_EDGE('',*,*,#201,.T.);
#300=ORIENTED_EDGE('',*,*,#190,.T.);
#301=ORIENTED_EDGE('',*,*,#211,.F.);
#302=CYLINDRICAL_SURFACE('',#342,2.73986051527904);
#303=CYLINDRICAL_SURFACE('',#354,6.35);
#304=CYLINDRICAL_SURFACE('',#365,2.);
#305=CYLINDRICAL_SURFACE('',#367,2.);
#306=CYLINDRICAL_SURFACE('',#368,4.99999999999999);
#307=CYLINDRICAL_SURFACE('',#369,2.);
#308=CYLINDRICAL_SURFACE('',#371,2.);
#309=CYLINDRICAL_SURFACE('',#373,2.75);
#310=CYLINDRICAL_SURFACE('',#376,4.99999999999999);
#311=ADVANCED_FACE('',(#27),#302,.F.);
#312=ADVANCED_FACE('',(#28,#15,#16),#19,.T.);
#313=ADVANCED_FACE('',(#29),#303,.T.);
#314=ADVANCED_FACE('',(#30,#17,#18),#20,.F.);
#315=ADVANCED_FACE('',(#31),#21,.F.);
#316=ADVANCED_FACE('',(#32),#304,.F.);
#317=ADVANCED_FACE('',(#33),#22,.F.);
#318=ADVANCED_FACE('',(#34),#305,.F.);
#319=ADVANCED_FACE('',(#35),#306,.T.);
#320=ADVANCED_FACE('',(#36),#307,.F.);
#321=ADVANCED_FACE('',(#37),#23,.F.);
#322=ADVANCED_FACE('',(#38),#308,.F.);
#323=ADVANCED_FACE('',(#39),#24,.F.);
#324=ADVANCED_FACE('',(#40),#309,.F.);
#325=ADVANCED_FACE('',(#41),#25,.F.);
#326=ADVANCED_FACE('',(#42),#26,.F.);
#327=ADVANCED_FACE('',(#43),#310,.T.);
#328=CLOSED_SHELL('',(#311,#312,#313,#314,#315,#316,#317,#318,#319,#320,
#321,#322,#323,#324,#325,#326,#327));
#329=DERIVED_UNIT_ELEMENT(#331,1.);
#330=DERIVED_UNIT_ELEMENT(#574,-3.);
#331=(
MASS_UNIT()
NAMED_UNIT(*)
SI_UNIT(.KILO.,.GRAM.)
);
#332=DERIVED_UNIT((#329,#330));
#333=MEASURE_REPRESENTATION_ITEM('density measure',
POSITIVE_RATIO_MEASURE(7850.),#332);
#334=PROPERTY_DEFINITION_REPRESENTATION(#339,#336);
#335=PROPERTY_DEFINITION_REPRESENTATION(#340,#337);
#336=REPRESENTATION('material name',(#338),#571);
#337=REPRESENTATION('density',(#333),#571);
#338=DESCRIPTIVE_REPRESENTATION_ITEM('Steel','Steel');
#339=PROPERTY_DEFINITION('material property','material name',#581);
#340=PROPERTY_DEFINITION('material property','density of part',#581);
#341=AXIS2_PLACEMENT_3D('',#476,#377,#378);
#342=AXIS2_PLACEMENT_3D('',#477,#379,#380);
#343=AXIS2_PLACEMENT_3D('',#480,#381,#382);
#344=AXIS2_PLACEMENT_3D('',#484,#384,#385);
#345=AXIS2_PLACEMENT_3D('',#486,#387,#388);
#346=AXIS2_PLACEMENT_3D('',#489,#389,#390);
#347=AXIS2_PLACEMENT_3D('',#493,#392,#393);
#348=AXIS2_PLACEMENT_3D('',#497,#396,#397);
#349=AXIS2_PLACEMENT_3D('',#500,#398,#399);
#350=AXIS2_PLACEMENT_3D('',#504,#401,#402);
#351=AXIS2_PLACEMENT_3D('',#508,#404,#405);
#352=AXIS2_PLACEMENT_3D('',#510,#406,#407);
#353=AXIS2_PLACEMENT_3D('',#512,#408,#409);
#354=AXIS2_PLACEMENT_3D('',#514,#411,#412);
#355=AXIS2_PLACEMENT_3D('',#517,#413,#414);
#356=AXIS2_PLACEMENT_3D('',#520,#417,#418);
#357=AXIS2_PLACEMENT_3D('',#526,#421,#422);
#358=AXIS2_PLACEMENT_3D('',#528,#424,#425);
#359=AXIS2_PLACEMENT_3D('',#533,#427,#428);
#360=AXIS2_PLACEMENT_3D('',#537,#430,#431);
#361=AXIS2_PLACEMENT_3D('',#539,#432,#433);
#362=AXIS2_PLACEMENT_3D('',#541,#434,#435);
#363=AXIS2_PLACEMENT_3D('',#544,#437,#438);
#364=AXIS2_PLACEMENT_3D('',#545,#439,#440);
#365=AXIS2_PLACEMENT_3D('',#547,#442,#443);
#366=AXIS2_PLACEMENT_3D('',#550,#446,#447);
#367=AXIS2_PLACEMENT_3D('',#552,#449,#450);
#368=AXIS2_PLACEMENT_3D('',#554,#452,#453);
#369=AXIS2_PLACEMENT_3D('',#556,#455,#456);
#370=AXIS2_PLACEMENT_3D('',#558,#458,#459);
#371=AXIS2_PLACEMENT_3D('',#560,#461,#462);
#372=AXIS2_PLACEMENT_3D('',#562,#464,#465);
#373=AXIS2_PLACEMENT_3D('',#563,#466,#467);
#374=AXIS2_PLACEMENT_3D('',#564,#468,#469);
#375=AXIS2_PLACEMENT_3D('',#566,#471,#472);
#376=AXIS2_PLACEMENT_3D('',#568,#474,#475);
#377=DIRECTION('axis',(0.,0.,1.));
#378=DIRECTION('refdir',(1.,0.,0.));
#379=DIRECTION('center_axis',(-1.,0.,0.));
#380=DIRECTION('ref_axis',(0.,0.940081319000548,-0.340950309673109));
#381=DIRECTION('center_axis',(-1.,0.,0.));
#382=DIRECTION('ref_axis',(0.,-1.,0.));
#383=DIRECTION('',(1.,0.,0.));
#384=DIRECTION('center_axis',(1.,0.,0.));
#385=DIRECTION('ref_axis',(0.,-1.,0.));
#386=DIRECTION('',(-1.,0.,0.));
#387=DIRECTION('center_axis',(-1.,0.,0.));
#388=DIRECTION('ref_axis',(0.,1.,0.));
#389=DIRECTION('center_axis',(-1.,0.,0.));
#390=DIRECTION('ref_axis',(0.,0.596058482278307,0.802941022556502));
#391=DIRECTION('',(0.,0.289428571408161,-0.957199614528041));
#392=DIRECTION('center_axis',(-1.,0.,0.));
#393=DIRECTION('ref_axis',(0.,1.,0.));
#394=DIRECTION('',(0.,0.849444605696111,-0.527677801175849));
#395=DIRECTION('',(0.,-1.,0.));
#396=DIRECTION('center_axis',(1.,0.,0.));
#397=DIRECTION('ref_axis',(0.,1.,0.));
#398=DIRECTION('center_axis',(1.,0.,0.));
#399=DIRECTION('ref_axis',(0.,0.596058482278308,0.802941022556501));
#400=DIRECTION('',(0.,-1.,0.));
#401=DIRECTION('center_axis',(1.,0.,0.));
#402=DIRECTION('ref_axis',(0.,-0.961624824371779,0.274367813622418));
#403=DIRECTION('',(0.,0.849444605696111,-0.527677801175849));
#404=DIRECTION('center_axis',(1.,0.,0.));
#405=DIRECTION('ref_axis',(0.,0.215332602076314,-0.976540767445499));
#406=DIRECTION('center_axis',(-1.,0.,0.));
#407=DIRECTION('ref_axis',(0.,1.,0.));
#408=DIRECTION('center_axis',(1.,0.,0.));
#409=DIRECTION('ref_axis',(0.,0.887333142465914,-0.461128934552545));
#410=DIRECTION('',(0.,-0.289428571408161,0.957199614528041));
#411=DIRECTION('center_axis',(-1.,0.,0.));
#412=DIRECTION('ref_axis',(0.,0.596058482278307,0.802941022556502));
#413=DIRECTION('center_axis',(1.,0.,0.));
#414=DIRECTION('ref_axis',(0.,0.596058482278307,0.802941022556502));
#415=DIRECTION('',(1.,0.,0.));
#416=DIRECTION('',(-1.,0.,0.));
#417=DIRECTION('center_axis',(-1.,0.,0.));
#418=DIRECTION('ref_axis',(0.,1.,0.));
#419=DIRECTION('',(0.,1.,0.));
#420=DIRECTION('',(0.,-0.849444605696111,0.527677801175849));
#421=DIRECTION('center_axis',(-1.,0.,0.));
#422=DIRECTION('ref_axis',(0.,1.,0.));
#423=DIRECTION('',(0.,0.289428571408161,-0.957199614528041));
#424=DIRECTION('center_axis',(1.,0.,0.));
#425=DIRECTION('ref_axis',(0.,1.,0.));
#426=DIRECTION('',(0.,-1.,0.));
#427=DIRECTION('center_axis',(-1.,0.,0.));
#428=DIRECTION('ref_axis',(0.,0.596058482278308,0.802941022556501));
#429=DIRECTION('',(0.,-0.289428571408161,0.957199614528041));
#430=DIRECTION('center_axis',(-1.,0.,0.));
#431=DIRECTION('ref_axis',(0.,0.887333142465914,-0.461128934552545));
#432=DIRECTION('center_axis',(-1.,0.,0.));
#433=DIRECTION('ref_axis',(0.,1.,0.));
#434=DIRECTION('center_axis',(-1.,0.,0.));
#435=DIRECTION('ref_axis',(0.,0.215332602076314,-0.976540767445499));
#436=DIRECTION('',(0.,0.849444605696111,-0.527677801175849));
#437=DIRECTION('center_axis',(-1.,0.,0.));
#438=DIRECTION('ref_axis',(0.,-0.961624824371779,0.274367813622418));
#439=DIRECTION('center_axis',(0.,-0.957199614528041,-0.289428571408161));
#440=DIRECTION('ref_axis',(0.,0.289428571408161,-0.957199614528041));
#441=DIRECTION('',(1.,0.,0.));
#442=DIRECTION('center_axis',(-1.,0.,0.));
#443=DIRECTION('ref_axis',(0.,-0.961624824371779,0.274367813622418));
#444=DIRECTION('',(-1.,0.,0.));
#445=DIRECTION('',(1.,0.,0.));
#446=DIRECTION('center_axis',(0.,-0.527677801175849,-0.849444605696111));
#447=DIRECTION('ref_axis',(0.,0.849444605696111,-0.527677801175849));
#448=DIRECTION('',(-1.,0.,0.));
#449=DIRECTION('center_axis',(-1.,0.,0.));
#450=DIRECTION('ref_axis',(0.,0.215332602076314,-0.976540767445499));
#451=DIRECTION('',(1.,0.,0.));
#452=DIRECTION('center_axis',(-1.,0.,0.));
#453=DIRECTION('ref_axis',(0.,1.,0.));
#454=DIRECTION('',(-1.,0.,0.));
#455=DIRECTION('center_axis',(-1.,0.,0.));
#456=DIRECTION('ref_axis',(0.,0.887333142465914,-0.461128934552545));
#457=DIRECTION('',(1.,0.,0.));
#458=DIRECTION('center_axis',(0.,0.957199614528041,0.289428571408161));
#459=DIRECTION('ref_axis',(0.,-0.289428571408161,0.957199614528041));
#460=DIRECTION('',(-1.,0.,0.));
#461=DIRECTION('center_axis',(-1.,0.,0.));
#462=DIRECTION('ref_axis',(0.,0.596058482278308,0.802941022556501));
#463=DIRECTION('',(1.,0.,0.));
#464=DIRECTION('center_axis',(0.,0.,1.));
#465=DIRECTION('ref_axis',(0.,-1.,0.));
#466=DIRECTION('center_axis',(-1.,0.,0.));
#467=DIRECTION('ref_axis',(0.,-0.940081319000548,0.34095030967311));
#468=DIRECTION('center_axis',(0.,0.,-1.));
#469=DIRECTION('ref_axis',(0.,1.,0.));
#470=DIRECTION('',(1.,0.,0.));
#471=DIRECTION('center_axis',(0.,0.527677801175849,0.849444605696111));
#472=DIRECTION('ref_axis',(0.,-0.849444605696111,0.527677801175849));
#473=DIRECTION('',(1.,0.,0.));
#474=DIRECTION('center_axis',(-1.,0.,0.));
#475=DIRECTION('ref_axis',(0.,1.,0.));
#476=CARTESIAN_POINT('',(0.,0.,0.));
#477=CARTESIAN_POINT('Origin',(102.7425,-118.962635167477,0.0835417367099348));
#478=CARTESIAN_POINT('',(83.3623,-117.56615249169,2.44080111560999));
#479=CARTESIAN_POINT('',(83.3623,-119.4019289985,-2.62087253873132));
#480=CARTESIAN_POINT('Origin',(83.3623,-118.962635167477,0.0835417367099348));
#481=CARTESIAN_POINT('',(78.6125,-117.56615249169,2.44080111560999));
#482=CARTESIAN_POINT('',(102.7425,-117.56615249169,2.44080111560999));
#483=CARTESIAN_POINT('',(78.6125,-119.4019289985,-2.62087253873132));
#484=CARTESIAN_POINT('Origin',(78.6125,-118.962635167477,0.0835417367099348));
#485=CARTESIAN_POINT('',(102.7425,-119.4019289985,-2.62087253873132));
#486=CARTESIAN_POINT('Origin',(78.6125,-135.655765589162,6.55063771301844));
#487=CARTESIAN_POINT('',(78.6125,-123.913884651734,18.0000000000181));
#488=CARTESIAN_POINT('',(78.6125,-117.835667099481,13.4878714284599));
#489=CARTESIAN_POINT('Origin',(78.6125,-123.913884651734,11.6500000000181));
#490=CARTESIAN_POINT('',(78.6125,-114.225533105673,1.54841828305957));
#491=CARTESIAN_POINT('',(78.6125,-119.200000000012,18.0000000000181));
#492=CARTESIAN_POINT('',(78.6125,-121.649920184192,-4.14594760246177));
#493=CARTESIAN_POINT('Origin',(78.6125,-119.011531178313,0.101275426018783));
#494=CARTESIAN_POINT('',(78.6125,-157.300000000012,18.0000000000181));
#495=CARTESIAN_POINT('',(78.6125,-157.300000000012,18.0000000000181));
#496=CARTESIAN_POINT('',(78.6125,-119.200000000012,18.0000000000181));
#497=CARTESIAN_POINT('Origin',(78.6125,-119.011531178313,0.101275426018783));
#498=CARTESIAN_POINT('',(78.6125,-121.1272311761,13.4038571428344));
#499=CARTESIAN_POINT('',(78.6125,-123.041630405156,14.8250000000181));
#500=CARTESIAN_POINT('Origin',(78.6125,-123.041630405156,12.8250000000181));
#501=CARTESIAN_POINT('',(78.6125,-139.162273127382,14.8250000000181));
#502=CARTESIAN_POINT('',(78.6125,-121.556942325873,14.8250000000181));
#503=CARTESIAN_POINT('',(78.6125,-140.217628729734,11.1261107886259));
#504=CARTESIAN_POINT('Origin',(78.6125,-139.162273127382,12.8250000000181));
#505=CARTESIAN_POINT('',(78.6125,-125.918796954829,2.24362915324924));
#506=CARTESIAN_POINT('',(78.6125,-146.172022643374,14.8250000000181));
#507=CARTESIAN_POINT('',(78.6125,-123.191467017001,2.84502038217785));
#508=CARTESIAN_POINT('Origin',(78.6125,-124.863441352477,3.94251836464148));
#509=CARTESIAN_POINT('',(78.6125,-120.577871684344,4.84959906907091));
#510=CARTESIAN_POINT('Origin',(78.6125,-119.011531178313,0.101275426018783));
#511=CARTESIAN_POINT('',(78.6125,-119.2900086577,7.32778566910806));
#512=CARTESIAN_POINT('Origin',(78.6125,-121.204407886756,6.74892852629175));
#513=CARTESIAN_POINT('',(78.6125,-121.556942325873,14.8250000000181));
#514=CARTESIAN_POINT('Origin',(78.6125,-123.913884651734,11.6500000000181));
#515=CARTESIAN_POINT('',(83.3623,-117.835667099481,13.4878714284599));
#516=CARTESIAN_POINT('',(83.3623,-123.913884651734,18.0000000000181));
#517=CARTESIAN_POINT('Origin',(83.3623,-123.913884651734,11.6500000000181));
#518=CARTESIAN_POINT('',(78.6125,-117.835667099481,13.4878714284599));
#519=CARTESIAN_POINT('',(78.6125,-123.913884651734,18.0000000000181));
#520=CARTESIAN_POINT('Origin',(83.3623,-135.655765589162,6.55063771301844));
#521=CARTESIAN_POINT('',(83.3623,-157.300000000012,18.0000000000181));
#522=CARTESIAN_POINT('',(83.3623,-119.200000000012,18.0000000000181));
#523=CARTESIAN_POINT('',(83.3623,-121.649920184192,-4.14594760246177));
#524=CARTESIAN_POINT('',(83.3623,-157.300000000012,18.0000000000181));
#525=CARTESIAN_POINT('',(83.3623,-114.225533105673,1.54841828305957));
#526=CARTESIAN_POINT('Origin',(83.3623,-119.011531178313,0.101275426018783));
#527=CARTESIAN_POINT('',(83.3623,-119.200000000012,18.0000000000181));
#528=CARTESIAN_POINT('Origin',(83.3623,-119.011531178313,0.101275426018783));
#529=CARTESIAN_POINT('',(83.3623,-123.041630405156,14.8250000000181));
#530=CARTESIAN_POINT('',(83.3623,-139.162273127382,14.8250000000181));
#531=CARTESIAN_POINT('',(83.3623,-121.556942325873,14.8250000000181));
#532=CARTESIAN_POINT('',(83.3623,-121.1272311761,13.4038571428344));
#533=CARTESIAN_POINT('Origin',(83.3623,-123.041630405156,12.8250000000181));
#534=CARTESIAN_POINT('',(83.3623,-119.2900086577,7.32778566910806));
#535=CARTESIAN_POINT('',(83.3623,-121.556942325873,14.8250000000181));
#536=CARTESIAN_POINT('',(83.3623,-120.577871684344,4.84959906907091));
#537=CARTESIAN_POINT('Origin',(83.3623,-121.204407886756,6.74892852629175));
#538=CARTESIAN_POINT('',(83.3623,-123.191467017001,2.84502038217785));
#539=CARTESIAN_POINT('Origin',(83.3623,-119.011531178313,0.101275426018783));
#540=CARTESIAN_POINT('',(83.3623,-125.918796954829,2.24362915324924));
#541=CARTESIAN_POINT('Origin',(83.3623,-124.863441352477,3.94251836464148));
#542=CARTESIAN_POINT('',(83.3623,-140.217628729734,11.1261107886259));
#543=CARTESIAN_POINT('',(83.3623,-146.172022643374,14.8250000000181));
#544=CARTESIAN_POINT('Origin',(83.3623,-139.162273127382,12.8250000000181));
#545=CARTESIAN_POINT('Origin',(78.6125,-119.200000000012,18.0000000000181));
#546=CARTESIAN_POINT('',(78.6125,-114.225533105673,1.54841828305957));
#547=CARTESIAN_POINT('Origin',(78.6125,-139.162273127382,12.8250000000181));
#548=CARTESIAN_POINT('',(78.6125,-139.162273127382,14.8250000000181));
#549=CARTESIAN_POINT('',(78.6125,-140.217628729734,11.1261107886259));
#550=CARTESIAN_POINT('Origin',(78.6125,-146.172022643374,14.8250000000181));
#551=CARTESIAN_POINT('',(78.6125,-125.918796954829,2.24362915324924));
#552=CARTESIAN_POINT('Origin',(78.6125,-124.863441352477,3.94251836464148));
#553=CARTESIAN_POINT('',(78.6125,-123.191467017001,2.84502038217785));
#554=CARTESIAN_POINT('Origin',(78.6125,-119.011531178313,0.101275426018783));
#555=CARTESIAN_POINT('',(78.6125,-120.577871684344,4.84959906907091));
#556=CARTESIAN_POINT('Origin',(78.6125,-121.204407886756,6.74892852629175));
#557=CARTESIAN_POINT('',(78.6125,-119.2900086577,7.32778566910806));
#558=CARTESIAN_POINT('Origin',(78.6125,-118.611942762434,5.08528275926931));
#559=CARTESIAN_POINT('',(78.6125,-121.1272311761,13.4038571428344));
#560=CARTESIAN_POINT('Origin',(78.6125,-123.041630405156,12.8250000000181));
#561=CARTESIAN_POINT('',(78.6125,-123.041630405156,14.8250000000181));
#562=CARTESIAN_POINT('Origin',(78.6125,-121.556942325873,14.8250000000181));
#563=CARTESIAN_POINT('Origin',(78.6125,-119.011531178313,0.101275426018783));
#564=CARTESIAN_POINT('Origin',(78.6125,-157.300000000012,18.0000000000181));
#565=CARTESIAN_POINT('',(78.6125,-157.300000000012,18.0000000000181));
#566=CARTESIAN_POINT('Origin',(78.6125,-121.649920184192,-4.14594760246177));
#567=CARTESIAN_POINT('',(78.6125,-121.649920184192,-4.14594760246177));
#568=CARTESIAN_POINT('Origin',(78.6125,-119.011531178313,0.101275426018783));
#569=UNCERTAINTY_MEASURE_WITH_UNIT(LENGTH_MEASURE(0.01),#573,
'DISTANCE_ACCURACY_VALUE',
'Maximum model space distance between geometric entities at asserted c
onnectivities');
#570=UNCERTAINTY_MEASURE_WITH_UNIT(LENGTH_MEASURE(0.01),#573,
'DISTANCE_ACCURACY_VALUE',
'Maximum model space distance between geometric entities at asserted c
onnectivities');
#571=(
GEOMETRIC_REPRESENTATION_CONTEXT(3)
GLOBAL_UNCERTAINTY_ASSIGNED_CONTEXT((#569))
GLOBAL_UNIT_ASSIGNED_CONTEXT((#573,#575,#576))
REPRESENTATION_CONTEXT('','3D')
);
#572=(
GEOMETRIC_REPRESENTATION_CONTEXT(3)
GLOBAL_UNCERTAINTY_ASSIGNED_CONTEXT((#570))
GLOBAL_UNIT_ASSIGNED_CONTEXT((#573,#575,#576))
REPRESENTATION_CONTEXT('','3D')
);
#573=(
LENGTH_UNIT()
NAMED_UNIT(*)
SI_UNIT(.MILLI.,.METRE.)
);
#574=(
LENGTH_UNIT()
NAMED_UNIT(*)
SI_UNIT($,.METRE.)
);
#575=(
NAMED_UNIT(*)
PLANE_ANGLE_UNIT()
SI_UNIT($,.RADIAN.)
);
#576=(
NAMED_UNIT(*)
SI_UNIT($,.STERADIAN.)
SOLID_ANGLE_UNIT()
);
#577=SHAPE_DEFINITION_REPRESENTATION(#578,#579);
#578=PRODUCT_DEFINITION_SHAPE('',$,#581);
#579=SHAPE_REPRESENTATION('',(#341),#571);
#580=PRODUCT_DEFINITION_CONTEXT('part definition',#585,'design');
#581=PRODUCT_DEFINITION('Component120(Mirror)','Component120(Mirror)',#582,
#580);
#582=PRODUCT_DEFINITION_FORMATION('',$,#587);
#583=PRODUCT_RELATED_PRODUCT_CATEGORY('Component120(Mirror)',
'Component120(Mirror)',(#587));
#584=APPLICATION_PROTOCOL_DEFINITION('international standard',
'automotive_design',2009,#585);
#585=APPLICATION_CONTEXT(
'Core Data for Automotive Mechanical Design Process');
#586=PRODUCT_CONTEXT('part definition',#585,'mechanical');
#587=PRODUCT('Component120(Mirror)','Component120(Mirror)',$,(#586));
#588=PRESENTATION_STYLE_ASSIGNMENT((#590));
#589=PRESENTATION_STYLE_ASSIGNMENT((#591));
#590=SURFACE_STYLE_USAGE(.BOTH.,#592);
#591=SURFACE_STYLE_USAGE(.BOTH.,#593);
#592=SURFACE_SIDE_STYLE('',(#594));
#593=SURFACE_SIDE_STYLE('',(#595));
#594=SURFACE_STYLE_FILL_AREA(#596);
#595=SURFACE_STYLE_FILL_AREA(#597);
#596=FILL_AREA_STYLE('Steel - Satin',(#598));
#597=FILL_AREA_STYLE('Opaque(232,173,35)',(#599));
#598=FILL_AREA_STYLE_COLOUR('Steel - Satin',#600);
#599=FILL_AREA_STYLE_COLOUR('Opaque(232,173,35)',#601);
#600=COLOUR_RGB('Steel - Satin',0.627450980392157,0.627450980392157,0.627450980392157);
#601=COLOUR_RGB('Opaque(232,173,35)',0.909803921568627,0.67843137254902,
0.137254901960784);
ENDSEC;
END-ISO-10303-21;
