ISO-10303-21;
HEADER;
/* Generated by software containing ST-Developer
 * from STEP Tools, Inc. (www.steptools.com) 
 */

FILE_DESCRIPTION(
/* description */ (''),
/* implementation_level */ '2;1');

FILE_NAME(
/* name */ 'spinner v2.step',
/* time_stamp */ '2025-12-17T22:58:59+02:00',
/* author */ (''),
/* organization */ (''),
/* preprocessor_version */ 'ST-DEVELOPER v20.1',
/* originating_system */ 'Autodesk Translation Framework v14.21.0.0',
/* authorisation */ '');

FILE_SCHEMA (('AUTOMOTIVE_DESIGN { 1 0 10303 214 3 1 1 }'));
ENDSEC;

DATA;
#10=MECHANICAL_DESIGN_GEOMETRIC_PRESENTATION_REPRESENTATION('',(#13),#1205);
#11=SHAPE_REPRESENTATION_RELATIONSHIP('SRR','None',#1215,#12);
#12=ADVANCED_BREP_SHAPE_REPRESENTATION('',(#14),#1204);
#13=STYLED_ITEM('',(#1225),#14);
#14=MANIFOLD_SOLID_BREP('Body1',#677);
#15=B_SPLINE_CURVE_WITH_KNOTS('',3,(#1019,#1020,#1021,#1022,#1023,#1024,
#1025,#1026,#1027,#1028),.UNSPECIFIED.,.F.,.F.,(4,2,2,2,4),(-1.8096833297154,
-1.58346834535205,-1.35725336098871,-1.13097403143982,-0.904694701890942),
 .UNSPECIFIED.);
#16=B_SPLINE_CURVE_WITH_KNOTS('',3,(#1032,#1033,#1034,#1035,#1036,#1037,
#1038,#1039,#1040,#1041),.UNSPECIFIED.,.F.,.F.,(4,2,2,2,4),(-0.904988627824458,
-0.678709298275576,-0.452429968726694,-0.226214984363347,0.),
 .UNSPECIFIED.);
#17=B_SPLINE_CURVE_WITH_KNOTS('',3,(#1161,#1162,#1163,#1164,#1165,#1166,
#1167,#1168,#1169,#1170),.UNSPECIFIED.,.F.,.F.,(4,2,2,2,4),(0.904694701890942,
1.13097403143982,1.35725336098871,1.58346834535205,1.8096833297154),
 .UNSPECIFIED.);
#18=B_SPLINE_CURVE_WITH_KNOTS('',3,(#1175,#1176,#1177,#1178,#1179,#1180,
#1181,#1182,#1183,#1184),.UNSPECIFIED.,.F.,.F.,(4,2,2,2,4),(0.,0.226214984363347,
0.452429968726694,0.678709298275576,0.904988627824458),.UNSPECIFIED.);
#19=FACE_BOUND('',#82,.T.);
#20=FACE_BOUND('',#83,.T.);
#21=FACE_BOUND('',#84,.T.);
#22=FACE_BOUND('',#85,.T.);
#23=FACE_BOUND('',#86,.T.);
#24=FACE_BOUND('',#101,.T.);
#25=FACE_BOUND('',#102,.T.);
#26=FACE_BOUND('',#103,.T.);
#27=FACE_BOUND('',#104,.T.);
#28=FACE_BOUND('',#105,.T.);
#29=FACE_BOUND('',#110,.T.);
#30=FACE_BOUND('',#111,.T.);
#31=FACE_BOUND('',#112,.T.);
#32=FACE_BOUND('',#113,.T.);
#33=FACE_BOUND('',#114,.T.);
#34=FACE_BOUND('',#120,.T.);
#35=FACE_BOUND('',#121,.T.);
#36=FACE_BOUND('',#122,.T.);
#37=FACE_BOUND('',#123,.T.);
#38=FACE_BOUND('',#124,.T.);
#39=PLANE('',#694);
#40=PLANE('',#737);
#41=PLANE('',#740);
#42=PLANE('',#746);
#43=PLANE('',#750);
#44=PLANE('',#755);
#45=PLANE('',#758);
#46=PLANE('',#767);
#47=PLANE('',#768);
#48=FACE_OUTER_BOUND('',#80,.T.);
#49=FACE_OUTER_BOUND('',#81,.T.);
#50=FACE_OUTER_BOUND('',#87,.T.);
#51=FACE_OUTER_BOUND('',#88,.T.);
#52=FACE_OUTER_BOUND('',#89,.T.);
#53=FACE_OUTER_BOUND('',#90,.T.);
#54=FACE_OUTER_BOUND('',#91,.T.);
#55=FACE_OUTER_BOUND('',#92,.T.);
#56=FACE_OUTER_BOUND('',#93,.T.);
#57=FACE_OUTER_BOUND('',#94,.T.);
#58=FACE_OUTER_BOUND('',#95,.T.);
#59=FACE_OUTER_BOUND('',#96,.T.);
#60=FACE_OUTER_BOUND('',#97,.T.);
#61=FACE_OUTER_BOUND('',#98,.T.);
#62=FACE_OUTER_BOUND('',#99,.T.);
#63=FACE_OUTER_BOUND('',#100,.T.);
#64=FACE_OUTER_BOUND('',#106,.T.);
#65=FACE_OUTER_BOUND('',#107,.T.);
#66=FACE_OUTER_BOUND('',#108,.T.);
#67=FACE_OUTER_BOUND('',#109,.T.);
#68=FACE_OUTER_BOUND('',#115,.T.);
#69=FACE_OUTER_BOUND('',#116,.T.);
#70=FACE_OUTER_BOUND('',#117,.T.);
#71=FACE_OUTER_BOUND('',#118,.T.);
#72=FACE_OUTER_BOUND('',#119,.T.);
#73=FACE_OUTER_BOUND('',#125,.T.);
#74=FACE_OUTER_BOUND('',#126,.T.);
#75=FACE_OUTER_BOUND('',#127,.T.);
#76=FACE_OUTER_BOUND('',#128,.T.);
#77=FACE_OUTER_BOUND('',#129,.T.);
#78=FACE_OUTER_BOUND('',#130,.T.);
#79=FACE_OUTER_BOUND('',#131,.T.);
#80=EDGE_LOOP('',(#430,#431,#432,#433));
#81=EDGE_LOOP('',(#434,#435,#436,#437,#438,#439,#440,#441,#442,#443));
#82=EDGE_LOOP('',(#444));
#83=EDGE_LOOP('',(#445));
#84=EDGE_LOOP('',(#446));
#85=EDGE_LOOP('',(#447));
#86=EDGE_LOOP('',(#448));
#87=EDGE_LOOP('',(#449,#450,#451,#452,#453,#454,#455,#456,#457,#458));
#88=EDGE_LOOP('',(#459,#460,#461,#462));
#89=EDGE_LOOP('',(#463,#464,#465,#466));
#90=EDGE_LOOP('',(#467,#468,#469,#470));
#91=EDGE_LOOP('',(#471,#472,#473,#474));
#92=EDGE_LOOP('',(#475,#476,#477,#478));
#93=EDGE_LOOP('',(#479,#480,#481,#482));
#94=EDGE_LOOP('',(#483,#484,#485,#486));
#95=EDGE_LOOP('',(#487,#488,#489,#490));
#96=EDGE_LOOP('',(#491,#492,#493,#494));
#97=EDGE_LOOP('',(#495,#496,#497,#498));
#98=EDGE_LOOP('',(#499,#500,#501,#502));
#99=EDGE_LOOP('',(#503,#504,#505,#506,#507,#508,#509,#510,#511,#512));
#100=EDGE_LOOP('',(#513,#514,#515,#516,#517,#518,#519,#520,#521,#522));
#101=EDGE_LOOP('',(#523));
#102=EDGE_LOOP('',(#524));
#103=EDGE_LOOP('',(#525));
#104=EDGE_LOOP('',(#526));
#105=EDGE_LOOP('',(#527));
#106=EDGE_LOOP('',(#528,#529,#530,#531));
#107=EDGE_LOOP('',(#532,#533,#534,#535,#536,#537,#538,#539,#540,#541));
#108=EDGE_LOOP('',(#542,#543,#544,#545));
#109=EDGE_LOOP('',(#546,#547,#548,#549,#550,#551,#552,#553));
#110=EDGE_LOOP('',(#554));
#111=EDGE_LOOP('',(#555));
#112=EDGE_LOOP('',(#556));
#113=EDGE_LOOP('',(#557));
#114=EDGE_LOOP('',(#558));
#115=EDGE_LOOP('',(#559,#560,#561,#562));
#116=EDGE_LOOP('',(#563,#564,#565,#566));
#117=EDGE_LOOP('',(#567,#568,#569,#570));
#118=EDGE_LOOP('',(#571,#572,#573,#574));
#119=EDGE_LOOP('',(#575,#576,#577,#578,#579,#580,#581,#582));
#120=EDGE_LOOP('',(#583));
#121=EDGE_LOOP('',(#584));
#122=EDGE_LOOP('',(#585));
#123=EDGE_LOOP('',(#586));
#124=EDGE_LOOP('',(#587));
#125=EDGE_LOOP('',(#588,#589,#590,#591));
#126=EDGE_LOOP('',(#592,#593,#594,#595));
#127=EDGE_LOOP('',(#596,#597,#598,#599));
#128=EDGE_LOOP('',(#600,#601,#602,#603,#604,#605,#606,#607,#608,#609));
#129=EDGE_LOOP('',(#610,#611,#612,#613));
#130=EDGE_LOOP('',(#614,#615,#616,#617));
#131=EDGE_LOOP('',(#618,#619,#620,#621));
#132=CIRCLE('',#692,1.77165354330709);
#133=CIRCLE('',#693,1.77165354330709);
#134=CIRCLE('',#695,2.15229652942036);
#135=CIRCLE('',#696,0.5);
#136=CIRCLE('',#697,0.196850393700787);
#137=CIRCLE('',#698,0.196850393700787);
#138=CIRCLE('',#699,0.5);
#139=CIRCLE('',#700,2.15229652942036);
#140=CIRCLE('',#701,0.287155511811024);
#141=CIRCLE('',#702,0.0826771653543307);
#142=CIRCLE('',#703,0.0826771653543307);
#143=CIRCLE('',#704,0.0826771653543307);
#144=CIRCLE('',#705,0.0826771653543307);
#145=CIRCLE('',#707,2.15229652942036);
#146=CIRCLE('',#708,2.15229652942036);
#147=CIRCLE('',#709,2.15229652942036);
#148=CIRCLE('',#711,0.0826771653543307);
#149=CIRCLE('',#713,0.0826771653543307);
#150=CIRCLE('',#714,0.0826771653543307);
#151=CIRCLE('',#716,0.0826771653543307);
#152=CIRCLE('',#718,0.0826771653543307);
#153=CIRCLE('',#719,0.0826771653543307);
#154=CIRCLE('',#721,0.0826771653543307);
#155=CIRCLE('',#723,0.0826771653543307);
#156=CIRCLE('',#724,0.0826771653543307);
#157=CIRCLE('',#726,0.0826771653543307);
#158=CIRCLE('',#728,0.0826771653543307);
#159=CIRCLE('',#729,0.0826771653543307);
#160=CIRCLE('',#731,0.287155511811024);
#161=CIRCLE('',#733,0.287155511811024);
#162=CIRCLE('',#734,0.287155511811024);
#163=CIRCLE('',#736,0.196850393700787);
#164=CIRCLE('',#738,0.31496062992126);
#165=CIRCLE('',#739,0.31496062992126);
#166=CIRCLE('',#741,2.15229652942036);
#167=CIRCLE('',#742,0.5);
#168=CIRCLE('',#743,0.196850393700787);
#169=CIRCLE('',#744,0.5);
#170=CIRCLE('',#747,0.31496062992126);
#171=CIRCLE('',#748,0.31496062992126);
#172=CIRCLE('',#751,0.5);
#173=CIRCLE('',#752,2.15229652942036);
#174=CIRCLE('',#753,0.5);
#175=CIRCLE('',#759,0.5);
#176=CIRCLE('',#760,2.15229652942036);
#177=CIRCLE('',#761,0.5);
#178=LINE('',#977,#224);
#179=LINE('',#981,#225);
#180=LINE('',#989,#226);
#181=LINE('',#993,#227);
#182=LINE('',#997,#228);
#183=LINE('',#1015,#229);
#184=LINE('',#1030,#230);
#185=LINE('',#1044,#231);
#186=LINE('',#1048,#232);
#187=LINE('',#1053,#233);
#188=LINE('',#1058,#234);
#189=LINE('',#1063,#235);
#190=LINE('',#1068,#236);
#191=LINE('',#1073,#237);
#192=LINE('',#1078,#238);
#193=LINE('',#1083,#239);
#194=LINE('',#1088,#240);
#195=LINE('',#1093,#241);
#196=LINE('',#1099,#242);
#197=LINE('',#1100,#243);
#198=LINE('',#1103,#244);
#199=LINE('',#1105,#245);
#200=LINE('',#1107,#246);
#201=LINE('',#1111,#247);
#202=LINE('',#1115,#248);
#203=LINE('',#1116,#249);
#204=LINE('',#1122,#250);
#205=LINE('',#1126,#251);
#206=LINE('',#1129,#252);
#207=LINE('',#1130,#253);
#208=LINE('',#1133,#254);
#209=LINE('',#1135,#255);
#210=LINE('',#1139,#256);
#211=LINE('',#1143,#257);
#212=LINE('',#1144,#258);
#213=LINE('',#1146,#259);
#214=LINE('',#1147,#260);
#215=LINE('',#1153,#261);
#216=LINE('',#1156,#262);
#217=LINE('',#1157,#263);
#218=LINE('',#1171,#264);
#219=LINE('',#1185,#265);
#220=LINE('',#1186,#266);
#221=LINE('',#1195,#267);
#222=LINE('',#1197,#268);
#223=LINE('',#1198,#269);
#224=VECTOR('',#773,0.393700787401575);
#225=VECTOR('',#776,0.393700787401575);
#226=VECTOR('',#785,0.393700787401575);
#227=VECTOR('',#788,0.393700787401575);
#228=VECTOR('',#791,0.393700787401575);
#229=VECTOR('',#810,0.393700787401575);
#230=VECTOR('',#813,0.393700787401575);
#231=VECTOR('',#816,0.393700787401575);
#232=VECTOR('',#821,0.0826771653543307);
#233=VECTOR('',#826,0.0826771653543307);
#234=VECTOR('',#833,0.0826771653543307);
#235=VECTOR('',#838,0.0826771653543307);
#236=VECTOR('',#845,0.0826771653543307);
#237=VECTOR('',#850,0.0826771653543307);
#238=VECTOR('',#857,0.0826771653543307);
#239=VECTOR('',#862,0.0826771653543307);
#240=VECTOR('',#869,0.287155511811024);
#241=VECTOR('',#874,0.287155511811024);
#242=VECTOR('',#881,0.393700787401575);
#243=VECTOR('',#882,0.393700787401575);
#244=VECTOR('',#885,0.393700787401575);
#245=VECTOR('',#886,0.393700787401575);
#246=VECTOR('',#887,0.393700787401575);
#247=VECTOR('',#890,0.393700787401575);
#248=VECTOR('',#893,0.393700787401575);
#249=VECTOR('',#894,0.393700787401575);
#250=VECTOR('',#901,0.393700787401575);
#251=VECTOR('',#904,0.393700787401575);
#252=VECTOR('',#909,0.393700787401575);
#253=VECTOR('',#910,0.393700787401575);
#254=VECTOR('',#913,0.393700787401575);
#255=VECTOR('',#914,0.393700787401575);
#256=VECTOR('',#917,0.393700787401575);
#257=VECTOR('',#920,0.393700787401575);
#258=VECTOR('',#921,0.393700787401575);
#259=VECTOR('',#924,0.393700787401575);
#260=VECTOR('',#925,0.393700787401575);
#261=VECTOR('',#932,0.393700787401575);
#262=VECTOR('',#937,0.393700787401575);
#263=VECTOR('',#938,0.393700787401575);
#264=VECTOR('',#943,0.393700787401575);
#265=VECTOR('',#946,0.393700787401575);
#266=VECTOR('',#947,0.393700787401575);
#267=VECTOR('',#962,0.393700787401575);
#268=VECTOR('',#965,0.393700787401575);
#269=VECTOR('',#966,0.393700787401575);
#270=VERTEX_POINT('',#975);
#271=VERTEX_POINT('',#976);
#272=VERTEX_POINT('',#978);
#273=VERTEX_POINT('',#980);
#274=VERTEX_POINT('',#984);
#275=VERTEX_POINT('',#986);
#276=VERTEX_POINT('',#988);
#277=VERTEX_POINT('',#990);
#278=VERTEX_POINT('',#992);
#279=VERTEX_POINT('',#994);
#280=VERTEX_POINT('',#996);
#281=VERTEX_POINT('',#998);
#282=VERTEX_POINT('',#1001);
#283=VERTEX_POINT('',#1003);
#284=VERTEX_POINT('',#1005);
#285=VERTEX_POINT('',#1007);
#286=VERTEX_POINT('',#1009);
#287=VERTEX_POINT('',#1012);
#288=VERTEX_POINT('',#1014);
#289=VERTEX_POINT('',#1016);
#290=VERTEX_POINT('',#1018);
#291=VERTEX_POINT('',#1029);
#292=VERTEX_POINT('',#1031);
#293=VERTEX_POINT('',#1042);
#294=VERTEX_POINT('',#1046);
#295=VERTEX_POINT('',#1050);
#296=VERTEX_POINT('',#1052);
#297=VERTEX_POINT('',#1056);
#298=VERTEX_POINT('',#1060);
#299=VERTEX_POINT('',#1062);
#300=VERTEX_POINT('',#1066);
#301=VERTEX_POINT('',#1070);
#302=VERTEX_POINT('',#1072);
#303=VERTEX_POINT('',#1076);
#304=VERTEX_POINT('',#1080);
#305=VERTEX_POINT('',#1082);
#306=VERTEX_POINT('',#1086);
#307=VERTEX_POINT('',#1090);
#308=VERTEX_POINT('',#1092);
#309=VERTEX_POINT('',#1096);
#310=VERTEX_POINT('',#1097);
#311=VERTEX_POINT('',#1102);
#312=VERTEX_POINT('',#1104);
#313=VERTEX_POINT('',#1106);
#314=VERTEX_POINT('',#1108);
#315=VERTEX_POINT('',#1110);
#316=VERTEX_POINT('',#1112);
#317=VERTEX_POINT('',#1114);
#318=VERTEX_POINT('',#1118);
#319=VERTEX_POINT('',#1121);
#320=VERTEX_POINT('',#1123);
#321=VERTEX_POINT('',#1125);
#322=VERTEX_POINT('',#1132);
#323=VERTEX_POINT('',#1134);
#324=VERTEX_POINT('',#1136);
#325=VERTEX_POINT('',#1138);
#326=VERTEX_POINT('',#1140);
#327=VERTEX_POINT('',#1142);
#328=VERTEX_POINT('',#1149);
#329=VERTEX_POINT('',#1151);
#330=VERTEX_POINT('',#1160);
#331=VERTEX_POINT('',#1173);
#332=VERTEX_POINT('',#1174);
#333=VERTEX_POINT('',#1189);
#334=EDGE_CURVE('',#270,#271,#178,.T.);
#335=EDGE_CURVE('',#272,#270,#132,.T.);
#336=EDGE_CURVE('',#272,#273,#179,.T.);
#337=EDGE_CURVE('',#271,#273,#133,.T.);
#338=EDGE_CURVE('',#270,#274,#134,.T.);
#339=EDGE_CURVE('',#275,#274,#135,.T.);
#340=EDGE_CURVE('',#276,#275,#180,.T.);
#341=EDGE_CURVE('',#277,#276,#136,.T.);
#342=EDGE_CURVE('',#278,#277,#181,.T.);
#343=EDGE_CURVE('',#279,#278,#137,.T.);
#344=EDGE_CURVE('',#280,#279,#182,.T.);
#345=EDGE_CURVE('',#281,#280,#138,.T.);
#346=EDGE_CURVE('',#281,#272,#139,.T.);
#347=EDGE_CURVE('',#282,#282,#140,.T.);
#348=EDGE_CURVE('',#283,#283,#141,.T.);
#349=EDGE_CURVE('',#284,#284,#142,.T.);
#350=EDGE_CURVE('',#285,#285,#143,.T.);
#351=EDGE_CURVE('',#286,#286,#144,.T.);
#352=EDGE_CURVE('',#287,#271,#145,.T.);
#353=EDGE_CURVE('',#288,#287,#183,.T.);
#354=EDGE_CURVE('',#289,#288,#146,.T.);
#355=EDGE_CURVE('',#290,#289,#15,.T.);
#356=EDGE_CURVE('',#291,#290,#184,.T.);
#357=EDGE_CURVE('',#292,#291,#16,.T.);
#358=EDGE_CURVE('',#293,#292,#147,.T.);
#359=EDGE_CURVE('',#274,#293,#185,.T.);
#360=EDGE_CURVE('',#294,#294,#148,.T.);
#361=EDGE_CURVE('',#294,#286,#186,.T.);
#362=EDGE_CURVE('',#295,#295,#149,.T.);
#363=EDGE_CURVE('',#295,#296,#187,.T.);
#364=EDGE_CURVE('',#296,#296,#150,.T.);
#365=EDGE_CURVE('',#297,#297,#151,.T.);
#366=EDGE_CURVE('',#297,#285,#188,.T.);
#367=EDGE_CURVE('',#298,#298,#152,.T.);
#368=EDGE_CURVE('',#298,#299,#189,.T.);
#369=EDGE_CURVE('',#299,#299,#153,.T.);
#370=EDGE_CURVE('',#300,#300,#154,.T.);
#371=EDGE_CURVE('',#300,#284,#190,.T.);
#372=EDGE_CURVE('',#301,#301,#155,.T.);
#373=EDGE_CURVE('',#301,#302,#191,.T.);
#374=EDGE_CURVE('',#302,#302,#156,.T.);
#375=EDGE_CURVE('',#303,#303,#157,.T.);
#376=EDGE_CURVE('',#303,#283,#192,.T.);
#377=EDGE_CURVE('',#304,#304,#158,.T.);
#378=EDGE_CURVE('',#304,#305,#193,.T.);
#379=EDGE_CURVE('',#305,#305,#159,.T.);
#380=EDGE_CURVE('',#306,#306,#160,.T.);
#381=EDGE_CURVE('',#306,#282,#194,.T.);
#382=EDGE_CURVE('',#307,#307,#161,.T.);
#383=EDGE_CURVE('',#307,#308,#195,.T.);
#384=EDGE_CURVE('',#308,#308,#162,.T.);
#385=EDGE_CURVE('',#309,#310,#163,.T.);
#386=EDGE_CURVE('',#310,#279,#196,.T.);
#387=EDGE_CURVE('',#278,#309,#197,.T.);
#388=EDGE_CURVE('',#310,#311,#198,.T.);
#389=EDGE_CURVE('',#312,#311,#199,.T.);
#390=EDGE_CURVE('',#312,#313,#200,.T.);
#391=EDGE_CURVE('',#314,#313,#164,.T.);
#392=EDGE_CURVE('',#314,#315,#201,.T.);
#393=EDGE_CURVE('',#316,#315,#165,.T.);
#394=EDGE_CURVE('',#316,#317,#202,.T.);
#395=EDGE_CURVE('',#280,#317,#203,.T.);
#396=EDGE_CURVE('',#273,#318,#166,.T.);
#397=EDGE_CURVE('',#311,#318,#167,.T.);
#398=EDGE_CURVE('',#319,#309,#204,.T.);
#399=EDGE_CURVE('',#320,#319,#168,.T.);
#400=EDGE_CURVE('',#321,#320,#205,.T.);
#401=EDGE_CURVE('',#287,#321,#169,.T.);
#402=EDGE_CURVE('',#276,#320,#206,.T.);
#403=EDGE_CURVE('',#319,#277,#207,.T.);
#404=EDGE_CURVE('',#322,#275,#208,.T.);
#405=EDGE_CURVE('',#322,#323,#209,.T.);
#406=EDGE_CURVE('',#324,#323,#170,.T.);
#407=EDGE_CURVE('',#324,#325,#210,.T.);
#408=EDGE_CURVE('',#326,#325,#171,.T.);
#409=EDGE_CURVE('',#326,#327,#211,.T.);
#410=EDGE_CURVE('',#321,#327,#212,.T.);
#411=EDGE_CURVE('',#313,#326,#213,.T.);
#412=EDGE_CURVE('',#325,#314,#214,.T.);
#413=EDGE_CURVE('',#328,#312,#172,.T.);
#414=EDGE_CURVE('',#328,#329,#173,.T.);
#415=EDGE_CURVE('',#289,#329,#215,.T.);
#416=EDGE_CURVE('',#327,#288,#174,.T.);
#417=EDGE_CURVE('',#315,#324,#216,.T.);
#418=EDGE_CURVE('',#323,#316,#217,.T.);
#419=EDGE_CURVE('',#329,#330,#17,.T.);
#420=EDGE_CURVE('',#330,#290,#218,.T.);
#421=EDGE_CURVE('',#331,#332,#18,.T.);
#422=EDGE_CURVE('',#332,#292,#219,.T.);
#423=EDGE_CURVE('',#291,#331,#220,.T.);
#424=EDGE_CURVE('',#293,#322,#175,.T.);
#425=EDGE_CURVE('',#332,#333,#176,.T.);
#426=EDGE_CURVE('',#317,#333,#177,.T.);
#427=EDGE_CURVE('',#333,#281,#221,.T.);
#428=EDGE_CURVE('',#330,#331,#222,.T.);
#429=EDGE_CURVE('',#318,#328,#223,.T.);
#430=ORIENTED_EDGE('',*,*,#334,.F.);
#431=ORIENTED_EDGE('',*,*,#335,.F.);
#432=ORIENTED_EDGE('',*,*,#336,.T.);
#433=ORIENTED_EDGE('',*,*,#337,.F.);
#434=ORIENTED_EDGE('',*,*,#338,.T.);
#435=ORIENTED_EDGE('',*,*,#339,.F.);
#436=ORIENTED_EDGE('',*,*,#340,.F.);
#437=ORIENTED_EDGE('',*,*,#341,.F.);
#438=ORIENTED_EDGE('',*,*,#342,.F.);
#439=ORIENTED_EDGE('',*,*,#343,.F.);
#440=ORIENTED_EDGE('',*,*,#344,.F.);
#441=ORIENTED_EDGE('',*,*,#345,.F.);
#442=ORIENTED_EDGE('',*,*,#346,.T.);
#443=ORIENTED_EDGE('',*,*,#335,.T.);
#444=ORIENTED_EDGE('',*,*,#347,.T.);
#445=ORIENTED_EDGE('',*,*,#348,.T.);
#446=ORIENTED_EDGE('',*,*,#349,.T.);
#447=ORIENTED_EDGE('',*,*,#350,.T.);
#448=ORIENTED_EDGE('',*,*,#351,.T.);
#449=ORIENTED_EDGE('',*,*,#334,.T.);
#450=ORIENTED_EDGE('',*,*,#352,.F.);
#451=ORIENTED_EDGE('',*,*,#353,.F.);
#452=ORIENTED_EDGE('',*,*,#354,.F.);
#453=ORIENTED_EDGE('',*,*,#355,.F.);
#454=ORIENTED_EDGE('',*,*,#356,.F.);
#455=ORIENTED_EDGE('',*,*,#357,.F.);
#456=ORIENTED_EDGE('',*,*,#358,.F.);
#457=ORIENTED_EDGE('',*,*,#359,.F.);
#458=ORIENTED_EDGE('',*,*,#338,.F.);
#459=ORIENTED_EDGE('',*,*,#360,.F.);
#460=ORIENTED_EDGE('',*,*,#361,.T.);
#461=ORIENTED_EDGE('',*,*,#351,.F.);
#462=ORIENTED_EDGE('',*,*,#361,.F.);
#463=ORIENTED_EDGE('',*,*,#362,.F.);
#464=ORIENTED_EDGE('',*,*,#363,.T.);
#465=ORIENTED_EDGE('',*,*,#364,.F.);
#466=ORIENTED_EDGE('',*,*,#363,.F.);
#467=ORIENTED_EDGE('',*,*,#365,.F.);
#468=ORIENTED_EDGE('',*,*,#366,.T.);
#469=ORIENTED_EDGE('',*,*,#350,.F.);
#470=ORIENTED_EDGE('',*,*,#366,.F.);
#471=ORIENTED_EDGE('',*,*,#367,.F.);
#472=ORIENTED_EDGE('',*,*,#368,.T.);
#473=ORIENTED_EDGE('',*,*,#369,.F.);
#474=ORIENTED_EDGE('',*,*,#368,.F.);
#475=ORIENTED_EDGE('',*,*,#370,.F.);
#476=ORIENTED_EDGE('',*,*,#371,.T.);
#477=ORIENTED_EDGE('',*,*,#349,.F.);
#478=ORIENTED_EDGE('',*,*,#371,.F.);
#479=ORIENTED_EDGE('',*,*,#372,.F.);
#480=ORIENTED_EDGE('',*,*,#373,.T.);
#481=ORIENTED_EDGE('',*,*,#374,.F.);
#482=ORIENTED_EDGE('',*,*,#373,.F.);
#483=ORIENTED_EDGE('',*,*,#375,.F.);
#484=ORIENTED_EDGE('',*,*,#376,.T.);
#485=ORIENTED_EDGE('',*,*,#348,.F.);
#486=ORIENTED_EDGE('',*,*,#376,.F.);
#487=ORIENTED_EDGE('',*,*,#377,.F.);
#488=ORIENTED_EDGE('',*,*,#378,.T.);
#489=ORIENTED_EDGE('',*,*,#379,.F.);
#490=ORIENTED_EDGE('',*,*,#378,.F.);
#491=ORIENTED_EDGE('',*,*,#380,.F.);
#492=ORIENTED_EDGE('',*,*,#381,.T.);
#493=ORIENTED_EDGE('',*,*,#347,.F.);
#494=ORIENTED_EDGE('',*,*,#381,.F.);
#495=ORIENTED_EDGE('',*,*,#382,.F.);
#496=ORIENTED_EDGE('',*,*,#383,.T.);
#497=ORIENTED_EDGE('',*,*,#384,.F.);
#498=ORIENTED_EDGE('',*,*,#383,.F.);
#499=ORIENTED_EDGE('',*,*,#385,.T.);
#500=ORIENTED_EDGE('',*,*,#386,.T.);
#501=ORIENTED_EDGE('',*,*,#343,.T.);
#502=ORIENTED_EDGE('',*,*,#387,.T.);
#503=ORIENTED_EDGE('',*,*,#386,.F.);
#504=ORIENTED_EDGE('',*,*,#388,.T.);
#505=ORIENTED_EDGE('',*,*,#389,.F.);
#506=ORIENTED_EDGE('',*,*,#390,.T.);
#507=ORIENTED_EDGE('',*,*,#391,.F.);
#508=ORIENTED_EDGE('',*,*,#392,.T.);
#509=ORIENTED_EDGE('',*,*,#393,.F.);
#510=ORIENTED_EDGE('',*,*,#394,.T.);
#511=ORIENTED_EDGE('',*,*,#395,.F.);
#512=ORIENTED_EDGE('',*,*,#344,.T.);
#513=ORIENTED_EDGE('',*,*,#352,.T.);
#514=ORIENTED_EDGE('',*,*,#337,.T.);
#515=ORIENTED_EDGE('',*,*,#396,.T.);
#516=ORIENTED_EDGE('',*,*,#397,.F.);
#517=ORIENTED_EDGE('',*,*,#388,.F.);
#518=ORIENTED_EDGE('',*,*,#385,.F.);
#519=ORIENTED_EDGE('',*,*,#398,.F.);
#520=ORIENTED_EDGE('',*,*,#399,.F.);
#521=ORIENTED_EDGE('',*,*,#400,.F.);
#522=ORIENTED_EDGE('',*,*,#401,.F.);
#523=ORIENTED_EDGE('',*,*,#362,.T.);
#524=ORIENTED_EDGE('',*,*,#367,.T.);
#525=ORIENTED_EDGE('',*,*,#372,.T.);
#526=ORIENTED_EDGE('',*,*,#377,.T.);
#527=ORIENTED_EDGE('',*,*,#382,.T.);
#528=ORIENTED_EDGE('',*,*,#341,.T.);
#529=ORIENTED_EDGE('',*,*,#402,.T.);
#530=ORIENTED_EDGE('',*,*,#399,.T.);
#531=ORIENTED_EDGE('',*,*,#403,.T.);
#532=ORIENTED_EDGE('',*,*,#402,.F.);
#533=ORIENTED_EDGE('',*,*,#340,.T.);
#534=ORIENTED_EDGE('',*,*,#404,.F.);
#535=ORIENTED_EDGE('',*,*,#405,.T.);
#536=ORIENTED_EDGE('',*,*,#406,.F.);
#537=ORIENTED_EDGE('',*,*,#407,.T.);
#538=ORIENTED_EDGE('',*,*,#408,.F.);
#539=ORIENTED_EDGE('',*,*,#409,.T.);
#540=ORIENTED_EDGE('',*,*,#410,.F.);
#541=ORIENTED_EDGE('',*,*,#400,.T.);
#542=ORIENTED_EDGE('',*,*,#391,.T.);
#543=ORIENTED_EDGE('',*,*,#411,.T.);
#544=ORIENTED_EDGE('',*,*,#408,.T.);
#545=ORIENTED_EDGE('',*,*,#412,.T.);
#546=ORIENTED_EDGE('',*,*,#411,.F.);
#547=ORIENTED_EDGE('',*,*,#390,.F.);
#548=ORIENTED_EDGE('',*,*,#413,.F.);
#549=ORIENTED_EDGE('',*,*,#414,.T.);
#550=ORIENTED_EDGE('',*,*,#415,.F.);
#551=ORIENTED_EDGE('',*,*,#354,.T.);
#552=ORIENTED_EDGE('',*,*,#416,.F.);
#553=ORIENTED_EDGE('',*,*,#409,.F.);
#554=ORIENTED_EDGE('',*,*,#364,.T.);
#555=ORIENTED_EDGE('',*,*,#369,.T.);
#556=ORIENTED_EDGE('',*,*,#374,.T.);
#557=ORIENTED_EDGE('',*,*,#379,.T.);
#558=ORIENTED_EDGE('',*,*,#384,.T.);
#559=ORIENTED_EDGE('',*,*,#393,.T.);
#560=ORIENTED_EDGE('',*,*,#417,.T.);
#561=ORIENTED_EDGE('',*,*,#406,.T.);
#562=ORIENTED_EDGE('',*,*,#418,.T.);
#563=ORIENTED_EDGE('',*,*,#412,.F.);
#564=ORIENTED_EDGE('',*,*,#407,.F.);
#565=ORIENTED_EDGE('',*,*,#417,.F.);
#566=ORIENTED_EDGE('',*,*,#392,.F.);
#567=ORIENTED_EDGE('',*,*,#355,.T.);
#568=ORIENTED_EDGE('',*,*,#415,.T.);
#569=ORIENTED_EDGE('',*,*,#419,.T.);
#570=ORIENTED_EDGE('',*,*,#420,.T.);
#571=ORIENTED_EDGE('',*,*,#421,.T.);
#572=ORIENTED_EDGE('',*,*,#422,.T.);
#573=ORIENTED_EDGE('',*,*,#357,.T.);
#574=ORIENTED_EDGE('',*,*,#423,.T.);
#575=ORIENTED_EDGE('',*,*,#418,.F.);
#576=ORIENTED_EDGE('',*,*,#405,.F.);
#577=ORIENTED_EDGE('',*,*,#424,.F.);
#578=ORIENTED_EDGE('',*,*,#358,.T.);
#579=ORIENTED_EDGE('',*,*,#422,.F.);
#580=ORIENTED_EDGE('',*,*,#425,.T.);
#581=ORIENTED_EDGE('',*,*,#426,.F.);
#582=ORIENTED_EDGE('',*,*,#394,.F.);
#583=ORIENTED_EDGE('',*,*,#360,.T.);
#584=ORIENTED_EDGE('',*,*,#365,.T.);
#585=ORIENTED_EDGE('',*,*,#370,.T.);
#586=ORIENTED_EDGE('',*,*,#375,.T.);
#587=ORIENTED_EDGE('',*,*,#380,.T.);
#588=ORIENTED_EDGE('',*,*,#401,.T.);
#589=ORIENTED_EDGE('',*,*,#410,.T.);
#590=ORIENTED_EDGE('',*,*,#416,.T.);
#591=ORIENTED_EDGE('',*,*,#353,.T.);
#592=ORIENTED_EDGE('',*,*,#339,.T.);
#593=ORIENTED_EDGE('',*,*,#359,.T.);
#594=ORIENTED_EDGE('',*,*,#424,.T.);
#595=ORIENTED_EDGE('',*,*,#404,.T.);
#596=ORIENTED_EDGE('',*,*,#345,.T.);
#597=ORIENTED_EDGE('',*,*,#395,.T.);
#598=ORIENTED_EDGE('',*,*,#426,.T.);
#599=ORIENTED_EDGE('',*,*,#427,.T.);
#600=ORIENTED_EDGE('',*,*,#427,.F.);
#601=ORIENTED_EDGE('',*,*,#425,.F.);
#602=ORIENTED_EDGE('',*,*,#421,.F.);
#603=ORIENTED_EDGE('',*,*,#428,.F.);
#604=ORIENTED_EDGE('',*,*,#419,.F.);
#605=ORIENTED_EDGE('',*,*,#414,.F.);
#606=ORIENTED_EDGE('',*,*,#429,.F.);
#607=ORIENTED_EDGE('',*,*,#396,.F.);
#608=ORIENTED_EDGE('',*,*,#336,.F.);
#609=ORIENTED_EDGE('',*,*,#346,.F.);
#610=ORIENTED_EDGE('',*,*,#397,.T.);
#611=ORIENTED_EDGE('',*,*,#429,.T.);
#612=ORIENTED_EDGE('',*,*,#413,.T.);
#613=ORIENTED_EDGE('',*,*,#389,.T.);
#614=ORIENTED_EDGE('',*,*,#420,.F.);
#615=ORIENTED_EDGE('',*,*,#428,.T.);
#616=ORIENTED_EDGE('',*,*,#423,.F.);
#617=ORIENTED_EDGE('',*,*,#356,.T.);
#618=ORIENTED_EDGE('',*,*,#387,.F.);
#619=ORIENTED_EDGE('',*,*,#342,.T.);
#620=ORIENTED_EDGE('',*,*,#403,.F.);
#621=ORIENTED_EDGE('',*,*,#398,.T.);
#622=CYLINDRICAL_SURFACE('',#691,1.77165354330709);
#623=CYLINDRICAL_SURFACE('',#706,2.15229652942036);
#624=CYLINDRICAL_SURFACE('',#710,0.0826771653543307);
#625=CYLINDRICAL_SURFACE('',#712,0.0826771653543307);
#626=CYLINDRICAL_SURFACE('',#715,0.0826771653543307);
#627=CYLINDRICAL_SURFACE('',#717,0.0826771653543307);
#628=CYLINDRICAL_SURFACE('',#720,0.0826771653543307);
#629=CYLINDRICAL_SURFACE('',#722,0.0826771653543307);
#630=CYLINDRICAL_SURFACE('',#725,0.0826771653543307);
#631=CYLINDRICAL_SURFACE('',#727,0.0826771653543307);
#632=CYLINDRICAL_SURFACE('',#730,0.287155511811024);
#633=CYLINDRICAL_SURFACE('',#732,0.287155511811024);
#634=CYLINDRICAL_SURFACE('',#735,0.196850393700787);
#635=CYLINDRICAL_SURFACE('',#745,0.196850393700787);
#636=CYLINDRICAL_SURFACE('',#749,0.31496062992126);
#637=CYLINDRICAL_SURFACE('',#754,0.31496062992126);
#638=CYLINDRICAL_SURFACE('',#756,0.236220472440945);
#639=CYLINDRICAL_SURFACE('',#757,0.236220472440945);
#640=CYLINDRICAL_SURFACE('',#762,0.5);
#641=CYLINDRICAL_SURFACE('',#763,0.5);
#642=CYLINDRICAL_SURFACE('',#764,0.5);
#643=CYLINDRICAL_SURFACE('',#765,2.15229652942036);
#644=CYLINDRICAL_SURFACE('',#766,0.5);
#645=ADVANCED_FACE('',(#48),#622,.T.);
#646=ADVANCED_FACE('',(#49,#19,#20,#21,#22,#23),#39,.T.);
#647=ADVANCED_FACE('',(#50),#623,.F.);
#648=ADVANCED_FACE('',(#51),#624,.F.);
#649=ADVANCED_FACE('',(#52),#625,.F.);
#650=ADVANCED_FACE('',(#53),#626,.F.);
#651=ADVANCED_FACE('',(#54),#627,.F.);
#652=ADVANCED_FACE('',(#55),#628,.F.);
#653=ADVANCED_FACE('',(#56),#629,.F.);
#654=ADVANCED_FACE('',(#57),#630,.F.);
#655=ADVANCED_FACE('',(#58),#631,.F.);
#656=ADVANCED_FACE('',(#59),#632,.F.);
#657=ADVANCED_FACE('',(#60),#633,.F.);
#658=ADVANCED_FACE('',(#61),#634,.T.);
#659=ADVANCED_FACE('',(#62),#40,.T.);
#660=ADVANCED_FACE('',(#63,#24,#25,#26,#27,#28),#41,.T.);
#661=ADVANCED_FACE('',(#64),#635,.T.);
#662=ADVANCED_FACE('',(#65),#42,.T.);
#663=ADVANCED_FACE('',(#66),#636,.F.);
#664=ADVANCED_FACE('',(#67,#29,#30,#31,#32,#33),#43,.T.);
#665=ADVANCED_FACE('',(#68),#637,.F.);
#666=ADVANCED_FACE('',(#69),#44,.T.);
#667=ADVANCED_FACE('',(#70),#638,.F.);
#668=ADVANCED_FACE('',(#71),#639,.F.);
#669=ADVANCED_FACE('',(#72,#34,#35,#36,#37,#38),#45,.T.);
#670=ADVANCED_FACE('',(#73),#640,.T.);
#671=ADVANCED_FACE('',(#74),#641,.T.);
#672=ADVANCED_FACE('',(#75),#642,.T.);
#673=ADVANCED_FACE('',(#76),#643,.F.);
#674=ADVANCED_FACE('',(#77),#644,.T.);
#675=ADVANCED_FACE('',(#78),#46,.T.);
#676=ADVANCED_FACE('',(#79),#47,.T.);
#677=CLOSED_SHELL('',(#645,#646,#647,#648,#649,#650,#651,#652,#653,#654,
#655,#656,#657,#658,#659,#660,#661,#662,#663,#664,#665,#666,#667,#668,#669,
#670,#671,#672,#673,#674,#675,#676));
#678=DERIVED_UNIT_ELEMENT(#680,1.);
#679=DERIVED_UNIT_ELEMENT(#1209,-3.);
#680=(
MASS_UNIT()
NAMED_UNIT(*)
SI_UNIT(.KILO.,.GRAM.)
);
#681=DERIVED_UNIT((#678,#679));
#682=MEASURE_REPRESENTATION_ITEM('density measure',
POSITIVE_RATIO_MEASURE(7850.),#681);
#683=PROPERTY_DEFINITION_REPRESENTATION(#688,#685);
#684=PROPERTY_DEFINITION_REPRESENTATION(#689,#686);
#685=REPRESENTATION('material name',(#687),#1204);
#686=REPRESENTATION('density',(#682),#1204);
#687=DESCRIPTIVE_REPRESENTATION_ITEM('Steel','Steel');
#688=PROPERTY_DEFINITION('material property','material name',#1217);
#689=PROPERTY_DEFINITION('material property','density of part',#1217);
#690=AXIS2_PLACEMENT_3D('',#973,#769,#770);
#691=AXIS2_PLACEMENT_3D('',#974,#771,#772);
#692=AXIS2_PLACEMENT_3D('',#979,#774,#775);
#693=AXIS2_PLACEMENT_3D('',#982,#777,#778);
#694=AXIS2_PLACEMENT_3D('',#983,#779,#780);
#695=AXIS2_PLACEMENT_3D('',#985,#781,#782);
#696=AXIS2_PLACEMENT_3D('',#987,#783,#784);
#697=AXIS2_PLACEMENT_3D('',#991,#786,#787);
#698=AXIS2_PLACEMENT_3D('',#995,#789,#790);
#699=AXIS2_PLACEMENT_3D('',#999,#792,#793);
#700=AXIS2_PLACEMENT_3D('',#1000,#794,#795);
#701=AXIS2_PLACEMENT_3D('',#1002,#796,#797);
#702=AXIS2_PLACEMENT_3D('',#1004,#798,#799);
#703=AXIS2_PLACEMENT_3D('',#1006,#800,#801);
#704=AXIS2_PLACEMENT_3D('',#1008,#802,#803);
#705=AXIS2_PLACEMENT_3D('',#1010,#804,#805);
#706=AXIS2_PLACEMENT_3D('',#1011,#806,#807);
#707=AXIS2_PLACEMENT_3D('',#1013,#808,#809);
#708=AXIS2_PLACEMENT_3D('',#1017,#811,#812);
#709=AXIS2_PLACEMENT_3D('',#1043,#814,#815);
#710=AXIS2_PLACEMENT_3D('',#1045,#817,#818);
#711=AXIS2_PLACEMENT_3D('',#1047,#819,#820);
#712=AXIS2_PLACEMENT_3D('',#1049,#822,#823);
#713=AXIS2_PLACEMENT_3D('',#1051,#824,#825);
#714=AXIS2_PLACEMENT_3D('',#1054,#827,#828);
#715=AXIS2_PLACEMENT_3D('',#1055,#829,#830);
#716=AXIS2_PLACEMENT_3D('',#1057,#831,#832);
#717=AXIS2_PLACEMENT_3D('',#1059,#834,#835);
#718=AXIS2_PLACEMENT_3D('',#1061,#836,#837);
#719=AXIS2_PLACEMENT_3D('',#1064,#839,#840);
#720=AXIS2_PLACEMENT_3D('',#1065,#841,#842);
#721=AXIS2_PLACEMENT_3D('',#1067,#843,#844);
#722=AXIS2_PLACEMENT_3D('',#1069,#846,#847);
#723=AXIS2_PLACEMENT_3D('',#1071,#848,#849);
#724=AXIS2_PLACEMENT_3D('',#1074,#851,#852);
#725=AXIS2_PLACEMENT_3D('',#1075,#853,#854);
#726=AXIS2_PLACEMENT_3D('',#1077,#855,#856);
#727=AXIS2_PLACEMENT_3D('',#1079,#858,#859);
#728=AXIS2_PLACEMENT_3D('',#1081,#860,#861);
#729=AXIS2_PLACEMENT_3D('',#1084,#863,#864);
#730=AXIS2_PLACEMENT_3D('',#1085,#865,#866);
#731=AXIS2_PLACEMENT_3D('',#1087,#867,#868);
#732=AXIS2_PLACEMENT_3D('',#1089,#870,#871);
#733=AXIS2_PLACEMENT_3D('',#1091,#872,#873);
#734=AXIS2_PLACEMENT_3D('',#1094,#875,#876);
#735=AXIS2_PLACEMENT_3D('',#1095,#877,#878);
#736=AXIS2_PLACEMENT_3D('',#1098,#879,#880);
#737=AXIS2_PLACEMENT_3D('',#1101,#883,#884);
#738=AXIS2_PLACEMENT_3D('',#1109,#888,#889);
#739=AXIS2_PLACEMENT_3D('',#1113,#891,#892);
#740=AXIS2_PLACEMENT_3D('',#1117,#895,#896);
#741=AXIS2_PLACEMENT_3D('',#1119,#897,#898);
#742=AXIS2_PLACEMENT_3D('',#1120,#899,#900);
#743=AXIS2_PLACEMENT_3D('',#1124,#902,#903);
#744=AXIS2_PLACEMENT_3D('',#1127,#905,#906);
#745=AXIS2_PLACEMENT_3D('',#1128,#907,#908);
#746=AXIS2_PLACEMENT_3D('',#1131,#911,#912);
#747=AXIS2_PLACEMENT_3D('',#1137,#915,#916);
#748=AXIS2_PLACEMENT_3D('',#1141,#918,#919);
#749=AXIS2_PLACEMENT_3D('',#1145,#922,#923);
#750=AXIS2_PLACEMENT_3D('',#1148,#926,#927);
#751=AXIS2_PLACEMENT_3D('',#1150,#928,#929);
#752=AXIS2_PLACEMENT_3D('',#1152,#930,#931);
#753=AXIS2_PLACEMENT_3D('',#1154,#933,#934);
#754=AXIS2_PLACEMENT_3D('',#1155,#935,#936);
#755=AXIS2_PLACEMENT_3D('',#1158,#939,#940);
#756=AXIS2_PLACEMENT_3D('',#1159,#941,#942);
#757=AXIS2_PLACEMENT_3D('',#1172,#944,#945);
#758=AXIS2_PLACEMENT_3D('',#1187,#948,#949);
#759=AXIS2_PLACEMENT_3D('',#1188,#950,#951);
#760=AXIS2_PLACEMENT_3D('',#1190,#952,#953);
#761=AXIS2_PLACEMENT_3D('',#1191,#954,#955);
#762=AXIS2_PLACEMENT_3D('',#1192,#956,#957);
#763=AXIS2_PLACEMENT_3D('',#1193,#958,#959);
#764=AXIS2_PLACEMENT_3D('',#1194,#960,#961);
#765=AXIS2_PLACEMENT_3D('',#1196,#963,#964);
#766=AXIS2_PLACEMENT_3D('',#1199,#967,#968);
#767=AXIS2_PLACEMENT_3D('',#1200,#969,#970);
#768=AXIS2_PLACEMENT_3D('',#1201,#971,#972);
#769=DIRECTION('axis',(0.,0.,1.));
#770=DIRECTION('refdir',(1.,0.,0.));
#771=DIRECTION('center_axis',(0.,-1.,0.));
#772=DIRECTION('ref_axis',(-1.,0.,0.));
#773=DIRECTION('',(0.,-1.,0.));
#774=DIRECTION('center_axis',(0.,1.,0.));
#775=DIRECTION('ref_axis',(-1.,0.,0.));
#776=DIRECTION('',(0.,-1.,0.));
#777=DIRECTION('center_axis',(0.,-1.,0.));
#778=DIRECTION('ref_axis',(-1.,0.,0.));
#779=DIRECTION('center_axis',(0.,1.,0.));
#780=DIRECTION('ref_axis',(0.,0.,1.));
#781=DIRECTION('center_axis',(0.,-1.,0.));
#782=DIRECTION('ref_axis',(-0.883108172223939,0.,-0.46916943224308));
#783=DIRECTION('center_axis',(0.,-1.,0.));
#784=DIRECTION('ref_axis',(0.975997986005423,0.,0.217779547509308));
#785=DIRECTION('',(0.,0.,1.));
#786=DIRECTION('center_axis',(0.,-1.,0.));
#787=DIRECTION('ref_axis',(0.707106781186548,0.,-0.707106781186548));
#788=DIRECTION('',(1.,0.,0.));
#789=DIRECTION('center_axis',(0.,-1.,0.));
#790=DIRECTION('ref_axis',(-0.707106781186548,0.,-0.707106781186548));
#791=DIRECTION('',(0.,0.,-1.));
#792=DIRECTION('center_axis',(0.,-1.,0.));
#793=DIRECTION('ref_axis',(-0.975997986005423,0.,0.217779547509308));
#794=DIRECTION('center_axis',(0.,-1.,0.));
#795=DIRECTION('ref_axis',(0.974568800910546,0.,0.224088492100288));
#796=DIRECTION('center_axis',(0.,-1.,0.));
#797=DIRECTION('ref_axis',(1.,0.,0.));
#798=DIRECTION('center_axis',(0.,-1.,0.));
#799=DIRECTION('ref_axis',(1.,0.,0.));
#800=DIRECTION('center_axis',(0.,-1.,0.));
#801=DIRECTION('ref_axis',(1.,0.,0.));
#802=DIRECTION('center_axis',(0.,-1.,0.));
#803=DIRECTION('ref_axis',(1.,0.,0.));
#804=DIRECTION('center_axis',(0.,-1.,0.));
#805=DIRECTION('ref_axis',(1.,0.,0.));
#806=DIRECTION('center_axis',(0.,-1.,0.));
#807=DIRECTION('ref_axis',(-0.883108172223939,0.,-0.46916943224308));
#808=DIRECTION('center_axis',(0.,1.,0.));
#809=DIRECTION('ref_axis',(-0.883108172223939,0.,-0.46916943224308));
#810=DIRECTION('',(0.,-1.,0.));
#811=DIRECTION('center_axis',(0.,-1.,0.));
#812=DIRECTION('ref_axis',(-0.883108172223939,0.,-0.46916943224308));
#813=DIRECTION('',(0.,-1.,0.));
#814=DIRECTION('center_axis',(0.,1.,0.));
#815=DIRECTION('ref_axis',(-0.883108172223939,0.,-0.46916943224308));
#816=DIRECTION('',(0.,-1.,0.));
#817=DIRECTION('center_axis',(0.,1.,0.));
#818=DIRECTION('ref_axis',(1.,0.,0.));
#819=DIRECTION('center_axis',(0.,1.,0.));
#820=DIRECTION('ref_axis',(1.,0.,0.));
#821=DIRECTION('',(0.,1.,0.));
#822=DIRECTION('center_axis',(0.,1.,0.));
#823=DIRECTION('ref_axis',(1.,0.,0.));
#824=DIRECTION('center_axis',(0.,1.,0.));
#825=DIRECTION('ref_axis',(1.,0.,0.));
#826=DIRECTION('',(0.,1.,0.));
#827=DIRECTION('center_axis',(0.,-1.,0.));
#828=DIRECTION('ref_axis',(1.,0.,0.));
#829=DIRECTION('center_axis',(0.,1.,0.));
#830=DIRECTION('ref_axis',(1.,0.,0.));
#831=DIRECTION('center_axis',(0.,1.,0.));
#832=DIRECTION('ref_axis',(1.,0.,0.));
#833=DIRECTION('',(0.,1.,0.));
#834=DIRECTION('center_axis',(0.,1.,0.));
#835=DIRECTION('ref_axis',(1.,0.,0.));
#836=DIRECTION('center_axis',(0.,1.,0.));
#837=DIRECTION('ref_axis',(1.,0.,0.));
#838=DIRECTION('',(0.,1.,0.));
#839=DIRECTION('center_axis',(0.,-1.,0.));
#840=DIRECTION('ref_axis',(1.,0.,0.));
#841=DIRECTION('center_axis',(0.,1.,0.));
#842=DIRECTION('ref_axis',(1.,0.,0.));
#843=DIRECTION('center_axis',(0.,1.,0.));
#844=DIRECTION('ref_axis',(1.,0.,0.));
#845=DIRECTION('',(0.,1.,0.));
#846=DIRECTION('center_axis',(0.,1.,0.));
#847=DIRECTION('ref_axis',(1.,0.,0.));
#848=DIRECTION('center_axis',(0.,1.,0.));
#849=DIRECTION('ref_axis',(1.,0.,0.));
#850=DIRECTION('',(0.,1.,0.));
#851=DIRECTION('center_axis',(0.,-1.,0.));
#852=DIRECTION('ref_axis',(1.,0.,0.));
#853=DIRECTION('center_axis',(0.,1.,0.));
#854=DIRECTION('ref_axis',(1.,0.,0.));
#855=DIRECTION('center_axis',(0.,1.,0.));
#856=DIRECTION('ref_axis',(1.,0.,0.));
#857=DIRECTION('',(0.,1.,0.));
#858=DIRECTION('center_axis',(0.,1.,0.));
#859=DIRECTION('ref_axis',(1.,0.,0.));
#860=DIRECTION('center_axis',(0.,1.,0.));
#861=DIRECTION('ref_axis',(1.,0.,0.));
#862=DIRECTION('',(0.,1.,0.));
#863=DIRECTION('center_axis',(0.,-1.,0.));
#864=DIRECTION('ref_axis',(1.,0.,0.));
#865=DIRECTION('center_axis',(0.,1.,0.));
#866=DIRECTION('ref_axis',(1.,0.,0.));
#867=DIRECTION('center_axis',(0.,1.,0.));
#868=DIRECTION('ref_axis',(1.,0.,0.));
#869=DIRECTION('',(0.,1.,0.));
#870=DIRECTION('center_axis',(0.,1.,0.));
#871=DIRECTION('ref_axis',(1.,0.,0.));
#872=DIRECTION('center_axis',(0.,1.,0.));
#873=DIRECTION('ref_axis',(1.,0.,0.));
#874=DIRECTION('',(0.,1.,0.));
#875=DIRECTION('center_axis',(0.,-1.,0.));
#876=DIRECTION('ref_axis',(1.,0.,0.));
#877=DIRECTION('center_axis',(0.,-1.,0.));
#878=DIRECTION('ref_axis',(-0.707106781186548,0.,-0.707106781186548));
#879=DIRECTION('center_axis',(0.,1.,0.));
#880=DIRECTION('ref_axis',(-0.707106781186548,0.,-0.707106781186548));
#881=DIRECTION('',(0.,1.,0.));
#882=DIRECTION('',(0.,-1.,0.));
#883=DIRECTION('center_axis',(-1.,0.,0.));
#884=DIRECTION('ref_axis',(0.,0.,1.));
#885=DIRECTION('',(0.,0.,1.));
#886=DIRECTION('',(0.,-1.,0.));
#887=DIRECTION('',(0.,0.,-1.));
#888=DIRECTION('center_axis',(-1.,0.,0.));
#889=DIRECTION('ref_axis',(0.,-0.707106781186547,-0.707106781186548));
#890=DIRECTION('',(0.,1.,0.));
#891=DIRECTION('center_axis',(-1.,0.,0.));
#892=DIRECTION('ref_axis',(0.,0.707106781186547,-0.707106781186548));
#893=DIRECTION('',(0.,0.,1.));
#894=DIRECTION('',(0.,-1.,0.));
#895=DIRECTION('center_axis',(0.,-1.,0.));
#896=DIRECTION('ref_axis',(0.,0.,-1.));
#897=DIRECTION('center_axis',(0.,1.,0.));
#898=DIRECTION('ref_axis',(0.974568800910546,0.,0.224088492100288));
#899=DIRECTION('center_axis',(0.,1.,0.));
#900=DIRECTION('ref_axis',(-0.975997986005423,0.,0.217779547509308));
#901=DIRECTION('',(-1.,0.,0.));
#902=DIRECTION('center_axis',(0.,1.,0.));
#903=DIRECTION('ref_axis',(0.707106781186548,0.,-0.707106781186548));
#904=DIRECTION('',(0.,0.,-1.));
#905=DIRECTION('center_axis',(0.,1.,0.));
#906=DIRECTION('ref_axis',(0.975997986005423,0.,0.217779547509308));
#907=DIRECTION('center_axis',(0.,1.,0.));
#908=DIRECTION('ref_axis',(0.707106781186548,0.,-0.707106781186548));
#909=DIRECTION('',(0.,-1.,0.));
#910=DIRECTION('',(0.,1.,0.));
#911=DIRECTION('center_axis',(1.,0.,0.));
#912=DIRECTION('ref_axis',(0.,0.,-1.));
#913=DIRECTION('',(0.,1.,0.));
#914=DIRECTION('',(0.,0.,-1.));
#915=DIRECTION('center_axis',(1.,0.,0.));
#916=DIRECTION('ref_axis',(0.,0.707106781186547,-0.707106781186548));
#917=DIRECTION('',(0.,-1.,0.));
#918=DIRECTION('center_axis',(1.,0.,0.));
#919=DIRECTION('ref_axis',(0.,-0.707106781186547,-0.707106781186548));
#920=DIRECTION('',(0.,0.,1.));
#921=DIRECTION('',(0.,1.,0.));
#922=DIRECTION('center_axis',(1.,0.,0.));
#923=DIRECTION('ref_axis',(0.,-0.707106781186547,-0.707106781186548));
#924=DIRECTION('',(1.,0.,0.));
#925=DIRECTION('',(-1.,0.,0.));
#926=DIRECTION('center_axis',(0.,1.,0.));
#927=DIRECTION('ref_axis',(0.,0.,1.));
#928=DIRECTION('center_axis',(0.,-1.,0.));
#929=DIRECTION('ref_axis',(-0.975997986005423,0.,0.217779547509308));
#930=DIRECTION('center_axis',(0.,-1.,0.));
#931=DIRECTION('ref_axis',(0.974568800910546,0.,0.224088492100288));
#932=DIRECTION('',(-1.,0.,0.));
#933=DIRECTION('center_axis',(0.,-1.,0.));
#934=DIRECTION('ref_axis',(0.975997986005423,0.,0.217779547509308));
#935=DIRECTION('center_axis',(1.,0.,0.));
#936=DIRECTION('ref_axis',(0.,0.707106781186547,-0.707106781186548));
#937=DIRECTION('',(1.,0.,0.));
#938=DIRECTION('',(-1.,0.,0.));
#939=DIRECTION('center_axis',(0.,0.,1.));
#940=DIRECTION('ref_axis',(0.,-1.,0.));
#941=DIRECTION('center_axis',(-1.,0.,0.));
#942=DIRECTION('ref_axis',(0.,-0.707106781186548,0.707106781186547));
#943=DIRECTION('',(1.,0.,0.));
#944=DIRECTION('center_axis',(1.,0.,0.));
#945=DIRECTION('ref_axis',(0.,0.707106781186547,0.707106781186547));
#946=DIRECTION('',(1.,0.,0.));
#947=DIRECTION('',(-1.,0.,0.));
#948=DIRECTION('center_axis',(0.,-1.,0.));
#949=DIRECTION('ref_axis',(0.,0.,-1.));
#950=DIRECTION('center_axis',(0.,1.,0.));
#951=DIRECTION('ref_axis',(0.975997986005423,0.,0.217779547509308));
#952=DIRECTION('center_axis',(0.,1.,0.));
#953=DIRECTION('ref_axis',(0.974568800910546,0.,0.224088492100288));
#954=DIRECTION('center_axis',(0.,1.,0.));
#955=DIRECTION('ref_axis',(-0.975997986005423,0.,0.217779547509308));
#956=DIRECTION('center_axis',(0.,-1.,0.));
#957=DIRECTION('ref_axis',(0.975997986005423,0.,0.217779547509308));
#958=DIRECTION('center_axis',(0.,-1.,0.));
#959=DIRECTION('ref_axis',(0.975997986005423,0.,0.217779547509308));
#960=DIRECTION('center_axis',(0.,1.,0.));
#961=DIRECTION('ref_axis',(-0.975997986005423,0.,0.217779547509308));
#962=DIRECTION('',(0.,1.,0.));
#963=DIRECTION('center_axis',(0.,-1.,0.));
#964=DIRECTION('ref_axis',(0.974568800910546,0.,0.224088492100288));
#965=DIRECTION('',(0.,1.,0.));
#966=DIRECTION('',(0.,1.,0.));
#967=DIRECTION('center_axis',(0.,1.,0.));
#968=DIRECTION('ref_axis',(-0.975997986005423,0.,0.217779547509308));
#969=DIRECTION('center_axis',(0.,0.,-1.));
#970=DIRECTION('ref_axis',(0.,1.,0.));
#971=DIRECTION('center_axis',(0.,0.,-1.));
#972=DIRECTION('ref_axis',(0.,1.,0.));
#973=CARTESIAN_POINT('',(0.,0.,0.));
#974=CARTESIAN_POINT('Origin',(0.,1.96850393700787,0.));
#975=CARTESIAN_POINT('',(0.393700787401574,1.96850393700787,1.72735519436853));
#976=CARTESIAN_POINT('',(0.393700787401574,-1.96850393700787,1.72735519436853));
#977=CARTESIAN_POINT('',(0.393700787401574,1.96850393700787,1.72735519436853));
#978=CARTESIAN_POINT('',(-0.393700787401575,1.96850393700787,1.72735519436853));
#979=CARTESIAN_POINT('Origin',(0.,1.96850393700787,0.));
#980=CARTESIAN_POINT('',(-0.393700787401575,-1.96850393700787,1.72735519436853));
#981=CARTESIAN_POINT('',(-0.393700787401576,1.96850393700787,1.72735519436853));
#982=CARTESIAN_POINT('Origin',(0.,-1.96850393700787,0.));
#983=CARTESIAN_POINT('Origin',(0.,1.96850393700787,-1.18110236220472));
#984=CARTESIAN_POINT('',(0.543123249789003,1.96850393700787,0.330098725881491));
#985=CARTESIAN_POINT('Origin',(2.4912618352827,1.96850393700787,1.24505031053804));
#986=CARTESIAN_POINT('',(0.590551181102362,1.96850393700787,0.117546326119234));
#987=CARTESIAN_POINT('Origin',(0.0905511811023627,1.96850393700787,0.117546326119234));
#988=CARTESIAN_POINT('',(0.590551181102362,1.96850393700787,-0.984251968503937));
#989=CARTESIAN_POINT('',(0.590551181102362,1.96850393700787,-1.18110236220472));
#990=CARTESIAN_POINT('',(0.393700787401575,1.96850393700787,-1.18110236220472));
#991=CARTESIAN_POINT('Origin',(0.393700787401575,1.96850393700787,-0.984251968503937));
#992=CARTESIAN_POINT('',(-0.393700787401575,1.96850393700787,-1.18110236220472));
#993=CARTESIAN_POINT('',(0.,1.96850393700787,-1.18110236220472));
#994=CARTESIAN_POINT('',(-0.590551181102362,1.96850393700787,-0.984251968503937));
#995=CARTESIAN_POINT('Origin',(-0.393700787401575,1.96850393700787,-0.984251968503937));
#996=CARTESIAN_POINT('',(-0.590551181102362,1.96850393700787,0.117546326119234));
#997=CARTESIAN_POINT('',(-0.590551181102362,1.96850393700787,-1.18110236220472));
#998=CARTESIAN_POINT('',(-0.543123249789004,1.96850393700787,0.33009872588149));
#999=CARTESIAN_POINT('Origin',(-0.090551181102362,1.96850393700787,0.117546326119234));
#1000=CARTESIAN_POINT('Origin',(-2.4912618352827,1.96850393700787,1.24505031053804));
#1001=CARTESIAN_POINT('',(-0.287155511811024,1.96850393700787,-3.5166407839689E-17));
#1002=CARTESIAN_POINT('Origin',(0.,1.96850393700787,0.));
#1003=CARTESIAN_POINT('',(0.173228346456693,1.96850393700787,-0.393700787401575));
#1004=CARTESIAN_POINT('Origin',(0.255905511811024,1.96850393700787,-0.393700787401575));
#1005=CARTESIAN_POINT('',(0.173228346456693,1.96850393700787,0.393700787401575));
#1006=CARTESIAN_POINT('Origin',(0.255905511811024,1.96850393700787,0.393700787401575));
#1007=CARTESIAN_POINT('',(-0.338582677165354,1.96850393700787,-0.393700787401575));
#1008=CARTESIAN_POINT('Origin',(-0.255905511811024,1.96850393700787,-0.393700787401575));
#1009=CARTESIAN_POINT('',(-0.338582677165354,1.96850393700787,0.393700787401575));
#1010=CARTESIAN_POINT('Origin',(-0.255905511811024,1.96850393700787,0.393700787401575));
#1011=CARTESIAN_POINT('Origin',(2.4912618352827,1.96850393700787,1.24505031053804));
#1012=CARTESIAN_POINT('',(0.543123249789003,-1.96850393700787,0.330098725881491));
#1013=CARTESIAN_POINT('Origin',(2.4912618352827,-1.96850393700787,1.24505031053804));
#1014=CARTESIAN_POINT('',(0.543123249789003,-1.73228346456693,0.330098725881491));
#1015=CARTESIAN_POINT('',(0.543123249789003,1.96850393700787,0.330098725881491));
#1016=CARTESIAN_POINT('',(0.339016138085593,-1.73228346456693,1.25984251968504));
#1017=CARTESIAN_POINT('Origin',(2.4912618352827,-1.73228346456693,1.24505031053804));
#1018=CARTESIAN_POINT('',(0.353652660471519,-1.49606299212598,1.49606299212598));
#1019=CARTESIAN_POINT('Ctrl Pts',(0.353652660471515,-1.49606299212598,1.49606299212598));
#1020=CARTESIAN_POINT('Ctrl Pts',(0.353652660471515,-1.52574999794794,1.49606299212598));
#1021=CARTESIAN_POINT('Ctrl Pts',(0.352929341305141,-1.55739743785618,1.49012491418049));
#1022=CARTESIAN_POINT('Ctrl Pts',(0.350303467585746,-1.61558482299854,1.4660133914327));
#1023=CARTESIAN_POINT('Ctrl Pts',(0.348436996294155,-1.6421269951914,1.44784140477518));
#1024=CARTESIAN_POINT('Ctrl Pts',(0.344883391888275,-1.68404478632559,1.40593022786305));
#1025=CARTESIAN_POINT('Ctrl Pts',(0.342964090129164,-1.70222260800979,1.3793851602424));
#1026=CARTESIAN_POINT('Ctrl Pts',(0.340115204527698,-1.72634268651127,1.32118983145431));
#1027=CARTESIAN_POINT('Ctrl Pts',(0.339220227671841,-1.73228346456692,1.28953726841981));
#1028=CARTESIAN_POINT('Ctrl Pts',(0.339016138085589,-1.73228346456692,1.25984251968504));
#1029=CARTESIAN_POINT('',(0.353652660471519,1.49606299212598,1.49606299212598));
#1030=CARTESIAN_POINT('',(0.353652660471519,1.96850393700787,1.49606299212598));
#1031=CARTESIAN_POINT('',(0.339016138085593,1.73228346456693,1.25984251968504));
#1032=CARTESIAN_POINT('Ctrl Pts',(0.339016138085589,1.73228346456692,1.25984251968504));
#1033=CARTESIAN_POINT('Ctrl Pts',(0.339220227671841,1.73228346456692,1.28953726841981));
#1034=CARTESIAN_POINT('Ctrl Pts',(0.340115204527698,1.72634268651127,1.32118983145431));
#1035=CARTESIAN_POINT('Ctrl Pts',(0.342964090129164,1.70222260800979,1.3793851602424));
#1036=CARTESIAN_POINT('Ctrl Pts',(0.344883391888275,1.68404478632559,1.40593022786305));
#1037=CARTESIAN_POINT('Ctrl Pts',(0.348436996294154,1.6421269951914,1.44784140477518));
#1038=CARTESIAN_POINT('Ctrl Pts',(0.350303467585746,1.61558482299854,1.4660133914327));
#1039=CARTESIAN_POINT('Ctrl Pts',(0.352929341305141,1.55739743785618,1.49012491418049));
#1040=CARTESIAN_POINT('Ctrl Pts',(0.353652660471515,1.52574999794794,1.49606299212598));
#1041=CARTESIAN_POINT('Ctrl Pts',(0.353652660471515,1.49606299212598,1.49606299212598));
#1042=CARTESIAN_POINT('',(0.543123249789003,1.73228346456693,0.330098725881491));
#1043=CARTESIAN_POINT('Origin',(2.4912618352827,1.73228346456693,1.24505031053804));
#1044=CARTESIAN_POINT('',(0.543123249789003,1.96850393700787,0.330098725881491));
#1045=CARTESIAN_POINT('Origin',(-0.255905511811024,-1.96850393700787,0.393700787401575));
#1046=CARTESIAN_POINT('',(-0.338582677165354,1.73228346456693,0.393700787401575));
#1047=CARTESIAN_POINT('Origin',(-0.255905511811024,1.73228346456693,0.393700787401575));
#1048=CARTESIAN_POINT('',(-0.338582677165355,-1.96850393700787,0.393700787401575));
#1049=CARTESIAN_POINT('Origin',(-0.255905511811024,-1.96850393700787,0.393700787401575));
#1050=CARTESIAN_POINT('',(-0.338582677165354,-1.96850393700787,0.393700787401575));
#1051=CARTESIAN_POINT('Origin',(-0.255905511811024,-1.96850393700787,0.393700787401575));
#1052=CARTESIAN_POINT('',(-0.338582677165354,-1.73228346456693,0.393700787401575));
#1053=CARTESIAN_POINT('',(-0.338582677165355,-1.96850393700787,0.393700787401575));
#1054=CARTESIAN_POINT('Origin',(-0.255905511811024,-1.73228346456693,0.393700787401575));
#1055=CARTESIAN_POINT('Origin',(-0.255905511811024,-1.96850393700787,-0.393700787401575));
#1056=CARTESIAN_POINT('',(-0.338582677165354,1.73228346456693,-0.393700787401575));
#1057=CARTESIAN_POINT('Origin',(-0.255905511811024,1.73228346456693,-0.393700787401575));
#1058=CARTESIAN_POINT('',(-0.338582677165355,-1.96850393700787,-0.393700787401575));
#1059=CARTESIAN_POINT('Origin',(-0.255905511811024,-1.96850393700787,-0.393700787401575));
#1060=CARTESIAN_POINT('',(-0.338582677165354,-1.96850393700787,-0.393700787401575));
#1061=CARTESIAN_POINT('Origin',(-0.255905511811024,-1.96850393700787,-0.393700787401575));
#1062=CARTESIAN_POINT('',(-0.338582677165354,-1.73228346456693,-0.393700787401575));
#1063=CARTESIAN_POINT('',(-0.338582677165355,-1.96850393700787,-0.393700787401575));
#1064=CARTESIAN_POINT('Origin',(-0.255905511811024,-1.73228346456693,-0.393700787401575));
#1065=CARTESIAN_POINT('Origin',(0.255905511811024,-1.96850393700787,0.393700787401575));
#1066=CARTESIAN_POINT('',(0.173228346456693,1.73228346456693,0.393700787401575));
#1067=CARTESIAN_POINT('Origin',(0.255905511811024,1.73228346456693,0.393700787401575));
#1068=CARTESIAN_POINT('',(0.173228346456693,-1.96850393700787,0.393700787401575));
#1069=CARTESIAN_POINT('Origin',(0.255905511811024,-1.96850393700787,0.393700787401575));
#1070=CARTESIAN_POINT('',(0.173228346456693,-1.96850393700787,0.393700787401575));
#1071=CARTESIAN_POINT('Origin',(0.255905511811024,-1.96850393700787,0.393700787401575));
#1072=CARTESIAN_POINT('',(0.173228346456693,-1.73228346456693,0.393700787401575));
#1073=CARTESIAN_POINT('',(0.173228346456693,-1.96850393700787,0.393700787401575));
#1074=CARTESIAN_POINT('Origin',(0.255905511811024,-1.73228346456693,0.393700787401575));
#1075=CARTESIAN_POINT('Origin',(0.255905511811024,-1.96850393700787,-0.393700787401575));
#1076=CARTESIAN_POINT('',(0.173228346456693,1.73228346456693,-0.393700787401575));
#1077=CARTESIAN_POINT('Origin',(0.255905511811024,1.73228346456693,-0.393700787401575));
#1078=CARTESIAN_POINT('',(0.173228346456693,-1.96850393700787,-0.393700787401575));
#1079=CARTESIAN_POINT('Origin',(0.255905511811024,-1.96850393700787,-0.393700787401575));
#1080=CARTESIAN_POINT('',(0.173228346456693,-1.96850393700787,-0.393700787401575));
#1081=CARTESIAN_POINT('Origin',(0.255905511811024,-1.96850393700787,-0.393700787401575));
#1082=CARTESIAN_POINT('',(0.173228346456693,-1.73228346456693,-0.393700787401575));
#1083=CARTESIAN_POINT('',(0.173228346456693,-1.96850393700787,-0.393700787401575));
#1084=CARTESIAN_POINT('Origin',(0.255905511811024,-1.73228346456693,-0.393700787401575));
#1085=CARTESIAN_POINT('Origin',(0.,-1.96850393700787,0.));
#1086=CARTESIAN_POINT('',(-0.287155511811024,1.73228346456693,3.5166407839689E-17));
#1087=CARTESIAN_POINT('Origin',(0.,1.73228346456693,0.));
#1088=CARTESIAN_POINT('',(-0.287155511811024,-1.96850393700787,3.51664078396891E-17));
#1089=CARTESIAN_POINT('Origin',(0.,-1.96850393700787,0.));
#1090=CARTESIAN_POINT('',(-0.287155511811024,-1.96850393700787,-3.5166407839689E-17));
#1091=CARTESIAN_POINT('Origin',(0.,-1.96850393700787,0.));
#1092=CARTESIAN_POINT('',(-0.287155511811024,-1.73228346456693,-3.5166407839689E-17));
#1093=CARTESIAN_POINT('',(-0.287155511811024,-1.96850393700787,3.51664078396891E-17));
#1094=CARTESIAN_POINT('Origin',(0.,-1.73228346456693,0.));
#1095=CARTESIAN_POINT('Origin',(-0.393700787401575,-0.984251968503937,-0.984251968503937));
#1096=CARTESIAN_POINT('',(-0.393700787401575,-1.96850393700787,-1.18110236220472));
#1097=CARTESIAN_POINT('',(-0.590551181102362,-1.96850393700787,-0.984251968503937));
#1098=CARTESIAN_POINT('Origin',(-0.393700787401575,-1.96850393700787,-0.984251968503937));
#1099=CARTESIAN_POINT('',(-0.590551181102362,-0.984251968503937,-0.984251968503937));
#1100=CARTESIAN_POINT('',(-0.393700787401575,-0.984251968503937,-1.18110236220472));
#1101=CARTESIAN_POINT('Origin',(-0.590551181102362,0.,0.295275590551181));
#1102=CARTESIAN_POINT('',(-0.590551181102362,-1.96850393700787,0.117546326119234));
#1103=CARTESIAN_POINT('',(-0.590551181102362,-1.96850393700787,1.49606299212598));
#1104=CARTESIAN_POINT('',(-0.590551181102362,-1.73228346456693,0.117546326119234));
#1105=CARTESIAN_POINT('',(-0.590551181102362,1.96850393700787,0.117546326119234));
#1106=CARTESIAN_POINT('',(-0.590551181102362,-1.73228346456693,-0.551181102362205));
#1107=CARTESIAN_POINT('',(-0.590551181102362,-1.73228346456693,1.49606299212598));
#1108=CARTESIAN_POINT('',(-0.590551181102362,-1.41732283464567,-0.866141732283465));
#1109=CARTESIAN_POINT('Origin',(-0.590551181102362,-1.41732283464567,-0.551181102362205));
#1110=CARTESIAN_POINT('',(-0.590551181102362,1.41732283464567,-0.866141732283465));
#1111=CARTESIAN_POINT('',(-0.590551181102362,1.96850393700787,-0.866141732283465));
#1112=CARTESIAN_POINT('',(-0.590551181102362,1.73228346456693,-0.551181102362205));
#1113=CARTESIAN_POINT('Origin',(-0.590551181102362,1.41732283464567,-0.551181102362205));
#1114=CARTESIAN_POINT('',(-0.590551181102362,1.73228346456693,0.117546326119234));
#1115=CARTESIAN_POINT('',(-0.590551181102362,1.73228346456693,1.49606299212598));
#1116=CARTESIAN_POINT('',(-0.590551181102362,1.96850393700787,0.117546326119234));
#1117=CARTESIAN_POINT('Origin',(0.,-1.96850393700787,1.77165354330709));
#1118=CARTESIAN_POINT('',(-0.543123249789004,-1.96850393700787,0.33009872588149));
#1119=CARTESIAN_POINT('Origin',(-2.4912618352827,-1.96850393700787,1.24505031053804));
#1120=CARTESIAN_POINT('Origin',(-0.090551181102362,-1.96850393700787,0.117546326119234));
#1121=CARTESIAN_POINT('',(0.393700787401575,-1.96850393700787,-1.18110236220472));
#1122=CARTESIAN_POINT('',(0.,-1.96850393700787,-1.18110236220472));
#1123=CARTESIAN_POINT('',(0.590551181102362,-1.96850393700787,-0.984251968503937));
#1124=CARTESIAN_POINT('Origin',(0.393700787401575,-1.96850393700787,-0.984251968503937));
#1125=CARTESIAN_POINT('',(0.590551181102362,-1.96850393700787,0.117546326119234));
#1126=CARTESIAN_POINT('',(0.590551181102362,-1.96850393700787,1.49606299212598));
#1127=CARTESIAN_POINT('Origin',(0.0905511811023627,-1.96850393700787,0.117546326119234));
#1128=CARTESIAN_POINT('Origin',(0.393700787401575,-0.984251968503937,-0.984251968503937));
#1129=CARTESIAN_POINT('',(0.590551181102362,-0.984251968503937,-0.984251968503937));
#1130=CARTESIAN_POINT('',(0.393700787401575,-0.984251968503937,-1.18110236220472));
#1131=CARTESIAN_POINT('Origin',(0.590551181102362,0.,0.295275590551181));
#1132=CARTESIAN_POINT('',(0.590551181102362,1.73228346456693,0.117546326119234));
#1133=CARTESIAN_POINT('',(0.590551181102362,1.96850393700787,0.117546326119234));
#1134=CARTESIAN_POINT('',(0.590551181102362,1.73228346456693,-0.551181102362205));
#1135=CARTESIAN_POINT('',(0.590551181102362,1.73228346456693,1.49606299212598));
#1136=CARTESIAN_POINT('',(0.590551181102362,1.41732283464567,-0.866141732283465));
#1137=CARTESIAN_POINT('Origin',(0.590551181102362,1.41732283464567,-0.551181102362205));
#1138=CARTESIAN_POINT('',(0.590551181102362,-1.41732283464567,-0.866141732283465));
#1139=CARTESIAN_POINT('',(0.590551181102362,1.96850393700787,-0.866141732283465));
#1140=CARTESIAN_POINT('',(0.590551181102362,-1.73228346456693,-0.551181102362205));
#1141=CARTESIAN_POINT('Origin',(0.590551181102362,-1.41732283464567,-0.551181102362205));
#1142=CARTESIAN_POINT('',(0.590551181102362,-1.73228346456693,0.117546326119234));
#1143=CARTESIAN_POINT('',(0.590551181102362,-1.73228346456693,1.49606299212598));
#1144=CARTESIAN_POINT('',(0.590551181102362,1.96850393700787,0.117546326119234));
#1145=CARTESIAN_POINT('Origin',(0.,-1.41732283464567,-0.551181102362205));
#1146=CARTESIAN_POINT('',(0.,-1.73228346456693,-0.551181102362205));
#1147=CARTESIAN_POINT('',(0.,-1.41732283464567,-0.866141732283465));
#1148=CARTESIAN_POINT('Origin',(0.,-1.73228346456693,-0.866141732283465));
#1149=CARTESIAN_POINT('',(-0.543123249789004,-1.73228346456693,0.33009872588149));
#1150=CARTESIAN_POINT('Origin',(-0.090551181102362,-1.73228346456693,0.117546326119234));
#1151=CARTESIAN_POINT('',(-0.339016138085594,-1.73228346456693,1.25984251968504));
#1152=CARTESIAN_POINT('Origin',(-2.4912618352827,-1.73228346456693,1.24505031053804));
#1153=CARTESIAN_POINT('',(0.,-1.73228346456693,1.25984251968504));
#1154=CARTESIAN_POINT('Origin',(0.0905511811023627,-1.73228346456693,0.117546326119234));
#1155=CARTESIAN_POINT('Origin',(0.,1.41732283464567,-0.551181102362205));
#1156=CARTESIAN_POINT('',(0.,1.41732283464567,-0.866141732283465));
#1157=CARTESIAN_POINT('',(0.,1.73228346456693,-0.551181102362205));
#1158=CARTESIAN_POINT('Origin',(0.,1.73228346456693,-0.866141732283465));
#1159=CARTESIAN_POINT('Origin',(0.,-1.49606299212598,1.25984251968504));
#1160=CARTESIAN_POINT('',(-0.35365266047152,-1.49606299212598,1.49606299212598));
#1161=CARTESIAN_POINT('Ctrl Pts',(-0.339016138085589,-1.73228346456692,
1.25984251968504));
#1162=CARTESIAN_POINT('Ctrl Pts',(-0.33922022767184,-1.73228346456692,1.28953726841981));
#1163=CARTESIAN_POINT('Ctrl Pts',(-0.340115204527698,-1.72634268651127,
1.32118983145431));
#1164=CARTESIAN_POINT('Ctrl Pts',(-0.342964090129164,-1.70222260800979,
1.3793851602424));
#1165=CARTESIAN_POINT('Ctrl Pts',(-0.344883391888275,-1.68404478632559,
1.40593022786305));
#1166=CARTESIAN_POINT('Ctrl Pts',(-0.348436996294154,-1.6421269951914,1.44784140477518));
#1167=CARTESIAN_POINT('Ctrl Pts',(-0.350303467585745,-1.61558482299854,
1.4660133914327));
#1168=CARTESIAN_POINT('Ctrl Pts',(-0.352929341305141,-1.55739743785618,
1.49012491418049));
#1169=CARTESIAN_POINT('Ctrl Pts',(-0.353652660471515,-1.52574999794794,
1.49606299212598));
#1170=CARTESIAN_POINT('Ctrl Pts',(-0.353652660471515,-1.49606299212598,
1.49606299212598));
#1171=CARTESIAN_POINT('',(0.,-1.49606299212598,1.49606299212598));
#1172=CARTESIAN_POINT('Origin',(0.,1.49606299212598,1.25984251968504));
#1173=CARTESIAN_POINT('',(-0.35365266047152,1.49606299212598,1.49606299212598));
#1174=CARTESIAN_POINT('',(-0.339016138085594,1.73228346456693,1.25984251968504));
#1175=CARTESIAN_POINT('Ctrl Pts',(-0.353652660471515,1.49606299212598,1.49606299212598));
#1176=CARTESIAN_POINT('Ctrl Pts',(-0.353652660471515,1.52574999794794,1.49606299212598));
#1177=CARTESIAN_POINT('Ctrl Pts',(-0.352929341305141,1.55739743785618,1.49012491418049));
#1178=CARTESIAN_POINT('Ctrl Pts',(-0.350303467585745,1.61558482299854,1.4660133914327));
#1179=CARTESIAN_POINT('Ctrl Pts',(-0.348436996294154,1.6421269951914,1.44784140477518));
#1180=CARTESIAN_POINT('Ctrl Pts',(-0.344883391888275,1.68404478632559,1.40593022786305));
#1181=CARTESIAN_POINT('Ctrl Pts',(-0.342964090129164,1.70222260800979,1.3793851602424));
#1182=CARTESIAN_POINT('Ctrl Pts',(-0.340115204527698,1.72634268651127,1.32118983145431));
#1183=CARTESIAN_POINT('Ctrl Pts',(-0.33922022767184,1.73228346456692,1.28953726841981));
#1184=CARTESIAN_POINT('Ctrl Pts',(-0.339016138085589,1.73228346456692,1.25984251968504));
#1185=CARTESIAN_POINT('',(0.,1.73228346456693,1.25984251968504));
#1186=CARTESIAN_POINT('',(0.,1.49606299212598,1.49606299212598));
#1187=CARTESIAN_POINT('Origin',(0.,1.73228346456693,1.49606299212598));
#1188=CARTESIAN_POINT('Origin',(0.0905511811023627,1.73228346456693,0.117546326119234));
#1189=CARTESIAN_POINT('',(-0.543123249789004,1.73228346456693,0.33009872588149));
#1190=CARTESIAN_POINT('Origin',(-2.4912618352827,1.73228346456693,1.24505031053804));
#1191=CARTESIAN_POINT('Origin',(-0.090551181102362,1.73228346456693,0.117546326119234));
#1192=CARTESIAN_POINT('Origin',(0.0905511811023627,1.96850393700787,0.117546326119234));
#1193=CARTESIAN_POINT('Origin',(0.0905511811023627,1.96850393700787,0.117546326119234));
#1194=CARTESIAN_POINT('Origin',(-0.090551181102362,1.96850393700787,0.117546326119234));
#1195=CARTESIAN_POINT('',(-0.543123249789004,1.96850393700787,0.330098725881491));
#1196=CARTESIAN_POINT('Origin',(-2.4912618352827,1.96850393700787,1.24505031053804));
#1197=CARTESIAN_POINT('',(-0.35365266047152,1.96850393700787,1.49606299212598));
#1198=CARTESIAN_POINT('',(-0.543123249789004,1.96850393700787,0.330098725881491));
#1199=CARTESIAN_POINT('Origin',(-0.090551181102362,1.96850393700787,0.117546326119234));
#1200=CARTESIAN_POINT('Origin',(0.,-1.73228346456693,1.49606299212598));
#1201=CARTESIAN_POINT('Origin',(0.,-1.96850393700787,-1.18110236220472));
#1202=UNCERTAINTY_MEASURE_WITH_UNIT(LENGTH_MEASURE(0.000393700787401575),
#1207,'DISTANCE_ACCURACY_VALUE',
'Maximum model space distance between geometric entities at asserted c
onnectivities');
#1203=UNCERTAINTY_MEASURE_WITH_UNIT(LENGTH_MEASURE(0.000393700787401575),
#1207,'DISTANCE_ACCURACY_VALUE',
'Maximum model space distance between geometric entities at asserted c
onnectivities');
#1204=(
GEOMETRIC_REPRESENTATION_CONTEXT(3)
GLOBAL_UNCERTAINTY_ASSIGNED_CONTEXT((#1202))
GLOBAL_UNIT_ASSIGNED_CONTEXT((#1207,#1211,#1212))
REPRESENTATION_CONTEXT('','3D')
);
#1205=(
GEOMETRIC_REPRESENTATION_CONTEXT(3)
GLOBAL_UNCERTAINTY_ASSIGNED_CONTEXT((#1203))
GLOBAL_UNIT_ASSIGNED_CONTEXT((#1207,#1211,#1212))
REPRESENTATION_CONTEXT('','3D')
);
#1206=DIMENSIONAL_EXPONENTS(1.,0.,0.,0.,0.,0.,0.);
#1207=(
CONVERSION_BASED_UNIT('inch',#1210)
LENGTH_UNIT()
NAMED_UNIT(#1206)
);
#1208=(
LENGTH_UNIT()
NAMED_UNIT(*)
SI_UNIT(.MILLI.,.METRE.)
);
#1209=(
LENGTH_UNIT()
NAMED_UNIT(*)
SI_UNIT($,.METRE.)
);
#1210=LENGTH_MEASURE_WITH_UNIT(LENGTH_MEASURE(25.4),#1208);
#1211=(
NAMED_UNIT(*)
PLANE_ANGLE_UNIT()
SI_UNIT($,.RADIAN.)
);
#1212=(
NAMED_UNIT(*)
SI_UNIT($,.STERADIAN.)
SOLID_ANGLE_UNIT()
);
#1213=SHAPE_DEFINITION_REPRESENTATION(#1214,#1215);
#1214=PRODUCT_DEFINITION_SHAPE('',$,#1217);
#1215=SHAPE_REPRESENTATION('',(#690),#1204);
#1216=PRODUCT_DEFINITION_CONTEXT('part definition',#1221,'design');
#1217=PRODUCT_DEFINITION('eggbeater','eggbeater v3',#1218,#1216);
#1218=PRODUCT_DEFINITION_FORMATION('',$,#1223);
#1219=PRODUCT_RELATED_PRODUCT_CATEGORY('eggbeater v3','eggbeater v3',(#1223));
#1220=APPLICATION_PROTOCOL_DEFINITION('international standard',
'automotive_design',2009,#1221);
#1221=APPLICATION_CONTEXT(
'Core Data for Automotive Mechanical Design Process');
#1222=PRODUCT_CONTEXT('part definition',#1221,'mechanical');
#1223=PRODUCT('eggbeater','eggbeater v3',$,(#1222));
#1224=PRESENTATION_STYLE_ASSIGNMENT((#1226));
#1225=PRESENTATION_STYLE_ASSIGNMENT((#1227));
#1226=SURFACE_STYLE_USAGE(.BOTH.,#1228);
#1227=SURFACE_STYLE_USAGE(.BOTH.,#1229);
#1228=SURFACE_SIDE_STYLE('',(#1230));
#1229=SURFACE_SIDE_STYLE('',(#1231));
#1230=SURFACE_STYLE_FILL_AREA(#1232);
#1231=SURFACE_STYLE_FILL_AREA(#1233);
#1232=FILL_AREA_STYLE('Steel - Satin',(#1234));
#1233=FILL_AREA_STYLE('Opaque(232,173,35)',(#1235));
#1234=FILL_AREA_STYLE_COLOUR('Steel - Satin',#1236);
#1235=FILL_AREA_STYLE_COLOUR('Opaque(232,173,35)',#1237);
#1236=COLOUR_RGB('Steel - Satin',0.627450980392157,0.627450980392157,0.627450980392157);
#1237=COLOUR_RGB('Opaque(232,173,35)',0.909803921568627,0.67843137254902,
0.137254901960784);
ENDSEC;
END-ISO-10303-21;
