ISO-10303-21;
HEADER;
/* Generated by software containing ST-Developer
 * from STEP Tools, Inc. (www.steptools.com) 
 */

FILE_DESCRIPTION(
/* description */ (''),
/* implementation_level */ '2;1');

FILE_NAME(
/* name */ 'Back.step',
/* time_stamp */ '2026-09-06T19:55:19+03:00',
/* author */ (''),
/* organization */ (''),
/* preprocessor_version */ 'ST-DEVELOPER v20.1',
/* originating_system */ 'Autodesk Translation Framework v15.8.0.0',
/* authorisation */ '');

FILE_SCHEMA (('AUTOMOTIVE_DESIGN { 1 0 10303 214 3 1 1 }'));
ENDSEC;

DATA;
#10=MECHANICAL_DESIGN_GEOMETRIC_PRESENTATION_REPRESENTATION('',(#13),#1224);
#11=SHAPE_REPRESENTATION_RELATIONSHIP('SRR','None',#1231,#12);
#12=ADVANCED_BREP_SHAPE_REPRESENTATION('',(#14),#1223);
#13=STYLED_ITEM('',(#1241),#14);
#14=MANIFOLD_SOLID_BREP('Body1',#661);
#15=PLANE('',#690);
#16=PLANE('',#694);
#17=PLANE('',#698);
#18=PLANE('',#702);
#19=PLANE('',#706);
#20=PLANE('',#710);
#21=PLANE('',#711);
#22=PLANE('',#723);
#23=PLANE('',#724);
#24=PLANE('',#725);
#25=PLANE('',#726);
#26=PLANE('',#727);
#27=PLANE('',#728);
#28=PLANE('',#729);
#29=PLANE('',#730);
#30=PLANE('',#731);
#31=PLANE('',#732);
#32=PLANE('',#733);
#33=PLANE('',#734);
#34=PLANE('',#735);
#35=PLANE('',#736);
#36=PLANE('',#737);
#37=FACE_BOUND('',#98,.T.);
#38=FACE_BOUND('',#116,.T.);
#39=FACE_BOUND('',#124,.T.);
#40=FACE_BOUND('',#125,.T.);
#41=FACE_BOUND('',#126,.T.);
#42=FACE_BOUND('',#127,.T.);
#43=FACE_BOUND('',#131,.T.);
#44=FACE_BOUND('',#132,.T.);
#45=FACE_BOUND('',#133,.T.);
#46=FACE_BOUND('',#134,.T.);
#47=FACE_BOUND('',#137,.T.);
#48=FACE_BOUND('',#141,.T.);
#49=FACE_BOUND('',#142,.T.);
#50=FACE_BOUND('',#143,.T.);
#51=FACE_BOUND('',#144,.T.);
#52=FACE_BOUND('',#146,.T.);
#53=FACE_BOUND('',#147,.T.);
#54=FACE_BOUND('',#148,.T.);
#55=FACE_BOUND('',#149,.T.);
#56=FACE_BOUND('',#150,.T.);
#57=B_SPLINE_CURVE_WITH_KNOTS('',3,(#930,#931,#932,#933,#934,#935,#936,
#937,#938,#939,#940,#941,#942,#943,#944,#945,#946,#947,#948,#949,#950,#951,
#952,#953,#954,#955,#956,#957,#958,#959),.UNSPECIFIED.,.F.,.F.,(4,2,2,2,
2,2,2,2,2,2,2,2,2,2,4),(0.,0.0660345886474705,0.0990518829712057,0.132069177294941,
0.161156620301575,0.190244063308208,0.246088865930264,0.301933668552319,
0.357778471174375,0.41362327379643,0.442710716803064,0.471798159809697,
0.504815454133433,0.537832748457168,0.603867337104638),.UNSPECIFIED.);
#58=B_SPLINE_CURVE_WITH_KNOTS('',3,(#960,#961,#962,#963,#964,#965,#966,
#967,#968,#969,#970,#971,#972,#973,#974,#975,#976,#977,#978,#979,#980,#981,
#982,#983,#984,#985,#986,#987,#988,#989),.UNSPECIFIED.,.F.,.F.,(4,2,2,2,
2,2,2,2,2,2,2,2,2,2,4),(0.603867337104638,0.669901925752109,0.702919220075844,
0.735936514399579,0.765023957406213,0.794111400412847,0.849956203034902,
0.905801005656958,0.961645808279013,1.01749061090107,1.0465780539077,1.07566549691434,
1.10868279123807,1.14170008556181,1.20773467420928),.UNSPECIFIED.);
#59=B_SPLINE_CURVE_WITH_KNOTS('',3,(#1008,#1009,#1010,#1011,#1012,#1013,
#1014,#1015,#1016,#1017,#1018,#1019,#1020,#1021,#1022,#1023),
 .UNSPECIFIED.,.F.,.F.,(4,2,2,2,2,2,2,4),(0.,0.0687055722322925,0.103058358348439,
0.137411144464585,0.167901420068075,0.198391695671565,0.257852896162649,
0.317314096653732),.UNSPECIFIED.);
#60=B_SPLINE_CURVE_WITH_KNOTS('',3,(#1025,#1026,#1027,#1028,#1029,#1030,
#1031,#1032,#1033,#1034,#1035,#1036,#1037,#1038,#1039,#1040),
 .UNSPECIFIED.,.F.,.F.,(4,2,2,2,2,2,2,4),(0.951942289961197,1.01140349045228,
1.07086469094336,1.10135496654685,1.13184524215034,1.16619802826649,1.20055081438264,
1.26925638661493),.UNSPECIFIED.);
#61=B_SPLINE_CURVE_WITH_KNOTS('',3,(#1044,#1045,#1046,#1047,#1048,#1049,
#1050,#1051,#1052,#1053,#1054,#1055,#1056,#1057,#1058,#1059,#1060,#1061,
#1062,#1063,#1064,#1065,#1066,#1067,#1068,#1069,#1070,#1071,#1072,#1073),
 .UNSPECIFIED.,.F.,.F.,(4,2,2,2,2,2,2,2,2,2,2,2,2,2,4),(0.317314096653732,
0.376775297144816,0.436236497635899,0.466726773239389,0.497217048842879,
0.531569834959026,0.565922621075172,0.634628193307464,0.703333765539757,
0.737686551655903,0.772039337772049,0.802529613375539,0.833019888979029,
0.892481089470113,0.951942289961197),.UNSPECIFIED.);
#62=FACE_OUTER_BOUND('',#97,.T.);
#63=FACE_OUTER_BOUND('',#99,.T.);
#64=FACE_OUTER_BOUND('',#100,.T.);
#65=FACE_OUTER_BOUND('',#101,.T.);
#66=FACE_OUTER_BOUND('',#102,.T.);
#67=FACE_OUTER_BOUND('',#103,.T.);
#68=FACE_OUTER_BOUND('',#104,.T.);
#69=FACE_OUTER_BOUND('',#105,.T.);
#70=FACE_OUTER_BOUND('',#106,.T.);
#71=FACE_OUTER_BOUND('',#107,.T.);
#72=FACE_OUTER_BOUND('',#108,.T.);
#73=FACE_OUTER_BOUND('',#109,.T.);
#74=FACE_OUTER_BOUND('',#110,.T.);
#75=FACE_OUTER_BOUND('',#111,.T.);
#76=FACE_OUTER_BOUND('',#112,.T.);
#77=FACE_OUTER_BOUND('',#113,.T.);
#78=FACE_OUTER_BOUND('',#114,.T.);
#79=FACE_OUTER_BOUND('',#115,.T.);
#80=FACE_OUTER_BOUND('',#117,.T.);
#81=FACE_OUTER_BOUND('',#118,.T.);
#82=FACE_OUTER_BOUND('',#119,.T.);
#83=FACE_OUTER_BOUND('',#120,.T.);
#84=FACE_OUTER_BOUND('',#121,.T.);
#85=FACE_OUTER_BOUND('',#122,.T.);
#86=FACE_OUTER_BOUND('',#123,.T.);
#87=FACE_OUTER_BOUND('',#128,.T.);
#88=FACE_OUTER_BOUND('',#129,.T.);
#89=FACE_OUTER_BOUND('',#130,.T.);
#90=FACE_OUTER_BOUND('',#135,.T.);
#91=FACE_OUTER_BOUND('',#136,.T.);
#92=FACE_OUTER_BOUND('',#138,.T.);
#93=FACE_OUTER_BOUND('',#139,.T.);
#94=FACE_OUTER_BOUND('',#140,.T.);
#95=FACE_OUTER_BOUND('',#145,.T.);
#96=FACE_OUTER_BOUND('',#151,.T.);
#97=EDGE_LOOP('',(#437,#438,#439,#440));
#98=EDGE_LOOP('',(#441,#442));
#99=EDGE_LOOP('',(#443,#444,#445,#446));
#100=EDGE_LOOP('',(#447,#448,#449,#450));
#101=EDGE_LOOP('',(#451,#452,#453,#454,#455,#456,#457,#458,#459));
#102=EDGE_LOOP('',(#460,#461,#462,#463));
#103=EDGE_LOOP('',(#464));
#104=EDGE_LOOP('',(#465,#466,#467,#468));
#105=EDGE_LOOP('',(#469));
#106=EDGE_LOOP('',(#470,#471,#472,#473));
#107=EDGE_LOOP('',(#474));
#108=EDGE_LOOP('',(#475,#476,#477,#478));
#109=EDGE_LOOP('',(#479));
#110=EDGE_LOOP('',(#480,#481,#482,#483));
#111=EDGE_LOOP('',(#484));
#112=EDGE_LOOP('',(#485,#486,#487,#488));
#113=EDGE_LOOP('',(#489));
#114=EDGE_LOOP('',(#490,#491));
#115=EDGE_LOOP('',(#492,#493,#494,#495,#496,#497,#498,#499));
#116=EDGE_LOOP('',(#500,#501,#502));
#117=EDGE_LOOP('',(#503,#504,#505,#506,#507,#508,#509,#510));
#118=EDGE_LOOP('',(#511,#512,#513,#514));
#119=EDGE_LOOP('',(#515));
#120=EDGE_LOOP('',(#516,#517,#518,#519,#520,#521,#522,#523));
#121=EDGE_LOOP('',(#524,#525,#526,#527));
#122=EDGE_LOOP('',(#528,#529,#530,#531));
#123=EDGE_LOOP('',(#532,#533,#534,#535,#536,#537,#538,#539,#540,#541,#542,
#543));
#124=EDGE_LOOP('',(#544));
#125=EDGE_LOOP('',(#545));
#126=EDGE_LOOP('',(#546));
#127=EDGE_LOOP('',(#547));
#128=EDGE_LOOP('',(#548,#549,#550,#551,#552,#553,#554));
#129=EDGE_LOOP('',(#555,#556,#557,#558));
#130=EDGE_LOOP('',(#559,#560,#561,#562,#563,#564,#565,#566,#567,#568,#569,
#570));
#131=EDGE_LOOP('',(#571));
#132=EDGE_LOOP('',(#572));
#133=EDGE_LOOP('',(#573));
#134=EDGE_LOOP('',(#574));
#135=EDGE_LOOP('',(#575,#576,#577,#578));
#136=EDGE_LOOP('',(#579,#580,#581,#582));
#137=EDGE_LOOP('',(#583));
#138=EDGE_LOOP('',(#584,#585,#586,#587));
#139=EDGE_LOOP('',(#588,#589,#590,#591));
#140=EDGE_LOOP('',(#592,#593,#594,#595));
#141=EDGE_LOOP('',(#596));
#142=EDGE_LOOP('',(#597));
#143=EDGE_LOOP('',(#598));
#144=EDGE_LOOP('',(#599));
#145=EDGE_LOOP('',(#600,#601,#602,#603));
#146=EDGE_LOOP('',(#604));
#147=EDGE_LOOP('',(#605));
#148=EDGE_LOOP('',(#606));
#149=EDGE_LOOP('',(#607));
#150=EDGE_LOOP('',(#608));
#151=EDGE_LOOP('',(#609,#610,#611,#612));
#152=LINE('',#926,#207);
#153=LINE('',#994,#208);
#154=LINE('',#1000,#209);
#155=LINE('',#1006,#210);
#156=LINE('',#1042,#211);
#157=LINE('',#1078,#212);
#158=LINE('',#1085,#213);
#159=LINE('',#1092,#214);
#160=LINE('',#1099,#215);
#161=LINE('',#1106,#216);
#162=LINE('',#1113,#217);
#163=LINE('',#1119,#218);
#164=LINE('',#1125,#219);
#165=LINE('',#1128,#220);
#166=LINE('',#1130,#221);
#167=LINE('',#1135,#222);
#168=LINE('',#1137,#223);
#169=LINE('',#1143,#224);
#170=LINE('',#1148,#225);
#171=LINE('',#1150,#226);
#172=LINE('',#1152,#227);
#173=LINE('',#1154,#228);
#174=LINE('',#1155,#229);
#175=LINE('',#1158,#230);
#176=LINE('',#1160,#231);
#177=LINE('',#1161,#232);
#178=LINE('',#1165,#233);
#179=LINE('',#1166,#234);
#180=LINE('',#1167,#235);
#181=LINE('',#1170,#236);
#182=LINE('',#1172,#237);
#183=LINE('',#1174,#238);
#184=LINE('',#1176,#239);
#185=LINE('',#1178,#240);
#186=LINE('',#1180,#241);
#187=LINE('',#1182,#242);
#188=LINE('',#1184,#243);
#189=LINE('',#1185,#244);
#190=LINE('',#1188,#245);
#191=LINE('',#1189,#246);
#192=LINE('',#1192,#247);
#193=LINE('',#1193,#248);
#194=LINE('',#1197,#249);
#195=LINE('',#1199,#250);
#196=LINE('',#1201,#251);
#197=LINE('',#1202,#252);
#198=LINE('',#1204,#253);
#199=LINE('',#1206,#254);
#200=LINE('',#1207,#255);
#201=LINE('',#1209,#256);
#202=LINE('',#1210,#257);
#203=LINE('',#1212,#258);
#204=LINE('',#1214,#259);
#205=LINE('',#1215,#260);
#206=LINE('',#1217,#261);
#207=VECTOR('',#744,1.45);
#208=VECTOR('',#751,1.45);
#209=VECTOR('',#758,1.45);
#210=VECTOR('',#765,1.45);
#211=VECTOR('',#766,1.45);
#212=VECTOR('',#773,1.45);
#213=VECTOR('',#782,1.45);
#214=VECTOR('',#791,1.45);
#215=VECTOR('',#800,1.45);
#216=VECTOR('',#809,1.45);
#217=VECTOR('',#818,1.45);
#218=VECTOR('',#825,10.);
#219=VECTOR('',#832,1.45);
#220=VECTOR('',#835,10.);
#221=VECTOR('',#836,10.);
#222=VECTOR('',#843,1.45);
#223=VECTOR('',#844,1.45);
#224=VECTOR('',#851,1.45);
#225=VECTOR('',#858,10.);
#226=VECTOR('',#859,10.);
#227=VECTOR('',#860,10.);
#228=VECTOR('',#861,10.);
#229=VECTOR('',#862,10.);
#230=VECTOR('',#865,10.);
#231=VECTOR('',#866,10.);
#232=VECTOR('',#867,10.);
#233=VECTOR('',#870,10.);
#234=VECTOR('',#871,10.);
#235=VECTOR('',#872,10.);
#236=VECTOR('',#875,10.);
#237=VECTOR('',#876,10.);
#238=VECTOR('',#877,10.);
#239=VECTOR('',#878,10.);
#240=VECTOR('',#879,10.);
#241=VECTOR('',#880,10.);
#242=VECTOR('',#881,10.);
#243=VECTOR('',#882,10.);
#244=VECTOR('',#883,10.);
#245=VECTOR('',#886,10.);
#246=VECTOR('',#887,10.);
#247=VECTOR('',#890,10.);
#248=VECTOR('',#891,10.);
#249=VECTOR('',#894,10.);
#250=VECTOR('',#895,10.);
#251=VECTOR('',#896,10.);
#252=VECTOR('',#897,10.);
#253=VECTOR('',#898,10.);
#254=VECTOR('',#899,10.);
#255=VECTOR('',#900,10.);
#256=VECTOR('',#903,10.);
#257=VECTOR('',#904,10.);
#258=VECTOR('',#907,10.);
#259=VECTOR('',#910,10.);
#260=VECTOR('',#911,10.);
#261=VECTOR('',#914,10.);
#262=CIRCLE('',#676,1.45);
#263=CIRCLE('',#677,1.45);
#264=CIRCLE('',#679,1.45);
#265=CIRCLE('',#680,1.45);
#266=CIRCLE('',#682,1.45);
#267=CIRCLE('',#683,1.45);
#268=CIRCLE('',#685,1.45);
#269=CIRCLE('',#686,1.45);
#270=CIRCLE('',#688,1.45);
#271=CIRCLE('',#689,1.45);
#272=CIRCLE('',#692,1.45);
#273=CIRCLE('',#693,1.45);
#274=CIRCLE('',#696,1.45);
#275=CIRCLE('',#697,1.45);
#276=CIRCLE('',#700,1.45);
#277=CIRCLE('',#701,1.45);
#278=CIRCLE('',#704,1.45);
#279=CIRCLE('',#705,1.45);
#280=CIRCLE('',#708,1.45);
#281=CIRCLE('',#709,1.45);
#282=CIRCLE('',#712,1.45);
#283=CIRCLE('',#714,1.45);
#284=CIRCLE('',#715,1.45);
#285=CIRCLE('',#716,1.45);
#286=CIRCLE('',#718,1.45);
#287=CIRCLE('',#719,1.45);
#288=CIRCLE('',#721,1.45);
#289=CIRCLE('',#722,1.45);
#290=VERTEX_POINT('',#923);
#291=VERTEX_POINT('',#925);
#292=VERTEX_POINT('',#928);
#293=VERTEX_POINT('',#929);
#294=VERTEX_POINT('',#991);
#295=VERTEX_POINT('',#993);
#296=VERTEX_POINT('',#997);
#297=VERTEX_POINT('',#999);
#298=VERTEX_POINT('',#1003);
#299=VERTEX_POINT('',#1005);
#300=VERTEX_POINT('',#1007);
#301=VERTEX_POINT('',#1024);
#302=VERTEX_POINT('',#1041);
#303=VERTEX_POINT('',#1075);
#304=VERTEX_POINT('',#1077);
#305=VERTEX_POINT('',#1082);
#306=VERTEX_POINT('',#1084);
#307=VERTEX_POINT('',#1089);
#308=VERTEX_POINT('',#1091);
#309=VERTEX_POINT('',#1096);
#310=VERTEX_POINT('',#1098);
#311=VERTEX_POINT('',#1103);
#312=VERTEX_POINT('',#1105);
#313=VERTEX_POINT('',#1110);
#314=VERTEX_POINT('',#1112);
#315=VERTEX_POINT('',#1117);
#316=VERTEX_POINT('',#1118);
#317=VERTEX_POINT('',#1122);
#318=VERTEX_POINT('',#1124);
#319=VERTEX_POINT('',#1126);
#320=VERTEX_POINT('',#1129);
#321=VERTEX_POINT('',#1133);
#322=VERTEX_POINT('',#1136);
#323=VERTEX_POINT('',#1140);
#324=VERTEX_POINT('',#1142);
#325=VERTEX_POINT('',#1147);
#326=VERTEX_POINT('',#1149);
#327=VERTEX_POINT('',#1151);
#328=VERTEX_POINT('',#1153);
#329=VERTEX_POINT('',#1157);
#330=VERTEX_POINT('',#1159);
#331=VERTEX_POINT('',#1163);
#332=VERTEX_POINT('',#1164);
#333=VERTEX_POINT('',#1169);
#334=VERTEX_POINT('',#1171);
#335=VERTEX_POINT('',#1173);
#336=VERTEX_POINT('',#1175);
#337=VERTEX_POINT('',#1177);
#338=VERTEX_POINT('',#1179);
#339=VERTEX_POINT('',#1181);
#340=VERTEX_POINT('',#1183);
#341=VERTEX_POINT('',#1187);
#342=VERTEX_POINT('',#1191);
#343=VERTEX_POINT('',#1195);
#344=VERTEX_POINT('',#1196);
#345=VERTEX_POINT('',#1198);
#346=VERTEX_POINT('',#1200);
#347=VERTEX_POINT('',#1203);
#348=VERTEX_POINT('',#1205);
#349=EDGE_CURVE('',#290,#290,#262,.T.);
#350=EDGE_CURVE('',#290,#291,#152,.T.);
#351=EDGE_CURVE('',#291,#291,#263,.T.);
#352=EDGE_CURVE('',#292,#293,#57,.T.);
#353=EDGE_CURVE('',#293,#292,#58,.T.);
#354=EDGE_CURVE('',#294,#294,#264,.T.);
#355=EDGE_CURVE('',#294,#295,#153,.T.);
#356=EDGE_CURVE('',#295,#295,#265,.T.);
#357=EDGE_CURVE('',#296,#296,#266,.T.);
#358=EDGE_CURVE('',#296,#297,#154,.T.);
#359=EDGE_CURVE('',#297,#297,#267,.T.);
#360=EDGE_CURVE('',#298,#298,#268,.T.);
#361=EDGE_CURVE('',#298,#299,#155,.T.);
#362=EDGE_CURVE('',#300,#299,#59,.T.);
#363=EDGE_CURVE('',#301,#300,#60,.T.);
#364=EDGE_CURVE('',#301,#302,#156,.T.);
#365=EDGE_CURVE('',#302,#302,#269,.T.);
#366=EDGE_CURVE('',#299,#301,#61,.T.);
#367=EDGE_CURVE('',#303,#303,#270,.T.);
#368=EDGE_CURVE('',#303,#304,#157,.T.);
#369=EDGE_CURVE('',#304,#304,#271,.T.);
#370=EDGE_CURVE('',#305,#305,#272,.T.);
#371=EDGE_CURVE('',#305,#306,#158,.T.);
#372=EDGE_CURVE('',#306,#306,#273,.T.);
#373=EDGE_CURVE('',#307,#307,#274,.T.);
#374=EDGE_CURVE('',#307,#308,#159,.T.);
#375=EDGE_CURVE('',#308,#308,#275,.T.);
#376=EDGE_CURVE('',#309,#309,#276,.T.);
#377=EDGE_CURVE('',#309,#310,#160,.T.);
#378=EDGE_CURVE('',#310,#310,#277,.T.);
#379=EDGE_CURVE('',#311,#311,#278,.T.);
#380=EDGE_CURVE('',#311,#312,#161,.T.);
#381=EDGE_CURVE('',#312,#312,#279,.T.);
#382=EDGE_CURVE('',#313,#313,#280,.T.);
#383=EDGE_CURVE('',#313,#314,#162,.T.);
#384=EDGE_CURVE('',#314,#314,#281,.T.);
#385=EDGE_CURVE('',#315,#316,#163,.T.);
#386=EDGE_CURVE('',#316,#315,#282,.T.);
#387=EDGE_CURVE('',#317,#317,#283,.T.);
#388=EDGE_CURVE('',#317,#318,#164,.T.);
#389=EDGE_CURVE('',#319,#318,#284,.T.);
#390=EDGE_CURVE('',#316,#319,#165,.T.);
#391=EDGE_CURVE('',#320,#315,#166,.T.);
#392=EDGE_CURVE('',#318,#320,#285,.T.);
#393=EDGE_CURVE('',#321,#321,#286,.T.);
#394=EDGE_CURVE('',#321,#293,#167,.T.);
#395=EDGE_CURVE('',#292,#322,#168,.T.);
#396=EDGE_CURVE('',#322,#322,#287,.T.);
#397=EDGE_CURVE('',#323,#323,#288,.T.);
#398=EDGE_CURVE('',#323,#324,#169,.T.);
#399=EDGE_CURVE('',#324,#324,#289,.T.);
#400=EDGE_CURVE('',#319,#325,#170,.T.);
#401=EDGE_CURVE('',#325,#326,#171,.T.);
#402=EDGE_CURVE('',#326,#327,#172,.T.);
#403=EDGE_CURVE('',#327,#328,#173,.T.);
#404=EDGE_CURVE('',#328,#320,#174,.T.);
#405=EDGE_CURVE('',#326,#329,#175,.T.);
#406=EDGE_CURVE('',#330,#329,#176,.T.);
#407=EDGE_CURVE('',#327,#330,#177,.T.);
#408=EDGE_CURVE('',#331,#332,#178,.T.);
#409=EDGE_CURVE('',#332,#330,#179,.T.);
#410=EDGE_CURVE('',#329,#331,#180,.T.);
#411=EDGE_CURVE('',#325,#333,#181,.T.);
#412=EDGE_CURVE('',#334,#333,#182,.T.);
#413=EDGE_CURVE('',#334,#335,#183,.T.);
#414=EDGE_CURVE('',#336,#335,#184,.T.);
#415=EDGE_CURVE('',#337,#336,#185,.T.);
#416=EDGE_CURVE('',#338,#337,#186,.T.);
#417=EDGE_CURVE('',#338,#339,#187,.T.);
#418=EDGE_CURVE('',#340,#339,#188,.T.);
#419=EDGE_CURVE('',#340,#331,#189,.T.);
#420=EDGE_CURVE('',#328,#341,#190,.T.);
#421=EDGE_CURVE('',#333,#341,#191,.T.);
#422=EDGE_CURVE('',#342,#334,#192,.T.);
#423=EDGE_CURVE('',#341,#342,#193,.T.);
#424=EDGE_CURVE('',#343,#344,#194,.T.);
#425=EDGE_CURVE('',#343,#345,#195,.T.);
#426=EDGE_CURVE('',#346,#345,#196,.T.);
#427=EDGE_CURVE('',#346,#342,#197,.T.);
#428=EDGE_CURVE('',#332,#347,#198,.T.);
#429=EDGE_CURVE('',#348,#347,#199,.T.);
#430=EDGE_CURVE('',#344,#348,#200,.T.);
#431=EDGE_CURVE('',#338,#344,#201,.T.);
#432=EDGE_CURVE('',#343,#337,#202,.T.);
#433=EDGE_CURVE('',#345,#336,#203,.T.);
#434=EDGE_CURVE('',#347,#340,#204,.T.);
#435=EDGE_CURVE('',#339,#348,#205,.T.);
#436=EDGE_CURVE('',#335,#346,#206,.T.);
#437=ORIENTED_EDGE('',*,*,#349,.F.);
#438=ORIENTED_EDGE('',*,*,#350,.T.);
#439=ORIENTED_EDGE('',*,*,#351,.F.);
#440=ORIENTED_EDGE('',*,*,#350,.F.);
#441=ORIENTED_EDGE('',*,*,#352,.F.);
#442=ORIENTED_EDGE('',*,*,#353,.F.);
#443=ORIENTED_EDGE('',*,*,#354,.F.);
#444=ORIENTED_EDGE('',*,*,#355,.T.);
#445=ORIENTED_EDGE('',*,*,#356,.F.);
#446=ORIENTED_EDGE('',*,*,#355,.F.);
#447=ORIENTED_EDGE('',*,*,#357,.F.);
#448=ORIENTED_EDGE('',*,*,#358,.T.);
#449=ORIENTED_EDGE('',*,*,#359,.F.);
#450=ORIENTED_EDGE('',*,*,#358,.F.);
#451=ORIENTED_EDGE('',*,*,#360,.F.);
#452=ORIENTED_EDGE('',*,*,#361,.T.);
#453=ORIENTED_EDGE('',*,*,#362,.F.);
#454=ORIENTED_EDGE('',*,*,#363,.F.);
#455=ORIENTED_EDGE('',*,*,#364,.T.);
#456=ORIENTED_EDGE('',*,*,#365,.F.);
#457=ORIENTED_EDGE('',*,*,#364,.F.);
#458=ORIENTED_EDGE('',*,*,#366,.F.);
#459=ORIENTED_EDGE('',*,*,#361,.F.);
#460=ORIENTED_EDGE('',*,*,#367,.F.);
#461=ORIENTED_EDGE('',*,*,#368,.T.);
#462=ORIENTED_EDGE('',*,*,#369,.T.);
#463=ORIENTED_EDGE('',*,*,#368,.F.);
#464=ORIENTED_EDGE('',*,*,#369,.F.);
#465=ORIENTED_EDGE('',*,*,#370,.F.);
#466=ORIENTED_EDGE('',*,*,#371,.T.);
#467=ORIENTED_EDGE('',*,*,#372,.T.);
#468=ORIENTED_EDGE('',*,*,#371,.F.);
#469=ORIENTED_EDGE('',*,*,#372,.F.);
#470=ORIENTED_EDGE('',*,*,#373,.F.);
#471=ORIENTED_EDGE('',*,*,#374,.T.);
#472=ORIENTED_EDGE('',*,*,#375,.T.);
#473=ORIENTED_EDGE('',*,*,#374,.F.);
#474=ORIENTED_EDGE('',*,*,#375,.F.);
#475=ORIENTED_EDGE('',*,*,#376,.F.);
#476=ORIENTED_EDGE('',*,*,#377,.T.);
#477=ORIENTED_EDGE('',*,*,#378,.T.);
#478=ORIENTED_EDGE('',*,*,#377,.F.);
#479=ORIENTED_EDGE('',*,*,#378,.F.);
#480=ORIENTED_EDGE('',*,*,#379,.F.);
#481=ORIENTED_EDGE('',*,*,#380,.T.);
#482=ORIENTED_EDGE('',*,*,#381,.T.);
#483=ORIENTED_EDGE('',*,*,#380,.F.);
#484=ORIENTED_EDGE('',*,*,#381,.F.);
#485=ORIENTED_EDGE('',*,*,#382,.F.);
#486=ORIENTED_EDGE('',*,*,#383,.T.);
#487=ORIENTED_EDGE('',*,*,#384,.T.);
#488=ORIENTED_EDGE('',*,*,#383,.F.);
#489=ORIENTED_EDGE('',*,*,#384,.F.);
#490=ORIENTED_EDGE('',*,*,#385,.F.);
#491=ORIENTED_EDGE('',*,*,#386,.F.);
#492=ORIENTED_EDGE('',*,*,#387,.F.);
#493=ORIENTED_EDGE('',*,*,#388,.T.);
#494=ORIENTED_EDGE('',*,*,#389,.F.);
#495=ORIENTED_EDGE('',*,*,#390,.F.);
#496=ORIENTED_EDGE('',*,*,#386,.T.);
#497=ORIENTED_EDGE('',*,*,#391,.F.);
#498=ORIENTED_EDGE('',*,*,#392,.F.);
#499=ORIENTED_EDGE('',*,*,#388,.F.);
#500=ORIENTED_EDGE('',*,*,#362,.T.);
#501=ORIENTED_EDGE('',*,*,#366,.T.);
#502=ORIENTED_EDGE('',*,*,#363,.T.);
#503=ORIENTED_EDGE('',*,*,#393,.F.);
#504=ORIENTED_EDGE('',*,*,#394,.T.);
#505=ORIENTED_EDGE('',*,*,#353,.T.);
#506=ORIENTED_EDGE('',*,*,#395,.T.);
#507=ORIENTED_EDGE('',*,*,#396,.F.);
#508=ORIENTED_EDGE('',*,*,#395,.F.);
#509=ORIENTED_EDGE('',*,*,#352,.T.);
#510=ORIENTED_EDGE('',*,*,#394,.F.);
#511=ORIENTED_EDGE('',*,*,#397,.F.);
#512=ORIENTED_EDGE('',*,*,#398,.T.);
#513=ORIENTED_EDGE('',*,*,#399,.T.);
#514=ORIENTED_EDGE('',*,*,#398,.F.);
#515=ORIENTED_EDGE('',*,*,#399,.F.);
#516=ORIENTED_EDGE('',*,*,#391,.T.);
#517=ORIENTED_EDGE('',*,*,#385,.T.);
#518=ORIENTED_EDGE('',*,*,#390,.T.);
#519=ORIENTED_EDGE('',*,*,#400,.T.);
#520=ORIENTED_EDGE('',*,*,#401,.T.);
#521=ORIENTED_EDGE('',*,*,#402,.T.);
#522=ORIENTED_EDGE('',*,*,#403,.T.);
#523=ORIENTED_EDGE('',*,*,#404,.T.);
#524=ORIENTED_EDGE('',*,*,#402,.F.);
#525=ORIENTED_EDGE('',*,*,#405,.T.);
#526=ORIENTED_EDGE('',*,*,#406,.F.);
#527=ORIENTED_EDGE('',*,*,#407,.F.);
#528=ORIENTED_EDGE('',*,*,#408,.T.);
#529=ORIENTED_EDGE('',*,*,#409,.T.);
#530=ORIENTED_EDGE('',*,*,#406,.T.);
#531=ORIENTED_EDGE('',*,*,#410,.T.);
#532=ORIENTED_EDGE('',*,*,#401,.F.);
#533=ORIENTED_EDGE('',*,*,#411,.T.);
#534=ORIENTED_EDGE('',*,*,#412,.F.);
#535=ORIENTED_EDGE('',*,*,#413,.T.);
#536=ORIENTED_EDGE('',*,*,#414,.F.);
#537=ORIENTED_EDGE('',*,*,#415,.F.);
#538=ORIENTED_EDGE('',*,*,#416,.F.);
#539=ORIENTED_EDGE('',*,*,#417,.T.);
#540=ORIENTED_EDGE('',*,*,#418,.F.);
#541=ORIENTED_EDGE('',*,*,#419,.T.);
#542=ORIENTED_EDGE('',*,*,#410,.F.);
#543=ORIENTED_EDGE('',*,*,#405,.F.);
#544=ORIENTED_EDGE('',*,*,#351,.T.);
#545=ORIENTED_EDGE('',*,*,#356,.T.);
#546=ORIENTED_EDGE('',*,*,#359,.T.);
#547=ORIENTED_EDGE('',*,*,#365,.T.);
#548=ORIENTED_EDGE('',*,*,#389,.T.);
#549=ORIENTED_EDGE('',*,*,#392,.T.);
#550=ORIENTED_EDGE('',*,*,#404,.F.);
#551=ORIENTED_EDGE('',*,*,#420,.T.);
#552=ORIENTED_EDGE('',*,*,#421,.F.);
#553=ORIENTED_EDGE('',*,*,#411,.F.);
#554=ORIENTED_EDGE('',*,*,#400,.F.);
#555=ORIENTED_EDGE('',*,*,#422,.T.);
#556=ORIENTED_EDGE('',*,*,#412,.T.);
#557=ORIENTED_EDGE('',*,*,#421,.T.);
#558=ORIENTED_EDGE('',*,*,#423,.T.);
#559=ORIENTED_EDGE('',*,*,#424,.F.);
#560=ORIENTED_EDGE('',*,*,#425,.T.);
#561=ORIENTED_EDGE('',*,*,#426,.F.);
#562=ORIENTED_EDGE('',*,*,#427,.T.);
#563=ORIENTED_EDGE('',*,*,#423,.F.);
#564=ORIENTED_EDGE('',*,*,#420,.F.);
#565=ORIENTED_EDGE('',*,*,#403,.F.);
#566=ORIENTED_EDGE('',*,*,#407,.T.);
#567=ORIENTED_EDGE('',*,*,#409,.F.);
#568=ORIENTED_EDGE('',*,*,#428,.T.);
#569=ORIENTED_EDGE('',*,*,#429,.F.);
#570=ORIENTED_EDGE('',*,*,#430,.F.);
#571=ORIENTED_EDGE('',*,*,#349,.T.);
#572=ORIENTED_EDGE('',*,*,#354,.T.);
#573=ORIENTED_EDGE('',*,*,#357,.T.);
#574=ORIENTED_EDGE('',*,*,#360,.T.);
#575=ORIENTED_EDGE('',*,*,#431,.F.);
#576=ORIENTED_EDGE('',*,*,#416,.T.);
#577=ORIENTED_EDGE('',*,*,#432,.F.);
#578=ORIENTED_EDGE('',*,*,#424,.T.);
#579=ORIENTED_EDGE('',*,*,#432,.T.);
#580=ORIENTED_EDGE('',*,*,#415,.T.);
#581=ORIENTED_EDGE('',*,*,#433,.F.);
#582=ORIENTED_EDGE('',*,*,#425,.F.);
#583=ORIENTED_EDGE('',*,*,#396,.T.);
#584=ORIENTED_EDGE('',*,*,#434,.T.);
#585=ORIENTED_EDGE('',*,*,#418,.T.);
#586=ORIENTED_EDGE('',*,*,#435,.T.);
#587=ORIENTED_EDGE('',*,*,#429,.T.);
#588=ORIENTED_EDGE('',*,*,#436,.T.);
#589=ORIENTED_EDGE('',*,*,#426,.T.);
#590=ORIENTED_EDGE('',*,*,#433,.T.);
#591=ORIENTED_EDGE('',*,*,#414,.T.);
#592=ORIENTED_EDGE('',*,*,#419,.F.);
#593=ORIENTED_EDGE('',*,*,#434,.F.);
#594=ORIENTED_EDGE('',*,*,#428,.F.);
#595=ORIENTED_EDGE('',*,*,#408,.F.);
#596=ORIENTED_EDGE('',*,*,#367,.T.);
#597=ORIENTED_EDGE('',*,*,#370,.T.);
#598=ORIENTED_EDGE('',*,*,#373,.T.);
#599=ORIENTED_EDGE('',*,*,#376,.T.);
#600=ORIENTED_EDGE('',*,*,#413,.F.);
#601=ORIENTED_EDGE('',*,*,#422,.F.);
#602=ORIENTED_EDGE('',*,*,#427,.F.);
#603=ORIENTED_EDGE('',*,*,#436,.F.);
#604=ORIENTED_EDGE('',*,*,#379,.T.);
#605=ORIENTED_EDGE('',*,*,#382,.T.);
#606=ORIENTED_EDGE('',*,*,#387,.T.);
#607=ORIENTED_EDGE('',*,*,#393,.T.);
#608=ORIENTED_EDGE('',*,*,#397,.T.);
#609=ORIENTED_EDGE('',*,*,#431,.T.);
#610=ORIENTED_EDGE('',*,*,#430,.T.);
#611=ORIENTED_EDGE('',*,*,#435,.F.);
#612=ORIENTED_EDGE('',*,*,#417,.F.);
#613=CYLINDRICAL_SURFACE('',#675,1.45);
#614=CYLINDRICAL_SURFACE('',#678,1.45);
#615=CYLINDRICAL_SURFACE('',#681,1.45);
#616=CYLINDRICAL_SURFACE('',#684,1.45);
#617=CYLINDRICAL_SURFACE('',#687,1.45);
#618=CYLINDRICAL_SURFACE('',#691,1.45);
#619=CYLINDRICAL_SURFACE('',#695,1.45);
#620=CYLINDRICAL_SURFACE('',#699,1.45);
#621=CYLINDRICAL_SURFACE('',#703,1.45);
#622=CYLINDRICAL_SURFACE('',#707,1.45);
#623=CYLINDRICAL_SURFACE('',#713,1.45);
#624=CYLINDRICAL_SURFACE('',#717,1.45);
#625=CYLINDRICAL_SURFACE('',#720,1.45);
#626=ADVANCED_FACE('',(#62,#37),#613,.F.);
#627=ADVANCED_FACE('',(#63),#614,.F.);
#628=ADVANCED_FACE('',(#64),#615,.F.);
#629=ADVANCED_FACE('',(#65),#616,.F.);
#630=ADVANCED_FACE('',(#66),#617,.F.);
#631=ADVANCED_FACE('',(#67),#15,.T.);
#632=ADVANCED_FACE('',(#68),#618,.F.);
#633=ADVANCED_FACE('',(#69),#16,.T.);
#634=ADVANCED_FACE('',(#70),#619,.F.);
#635=ADVANCED_FACE('',(#71),#17,.T.);
#636=ADVANCED_FACE('',(#72),#620,.F.);
#637=ADVANCED_FACE('',(#73),#18,.T.);
#638=ADVANCED_FACE('',(#74),#621,.F.);
#639=ADVANCED_FACE('',(#75),#19,.T.);
#640=ADVANCED_FACE('',(#76),#622,.F.);
#641=ADVANCED_FACE('',(#77),#20,.T.);
#642=ADVANCED_FACE('',(#78),#21,.T.);
#643=ADVANCED_FACE('',(#79,#38),#623,.F.);
#644=ADVANCED_FACE('',(#80),#624,.F.);
#645=ADVANCED_FACE('',(#81),#625,.F.);
#646=ADVANCED_FACE('',(#82),#22,.T.);
#647=ADVANCED_FACE('',(#83),#23,.T.);
#648=ADVANCED_FACE('',(#84),#24,.T.);
#649=ADVANCED_FACE('',(#85),#25,.T.);
#650=ADVANCED_FACE('',(#86,#39,#40,#41,#42),#26,.T.);
#651=ADVANCED_FACE('',(#87),#27,.T.);
#652=ADVANCED_FACE('',(#88),#28,.T.);
#653=ADVANCED_FACE('',(#89,#43,#44,#45,#46),#29,.T.);
#654=ADVANCED_FACE('',(#90),#30,.T.);
#655=ADVANCED_FACE('',(#91,#47),#31,.T.);
#656=ADVANCED_FACE('',(#92),#32,.T.);
#657=ADVANCED_FACE('',(#93),#33,.T.);
#658=ADVANCED_FACE('',(#94,#48,#49,#50,#51),#34,.F.);
#659=ADVANCED_FACE('',(#95,#52,#53,#54,#55,#56),#35,.F.);
#660=ADVANCED_FACE('',(#96),#36,.T.);
#661=CLOSED_SHELL('',(#626,#627,#628,#629,#630,#631,#632,#633,#634,#635,
#636,#637,#638,#639,#640,#641,#642,#643,#644,#645,#646,#647,#648,#649,#650,
#651,#652,#653,#654,#655,#656,#657,#658,#659,#660));
#662=DERIVED_UNIT_ELEMENT(#664,1.);
#663=DERIVED_UNIT_ELEMENT(#1226,-3.);
#664=(
MASS_UNIT()
NAMED_UNIT(*)
SI_UNIT(.KILO.,.GRAM.)
);
#665=DERIVED_UNIT((#662,#663));
#666=MEASURE_REPRESENTATION_ITEM('density measure',
POSITIVE_RATIO_MEASURE(7850.),#665);
#667=PROPERTY_DEFINITION_REPRESENTATION(#672,#669);
#668=PROPERTY_DEFINITION_REPRESENTATION(#673,#670);
#669=REPRESENTATION('material name',(#671),#1223);
#670=REPRESENTATION('density',(#666),#1223);
#671=DESCRIPTIVE_REPRESENTATION_ITEM('Steel','Steel');
#672=PROPERTY_DEFINITION('material property','material name',#1233);
#673=PROPERTY_DEFINITION('material property','density of part',#1233);
#674=AXIS2_PLACEMENT_3D('',#921,#738,#739);
#675=AXIS2_PLACEMENT_3D('',#922,#740,#741);
#676=AXIS2_PLACEMENT_3D('',#924,#742,#743);
#677=AXIS2_PLACEMENT_3D('',#927,#745,#746);
#678=AXIS2_PLACEMENT_3D('',#990,#747,#748);
#679=AXIS2_PLACEMENT_3D('',#992,#749,#750);
#680=AXIS2_PLACEMENT_3D('',#995,#752,#753);
#681=AXIS2_PLACEMENT_3D('',#996,#754,#755);
#682=AXIS2_PLACEMENT_3D('',#998,#756,#757);
#683=AXIS2_PLACEMENT_3D('',#1001,#759,#760);
#684=AXIS2_PLACEMENT_3D('',#1002,#761,#762);
#685=AXIS2_PLACEMENT_3D('',#1004,#763,#764);
#686=AXIS2_PLACEMENT_3D('',#1043,#767,#768);
#687=AXIS2_PLACEMENT_3D('',#1074,#769,#770);
#688=AXIS2_PLACEMENT_3D('',#1076,#771,#772);
#689=AXIS2_PLACEMENT_3D('',#1079,#774,#775);
#690=AXIS2_PLACEMENT_3D('',#1080,#776,#777);
#691=AXIS2_PLACEMENT_3D('',#1081,#778,#779);
#692=AXIS2_PLACEMENT_3D('',#1083,#780,#781);
#693=AXIS2_PLACEMENT_3D('',#1086,#783,#784);
#694=AXIS2_PLACEMENT_3D('',#1087,#785,#786);
#695=AXIS2_PLACEMENT_3D('',#1088,#787,#788);
#696=AXIS2_PLACEMENT_3D('',#1090,#789,#790);
#697=AXIS2_PLACEMENT_3D('',#1093,#792,#793);
#698=AXIS2_PLACEMENT_3D('',#1094,#794,#795);
#699=AXIS2_PLACEMENT_3D('',#1095,#796,#797);
#700=AXIS2_PLACEMENT_3D('',#1097,#798,#799);
#701=AXIS2_PLACEMENT_3D('',#1100,#801,#802);
#702=AXIS2_PLACEMENT_3D('',#1101,#803,#804);
#703=AXIS2_PLACEMENT_3D('',#1102,#805,#806);
#704=AXIS2_PLACEMENT_3D('',#1104,#807,#808);
#705=AXIS2_PLACEMENT_3D('',#1107,#810,#811);
#706=AXIS2_PLACEMENT_3D('',#1108,#812,#813);
#707=AXIS2_PLACEMENT_3D('',#1109,#814,#815);
#708=AXIS2_PLACEMENT_3D('',#1111,#816,#817);
#709=AXIS2_PLACEMENT_3D('',#1114,#819,#820);
#710=AXIS2_PLACEMENT_3D('',#1115,#821,#822);
#711=AXIS2_PLACEMENT_3D('',#1116,#823,#824);
#712=AXIS2_PLACEMENT_3D('',#1120,#826,#827);
#713=AXIS2_PLACEMENT_3D('',#1121,#828,#829);
#714=AXIS2_PLACEMENT_3D('',#1123,#830,#831);
#715=AXIS2_PLACEMENT_3D('',#1127,#833,#834);
#716=AXIS2_PLACEMENT_3D('',#1131,#837,#838);
#717=AXIS2_PLACEMENT_3D('',#1132,#839,#840);
#718=AXIS2_PLACEMENT_3D('',#1134,#841,#842);
#719=AXIS2_PLACEMENT_3D('',#1138,#845,#846);
#720=AXIS2_PLACEMENT_3D('',#1139,#847,#848);
#721=AXIS2_PLACEMENT_3D('',#1141,#849,#850);
#722=AXIS2_PLACEMENT_3D('',#1144,#852,#853);
#723=AXIS2_PLACEMENT_3D('',#1145,#854,#855);
#724=AXIS2_PLACEMENT_3D('',#1146,#856,#857);
#725=AXIS2_PLACEMENT_3D('',#1156,#863,#864);
#726=AXIS2_PLACEMENT_3D('',#1162,#868,#869);
#727=AXIS2_PLACEMENT_3D('',#1168,#873,#874);
#728=AXIS2_PLACEMENT_3D('',#1186,#884,#885);
#729=AXIS2_PLACEMENT_3D('',#1190,#888,#889);
#730=AXIS2_PLACEMENT_3D('',#1194,#892,#893);
#731=AXIS2_PLACEMENT_3D('',#1208,#901,#902);
#732=AXIS2_PLACEMENT_3D('',#1211,#905,#906);
#733=AXIS2_PLACEMENT_3D('',#1213,#908,#909);
#734=AXIS2_PLACEMENT_3D('',#1216,#912,#913);
#735=AXIS2_PLACEMENT_3D('',#1218,#915,#916);
#736=AXIS2_PLACEMENT_3D('',#1219,#917,#918);
#737=AXIS2_PLACEMENT_3D('',#1220,#919,#920);
#738=DIRECTION('axis',(0.,0.,1.));
#739=DIRECTION('refdir',(1.,0.,0.));
#740=DIRECTION('center_axis',(0.,-1.,0.));
#741=DIRECTION('ref_axis',(-1.,0.,0.));
#742=DIRECTION('center_axis',(0.,-1.,0.));
#743=DIRECTION('ref_axis',(-1.,0.,0.));
#744=DIRECTION('',(0.,-1.,0.));
#745=DIRECTION('center_axis',(0.,1.,0.));
#746=DIRECTION('ref_axis',(-1.,0.,0.));
#747=DIRECTION('center_axis',(0.,-1.,0.));
#748=DIRECTION('ref_axis',(-1.,0.,0.));
#749=DIRECTION('center_axis',(0.,-1.,0.));
#750=DIRECTION('ref_axis',(-1.,0.,0.));
#751=DIRECTION('',(0.,-1.,0.));
#752=DIRECTION('center_axis',(0.,1.,0.));
#753=DIRECTION('ref_axis',(-1.,0.,0.));
#754=DIRECTION('center_axis',(0.,-1.,0.));
#755=DIRECTION('ref_axis',(-1.,0.,0.));
#756=DIRECTION('center_axis',(0.,-1.,0.));
#757=DIRECTION('ref_axis',(-1.,0.,0.));
#758=DIRECTION('',(0.,-1.,0.));
#759=DIRECTION('center_axis',(0.,1.,0.));
#760=DIRECTION('ref_axis',(-1.,0.,0.));
#761=DIRECTION('center_axis',(0.,-1.,0.));
#762=DIRECTION('ref_axis',(-1.,0.,0.));
#763=DIRECTION('center_axis',(0.,-1.,0.));
#764=DIRECTION('ref_axis',(-1.,0.,0.));
#765=DIRECTION('',(0.,-1.,0.));
#766=DIRECTION('',(0.,-1.,0.));
#767=DIRECTION('center_axis',(0.,1.,0.));
#768=DIRECTION('ref_axis',(-1.,0.,0.));
#769=DIRECTION('center_axis',(0.,0.,1.));
#770=DIRECTION('ref_axis',(1.,0.,0.));
#771=DIRECTION('center_axis',(0.,0.,1.));
#772=DIRECTION('ref_axis',(1.,0.,0.));
#773=DIRECTION('',(0.,0.,1.));
#774=DIRECTION('center_axis',(0.,0.,1.));
#775=DIRECTION('ref_axis',(1.,0.,0.));
#776=DIRECTION('center_axis',(0.,0.,-1.));
#777=DIRECTION('ref_axis',(1.,0.,0.));
#778=DIRECTION('center_axis',(0.,0.,1.));
#779=DIRECTION('ref_axis',(1.,0.,0.));
#780=DIRECTION('center_axis',(0.,0.,1.));
#781=DIRECTION('ref_axis',(1.,0.,0.));
#782=DIRECTION('',(0.,0.,1.));
#783=DIRECTION('center_axis',(0.,0.,1.));
#784=DIRECTION('ref_axis',(1.,0.,0.));
#785=DIRECTION('center_axis',(0.,0.,-1.));
#786=DIRECTION('ref_axis',(1.,0.,0.));
#787=DIRECTION('center_axis',(0.,0.,1.));
#788=DIRECTION('ref_axis',(1.,0.,0.));
#789=DIRECTION('center_axis',(0.,0.,1.));
#790=DIRECTION('ref_axis',(1.,0.,0.));
#791=DIRECTION('',(0.,0.,1.));
#792=DIRECTION('center_axis',(0.,0.,1.));
#793=DIRECTION('ref_axis',(1.,0.,0.));
#794=DIRECTION('center_axis',(0.,0.,-1.));
#795=DIRECTION('ref_axis',(1.,0.,0.));
#796=DIRECTION('center_axis',(0.,0.,1.));
#797=DIRECTION('ref_axis',(1.,0.,0.));
#798=DIRECTION('center_axis',(0.,0.,1.));
#799=DIRECTION('ref_axis',(1.,0.,0.));
#800=DIRECTION('',(0.,0.,1.));
#801=DIRECTION('center_axis',(0.,0.,1.));
#802=DIRECTION('ref_axis',(1.,0.,0.));
#803=DIRECTION('center_axis',(0.,0.,-1.));
#804=DIRECTION('ref_axis',(1.,0.,0.));
#805=DIRECTION('center_axis',(0.,0.,-1.));
#806=DIRECTION('ref_axis',(-1.,0.,0.));
#807=DIRECTION('center_axis',(0.,0.,-1.));
#808=DIRECTION('ref_axis',(-1.,0.,0.));
#809=DIRECTION('',(0.,0.,-1.));
#810=DIRECTION('center_axis',(0.,0.,-1.));
#811=DIRECTION('ref_axis',(-1.,0.,0.));
#812=DIRECTION('center_axis',(0.,0.,1.));
#813=DIRECTION('ref_axis',(-1.,0.,0.));
#814=DIRECTION('center_axis',(0.,0.,-1.));
#815=DIRECTION('ref_axis',(-1.,0.,0.));
#816=DIRECTION('center_axis',(0.,0.,-1.));
#817=DIRECTION('ref_axis',(-1.,0.,0.));
#818=DIRECTION('',(0.,0.,-1.));
#819=DIRECTION('center_axis',(0.,0.,-1.));
#820=DIRECTION('ref_axis',(-1.,0.,0.));
#821=DIRECTION('center_axis',(0.,0.,1.));
#822=DIRECTION('ref_axis',(-1.,0.,0.));
#823=DIRECTION('center_axis',(0.,0.,1.));
#824=DIRECTION('ref_axis',(-1.,0.,0.));
#825=DIRECTION('',(0.,-1.,0.));
#826=DIRECTION('center_axis',(0.,0.,-1.));
#827=DIRECTION('ref_axis',(-1.,0.,0.));
#828=DIRECTION('center_axis',(0.,0.,-1.));
#829=DIRECTION('ref_axis',(-1.,0.,0.));
#830=DIRECTION('center_axis',(0.,0.,-1.));
#831=DIRECTION('ref_axis',(-1.,0.,0.));
#832=DIRECTION('',(0.,0.,-1.));
#833=DIRECTION('center_axis',(0.,0.,1.));
#834=DIRECTION('ref_axis',(-1.,0.,0.));
#835=DIRECTION('',(0.,0.,1.));
#836=DIRECTION('',(0.,0.,-1.));
#837=DIRECTION('center_axis',(0.,0.,1.));
#838=DIRECTION('ref_axis',(-1.,0.,0.));
#839=DIRECTION('center_axis',(0.,0.,-1.));
#840=DIRECTION('ref_axis',(-1.,0.,0.));
#841=DIRECTION('center_axis',(0.,0.,-1.));
#842=DIRECTION('ref_axis',(-1.,0.,0.));
#843=DIRECTION('',(0.,0.,-1.));
#844=DIRECTION('',(0.,0.,-1.));
#845=DIRECTION('center_axis',(0.,0.,1.));
#846=DIRECTION('ref_axis',(-1.,0.,0.));
#847=DIRECTION('center_axis',(0.,0.,-1.));
#848=DIRECTION('ref_axis',(-1.,0.,0.));
#849=DIRECTION('center_axis',(0.,0.,-1.));
#850=DIRECTION('ref_axis',(-1.,0.,0.));
#851=DIRECTION('',(0.,0.,-1.));
#852=DIRECTION('center_axis',(0.,0.,-1.));
#853=DIRECTION('ref_axis',(-1.,0.,0.));
#854=DIRECTION('center_axis',(0.,0.,1.));
#855=DIRECTION('ref_axis',(-1.,0.,0.));
#856=DIRECTION('center_axis',(1.,0.,0.));
#857=DIRECTION('ref_axis',(0.,0.,-1.));
#858=DIRECTION('',(0.,-1.,0.));
#859=DIRECTION('',(0.,0.,-1.));
#860=DIRECTION('',(0.,1.,0.));
#861=DIRECTION('',(0.,0.,1.));
#862=DIRECTION('',(0.,-1.,0.));
#863=DIRECTION('center_axis',(0.,0.,1.));
#864=DIRECTION('ref_axis',(0.,-1.,0.));
#865=DIRECTION('',(1.,0.,0.));
#866=DIRECTION('',(0.,-1.,0.));
#867=DIRECTION('',(1.,0.,0.));
#868=DIRECTION('center_axis',(1.,0.,0.));
#869=DIRECTION('ref_axis',(0.,0.,-1.));
#870=DIRECTION('',(0.,1.,0.));
#871=DIRECTION('',(0.,0.,1.));
#872=DIRECTION('',(0.,0.,-1.));
#873=DIRECTION('center_axis',(0.,-1.,0.));
#874=DIRECTION('ref_axis',(0.,0.,-1.));
#875=DIRECTION('',(1.,0.,0.));
#876=DIRECTION('',(0.,0.,-1.));
#877=DIRECTION('',(-1.,0.,0.));
#878=DIRECTION('',(0.,0.,1.));
#879=DIRECTION('',(-1.,0.,0.));
#880=DIRECTION('',(0.,0.,1.));
#881=DIRECTION('',(-1.,0.,0.));
#882=DIRECTION('',(0.,0.,1.));
#883=DIRECTION('',(1.,0.,0.));
#884=DIRECTION('center_axis',(0.,0.,-1.));
#885=DIRECTION('ref_axis',(0.,1.,0.));
#886=DIRECTION('',(1.,0.,0.));
#887=DIRECTION('',(0.,1.,0.));
#888=DIRECTION('center_axis',(1.,0.,0.));
#889=DIRECTION('ref_axis',(0.,0.,-1.));
#890=DIRECTION('',(0.,-1.,0.));
#891=DIRECTION('',(0.,0.,1.));
#892=DIRECTION('center_axis',(0.,1.,0.));
#893=DIRECTION('ref_axis',(0.,0.,1.));
#894=DIRECTION('',(0.,0.,-1.));
#895=DIRECTION('',(-1.,0.,0.));
#896=DIRECTION('',(0.,0.,-1.));
#897=DIRECTION('',(1.,0.,0.));
#898=DIRECTION('',(-1.,0.,0.));
#899=DIRECTION('',(0.,0.,-1.));
#900=DIRECTION('',(-1.,0.,0.));
#901=DIRECTION('center_axis',(-1.,0.,0.));
#902=DIRECTION('ref_axis',(0.,0.,1.));
#903=DIRECTION('',(0.,1.,0.));
#904=DIRECTION('',(0.,-1.,0.));
#905=DIRECTION('center_axis',(0.,0.,-1.));
#906=DIRECTION('ref_axis',(0.,-1.,0.));
#907=DIRECTION('',(0.,-1.,0.));
#908=DIRECTION('center_axis',(-1.,0.,0.));
#909=DIRECTION('ref_axis',(0.,0.,1.));
#910=DIRECTION('',(0.,-1.,0.));
#911=DIRECTION('',(0.,1.,0.));
#912=DIRECTION('center_axis',(-1.,0.,0.));
#913=DIRECTION('ref_axis',(0.,0.,1.));
#914=DIRECTION('',(0.,1.,0.));
#915=DIRECTION('center_axis',(0.,0.,1.));
#916=DIRECTION('ref_axis',(1.,0.,0.));
#917=DIRECTION('center_axis',(0.,0.,-1.));
#918=DIRECTION('ref_axis',(-1.,0.,0.));
#919=DIRECTION('center_axis',(0.,0.,1.));
#920=DIRECTION('ref_axis',(0.,1.,0.));
#921=CARTESIAN_POINT('',(0.,0.,0.));
#922=CARTESIAN_POINT('Origin',(1.18125601749364,37.5212394364815,13.8413028573652));
#923=CARTESIAN_POINT('',(2.63125601749364,35.2044,13.8413028573652));
#924=CARTESIAN_POINT('Origin',(1.18125601749364,35.2044,13.8413028573652));
#925=CARTESIAN_POINT('',(2.63125601749364,28.8544,13.8413028573652));
#926=CARTESIAN_POINT('',(2.63125601749364,37.5212394364815,13.8413028573652));
#927=CARTESIAN_POINT('Origin',(1.18125601749364,28.8544,13.8413028573652));
#928=CARTESIAN_POINT('',(1.21527087299993,32.0151019846273,12.3917018813705));
#929=CARTESIAN_POINT('',(1.21527087299993,32.0151019846273,15.2909038333599));
#930=CARTESIAN_POINT('Ctrl Pts',(1.21527087299993,32.0151019846273,12.3917018813705));
#931=CARTESIAN_POINT('Ctrl Pts',(1.21527087299993,32.2352172801189,12.3917018813705));
#932=CARTESIAN_POINT('Ctrl Pts',(1.16211112644106,32.4659790787131,12.3877600761204));
#933=CARTESIAN_POINT('Ctrl Pts',(1.00783689480495,32.7710898338227,12.4007858301792));
#934=CARTESIAN_POINT('Ctrl Pts',(0.944394754315909,32.8663247150911,12.4088581863882));
#935=CARTESIAN_POINT('Ctrl Pts',(0.800462238881021,33.0365265758032,12.4402861686681));
#936=CARTESIAN_POINT('Ctrl Pts',(0.719957183422364,33.1114752033812,12.4636739355943));
#937=CARTESIAN_POINT('Ctrl Pts',(0.56252094736041,33.2297619057374,12.5275302225643));
#938=CARTESIAN_POINT('Ctrl Pts',(0.479135925727824,33.2804631315388,12.5689197099258));
#939=CARTESIAN_POINT('Ctrl Pts',(0.315728302635904,33.3596237202585,12.6739154511688));
#940=CARTESIAN_POINT('Ctrl Pts',(0.235970026678967,33.3883977841521,12.7376953418452));
#941=CARTESIAN_POINT('Ctrl Pts',(0.0376467306103854,33.4457444411843,12.9314195774732));
#942=CARTESIAN_POINT('Ctrl Pts',(-0.0774797036127543,33.4585895545797,13.0951844540531));
#943=CARTESIAN_POINT('Ctrl Pts',(-0.230652206088794,33.4671236636044,13.4570846202479));
#944=CARTESIAN_POINT('Ctrl Pts',(-0.268743982506354,33.464702960622,13.6551535152917));
#945=CARTESIAN_POINT('Ctrl Pts',(-0.268743982506354,33.464702960622,14.0274521994387));
#946=CARTESIAN_POINT('Ctrl Pts',(-0.230652206088794,33.4671236636044,14.2255210944825));
#947=CARTESIAN_POINT('Ctrl Pts',(-0.0774797036127543,33.4585895545797,14.5874212606773));
#948=CARTESIAN_POINT('Ctrl Pts',(0.0376467306103854,33.4457444411843,14.7511861372572));
#949=CARTESIAN_POINT('Ctrl Pts',(0.235970026678967,33.3883977841521,14.9449103728852));
#950=CARTESIAN_POINT('Ctrl Pts',(0.315728302635903,33.3596237202585,15.0086902635616));
#951=CARTESIAN_POINT('Ctrl Pts',(0.479135925727825,33.2804631315388,15.1136860048046));
#952=CARTESIAN_POINT('Ctrl Pts',(0.56252094736041,33.2297619057374,15.1550754921661));
#953=CARTESIAN_POINT('Ctrl Pts',(0.719957183422364,33.1114752033812,15.2189317791361));
#954=CARTESIAN_POINT('Ctrl Pts',(0.800462238881021,33.0365265758032,15.2423195460623));
#955=CARTESIAN_POINT('Ctrl Pts',(0.944394754315909,32.8663247150911,15.2737475283422));
#956=CARTESIAN_POINT('Ctrl Pts',(1.00783689480495,32.7710898338227,15.2818198845512));
#957=CARTESIAN_POINT('Ctrl Pts',(1.16211112644106,32.4659790787131,15.2948456386099));
#958=CARTESIAN_POINT('Ctrl Pts',(1.21527087299993,32.2352172801189,15.2909038333599));
#959=CARTESIAN_POINT('Ctrl Pts',(1.21527087299993,32.0151019846273,15.2909038333599));
#960=CARTESIAN_POINT('Ctrl Pts',(1.21527087299993,32.0151019846273,15.2909038333599));
#961=CARTESIAN_POINT('Ctrl Pts',(1.21527087299993,31.7949866891357,15.2909038333599));
#962=CARTESIAN_POINT('Ctrl Pts',(1.16211112644106,31.5642248905415,15.2948456386099));
#963=CARTESIAN_POINT('Ctrl Pts',(1.00783689480495,31.2591141354319,15.2818198845512));
#964=CARTESIAN_POINT('Ctrl Pts',(0.944394754315909,31.1638792541635,15.2737475283422));
#965=CARTESIAN_POINT('Ctrl Pts',(0.800462238881021,30.9936773934514,15.2423195460623));
#966=CARTESIAN_POINT('Ctrl Pts',(0.719957183422364,30.9187287658734,15.2189317791361));
#967=CARTESIAN_POINT('Ctrl Pts',(0.56252094736041,30.8004420635172,15.1550754921661));
#968=CARTESIAN_POINT('Ctrl Pts',(0.479135925727821,30.7497408377158,15.1136860048046));
#969=CARTESIAN_POINT('Ctrl Pts',(0.315728302635899,30.6705802489961,15.0086902635616));
#970=CARTESIAN_POINT('Ctrl Pts',(0.235970026678967,30.6418061851025,14.9449103728852));
#971=CARTESIAN_POINT('Ctrl Pts',(0.0376467306103854,30.5844595280703,14.7511861372572));
#972=CARTESIAN_POINT('Ctrl Pts',(-0.0774797036127543,30.5716144146749,14.5874212606773));
#973=CARTESIAN_POINT('Ctrl Pts',(-0.230652206088794,30.5630803056502,14.2255210944825));
#974=CARTESIAN_POINT('Ctrl Pts',(-0.268743982506354,30.5655010086326,14.0274521994387));
#975=CARTESIAN_POINT('Ctrl Pts',(-0.268743982506354,30.5655010086326,13.6551535152917));
#976=CARTESIAN_POINT('Ctrl Pts',(-0.230652206088793,30.5630803056502,13.4570846202479));
#977=CARTESIAN_POINT('Ctrl Pts',(-0.0774797036127537,30.5716144146749,13.0951844540531));
#978=CARTESIAN_POINT('Ctrl Pts',(0.0376467306103853,30.5844595280703,12.9314195774732));
#979=CARTESIAN_POINT('Ctrl Pts',(0.235970026678968,30.6418061851025,12.7376953418452));
#980=CARTESIAN_POINT('Ctrl Pts',(0.315728302635904,30.6705802489961,12.6739154511688));
#981=CARTESIAN_POINT('Ctrl Pts',(0.479135925727825,30.7497408377158,12.5689197099258));
#982=CARTESIAN_POINT('Ctrl Pts',(0.56252094736041,30.8004420635172,12.5275302225643));
#983=CARTESIAN_POINT('Ctrl Pts',(0.719957183422364,30.9187287658734,12.4636739355943));
#984=CARTESIAN_POINT('Ctrl Pts',(0.800462238881021,30.9936773934514,12.4402861686681));
#985=CARTESIAN_POINT('Ctrl Pts',(0.944394754315909,31.1638792541635,12.4088581863882));
#986=CARTESIAN_POINT('Ctrl Pts',(1.00783689480495,31.2591141354319,12.4007858301792));
#987=CARTESIAN_POINT('Ctrl Pts',(1.16211112644106,31.5642248905415,12.3877600761204));
#988=CARTESIAN_POINT('Ctrl Pts',(1.21527087299993,31.7949866891357,12.3917018813705));
#989=CARTESIAN_POINT('Ctrl Pts',(1.21527087299993,32.0151019846273,12.3917018813705));
#990=CARTESIAN_POINT('Origin',(1.18125601749364,37.5212394364815,-13.3532972796494));
#991=CARTESIAN_POINT('',(2.63125601749364,35.2044,-13.3532972796494));
#992=CARTESIAN_POINT('Origin',(1.18125601749364,35.2044,-13.3532972796494));
#993=CARTESIAN_POINT('',(2.63125601749364,28.8544,-13.3532972796494));
#994=CARTESIAN_POINT('',(2.63125601749364,37.5212394364815,-13.3532972796494));
#995=CARTESIAN_POINT('Origin',(1.18125601749364,28.8544,-13.3532972796494));
#996=CARTESIAN_POINT('Origin',(133.494612149413,37.5212394364815,-13.3532972796494));
#997=CARTESIAN_POINT('',(134.944612149413,35.2044,-13.3532972796494));
#998=CARTESIAN_POINT('Origin',(133.494612149413,35.2044,-13.3532972796494));
#999=CARTESIAN_POINT('',(134.944612149413,28.8544,-13.3532972796494));
#1000=CARTESIAN_POINT('',(134.944612149413,37.5212394364815,-13.3532972796494));
#1001=CARTESIAN_POINT('Origin',(133.494612149413,28.8544,-13.3532972796494));
#1002=CARTESIAN_POINT('Origin',(133.494612149413,37.5212394364815,13.8413028573652));
#1003=CARTESIAN_POINT('',(134.944612149413,35.2044,13.8413028573652));
#1004=CARTESIAN_POINT('Origin',(133.494612149413,35.2044,13.8413028573652));
#1005=CARTESIAN_POINT('',(134.944612149413,33.4435140759112,13.8413028573652));
#1006=CARTESIAN_POINT('',(134.944612149413,37.5212394364815,13.8413028573652));
#1007=CARTESIAN_POINT('',(133.316303338082,32.0045192990611,15.2802976342152));
#1008=CARTESIAN_POINT('Ctrl Pts',(133.316303338082,32.0045192990611,15.2802976342152));
#1009=CARTESIAN_POINT('Ctrl Pts',(133.316303338082,32.2335378731688,15.2802976342152));
#1010=CARTESIAN_POINT('Ctrl Pts',(133.373619919234,32.4722929414733,15.290453187423));
#1011=CARTESIAN_POINT('Ctrl Pts',(133.539131283206,32.7858761917233,15.2916690101811));
#1012=CARTESIAN_POINT('Ctrl Pts',(133.60715940131,32.883379282167,15.289061620291));
#1013=CARTESIAN_POINT('Ctrl Pts',(133.76198431528,33.0568320229215,15.2685505534923));
#1014=CARTESIAN_POINT('Ctrl Pts',(133.848797950539,33.1327638298002,15.2506231068527));
#1015=CARTESIAN_POINT('Ctrl Pts',(134.020458613942,33.251863388815,15.1952521653534));
#1016=CARTESIAN_POINT('Ctrl Pts',(134.111934042804,33.3021400001091,15.1573614206548));
#1017=CARTESIAN_POINT('Ctrl Pts',(134.291666575591,33.3781053143726,15.0569511544051));
#1018=CARTESIAN_POINT('Ctrl Pts',(134.379664910626,33.4041372482234,14.9942286749625));
#1019=CARTESIAN_POINT('Ctrl Pts',(134.601349810528,33.452899019945,14.7983177943941));
#1020=CARTESIAN_POINT('Ctrl Pts',(134.729935834275,33.456603566975,14.6285917804931));
#1021=CARTESIAN_POINT('Ctrl Pts',(134.901549486892,33.4507488536245,14.2491945439424));
#1022=CARTESIAN_POINT('Ctrl Pts',(134.944612149413,33.4435140759112,14.0395068590021));
#1023=CARTESIAN_POINT('Ctrl Pts',(134.944612149413,33.4435140759112,13.8413028573652));
#1024=CARTESIAN_POINT('',(134.944612149413,30.5655245222111,13.8413028573652));
#1025=CARTESIAN_POINT('Ctrl Pts',(134.944612149413,30.5655245222111,13.8413028573652));
#1026=CARTESIAN_POINT('Ctrl Pts',(134.944612149413,30.5655245222111,14.0395068590021));
#1027=CARTESIAN_POINT('Ctrl Pts',(134.901549486892,30.5582897444978,14.2491945439424));
#1028=CARTESIAN_POINT('Ctrl Pts',(134.729935834275,30.5524350311472,14.6285917804931));
#1029=CARTESIAN_POINT('Ctrl Pts',(134.601349810528,30.5561395781773,14.7983177943941));
#1030=CARTESIAN_POINT('Ctrl Pts',(134.379664910626,30.6049013498989,14.9942286749625));
#1031=CARTESIAN_POINT('Ctrl Pts',(134.291666575591,30.6309332837497,15.0569511544051));
#1032=CARTESIAN_POINT('Ctrl Pts',(134.111934042804,30.7068985980132,15.1573614206548));
#1033=CARTESIAN_POINT('Ctrl Pts',(134.020458613942,30.7571752093073,15.1952521653534));
#1034=CARTESIAN_POINT('Ctrl Pts',(133.848797950539,30.8762747683221,15.2506231068527));
#1035=CARTESIAN_POINT('Ctrl Pts',(133.76198431528,30.9522065752008,15.2685505534923));
#1036=CARTESIAN_POINT('Ctrl Pts',(133.60715940131,31.1256593159553,15.289061620291));
#1037=CARTESIAN_POINT('Ctrl Pts',(133.539131283206,31.223162406399,15.2916690101811));
#1038=CARTESIAN_POINT('Ctrl Pts',(133.373619919234,31.536745656649,15.290453187423));
#1039=CARTESIAN_POINT('Ctrl Pts',(133.316303338082,31.7755007249535,15.2802976342152));
#1040=CARTESIAN_POINT('Ctrl Pts',(133.316303338082,32.0045192990612,15.2802976342152));
#1041=CARTESIAN_POINT('',(134.944612149413,28.8544,13.8413028573652));
#1042=CARTESIAN_POINT('',(134.944612149413,37.5212394364815,13.8413028573652));
#1043=CARTESIAN_POINT('Origin',(133.494612149413,28.8544,13.8413028573652));
#1044=CARTESIAN_POINT('Ctrl Pts',(134.944612149413,33.4435140759112,13.8413028573652));
#1045=CARTESIAN_POINT('Ctrl Pts',(134.944612149413,33.4435140759112,13.6430988557282));
#1046=CARTESIAN_POINT('Ctrl Pts',(134.901549486892,33.4507488536245,13.4334111707879));
#1047=CARTESIAN_POINT('Ctrl Pts',(134.729935834275,33.456603566975,13.0540139342372));
#1048=CARTESIAN_POINT('Ctrl Pts',(134.601349810528,33.452899019945,12.8842879203363));
#1049=CARTESIAN_POINT('Ctrl Pts',(134.379664910626,33.4041372482234,12.6883770397678));
#1050=CARTESIAN_POINT('Ctrl Pts',(134.291666575591,33.3781053143726,12.6256545603253));
#1051=CARTESIAN_POINT('Ctrl Pts',(134.111934042804,33.3021400001091,12.5252442940756));
#1052=CARTESIAN_POINT('Ctrl Pts',(134.020458613942,33.251863388815,12.487353549377));
#1053=CARTESIAN_POINT('Ctrl Pts',(133.848797950539,33.1327638298002,12.4319826078777));
#1054=CARTESIAN_POINT('Ctrl Pts',(133.76198431528,33.0568320229215,12.4140551612381));
#1055=CARTESIAN_POINT('Ctrl Pts',(133.60715940131,32.883379282167,12.3935440944394));
#1056=CARTESIAN_POINT('Ctrl Pts',(133.539131283206,32.7858761917233,12.3909367045493));
#1057=CARTESIAN_POINT('Ctrl Pts',(133.373619919234,32.4722929414733,12.3921525273074));
#1058=CARTESIAN_POINT('Ctrl Pts',(133.316303338082,32.2335378731688,12.4023080805152));
#1059=CARTESIAN_POINT('Ctrl Pts',(133.316303338082,31.7755007249535,12.4023080805152));
#1060=CARTESIAN_POINT('Ctrl Pts',(133.373619919234,31.536745656649,12.3921525273074));
#1061=CARTESIAN_POINT('Ctrl Pts',(133.539131283206,31.223162406399,12.3909367045493));
#1062=CARTESIAN_POINT('Ctrl Pts',(133.60715940131,31.1256593159553,12.3935440944394));
#1063=CARTESIAN_POINT('Ctrl Pts',(133.76198431528,30.9522065752008,12.4140551612381));
#1064=CARTESIAN_POINT('Ctrl Pts',(133.848797950539,30.8762747683221,12.4319826078777));
#1065=CARTESIAN_POINT('Ctrl Pts',(134.020458613942,30.7571752093073,12.487353549377));
#1066=CARTESIAN_POINT('Ctrl Pts',(134.111934042804,30.7068985980132,12.5252442940756));
#1067=CARTESIAN_POINT('Ctrl Pts',(134.291666575591,30.6309332837496,12.6256545603253));
#1068=CARTESIAN_POINT('Ctrl Pts',(134.379664910626,30.6049013498989,12.6883770397678));
#1069=CARTESIAN_POINT('Ctrl Pts',(134.601349810528,30.5561395781773,12.8842879203363));
#1070=CARTESIAN_POINT('Ctrl Pts',(134.729935834275,30.5524350311472,13.0540139342372));
#1071=CARTESIAN_POINT('Ctrl Pts',(134.901549486892,30.5582897444978,13.4334111707879));
#1072=CARTESIAN_POINT('Ctrl Pts',(134.944612149413,30.5655245222111,13.6430988557282));
#1073=CARTESIAN_POINT('Ctrl Pts',(134.944612149413,30.5655245222111,13.8413028573652));
#1074=CARTESIAN_POINT('Origin',(86.7116641897618,32.9570167115706,-18.));
#1075=CARTESIAN_POINT('',(85.2616641897618,32.9570167115706,-16.));
#1076=CARTESIAN_POINT('Origin',(86.7116641897618,32.9570167115706,-16.));
#1077=CARTESIAN_POINT('',(85.2616641897618,32.9570167115706,-8.00000000000001));
#1078=CARTESIAN_POINT('',(85.2616641897618,32.9570167115706,-18.));
#1079=CARTESIAN_POINT('Origin',(86.7116641897618,32.9570167115706,-8.00000000000001));
#1080=CARTESIAN_POINT('Origin',(86.7116641897618,32.9570167115706,-8.00000000000001));
#1081=CARTESIAN_POINT('Origin',(51.5433000834879,32.9570167115706,-18.));
#1082=CARTESIAN_POINT('',(50.0933000834879,32.9570167115706,-16.));
#1083=CARTESIAN_POINT('Origin',(51.5433000834879,32.9570167115706,-16.));
#1084=CARTESIAN_POINT('',(50.0933000834879,32.9570167115706,-8.00000000000001));
#1085=CARTESIAN_POINT('',(50.0933000834879,32.9570167115706,-18.));
#1086=CARTESIAN_POINT('Origin',(51.5433000834879,32.9570167115706,-8.00000000000001));
#1087=CARTESIAN_POINT('Origin',(51.5433000834879,32.9570167115706,-8.00000000000001));
#1088=CARTESIAN_POINT('Origin',(126.225743265377,32.9570167115706,-18.));
#1089=CARTESIAN_POINT('',(124.775743265377,32.9570167115706,-16.));
#1090=CARTESIAN_POINT('Origin',(126.225743265377,32.9570167115706,-16.));
#1091=CARTESIAN_POINT('',(124.775743265377,32.9570167115706,-8.00000000000001));
#1092=CARTESIAN_POINT('',(124.775743265377,32.9570167115706,-18.));
#1093=CARTESIAN_POINT('Origin',(126.225743265377,32.9570167115706,-8.00000000000001));
#1094=CARTESIAN_POINT('Origin',(126.225743265377,32.9570167115706,-8.00000000000001));
#1095=CARTESIAN_POINT('Origin',(9.81799575728208,32.9570167115706,-18.));
#1096=CARTESIAN_POINT('',(8.36799575728208,32.9570167115706,-16.));
#1097=CARTESIAN_POINT('Origin',(9.81799575728208,32.9570167115706,-16.));
#1098=CARTESIAN_POINT('',(8.36799575728208,32.9570167115706,-8.00000000000001));
#1099=CARTESIAN_POINT('',(8.36799575728208,32.9570167115706,-18.));
#1100=CARTESIAN_POINT('Origin',(9.81799575728208,32.9570167115706,-8.00000000000001));
#1101=CARTESIAN_POINT('Origin',(9.81799575728208,32.9570167115706,-8.00000000000001));
#1102=CARTESIAN_POINT('Origin',(67.2499315390335,32.0004552867074,16.));
#1103=CARTESIAN_POINT('',(68.6999315390335,32.0004552867074,16.));
#1104=CARTESIAN_POINT('Origin',(67.2499315390335,32.0004552867074,16.));
#1105=CARTESIAN_POINT('',(68.6999315390335,32.0004552867074,6.00000000000001));
#1106=CARTESIAN_POINT('',(68.6999315390335,32.0004552867074,16.));
#1107=CARTESIAN_POINT('Origin',(67.2499315390335,32.0004552867074,6.00000000000001));
#1108=CARTESIAN_POINT('Origin',(67.2499315390335,32.0004552867074,6.00000000000001));
#1109=CARTESIAN_POINT('Origin',(33.5185862294566,32.0004552867074,16.));
#1110=CARTESIAN_POINT('',(34.9685862294566,32.0004552867074,16.));
#1111=CARTESIAN_POINT('Origin',(33.5185862294566,32.0004552867074,16.));
#1112=CARTESIAN_POINT('',(34.9685862294566,32.0004552867074,6.00000000000001));
#1113=CARTESIAN_POINT('',(34.9685862294566,32.0004552867074,16.));
#1114=CARTESIAN_POINT('Origin',(33.5185862294566,32.0004552867074,6.00000000000001));
#1115=CARTESIAN_POINT('Origin',(33.5185862294566,32.0004552867074,6.00000000000001));
#1116=CARTESIAN_POINT('Origin',(134.766303338082,32.0045192990611,6.00000000000001));
#1117=CARTESIAN_POINT('',(134.525,33.4342999462342,6.00000000000001));
#1118=CARTESIAN_POINT('',(134.525,30.574738651888,6.00000000000001));
#1119=CARTESIAN_POINT('',(134.525,32.0169596495306,6.00000000000001));
#1120=CARTESIAN_POINT('Origin',(134.766303338082,32.0045192990611,6.00000000000001));
#1121=CARTESIAN_POINT('Origin',(134.766303338082,32.0045192990611,16.));
#1122=CARTESIAN_POINT('',(136.216303338082,32.0045192990611,16.));
#1123=CARTESIAN_POINT('Origin',(134.766303338082,32.0045192990611,16.));
#1124=CARTESIAN_POINT('',(136.216303338082,32.0045192990611,11.65));
#1125=CARTESIAN_POINT('',(136.216303338082,32.0045192990611,16.));
#1126=CARTESIAN_POINT('',(134.525,30.574738651888,11.65));
#1127=CARTESIAN_POINT('Origin',(134.766303338082,32.0045192990611,11.65));
#1128=CARTESIAN_POINT('',(134.525,30.574738651888,16.));
#1129=CARTESIAN_POINT('',(134.525,33.4342999462342,11.65));
#1130=CARTESIAN_POINT('',(134.525,33.4342999462342,16.));
#1131=CARTESIAN_POINT('Origin',(134.766303338082,32.0045192990611,11.65));
#1132=CARTESIAN_POINT('Origin',(-0.234729127000071,32.0151019846273,16.));
#1133=CARTESIAN_POINT('',(1.21527087299993,32.0151019846273,16.));
#1134=CARTESIAN_POINT('Origin',(-0.234729127000071,32.0151019846273,16.));
#1135=CARTESIAN_POINT('',(1.21527087299993,32.0151019846273,16.));
#1136=CARTESIAN_POINT('',(1.21527087299993,32.0151019846273,11.65));
#1137=CARTESIAN_POINT('',(1.21527087299993,32.0151019846273,16.));
#1138=CARTESIAN_POINT('Origin',(-0.234729127000071,32.0151019846273,11.65));
#1139=CARTESIAN_POINT('Origin',(101.050709205002,31.9996861561074,16.));
#1140=CARTESIAN_POINT('',(102.500709205002,31.9996861561074,16.));
#1141=CARTESIAN_POINT('Origin',(101.050709205002,31.9996861561074,16.));
#1142=CARTESIAN_POINT('',(102.500709205002,31.9996861561074,6.00000000000001));
#1143=CARTESIAN_POINT('',(102.500709205002,31.9996861561074,16.));
#1144=CARTESIAN_POINT('Origin',(101.050709205002,31.9996861561074,6.00000000000001));
#1145=CARTESIAN_POINT('Origin',(101.050709205002,31.9996861561074,6.00000000000001));
#1146=CARTESIAN_POINT('Origin',(134.525,32.0294,1.51434420558871E-12));
#1147=CARTESIAN_POINT('',(134.525,28.8544,11.65));
#1148=CARTESIAN_POINT('',(134.525,30.4419,11.65));
#1149=CARTESIAN_POINT('',(134.525,28.8544,-11.649999999997));
#1150=CARTESIAN_POINT('',(134.525,28.8544,18.));
#1151=CARTESIAN_POINT('',(134.525,35.2044,-11.649999999997));
#1152=CARTESIAN_POINT('',(134.525,33.6169,-11.649999999997));
#1153=CARTESIAN_POINT('',(134.525,35.2044,11.65));
#1154=CARTESIAN_POINT('',(134.525,35.2044,-17.999999999997));
#1155=CARTESIAN_POINT('',(134.525,30.4419,11.65));
#1156=CARTESIAN_POINT('Origin',(-4.99999999999999,35.2044,-11.649999999997));
#1157=CARTESIAN_POINT('',(139.526,28.8544,-11.649999999997));
#1158=CARTESIAN_POINT('',(-4.99999999999999,28.8544,-11.649999999997));
#1159=CARTESIAN_POINT('',(139.526,35.2044,-11.649999999997));
#1160=CARTESIAN_POINT('',(139.526,35.2044,-11.649999999997));
#1161=CARTESIAN_POINT('',(-4.99999999999999,35.2044,-11.649999999997));
#1162=CARTESIAN_POINT('Origin',(139.526,32.0294,-14.824999999997));
#1163=CARTESIAN_POINT('',(139.526,28.8544,-16.));
#1164=CARTESIAN_POINT('',(139.526,35.2044,-16.));
#1165=CARTESIAN_POINT('',(139.526,5.8203840929908,-16.));
#1166=CARTESIAN_POINT('',(139.526,35.2044,-17.999999999997));
#1167=CARTESIAN_POINT('',(139.526,28.8544,-11.649999999997));
#1168=CARTESIAN_POINT('Origin',(9.525,28.8544,18.));
#1169=CARTESIAN_POINT('',(139.526,28.8544,11.65));
#1170=CARTESIAN_POINT('',(-4.99999999999999,28.8544,11.65));
#1171=CARTESIAN_POINT('',(139.526,28.8544,16.));
#1172=CARTESIAN_POINT('',(139.526,28.8544,11.65));
#1173=CARTESIAN_POINT('',(-4.99999999999999,28.8544,16.));
#1174=CARTESIAN_POINT('',(38.39375,28.8544,16.));
#1175=CARTESIAN_POINT('',(-4.99999999999999,28.8544,11.65));
#1176=CARTESIAN_POINT('',(-4.99999999999999,28.8544,11.65));
#1177=CARTESIAN_POINT('',(4.52500000000001,28.8544,11.65));
#1178=CARTESIAN_POINT('',(9.525,28.8544,11.65));
#1179=CARTESIAN_POINT('',(4.52500000000001,28.8544,-11.649999999997));
#1180=CARTESIAN_POINT('',(4.52500000000001,28.8544,18.));
#1181=CARTESIAN_POINT('',(-4.99999999999999,28.8544,-11.649999999997));
#1182=CARTESIAN_POINT('',(9.525,28.8544,-11.649999999997));
#1183=CARTESIAN_POINT('',(-4.99999999999999,28.8544,-16.));
#1184=CARTESIAN_POINT('',(-4.99999999999999,28.8544,-11.649999999997));
#1185=CARTESIAN_POINT('',(38.39375,28.8544,-16.));
#1186=CARTESIAN_POINT('Origin',(-4.99999999999999,28.8544,11.65));
#1187=CARTESIAN_POINT('',(139.526,35.2044,11.65));
#1188=CARTESIAN_POINT('',(-4.99999999999999,35.2044,11.65));
#1189=CARTESIAN_POINT('',(139.526,35.2044,11.65));
#1190=CARTESIAN_POINT('Origin',(139.526,32.0294,14.825));
#1191=CARTESIAN_POINT('',(139.526,35.2044,16.));
#1192=CARTESIAN_POINT('',(139.526,20.018925,16.));
#1193=CARTESIAN_POINT('',(139.526,35.2044,18.));
#1194=CARTESIAN_POINT('Origin',(9.525,35.2044,-17.999999999997));
#1195=CARTESIAN_POINT('',(4.52500000000001,35.2044,11.65));
#1196=CARTESIAN_POINT('',(4.52500000000001,35.2044,-11.649999999997));
#1197=CARTESIAN_POINT('',(4.52500000000001,35.2044,-17.999999999997));
#1198=CARTESIAN_POINT('',(-4.99999999999999,35.2044,11.65));
#1199=CARTESIAN_POINT('',(9.525,35.2044,11.65));
#1200=CARTESIAN_POINT('',(-4.99999999999999,35.2044,16.));
#1201=CARTESIAN_POINT('',(-4.99999999999999,35.2044,18.));
#1202=CARTESIAN_POINT('',(38.39375,35.2044,16.));
#1203=CARTESIAN_POINT('',(-4.99999999999999,35.2044,-16.));
#1204=CARTESIAN_POINT('',(38.39375,35.2044,-16.));
#1205=CARTESIAN_POINT('',(-4.99999999999999,35.2044,-11.649999999997));
#1206=CARTESIAN_POINT('',(-4.99999999999999,35.2044,-17.999999999997));
#1207=CARTESIAN_POINT('',(9.525,35.2044,-11.649999999997));
#1208=CARTESIAN_POINT('Origin',(4.52500000000001,32.0294,1.51434420558871E-12));
#1209=CARTESIAN_POINT('',(4.52500000000001,30.4419,-11.649999999997));
#1210=CARTESIAN_POINT('',(4.52500000000001,33.6169,11.65));
#1211=CARTESIAN_POINT('Origin',(9.525,35.2044,11.65));
#1212=CARTESIAN_POINT('',(-4.99999999999999,35.2044,11.65));
#1213=CARTESIAN_POINT('Origin',(-4.99999999999999,32.0294,-14.824999999997));
#1214=CARTESIAN_POINT('',(-4.99999999999999,5.8203840929908,-16.));
#1215=CARTESIAN_POINT('',(-4.99999999999999,35.2044,-11.649999999997));
#1216=CARTESIAN_POINT('Origin',(-4.99999999999999,32.0294,14.825));
#1217=CARTESIAN_POINT('',(-4.99999999999999,20.018925,16.));
#1218=CARTESIAN_POINT('Origin',(67.2624999999999,-20.3886318140184,-16.));
#1219=CARTESIAN_POINT('Origin',(67.2624999999999,8.00845,16.));
#1220=CARTESIAN_POINT('Origin',(9.525,28.8544,-11.649999999997));
#1221=UNCERTAINTY_MEASURE_WITH_UNIT(LENGTH_MEASURE(0.01),#1225,
'DISTANCE_ACCURACY_VALUE',
'Maximum model space distance between geometric entities at asserted c
onnectivities');
#1222=UNCERTAINTY_MEASURE_WITH_UNIT(LENGTH_MEASURE(0.01),#1225,
'DISTANCE_ACCURACY_VALUE',
'Maximum model space distance between geometric entities at asserted c
onnectivities');
#1223=(
GEOMETRIC_REPRESENTATION_CONTEXT(3)
GLOBAL_UNCERTAINTY_ASSIGNED_CONTEXT((#1221))
GLOBAL_UNIT_ASSIGNED_CONTEXT((#1225,#1227,#1228))
REPRESENTATION_CONTEXT('','3D')
);
#1224=(
GEOMETRIC_REPRESENTATION_CONTEXT(3)
GLOBAL_UNCERTAINTY_ASSIGNED_CONTEXT((#1222))
GLOBAL_UNIT_ASSIGNED_CONTEXT((#1225,#1227,#1228))
REPRESENTATION_CONTEXT('','3D')
);
#1225=(
LENGTH_UNIT()
NAMED_UNIT(*)
SI_UNIT(.MILLI.,.METRE.)
);
#1226=(
LENGTH_UNIT()
NAMED_UNIT(*)
SI_UNIT($,.METRE.)
);
#1227=(
NAMED_UNIT(*)
PLANE_ANGLE_UNIT()
SI_UNIT($,.RADIAN.)
);
#1228=(
NAMED_UNIT(*)
SI_UNIT($,.STERADIAN.)
SOLID_ANGLE_UNIT()
);
#1229=SHAPE_DEFINITION_REPRESENTATION(#1230,#1231);
#1230=PRODUCT_DEFINITION_SHAPE('',$,#1233);
#1231=SHAPE_REPRESENTATION('',(#674),#1223);
#1232=PRODUCT_DEFINITION_CONTEXT('part definition',#1237,'design');
#1233=PRODUCT_DEFINITION('Component2','Component2',#1234,#1232);
#1234=PRODUCT_DEFINITION_FORMATION('',$,#1239);
#1235=PRODUCT_RELATED_PRODUCT_CATEGORY('Component2','Component2',(#1239));
#1236=APPLICATION_PROTOCOL_DEFINITION('international standard',
'automotive_design',2009,#1237);
#1237=APPLICATION_CONTEXT(
'Core Data for Automotive Mechanical Design Process');
#1238=PRODUCT_CONTEXT('part definition',#1237,'mechanical');
#1239=PRODUCT('Component2','Component2',$,(#1238));
#1240=PRESENTATION_STYLE_ASSIGNMENT((#1242));
#1241=PRESENTATION_STYLE_ASSIGNMENT((#1243));
#1242=SURFACE_STYLE_USAGE(.BOTH.,#1244);
#1243=SURFACE_STYLE_USAGE(.BOTH.,#1245);
#1244=SURFACE_SIDE_STYLE('',(#1246));
#1245=SURFACE_SIDE_STYLE('',(#1247));
#1246=SURFACE_STYLE_FILL_AREA(#1248);
#1247=SURFACE_STYLE_FILL_AREA(#1249);
#1248=FILL_AREA_STYLE('Steel - Satin',(#1250));
#1249=FILL_AREA_STYLE('Opaque(63,63,63)',(#1251));
#1250=FILL_AREA_STYLE_COLOUR('Steel - Satin',#1252);
#1251=FILL_AREA_STYLE_COLOUR('Opaque(63,63,63)',#1253);
#1252=COLOUR_RGB('Steel - Satin',0.627450980392157,0.627450980392157,0.627450980392157);
#1253=COLOUR_RGB('Opaque(63,63,63)',0.247058823529412,0.247058823529412,
0.247058823529412);
ENDSEC;
END-ISO-10303-21;
