ISO-10303-21;
HEADER;
/* Generated by software containing ST-Developer
 * from STEP Tools, Inc. (www.steptools.com) 
 */

FILE_DESCRIPTION(
/* description */ (''),
/* implementation_level */ '2;1');

FILE_NAME(
/* name */ 'Big_Top.step',
/* time_stamp */ '2026-09-06T19:57:31+03:00',
/* author */ (''),
/* organization */ (''),
/* preprocessor_version */ 'ST-DEVELOPER v20.1',
/* originating_system */ 'Autodesk Translation Framework v15.8.0.0',
/* authorisation */ '');

FILE_SCHEMA (('AUTOMOTIVE_DESIGN { 1 0 10303 214 3 1 1 }'));
ENDSEC;

DATA;
#10=MECHANICAL_DESIGN_GEOMETRIC_PRESENTATION_REPRESENTATION('',(#13),#1094);
#11=SHAPE_REPRESENTATION_RELATIONSHIP('SRR','None',#1101,#12);
#12=ADVANCED_BREP_SHAPE_REPRESENTATION('',(#14),#1093);
#13=STYLED_ITEM('',(#1111),#14);
#14=MANIFOLD_SOLID_BREP('Body1',#666);
#15=FACE_BOUND('',#124,.T.);
#16=FACE_BOUND('',#125,.T.);
#17=FACE_BOUND('',#126,.T.);
#18=FACE_BOUND('',#127,.T.);
#19=FACE_BOUND('',#128,.T.);
#20=FACE_BOUND('',#129,.T.);
#21=FACE_BOUND('',#130,.T.);
#22=FACE_BOUND('',#131,.T.);
#23=FACE_BOUND('',#132,.T.);
#24=FACE_BOUND('',#133,.T.);
#25=FACE_BOUND('',#134,.T.);
#26=FACE_BOUND('',#135,.T.);
#27=FACE_BOUND('',#136,.T.);
#28=FACE_BOUND('',#137,.T.);
#29=FACE_BOUND('',#138,.T.);
#30=FACE_BOUND('',#140,.T.);
#31=FACE_BOUND('',#141,.T.);
#32=FACE_BOUND('',#142,.T.);
#33=FACE_BOUND('',#143,.T.);
#34=FACE_BOUND('',#144,.T.);
#35=FACE_BOUND('',#145,.T.);
#36=FACE_BOUND('',#146,.T.);
#37=FACE_BOUND('',#147,.T.);
#38=FACE_BOUND('',#148,.T.);
#39=FACE_BOUND('',#149,.T.);
#40=FACE_BOUND('',#150,.T.);
#41=FACE_BOUND('',#151,.T.);
#42=FACE_BOUND('',#152,.T.);
#43=FACE_BOUND('',#153,.T.);
#44=FACE_BOUND('',#154,.T.);
#45=PLANE('',#692);
#46=PLANE('',#693);
#47=PLANE('',#694);
#48=PLANE('',#695);
#49=PLANE('',#696);
#50=PLANE('',#697);
#51=PLANE('',#698);
#52=PLANE('',#699);
#53=PLANE('',#727);
#54=PLANE('',#728);
#55=PLANE('',#729);
#56=PLANE('',#730);
#57=PLANE('',#731);
#58=PLANE('',#732);
#59=PLANE('',#733);
#60=PLANE('',#734);
#61=PLANE('',#735);
#62=PLANE('',#736);
#63=FACE_OUTER_BOUND('',#94,.T.);
#64=FACE_OUTER_BOUND('',#95,.T.);
#65=FACE_OUTER_BOUND('',#96,.T.);
#66=FACE_OUTER_BOUND('',#97,.T.);
#67=FACE_OUTER_BOUND('',#98,.T.);
#68=FACE_OUTER_BOUND('',#99,.T.);
#69=FACE_OUTER_BOUND('',#100,.T.);
#70=FACE_OUTER_BOUND('',#101,.T.);
#71=FACE_OUTER_BOUND('',#102,.T.);
#72=FACE_OUTER_BOUND('',#103,.T.);
#73=FACE_OUTER_BOUND('',#104,.T.);
#74=FACE_OUTER_BOUND('',#105,.T.);
#75=FACE_OUTER_BOUND('',#106,.T.);
#76=FACE_OUTER_BOUND('',#107,.T.);
#77=FACE_OUTER_BOUND('',#108,.T.);
#78=FACE_OUTER_BOUND('',#109,.T.);
#79=FACE_OUTER_BOUND('',#110,.T.);
#80=FACE_OUTER_BOUND('',#111,.T.);
#81=FACE_OUTER_BOUND('',#112,.T.);
#82=FACE_OUTER_BOUND('',#113,.T.);
#83=FACE_OUTER_BOUND('',#114,.T.);
#84=FACE_OUTER_BOUND('',#115,.T.);
#85=FACE_OUTER_BOUND('',#116,.T.);
#86=FACE_OUTER_BOUND('',#117,.T.);
#87=FACE_OUTER_BOUND('',#118,.T.);
#88=FACE_OUTER_BOUND('',#119,.T.);
#89=FACE_OUTER_BOUND('',#120,.T.);
#90=FACE_OUTER_BOUND('',#121,.T.);
#91=FACE_OUTER_BOUND('',#122,.T.);
#92=FACE_OUTER_BOUND('',#123,.T.);
#93=FACE_OUTER_BOUND('',#139,.T.);
#94=EDGE_LOOP('',(#448,#449,#450,#451));
#95=EDGE_LOOP('',(#452,#453,#454,#455));
#96=EDGE_LOOP('',(#456,#457,#458,#459));
#97=EDGE_LOOP('',(#460,#461,#462,#463));
#98=EDGE_LOOP('',(#464,#465,#466,#467));
#99=EDGE_LOOP('',(#468,#469,#470,#471));
#100=EDGE_LOOP('',(#472,#473,#474,#475));
#101=EDGE_LOOP('',(#476,#477,#478,#479));
#102=EDGE_LOOP('',(#480,#481,#482,#483));
#103=EDGE_LOOP('',(#484,#485,#486,#487));
#104=EDGE_LOOP('',(#488,#489,#490,#491));
#105=EDGE_LOOP('',(#492,#493,#494,#495));
#106=EDGE_LOOP('',(#496,#497,#498,#499));
#107=EDGE_LOOP('',(#500,#501,#502,#503));
#108=EDGE_LOOP('',(#504,#505,#506,#507));
#109=EDGE_LOOP('',(#508,#509,#510,#511));
#110=EDGE_LOOP('',(#512,#513,#514,#515));
#111=EDGE_LOOP('',(#516,#517,#518,#519));
#112=EDGE_LOOP('',(#520,#521,#522,#523));
#113=EDGE_LOOP('',(#524,#525,#526,#527));
#114=EDGE_LOOP('',(#528,#529,#530,#531));
#115=EDGE_LOOP('',(#532,#533,#534,#535));
#116=EDGE_LOOP('',(#536,#537,#538,#539));
#117=EDGE_LOOP('',(#540,#541,#542,#543));
#118=EDGE_LOOP('',(#544,#545,#546,#547));
#119=EDGE_LOOP('',(#548,#549,#550,#551));
#120=EDGE_LOOP('',(#552,#553,#554,#555));
#121=EDGE_LOOP('',(#556,#557,#558,#559));
#122=EDGE_LOOP('',(#560,#561,#562,#563));
#123=EDGE_LOOP('',(#564,#565,#566,#567,#568,#569,#570,#571));
#124=EDGE_LOOP('',(#572));
#125=EDGE_LOOP('',(#573));
#126=EDGE_LOOP('',(#574));
#127=EDGE_LOOP('',(#575));
#128=EDGE_LOOP('',(#576,#577,#578,#579));
#129=EDGE_LOOP('',(#580,#581,#582,#583));
#130=EDGE_LOOP('',(#584));
#131=EDGE_LOOP('',(#585));
#132=EDGE_LOOP('',(#586));
#133=EDGE_LOOP('',(#587));
#134=EDGE_LOOP('',(#588));
#135=EDGE_LOOP('',(#589));
#136=EDGE_LOOP('',(#590));
#137=EDGE_LOOP('',(#591));
#138=EDGE_LOOP('',(#592));
#139=EDGE_LOOP('',(#593,#594,#595,#596,#597,#598,#599,#600));
#140=EDGE_LOOP('',(#601));
#141=EDGE_LOOP('',(#602));
#142=EDGE_LOOP('',(#603));
#143=EDGE_LOOP('',(#604));
#144=EDGE_LOOP('',(#605,#606,#607,#608));
#145=EDGE_LOOP('',(#609,#610,#611,#612));
#146=EDGE_LOOP('',(#613));
#147=EDGE_LOOP('',(#614));
#148=EDGE_LOOP('',(#615));
#149=EDGE_LOOP('',(#616));
#150=EDGE_LOOP('',(#617));
#151=EDGE_LOOP('',(#618));
#152=EDGE_LOOP('',(#619));
#153=EDGE_LOOP('',(#620));
#154=EDGE_LOOP('',(#621));
#155=LINE('',#919,#216);
#156=LINE('',#925,#217);
#157=LINE('',#931,#218);
#158=LINE('',#937,#219);
#159=LINE('',#942,#220);
#160=LINE('',#944,#221);
#161=LINE('',#946,#222);
#162=LINE('',#947,#223);
#163=LINE('',#950,#224);
#164=LINE('',#952,#225);
#165=LINE('',#953,#226);
#166=LINE('',#956,#227);
#167=LINE('',#958,#228);
#168=LINE('',#959,#229);
#169=LINE('',#961,#230);
#170=LINE('',#962,#231);
#171=LINE('',#966,#232);
#172=LINE('',#968,#233);
#173=LINE('',#970,#234);
#174=LINE('',#971,#235);
#175=LINE('',#974,#236);
#176=LINE('',#976,#237);
#177=LINE('',#977,#238);
#178=LINE('',#980,#239);
#179=LINE('',#982,#240);
#180=LINE('',#983,#241);
#181=LINE('',#985,#242);
#182=LINE('',#986,#243);
#183=LINE('',#991,#244);
#184=LINE('',#997,#245);
#185=LINE('',#1003,#246);
#186=LINE('',#1009,#247);
#187=LINE('',#1015,#248);
#188=LINE('',#1021,#249);
#189=LINE('',#1027,#250);
#190=LINE('',#1033,#251);
#191=LINE('',#1039,#252);
#192=LINE('',#1044,#253);
#193=LINE('',#1046,#254);
#194=LINE('',#1048,#255);
#195=LINE('',#1049,#256);
#196=LINE('',#1052,#257);
#197=LINE('',#1054,#258);
#198=LINE('',#1055,#259);
#199=LINE('',#1058,#260);
#200=LINE('',#1060,#261);
#201=LINE('',#1061,#262);
#202=LINE('',#1064,#263);
#203=LINE('',#1066,#264);
#204=LINE('',#1067,#265);
#205=LINE('',#1070,#266);
#206=LINE('',#1072,#267);
#207=LINE('',#1073,#268);
#208=LINE('',#1076,#269);
#209=LINE('',#1078,#270);
#210=LINE('',#1079,#271);
#211=LINE('',#1082,#272);
#212=LINE('',#1084,#273);
#213=LINE('',#1085,#274);
#214=LINE('',#1087,#275);
#215=LINE('',#1088,#276);
#216=VECTOR('',#743,2.3);
#217=VECTOR('',#750,2.3);
#218=VECTOR('',#757,2.3);
#219=VECTOR('',#764,2.3);
#220=VECTOR('',#769,10.);
#221=VECTOR('',#770,10.);
#222=VECTOR('',#771,10.);
#223=VECTOR('',#772,10.);
#224=VECTOR('',#775,10.);
#225=VECTOR('',#776,10.);
#226=VECTOR('',#777,10.);
#227=VECTOR('',#780,10.);
#228=VECTOR('',#781,10.);
#229=VECTOR('',#782,10.);
#230=VECTOR('',#785,10.);
#231=VECTOR('',#786,10.);
#232=VECTOR('',#789,10.);
#233=VECTOR('',#790,10.);
#234=VECTOR('',#791,10.);
#235=VECTOR('',#792,10.);
#236=VECTOR('',#795,10.);
#237=VECTOR('',#796,10.);
#238=VECTOR('',#797,10.);
#239=VECTOR('',#800,10.);
#240=VECTOR('',#801,10.);
#241=VECTOR('',#802,10.);
#242=VECTOR('',#805,10.);
#243=VECTOR('',#806,10.);
#244=VECTOR('',#811,1.75);
#245=VECTOR('',#818,1.75);
#246=VECTOR('',#825,1.75);
#247=VECTOR('',#832,1.75);
#248=VECTOR('',#839,1.75);
#249=VECTOR('',#846,1.75);
#250=VECTOR('',#853,1.75);
#251=VECTOR('',#860,1.75);
#252=VECTOR('',#867,1.75);
#253=VECTOR('',#872,10.);
#254=VECTOR('',#873,10.);
#255=VECTOR('',#874,10.);
#256=VECTOR('',#875,10.);
#257=VECTOR('',#878,10.);
#258=VECTOR('',#879,10.);
#259=VECTOR('',#880,10.);
#260=VECTOR('',#883,10.);
#261=VECTOR('',#884,10.);
#262=VECTOR('',#885,10.);
#263=VECTOR('',#888,10.);
#264=VECTOR('',#889,10.);
#265=VECTOR('',#890,10.);
#266=VECTOR('',#893,10.);
#267=VECTOR('',#894,10.);
#268=VECTOR('',#895,10.);
#269=VECTOR('',#898,10.);
#270=VECTOR('',#899,10.);
#271=VECTOR('',#900,10.);
#272=VECTOR('',#903,10.);
#273=VECTOR('',#904,10.);
#274=VECTOR('',#905,10.);
#275=VECTOR('',#908,10.);
#276=VECTOR('',#909,10.);
#277=CIRCLE('',#681,2.3);
#278=CIRCLE('',#682,2.3);
#279=CIRCLE('',#684,2.3);
#280=CIRCLE('',#685,2.3);
#281=CIRCLE('',#687,2.3);
#282=CIRCLE('',#688,2.3);
#283=CIRCLE('',#690,2.3);
#284=CIRCLE('',#691,2.3);
#285=CIRCLE('',#701,1.75);
#286=CIRCLE('',#702,1.75);
#287=CIRCLE('',#704,1.75);
#288=CIRCLE('',#705,1.75);
#289=CIRCLE('',#707,1.75);
#290=CIRCLE('',#708,1.75);
#291=CIRCLE('',#710,1.75);
#292=CIRCLE('',#711,1.75);
#293=CIRCLE('',#713,1.75);
#294=CIRCLE('',#714,1.75);
#295=CIRCLE('',#716,1.75);
#296=CIRCLE('',#717,1.75);
#297=CIRCLE('',#719,1.75);
#298=CIRCLE('',#720,1.75);
#299=CIRCLE('',#722,1.75);
#300=CIRCLE('',#723,1.75);
#301=CIRCLE('',#725,1.75);
#302=CIRCLE('',#726,1.75);
#303=VERTEX_POINT('',#916);
#304=VERTEX_POINT('',#918);
#305=VERTEX_POINT('',#922);
#306=VERTEX_POINT('',#924);
#307=VERTEX_POINT('',#928);
#308=VERTEX_POINT('',#930);
#309=VERTEX_POINT('',#934);
#310=VERTEX_POINT('',#936);
#311=VERTEX_POINT('',#940);
#312=VERTEX_POINT('',#941);
#313=VERTEX_POINT('',#943);
#314=VERTEX_POINT('',#945);
#315=VERTEX_POINT('',#949);
#316=VERTEX_POINT('',#951);
#317=VERTEX_POINT('',#955);
#318=VERTEX_POINT('',#957);
#319=VERTEX_POINT('',#964);
#320=VERTEX_POINT('',#965);
#321=VERTEX_POINT('',#967);
#322=VERTEX_POINT('',#969);
#323=VERTEX_POINT('',#973);
#324=VERTEX_POINT('',#975);
#325=VERTEX_POINT('',#979);
#326=VERTEX_POINT('',#981);
#327=VERTEX_POINT('',#988);
#328=VERTEX_POINT('',#990);
#329=VERTEX_POINT('',#994);
#330=VERTEX_POINT('',#996);
#331=VERTEX_POINT('',#1000);
#332=VERTEX_POINT('',#1002);
#333=VERTEX_POINT('',#1006);
#334=VERTEX_POINT('',#1008);
#335=VERTEX_POINT('',#1012);
#336=VERTEX_POINT('',#1014);
#337=VERTEX_POINT('',#1018);
#338=VERTEX_POINT('',#1020);
#339=VERTEX_POINT('',#1024);
#340=VERTEX_POINT('',#1026);
#341=VERTEX_POINT('',#1030);
#342=VERTEX_POINT('',#1032);
#343=VERTEX_POINT('',#1036);
#344=VERTEX_POINT('',#1038);
#345=VERTEX_POINT('',#1042);
#346=VERTEX_POINT('',#1043);
#347=VERTEX_POINT('',#1045);
#348=VERTEX_POINT('',#1047);
#349=VERTEX_POINT('',#1051);
#350=VERTEX_POINT('',#1053);
#351=VERTEX_POINT('',#1057);
#352=VERTEX_POINT('',#1059);
#353=VERTEX_POINT('',#1063);
#354=VERTEX_POINT('',#1065);
#355=VERTEX_POINT('',#1069);
#356=VERTEX_POINT('',#1071);
#357=VERTEX_POINT('',#1075);
#358=VERTEX_POINT('',#1077);
#359=VERTEX_POINT('',#1081);
#360=VERTEX_POINT('',#1083);
#361=EDGE_CURVE('',#303,#303,#277,.T.);
#362=EDGE_CURVE('',#303,#304,#155,.T.);
#363=EDGE_CURVE('',#304,#304,#278,.T.);
#364=EDGE_CURVE('',#305,#305,#279,.T.);
#365=EDGE_CURVE('',#305,#306,#156,.T.);
#366=EDGE_CURVE('',#306,#306,#280,.T.);
#367=EDGE_CURVE('',#307,#307,#281,.T.);
#368=EDGE_CURVE('',#307,#308,#157,.T.);
#369=EDGE_CURVE('',#308,#308,#282,.T.);
#370=EDGE_CURVE('',#309,#309,#283,.T.);
#371=EDGE_CURVE('',#309,#310,#158,.T.);
#372=EDGE_CURVE('',#310,#310,#284,.T.);
#373=EDGE_CURVE('',#311,#312,#159,.T.);
#374=EDGE_CURVE('',#313,#311,#160,.T.);
#375=EDGE_CURVE('',#314,#313,#161,.T.);
#376=EDGE_CURVE('',#314,#312,#162,.T.);
#377=EDGE_CURVE('',#312,#315,#163,.T.);
#378=EDGE_CURVE('',#316,#314,#164,.T.);
#379=EDGE_CURVE('',#316,#315,#165,.T.);
#380=EDGE_CURVE('',#315,#317,#166,.T.);
#381=EDGE_CURVE('',#318,#316,#167,.T.);
#382=EDGE_CURVE('',#318,#317,#168,.T.);
#383=EDGE_CURVE('',#317,#311,#169,.T.);
#384=EDGE_CURVE('',#313,#318,#170,.T.);
#385=EDGE_CURVE('',#319,#320,#171,.T.);
#386=EDGE_CURVE('',#321,#319,#172,.T.);
#387=EDGE_CURVE('',#322,#321,#173,.T.);
#388=EDGE_CURVE('',#322,#320,#174,.T.);
#389=EDGE_CURVE('',#320,#323,#175,.T.);
#390=EDGE_CURVE('',#324,#322,#176,.T.);
#391=EDGE_CURVE('',#324,#323,#177,.T.);
#392=EDGE_CURVE('',#323,#325,#178,.T.);
#393=EDGE_CURVE('',#326,#324,#179,.T.);
#394=EDGE_CURVE('',#326,#325,#180,.T.);
#395=EDGE_CURVE('',#325,#319,#181,.T.);
#396=EDGE_CURVE('',#321,#326,#182,.T.);
#397=EDGE_CURVE('',#327,#327,#285,.T.);
#398=EDGE_CURVE('',#327,#328,#183,.T.);
#399=EDGE_CURVE('',#328,#328,#286,.T.);
#400=EDGE_CURVE('',#329,#329,#287,.T.);
#401=EDGE_CURVE('',#329,#330,#184,.T.);
#402=EDGE_CURVE('',#330,#330,#288,.T.);
#403=EDGE_CURVE('',#331,#331,#289,.T.);
#404=EDGE_CURVE('',#331,#332,#185,.T.);
#405=EDGE_CURVE('',#332,#332,#290,.T.);
#406=EDGE_CURVE('',#333,#333,#291,.T.);
#407=EDGE_CURVE('',#333,#334,#186,.T.);
#408=EDGE_CURVE('',#334,#334,#292,.T.);
#409=EDGE_CURVE('',#335,#335,#293,.T.);
#410=EDGE_CURVE('',#335,#336,#187,.T.);
#411=EDGE_CURVE('',#336,#336,#294,.T.);
#412=EDGE_CURVE('',#337,#337,#295,.T.);
#413=EDGE_CURVE('',#337,#338,#188,.T.);
#414=EDGE_CURVE('',#338,#338,#296,.T.);
#415=EDGE_CURVE('',#339,#339,#297,.T.);
#416=EDGE_CURVE('',#339,#340,#189,.T.);
#417=EDGE_CURVE('',#340,#340,#298,.T.);
#418=EDGE_CURVE('',#341,#341,#299,.T.);
#419=EDGE_CURVE('',#341,#342,#190,.T.);
#420=EDGE_CURVE('',#342,#342,#300,.T.);
#421=EDGE_CURVE('',#343,#343,#301,.T.);
#422=EDGE_CURVE('',#343,#344,#191,.T.);
#423=EDGE_CURVE('',#344,#344,#302,.T.);
#424=EDGE_CURVE('',#345,#346,#192,.T.);
#425=EDGE_CURVE('',#346,#347,#193,.T.);
#426=EDGE_CURVE('',#348,#347,#194,.T.);
#427=EDGE_CURVE('',#345,#348,#195,.T.);
#428=EDGE_CURVE('',#345,#349,#196,.T.);
#429=EDGE_CURVE('',#350,#348,#197,.T.);
#430=EDGE_CURVE('',#349,#350,#198,.T.);
#431=EDGE_CURVE('',#351,#349,#199,.T.);
#432=EDGE_CURVE('',#352,#350,#200,.T.);
#433=EDGE_CURVE('',#351,#352,#201,.T.);
#434=EDGE_CURVE('',#353,#351,#202,.T.);
#435=EDGE_CURVE('',#354,#352,#203,.T.);
#436=EDGE_CURVE('',#353,#354,#204,.T.);
#437=EDGE_CURVE('',#355,#353,#205,.T.);
#438=EDGE_CURVE('',#356,#354,#206,.T.);
#439=EDGE_CURVE('',#355,#356,#207,.T.);
#440=EDGE_CURVE('',#355,#357,#208,.T.);
#441=EDGE_CURVE('',#358,#356,#209,.T.);
#442=EDGE_CURVE('',#357,#358,#210,.T.);
#443=EDGE_CURVE('',#359,#357,#211,.T.);
#444=EDGE_CURVE('',#360,#358,#212,.T.);
#445=EDGE_CURVE('',#359,#360,#213,.T.);
#446=EDGE_CURVE('',#346,#359,#214,.T.);
#447=EDGE_CURVE('',#347,#360,#215,.T.);
#448=ORIENTED_EDGE('',*,*,#361,.F.);
#449=ORIENTED_EDGE('',*,*,#362,.T.);
#450=ORIENTED_EDGE('',*,*,#363,.F.);
#451=ORIENTED_EDGE('',*,*,#362,.F.);
#452=ORIENTED_EDGE('',*,*,#364,.F.);
#453=ORIENTED_EDGE('',*,*,#365,.T.);
#454=ORIENTED_EDGE('',*,*,#366,.F.);
#455=ORIENTED_EDGE('',*,*,#365,.F.);
#456=ORIENTED_EDGE('',*,*,#367,.F.);
#457=ORIENTED_EDGE('',*,*,#368,.T.);
#458=ORIENTED_EDGE('',*,*,#369,.F.);
#459=ORIENTED_EDGE('',*,*,#368,.F.);
#460=ORIENTED_EDGE('',*,*,#370,.F.);
#461=ORIENTED_EDGE('',*,*,#371,.T.);
#462=ORIENTED_EDGE('',*,*,#372,.F.);
#463=ORIENTED_EDGE('',*,*,#371,.F.);
#464=ORIENTED_EDGE('',*,*,#373,.F.);
#465=ORIENTED_EDGE('',*,*,#374,.F.);
#466=ORIENTED_EDGE('',*,*,#375,.F.);
#467=ORIENTED_EDGE('',*,*,#376,.T.);
#468=ORIENTED_EDGE('',*,*,#377,.F.);
#469=ORIENTED_EDGE('',*,*,#376,.F.);
#470=ORIENTED_EDGE('',*,*,#378,.F.);
#471=ORIENTED_EDGE('',*,*,#379,.T.);
#472=ORIENTED_EDGE('',*,*,#380,.F.);
#473=ORIENTED_EDGE('',*,*,#379,.F.);
#474=ORIENTED_EDGE('',*,*,#381,.F.);
#475=ORIENTED_EDGE('',*,*,#382,.T.);
#476=ORIENTED_EDGE('',*,*,#383,.F.);
#477=ORIENTED_EDGE('',*,*,#382,.F.);
#478=ORIENTED_EDGE('',*,*,#384,.F.);
#479=ORIENTED_EDGE('',*,*,#374,.T.);
#480=ORIENTED_EDGE('',*,*,#385,.F.);
#481=ORIENTED_EDGE('',*,*,#386,.F.);
#482=ORIENTED_EDGE('',*,*,#387,.F.);
#483=ORIENTED_EDGE('',*,*,#388,.T.);
#484=ORIENTED_EDGE('',*,*,#389,.F.);
#485=ORIENTED_EDGE('',*,*,#388,.F.);
#486=ORIENTED_EDGE('',*,*,#390,.F.);
#487=ORIENTED_EDGE('',*,*,#391,.T.);
#488=ORIENTED_EDGE('',*,*,#392,.F.);
#489=ORIENTED_EDGE('',*,*,#391,.F.);
#490=ORIENTED_EDGE('',*,*,#393,.F.);
#491=ORIENTED_EDGE('',*,*,#394,.T.);
#492=ORIENTED_EDGE('',*,*,#395,.F.);
#493=ORIENTED_EDGE('',*,*,#394,.F.);
#494=ORIENTED_EDGE('',*,*,#396,.F.);
#495=ORIENTED_EDGE('',*,*,#386,.T.);
#496=ORIENTED_EDGE('',*,*,#397,.F.);
#497=ORIENTED_EDGE('',*,*,#398,.T.);
#498=ORIENTED_EDGE('',*,*,#399,.F.);
#499=ORIENTED_EDGE('',*,*,#398,.F.);
#500=ORIENTED_EDGE('',*,*,#400,.F.);
#501=ORIENTED_EDGE('',*,*,#401,.T.);
#502=ORIENTED_EDGE('',*,*,#402,.F.);
#503=ORIENTED_EDGE('',*,*,#401,.F.);
#504=ORIENTED_EDGE('',*,*,#403,.F.);
#505=ORIENTED_EDGE('',*,*,#404,.T.);
#506=ORIENTED_EDGE('',*,*,#405,.F.);
#507=ORIENTED_EDGE('',*,*,#404,.F.);
#508=ORIENTED_EDGE('',*,*,#406,.F.);
#509=ORIENTED_EDGE('',*,*,#407,.T.);
#510=ORIENTED_EDGE('',*,*,#408,.F.);
#511=ORIENTED_EDGE('',*,*,#407,.F.);
#512=ORIENTED_EDGE('',*,*,#409,.F.);
#513=ORIENTED_EDGE('',*,*,#410,.T.);
#514=ORIENTED_EDGE('',*,*,#411,.F.);
#515=ORIENTED_EDGE('',*,*,#410,.F.);
#516=ORIENTED_EDGE('',*,*,#412,.F.);
#517=ORIENTED_EDGE('',*,*,#413,.T.);
#518=ORIENTED_EDGE('',*,*,#414,.F.);
#519=ORIENTED_EDGE('',*,*,#413,.F.);
#520=ORIENTED_EDGE('',*,*,#415,.F.);
#521=ORIENTED_EDGE('',*,*,#416,.T.);
#522=ORIENTED_EDGE('',*,*,#417,.F.);
#523=ORIENTED_EDGE('',*,*,#416,.F.);
#524=ORIENTED_EDGE('',*,*,#418,.F.);
#525=ORIENTED_EDGE('',*,*,#419,.T.);
#526=ORIENTED_EDGE('',*,*,#420,.F.);
#527=ORIENTED_EDGE('',*,*,#419,.F.);
#528=ORIENTED_EDGE('',*,*,#421,.F.);
#529=ORIENTED_EDGE('',*,*,#422,.T.);
#530=ORIENTED_EDGE('',*,*,#423,.F.);
#531=ORIENTED_EDGE('',*,*,#422,.F.);
#532=ORIENTED_EDGE('',*,*,#424,.T.);
#533=ORIENTED_EDGE('',*,*,#425,.T.);
#534=ORIENTED_EDGE('',*,*,#426,.F.);
#535=ORIENTED_EDGE('',*,*,#427,.F.);
#536=ORIENTED_EDGE('',*,*,#428,.F.);
#537=ORIENTED_EDGE('',*,*,#427,.T.);
#538=ORIENTED_EDGE('',*,*,#429,.F.);
#539=ORIENTED_EDGE('',*,*,#430,.F.);
#540=ORIENTED_EDGE('',*,*,#431,.T.);
#541=ORIENTED_EDGE('',*,*,#430,.T.);
#542=ORIENTED_EDGE('',*,*,#432,.F.);
#543=ORIENTED_EDGE('',*,*,#433,.F.);
#544=ORIENTED_EDGE('',*,*,#434,.T.);
#545=ORIENTED_EDGE('',*,*,#433,.T.);
#546=ORIENTED_EDGE('',*,*,#435,.F.);
#547=ORIENTED_EDGE('',*,*,#436,.F.);
#548=ORIENTED_EDGE('',*,*,#437,.T.);
#549=ORIENTED_EDGE('',*,*,#436,.T.);
#550=ORIENTED_EDGE('',*,*,#438,.F.);
#551=ORIENTED_EDGE('',*,*,#439,.F.);
#552=ORIENTED_EDGE('',*,*,#440,.F.);
#553=ORIENTED_EDGE('',*,*,#439,.T.);
#554=ORIENTED_EDGE('',*,*,#441,.F.);
#555=ORIENTED_EDGE('',*,*,#442,.F.);
#556=ORIENTED_EDGE('',*,*,#443,.T.);
#557=ORIENTED_EDGE('',*,*,#442,.T.);
#558=ORIENTED_EDGE('',*,*,#444,.F.);
#559=ORIENTED_EDGE('',*,*,#445,.F.);
#560=ORIENTED_EDGE('',*,*,#446,.T.);
#561=ORIENTED_EDGE('',*,*,#445,.T.);
#562=ORIENTED_EDGE('',*,*,#447,.F.);
#563=ORIENTED_EDGE('',*,*,#425,.F.);
#564=ORIENTED_EDGE('',*,*,#447,.T.);
#565=ORIENTED_EDGE('',*,*,#444,.T.);
#566=ORIENTED_EDGE('',*,*,#441,.T.);
#567=ORIENTED_EDGE('',*,*,#438,.T.);
#568=ORIENTED_EDGE('',*,*,#435,.T.);
#569=ORIENTED_EDGE('',*,*,#432,.T.);
#570=ORIENTED_EDGE('',*,*,#429,.T.);
#571=ORIENTED_EDGE('',*,*,#426,.T.);
#572=ORIENTED_EDGE('',*,*,#361,.T.);
#573=ORIENTED_EDGE('',*,*,#364,.T.);
#574=ORIENTED_EDGE('',*,*,#367,.T.);
#575=ORIENTED_EDGE('',*,*,#370,.T.);
#576=ORIENTED_EDGE('',*,*,#381,.T.);
#577=ORIENTED_EDGE('',*,*,#378,.T.);
#578=ORIENTED_EDGE('',*,*,#375,.T.);
#579=ORIENTED_EDGE('',*,*,#384,.T.);
#580=ORIENTED_EDGE('',*,*,#393,.T.);
#581=ORIENTED_EDGE('',*,*,#390,.T.);
#582=ORIENTED_EDGE('',*,*,#387,.T.);
#583=ORIENTED_EDGE('',*,*,#396,.T.);
#584=ORIENTED_EDGE('',*,*,#397,.T.);
#585=ORIENTED_EDGE('',*,*,#400,.T.);
#586=ORIENTED_EDGE('',*,*,#403,.T.);
#587=ORIENTED_EDGE('',*,*,#406,.T.);
#588=ORIENTED_EDGE('',*,*,#409,.T.);
#589=ORIENTED_EDGE('',*,*,#412,.T.);
#590=ORIENTED_EDGE('',*,*,#415,.T.);
#591=ORIENTED_EDGE('',*,*,#418,.T.);
#592=ORIENTED_EDGE('',*,*,#421,.T.);
#593=ORIENTED_EDGE('',*,*,#446,.F.);
#594=ORIENTED_EDGE('',*,*,#424,.F.);
#595=ORIENTED_EDGE('',*,*,#428,.T.);
#596=ORIENTED_EDGE('',*,*,#431,.F.);
#597=ORIENTED_EDGE('',*,*,#434,.F.);
#598=ORIENTED_EDGE('',*,*,#437,.F.);
#599=ORIENTED_EDGE('',*,*,#440,.T.);
#600=ORIENTED_EDGE('',*,*,#443,.F.);
#601=ORIENTED_EDGE('',*,*,#363,.T.);
#602=ORIENTED_EDGE('',*,*,#366,.T.);
#603=ORIENTED_EDGE('',*,*,#369,.T.);
#604=ORIENTED_EDGE('',*,*,#372,.T.);
#605=ORIENTED_EDGE('',*,*,#380,.T.);
#606=ORIENTED_EDGE('',*,*,#383,.T.);
#607=ORIENTED_EDGE('',*,*,#373,.T.);
#608=ORIENTED_EDGE('',*,*,#377,.T.);
#609=ORIENTED_EDGE('',*,*,#392,.T.);
#610=ORIENTED_EDGE('',*,*,#395,.T.);
#611=ORIENTED_EDGE('',*,*,#385,.T.);
#612=ORIENTED_EDGE('',*,*,#389,.T.);
#613=ORIENTED_EDGE('',*,*,#399,.T.);
#614=ORIENTED_EDGE('',*,*,#402,.T.);
#615=ORIENTED_EDGE('',*,*,#405,.T.);
#616=ORIENTED_EDGE('',*,*,#408,.T.);
#617=ORIENTED_EDGE('',*,*,#411,.T.);
#618=ORIENTED_EDGE('',*,*,#414,.T.);
#619=ORIENTED_EDGE('',*,*,#417,.T.);
#620=ORIENTED_EDGE('',*,*,#420,.T.);
#621=ORIENTED_EDGE('',*,*,#423,.T.);
#622=CYLINDRICAL_SURFACE('',#680,2.3);
#623=CYLINDRICAL_SURFACE('',#683,2.3);
#624=CYLINDRICAL_SURFACE('',#686,2.3);
#625=CYLINDRICAL_SURFACE('',#689,2.3);
#626=CYLINDRICAL_SURFACE('',#700,1.75);
#627=CYLINDRICAL_SURFACE('',#703,1.75);
#628=CYLINDRICAL_SURFACE('',#706,1.75);
#629=CYLINDRICAL_SURFACE('',#709,1.75);
#630=CYLINDRICAL_SURFACE('',#712,1.75);
#631=CYLINDRICAL_SURFACE('',#715,1.75);
#632=CYLINDRICAL_SURFACE('',#718,1.75);
#633=CYLINDRICAL_SURFACE('',#721,1.75);
#634=CYLINDRICAL_SURFACE('',#724,1.75);
#635=ADVANCED_FACE('',(#63),#622,.F.);
#636=ADVANCED_FACE('',(#64),#623,.F.);
#637=ADVANCED_FACE('',(#65),#624,.F.);
#638=ADVANCED_FACE('',(#66),#625,.F.);
#639=ADVANCED_FACE('',(#67),#45,.F.);
#640=ADVANCED_FACE('',(#68),#46,.F.);
#641=ADVANCED_FACE('',(#69),#47,.F.);
#642=ADVANCED_FACE('',(#70),#48,.F.);
#643=ADVANCED_FACE('',(#71),#49,.F.);
#644=ADVANCED_FACE('',(#72),#50,.F.);
#645=ADVANCED_FACE('',(#73),#51,.F.);
#646=ADVANCED_FACE('',(#74),#52,.F.);
#647=ADVANCED_FACE('',(#75),#626,.F.);
#648=ADVANCED_FACE('',(#76),#627,.F.);
#649=ADVANCED_FACE('',(#77),#628,.F.);
#650=ADVANCED_FACE('',(#78),#629,.F.);
#651=ADVANCED_FACE('',(#79),#630,.F.);
#652=ADVANCED_FACE('',(#80),#631,.F.);
#653=ADVANCED_FACE('',(#81),#632,.F.);
#654=ADVANCED_FACE('',(#82),#633,.F.);
#655=ADVANCED_FACE('',(#83),#634,.F.);
#656=ADVANCED_FACE('',(#84),#53,.T.);
#657=ADVANCED_FACE('',(#85),#54,.T.);
#658=ADVANCED_FACE('',(#86),#55,.T.);
#659=ADVANCED_FACE('',(#87),#56,.T.);
#660=ADVANCED_FACE('',(#88),#57,.T.);
#661=ADVANCED_FACE('',(#89),#58,.T.);
#662=ADVANCED_FACE('',(#90),#59,.T.);
#663=ADVANCED_FACE('',(#91),#60,.T.);
#664=ADVANCED_FACE('',(#92,#15,#16,#17,#18,#19,#20,#21,#22,#23,#24,#25,
#26,#27,#28,#29),#61,.T.);
#665=ADVANCED_FACE('',(#93,#30,#31,#32,#33,#34,#35,#36,#37,#38,#39,#40,
#41,#42,#43,#44),#62,.F.);
#666=CLOSED_SHELL('',(#635,#636,#637,#638,#639,#640,#641,#642,#643,#644,
#645,#646,#647,#648,#649,#650,#651,#652,#653,#654,#655,#656,#657,#658,#659,
#660,#661,#662,#663,#664,#665));
#667=DERIVED_UNIT_ELEMENT(#669,1.);
#668=DERIVED_UNIT_ELEMENT(#1096,-3.);
#669=(
MASS_UNIT()
NAMED_UNIT(*)
SI_UNIT(.KILO.,.GRAM.)
);
#670=DERIVED_UNIT((#667,#668));
#671=MEASURE_REPRESENTATION_ITEM('density measure',
POSITIVE_RATIO_MEASURE(7850.),#670);
#672=PROPERTY_DEFINITION_REPRESENTATION(#677,#674);
#673=PROPERTY_DEFINITION_REPRESENTATION(#678,#675);
#674=REPRESENTATION('material name',(#676),#1093);
#675=REPRESENTATION('density',(#671),#1093);
#676=DESCRIPTIVE_REPRESENTATION_ITEM('Steel','Steel');
#677=PROPERTY_DEFINITION('material property','material name',#1103);
#678=PROPERTY_DEFINITION('material property','density of part',#1103);
#679=AXIS2_PLACEMENT_3D('',#914,#737,#738);
#680=AXIS2_PLACEMENT_3D('',#915,#739,#740);
#681=AXIS2_PLACEMENT_3D('',#917,#741,#742);
#682=AXIS2_PLACEMENT_3D('',#920,#744,#745);
#683=AXIS2_PLACEMENT_3D('',#921,#746,#747);
#684=AXIS2_PLACEMENT_3D('',#923,#748,#749);
#685=AXIS2_PLACEMENT_3D('',#926,#751,#752);
#686=AXIS2_PLACEMENT_3D('',#927,#753,#754);
#687=AXIS2_PLACEMENT_3D('',#929,#755,#756);
#688=AXIS2_PLACEMENT_3D('',#932,#758,#759);
#689=AXIS2_PLACEMENT_3D('',#933,#760,#761);
#690=AXIS2_PLACEMENT_3D('',#935,#762,#763);
#691=AXIS2_PLACEMENT_3D('',#938,#765,#766);
#692=AXIS2_PLACEMENT_3D('',#939,#767,#768);
#693=AXIS2_PLACEMENT_3D('',#948,#773,#774);
#694=AXIS2_PLACEMENT_3D('',#954,#778,#779);
#695=AXIS2_PLACEMENT_3D('',#960,#783,#784);
#696=AXIS2_PLACEMENT_3D('',#963,#787,#788);
#697=AXIS2_PLACEMENT_3D('',#972,#793,#794);
#698=AXIS2_PLACEMENT_3D('',#978,#798,#799);
#699=AXIS2_PLACEMENT_3D('',#984,#803,#804);
#700=AXIS2_PLACEMENT_3D('',#987,#807,#808);
#701=AXIS2_PLACEMENT_3D('',#989,#809,#810);
#702=AXIS2_PLACEMENT_3D('',#992,#812,#813);
#703=AXIS2_PLACEMENT_3D('',#993,#814,#815);
#704=AXIS2_PLACEMENT_3D('',#995,#816,#817);
#705=AXIS2_PLACEMENT_3D('',#998,#819,#820);
#706=AXIS2_PLACEMENT_3D('',#999,#821,#822);
#707=AXIS2_PLACEMENT_3D('',#1001,#823,#824);
#708=AXIS2_PLACEMENT_3D('',#1004,#826,#827);
#709=AXIS2_PLACEMENT_3D('',#1005,#828,#829);
#710=AXIS2_PLACEMENT_3D('',#1007,#830,#831);
#711=AXIS2_PLACEMENT_3D('',#1010,#833,#834);
#712=AXIS2_PLACEMENT_3D('',#1011,#835,#836);
#713=AXIS2_PLACEMENT_3D('',#1013,#837,#838);
#714=AXIS2_PLACEMENT_3D('',#1016,#840,#841);
#715=AXIS2_PLACEMENT_3D('',#1017,#842,#843);
#716=AXIS2_PLACEMENT_3D('',#1019,#844,#845);
#717=AXIS2_PLACEMENT_3D('',#1022,#847,#848);
#718=AXIS2_PLACEMENT_3D('',#1023,#849,#850);
#719=AXIS2_PLACEMENT_3D('',#1025,#851,#852);
#720=AXIS2_PLACEMENT_3D('',#1028,#854,#855);
#721=AXIS2_PLACEMENT_3D('',#1029,#856,#857);
#722=AXIS2_PLACEMENT_3D('',#1031,#858,#859);
#723=AXIS2_PLACEMENT_3D('',#1034,#861,#862);
#724=AXIS2_PLACEMENT_3D('',#1035,#863,#864);
#725=AXIS2_PLACEMENT_3D('',#1037,#865,#866);
#726=AXIS2_PLACEMENT_3D('',#1040,#868,#869);
#727=AXIS2_PLACEMENT_3D('',#1041,#870,#871);
#728=AXIS2_PLACEMENT_3D('',#1050,#876,#877);
#729=AXIS2_PLACEMENT_3D('',#1056,#881,#882);
#730=AXIS2_PLACEMENT_3D('',#1062,#886,#887);
#731=AXIS2_PLACEMENT_3D('',#1068,#891,#892);
#732=AXIS2_PLACEMENT_3D('',#1074,#896,#897);
#733=AXIS2_PLACEMENT_3D('',#1080,#901,#902);
#734=AXIS2_PLACEMENT_3D('',#1086,#906,#907);
#735=AXIS2_PLACEMENT_3D('',#1089,#910,#911);
#736=AXIS2_PLACEMENT_3D('',#1090,#912,#913);
#737=DIRECTION('axis',(0.,0.,1.));
#738=DIRECTION('refdir',(1.,0.,0.));
#739=DIRECTION('center_axis',(0.,0.,-1.));
#740=DIRECTION('ref_axis',(-1.,0.,0.));
#741=DIRECTION('center_axis',(0.,0.,-1.));
#742=DIRECTION('ref_axis',(-1.,0.,0.));
#743=DIRECTION('',(0.,0.,-1.));
#744=DIRECTION('center_axis',(0.,0.,1.));
#745=DIRECTION('ref_axis',(-1.,0.,0.));
#746=DIRECTION('center_axis',(0.,0.,-1.));
#747=DIRECTION('ref_axis',(-1.,0.,0.));
#748=DIRECTION('center_axis',(0.,0.,-1.));
#749=DIRECTION('ref_axis',(-1.,0.,0.));
#750=DIRECTION('',(0.,0.,-1.));
#751=DIRECTION('center_axis',(0.,0.,1.));
#752=DIRECTION('ref_axis',(-1.,0.,0.));
#753=DIRECTION('center_axis',(0.,0.,-1.));
#754=DIRECTION('ref_axis',(-1.,0.,0.));
#755=DIRECTION('center_axis',(0.,0.,-1.));
#756=DIRECTION('ref_axis',(-1.,0.,0.));
#757=DIRECTION('',(0.,0.,-1.));
#758=DIRECTION('center_axis',(0.,0.,1.));
#759=DIRECTION('ref_axis',(-1.,0.,0.));
#760=DIRECTION('center_axis',(0.,0.,-1.));
#761=DIRECTION('ref_axis',(-1.,0.,0.));
#762=DIRECTION('center_axis',(0.,0.,-1.));
#763=DIRECTION('ref_axis',(-1.,0.,0.));
#764=DIRECTION('',(0.,0.,-1.));
#765=DIRECTION('center_axis',(0.,0.,1.));
#766=DIRECTION('ref_axis',(-1.,0.,0.));
#767=DIRECTION('center_axis',(-0.999768888484694,0.0214981305717299,0.));
#768=DIRECTION('ref_axis',(0.0214981305717299,0.999768888484694,0.));
#769=DIRECTION('',(-0.0214981305717299,-0.999768888484694,0.));
#770=DIRECTION('',(0.,0.,-1.));
#771=DIRECTION('',(0.0214981305717299,0.999768888484694,0.));
#772=DIRECTION('',(0.,0.,-1.));
#773=DIRECTION('center_axis',(-0.309450542129768,-0.950915538823292,0.));
#774=DIRECTION('ref_axis',(-0.950915538823292,0.309450542129768,0.));
#775=DIRECTION('',(0.950915538823292,-0.309450542129768,0.));
#776=DIRECTION('',(-0.950915538823292,0.309450542129768,0.));
#777=DIRECTION('',(0.,0.,-1.));
#778=DIRECTION('center_axis',(0.999988669365949,0.00476037180463812,0.));
#779=DIRECTION('ref_axis',(0.00476037180463812,-0.999988669365949,0.));
#780=DIRECTION('',(-0.00476037180463812,0.999988669365949,0.));
#781=DIRECTION('',(0.00476037180463812,-0.999988669365949,0.));
#782=DIRECTION('',(0.,0.,-1.));
#783=DIRECTION('center_axis',(0.386369302080364,0.922344167005968,0.));
#784=DIRECTION('ref_axis',(0.922344167005968,-0.386369302080364,0.));
#785=DIRECTION('',(-0.922344167005968,0.386369302080364,0.));
#786=DIRECTION('',(0.922344167005968,-0.386369302080364,0.));
#787=DIRECTION('center_axis',(0.999988669365949,0.00476037180463831,0.));
#788=DIRECTION('ref_axis',(0.00476037180463831,-0.999988669365949,0.));
#789=DIRECTION('',(-0.00476037180463831,0.999988669365949,0.));
#790=DIRECTION('',(0.,0.,-1.));
#791=DIRECTION('',(0.00476037180463831,-0.999988669365949,0.));
#792=DIRECTION('',(0.,0.,-1.));
#793=DIRECTION('center_axis',(-0.459918366211855,0.887961202092196,0.));
#794=DIRECTION('ref_axis',(0.887961202092196,0.459918366211855,0.));
#795=DIRECTION('',(-0.887961202092196,-0.459918366211855,0.));
#796=DIRECTION('',(0.887961202092196,0.459918366211855,0.));
#797=DIRECTION('',(0.,0.,-1.));
#798=DIRECTION('center_axis',(-1.,0.,0.));
#799=DIRECTION('ref_axis',(0.,1.,0.));
#800=DIRECTION('',(0.,-1.,0.));
#801=DIRECTION('',(0.,1.,0.));
#802=DIRECTION('',(0.,0.,-1.));
#803=DIRECTION('center_axis',(0.459918366211855,-0.887961202092196,0.));
#804=DIRECTION('ref_axis',(-0.887961202092196,-0.459918366211855,0.));
#805=DIRECTION('',(0.887961202092196,0.459918366211855,0.));
#806=DIRECTION('',(-0.887961202092196,-0.459918366211855,0.));
#807=DIRECTION('center_axis',(0.,0.,-1.));
#808=DIRECTION('ref_axis',(-1.,0.,0.));
#809=DIRECTION('center_axis',(0.,0.,-1.));
#810=DIRECTION('ref_axis',(-1.,0.,0.));
#811=DIRECTION('',(0.,0.,-1.));
#812=DIRECTION('center_axis',(0.,0.,1.));
#813=DIRECTION('ref_axis',(-1.,0.,0.));
#814=DIRECTION('center_axis',(0.,0.,-1.));
#815=DIRECTION('ref_axis',(-1.,0.,0.));
#816=DIRECTION('center_axis',(0.,0.,-1.));
#817=DIRECTION('ref_axis',(-1.,0.,0.));
#818=DIRECTION('',(0.,0.,-1.));
#819=DIRECTION('center_axis',(0.,0.,1.));
#820=DIRECTION('ref_axis',(-1.,0.,0.));
#821=DIRECTION('center_axis',(0.,0.,-1.));
#822=DIRECTION('ref_axis',(-1.,0.,0.));
#823=DIRECTION('center_axis',(0.,0.,-1.));
#824=DIRECTION('ref_axis',(-1.,0.,0.));
#825=DIRECTION('',(0.,0.,-1.));
#826=DIRECTION('center_axis',(0.,0.,1.));
#827=DIRECTION('ref_axis',(-1.,0.,0.));
#828=DIRECTION('center_axis',(0.,0.,-1.));
#829=DIRECTION('ref_axis',(-1.,0.,0.));
#830=DIRECTION('center_axis',(0.,0.,-1.));
#831=DIRECTION('ref_axis',(-1.,0.,0.));
#832=DIRECTION('',(0.,0.,-1.));
#833=DIRECTION('center_axis',(0.,0.,1.));
#834=DIRECTION('ref_axis',(-1.,0.,0.));
#835=DIRECTION('center_axis',(0.,0.,-1.));
#836=DIRECTION('ref_axis',(-1.,0.,0.));
#837=DIRECTION('center_axis',(0.,0.,-1.));
#838=DIRECTION('ref_axis',(-1.,0.,0.));
#839=DIRECTION('',(0.,0.,-1.));
#840=DIRECTION('center_axis',(0.,0.,1.));
#841=DIRECTION('ref_axis',(-1.,0.,0.));
#842=DIRECTION('center_axis',(0.,0.,-1.));
#843=DIRECTION('ref_axis',(-1.,0.,0.));
#844=DIRECTION('center_axis',(0.,0.,-1.));
#845=DIRECTION('ref_axis',(-1.,0.,0.));
#846=DIRECTION('',(0.,0.,-1.));
#847=DIRECTION('center_axis',(0.,0.,1.));
#848=DIRECTION('ref_axis',(-1.,0.,0.));
#849=DIRECTION('center_axis',(0.,0.,-1.));
#850=DIRECTION('ref_axis',(-1.,0.,0.));
#851=DIRECTION('center_axis',(0.,0.,-1.));
#852=DIRECTION('ref_axis',(-1.,0.,0.));
#853=DIRECTION('',(0.,0.,-1.));
#854=DIRECTION('center_axis',(0.,0.,1.));
#855=DIRECTION('ref_axis',(-1.,0.,0.));
#856=DIRECTION('center_axis',(0.,0.,-1.));
#857=DIRECTION('ref_axis',(-1.,0.,0.));
#858=DIRECTION('center_axis',(0.,0.,-1.));
#859=DIRECTION('ref_axis',(-1.,0.,0.));
#860=DIRECTION('',(0.,0.,-1.));
#861=DIRECTION('center_axis',(0.,0.,1.));
#862=DIRECTION('ref_axis',(-1.,0.,0.));
#863=DIRECTION('center_axis',(0.,0.,-1.));
#864=DIRECTION('ref_axis',(-1.,0.,0.));
#865=DIRECTION('center_axis',(0.,0.,-1.));
#866=DIRECTION('ref_axis',(-1.,0.,0.));
#867=DIRECTION('',(0.,0.,-1.));
#868=DIRECTION('center_axis',(0.,0.,1.));
#869=DIRECTION('ref_axis',(-1.,0.,0.));
#870=DIRECTION('center_axis',(0.,-1.,0.));
#871=DIRECTION('ref_axis',(1.,0.,0.));
#872=DIRECTION('',(1.,0.,0.));
#873=DIRECTION('',(0.,0.,1.));
#874=DIRECTION('',(1.,0.,0.));
#875=DIRECTION('',(0.,0.,1.));
#876=DIRECTION('center_axis',(0.342020143325669,-0.939692620785908,0.));
#877=DIRECTION('ref_axis',(0.939692620785908,0.342020143325669,0.));
#878=DIRECTION('',(-0.939692620785908,-0.342020143325669,0.));
#879=DIRECTION('',(0.939692620785908,0.342020143325669,0.));
#880=DIRECTION('',(0.,0.,1.));
#881=DIRECTION('center_axis',(-1.,0.,0.));
#882=DIRECTION('ref_axis',(0.,-1.,0.));
#883=DIRECTION('',(0.,-1.,0.));
#884=DIRECTION('',(0.,-1.,0.));
#885=DIRECTION('',(0.,0.,1.));
#886=DIRECTION('center_axis',(-0.342020143325669,0.939692620785908,0.));
#887=DIRECTION('ref_axis',(-0.939692620785908,-0.342020143325669,0.));
#888=DIRECTION('',(-0.939692620785908,-0.342020143325669,0.));
#889=DIRECTION('',(-0.939692620785908,-0.342020143325669,0.));
#890=DIRECTION('',(0.,0.,1.));
#891=DIRECTION('center_axis',(0.,1.,0.));
#892=DIRECTION('ref_axis',(-1.,0.,0.));
#893=DIRECTION('',(-1.,0.,0.));
#894=DIRECTION('',(-1.,0.,0.));
#895=DIRECTION('',(0.,0.,1.));
#896=DIRECTION('center_axis',(0.342020143325669,0.939692620785908,0.));
#897=DIRECTION('ref_axis',(-0.939692620785908,0.342020143325669,0.));
#898=DIRECTION('',(0.939692620785908,-0.342020143325669,0.));
#899=DIRECTION('',(-0.939692620785908,0.342020143325669,0.));
#900=DIRECTION('',(0.,0.,1.));
#901=DIRECTION('center_axis',(1.,0.,0.));
#902=DIRECTION('ref_axis',(0.,1.,0.));
#903=DIRECTION('',(0.,1.,0.));
#904=DIRECTION('',(0.,1.,0.));
#905=DIRECTION('',(0.,0.,1.));
#906=DIRECTION('center_axis',(-0.342020143325669,-0.939692620785908,0.));
#907=DIRECTION('ref_axis',(0.939692620785908,-0.342020143325669,0.));
#908=DIRECTION('',(0.939692620785908,-0.342020143325669,0.));
#909=DIRECTION('',(0.939692620785908,-0.342020143325669,0.));
#910=DIRECTION('center_axis',(0.,0.,1.));
#911=DIRECTION('ref_axis',(1.,0.,0.));
#912=DIRECTION('center_axis',(0.,0.,1.));
#913=DIRECTION('ref_axis',(-1.,0.,0.));
#914=CARTESIAN_POINT('',(0.,0.,0.));
#915=CARTESIAN_POINT('Origin',(-106.706142600672,17.7997650224865,18.));
#916=CARTESIAN_POINT('',(-104.406142600672,17.7997650224865,18.));
#917=CARTESIAN_POINT('Origin',(-106.706142600672,17.7997650224865,18.));
#918=CARTESIAN_POINT('',(-104.406142600672,17.7997650224865,16.));
#919=CARTESIAN_POINT('',(-104.406142600672,17.7997650224865,18.));
#920=CARTESIAN_POINT('Origin',(-106.706142600672,17.7997650224865,16.));
#921=CARTESIAN_POINT('Origin',(107.093468087598,-26.790641808825,18.));
#922=CARTESIAN_POINT('',(109.393468087598,-26.790641808825,18.));
#923=CARTESIAN_POINT('Origin',(107.093468087598,-26.790641808825,18.));
#924=CARTESIAN_POINT('',(109.393468087598,-26.790641808825,16.));
#925=CARTESIAN_POINT('',(109.393468087598,-26.790641808825,18.));
#926=CARTESIAN_POINT('Origin',(107.093468087598,-26.790641808825,16.));
#927=CARTESIAN_POINT('Origin',(-106.706142600672,-26.0574381717746,18.));
#928=CARTESIAN_POINT('',(-104.406142600672,-26.0574381717746,18.));
#929=CARTESIAN_POINT('Origin',(-106.706142600672,-26.0574381717746,18.));
#930=CARTESIAN_POINT('',(-104.406142600672,-26.0574381717746,16.));
#931=CARTESIAN_POINT('',(-104.406142600672,-26.0574381717746,18.));
#932=CARTESIAN_POINT('Origin',(-106.706142600672,-26.0574381717746,16.));
#933=CARTESIAN_POINT('Origin',(107.093468087598,16.5694621338491,18.));
#934=CARTESIAN_POINT('',(109.393468087598,16.5694621338491,18.));
#935=CARTESIAN_POINT('Origin',(107.093468087598,16.5694621338491,18.));
#936=CARTESIAN_POINT('',(109.393468087598,16.5694621338491,16.));
#937=CARTESIAN_POINT('',(109.393468087598,16.5694621338491,18.));
#938=CARTESIAN_POINT('Origin',(107.093468087598,16.5694621338491,16.));
#939=CARTESIAN_POINT('Origin',(79.6332859898775,-11.5778057944216,18.));
#940=CARTESIAN_POINT('',(80.4317831064891,25.5562404459901,16.));
#941=CARTESIAN_POINT('',(79.6332859898775,-11.5778057944216,16.));
#942=CARTESIAN_POINT('',(79.7515408852201,-6.07837109334242,16.));
#943=CARTESIAN_POINT('',(80.4317831064891,25.5562404459901,18.));
#944=CARTESIAN_POINT('',(80.4317831064891,25.5562404459901,18.));
#945=CARTESIAN_POINT('',(79.6332859898775,-11.5778057944216,18.));
#946=CARTESIAN_POINT('',(79.7515408852201,-6.07837109334242,18.));
#947=CARTESIAN_POINT('',(79.6332859898775,-11.5778057944216,18.));
#948=CARTESIAN_POINT('Origin',(100.244344858148,-18.2851347634566,18.));
#949=CARTESIAN_POINT('',(100.244344858148,-18.2851347634566,16.));
#950=CARTESIAN_POINT('',(52.0640394877495,-2.60611700831789,16.));
#951=CARTESIAN_POINT('',(100.244344858148,-18.2851347634566,18.));
#952=CARTESIAN_POINT('',(52.0640394877495,-2.60611700831789,18.));
#953=CARTESIAN_POINT('',(100.244344858148,-18.2851347634566,18.));
#954=CARTESIAN_POINT('Origin',(100.074812175135,17.3277898269189,18.));
#955=CARTESIAN_POINT('',(100.074812175135,17.3277898269189,16.));
#956=CARTESIAN_POINT('',(100.112211325137,9.47152821951481,16.));
#957=CARTESIAN_POINT('',(100.074812175135,17.3277898269189,18.));
#958=CARTESIAN_POINT('',(100.112211325137,9.47152821951481,18.));
#959=CARTESIAN_POINT('',(100.074812175135,17.3277898269189,18.));
#960=CARTESIAN_POINT('Origin',(80.4317831064891,25.5562404459901,18.));
#961=CARTESIAN_POINT('',(50.5701873081451,38.0652412510415,16.));
#962=CARTESIAN_POINT('',(50.5701873081451,38.0652412510415,18.));
#963=CARTESIAN_POINT('Origin',(-80.1203811989929,25.5562404459901,18.));
#964=CARTESIAN_POINT('',(-79.9517515723812,-9.86698338011121,16.));
#965=CARTESIAN_POINT('',(-80.1203811989929,25.5562404459901,16.));
#966=CARTESIAN_POINT('',(-80.061355314516,13.1569535628372,16.));
#967=CARTESIAN_POINT('',(-79.9517515723812,-9.86698338011121,18.));
#968=CARTESIAN_POINT('',(-79.9517515723812,-9.86698338011121,18.));
#969=CARTESIAN_POINT('',(-80.1203811989929,25.5562404459901,18.));
#970=CARTESIAN_POINT('',(-80.061355314516,13.1569535628372,18.));
#971=CARTESIAN_POINT('',(-80.1203811989929,25.5562404459901,18.));
#972=CARTESIAN_POINT('Origin',(-100.08128714906,15.2175148000578,18.));
#973=CARTESIAN_POINT('',(-100.08128714906,15.2175148000578,16.));
#974=CARTESIAN_POINT('',(-63.5003455375562,34.1645666090932,16.));
#975=CARTESIAN_POINT('',(-100.08128714906,15.2175148000578,18.));
#976=CARTESIAN_POINT('',(-63.5003455375562,34.1645666090932,18.));
#977=CARTESIAN_POINT('',(-100.08128714906,15.2175148000578,18.));
#978=CARTESIAN_POINT('Origin',(-100.08128714906,-20.2930505249551,18.));
#979=CARTESIAN_POINT('',(-100.08128714906,-20.2930505249551,16.));
#980=CARTESIAN_POINT('',(-100.08128714906,-9.57726934836485,16.));
#981=CARTESIAN_POINT('',(-100.08128714906,-20.2930505249551,18.));
#982=CARTESIAN_POINT('',(-100.08128714906,-9.57726934836485,18.));
#983=CARTESIAN_POINT('',(-100.08128714906,-20.2930505249551,18.));
#984=CARTESIAN_POINT('Origin',(-79.9517515723812,-9.86698338011121,18.));
#985=CARTESIAN_POINT('',(-46.1845038049115,7.62271930970641,16.));
#986=CARTESIAN_POINT('',(-46.1845038049115,7.62271930970641,18.));
#987=CARTESIAN_POINT('Origin',(-67.5,8.00845,18.));
#988=CARTESIAN_POINT('',(-65.7499999999999,8.00845,18.));
#989=CARTESIAN_POINT('Origin',(-67.5,8.00845,18.));
#990=CARTESIAN_POINT('',(-65.7499999999999,8.00845,16.));
#991=CARTESIAN_POINT('',(-65.75,8.00845,18.));
#992=CARTESIAN_POINT('Origin',(-67.5,8.00845,16.));
#993=CARTESIAN_POINT('Origin',(67.5009416159298,32.0281589977403,18.));
#994=CARTESIAN_POINT('',(69.2509416159299,32.0281589977403,18.));
#995=CARTESIAN_POINT('Origin',(67.5009416159298,32.0281589977403,18.));
#996=CARTESIAN_POINT('',(69.2509416159299,32.0281589977403,16.));
#997=CARTESIAN_POINT('',(69.2509416159298,32.0281589977403,18.));
#998=CARTESIAN_POINT('Origin',(67.5009416159298,32.0281589977403,16.));
#999=CARTESIAN_POINT('Origin',(67.5004999885921,8.00720900180003,18.));
#1000=CARTESIAN_POINT('',(69.2504999885922,8.00720900180003,18.));
#1001=CARTESIAN_POINT('Origin',(67.5004999885921,8.00720900180003,18.));
#1002=CARTESIAN_POINT('',(69.2504999885922,8.00720900180003,16.));
#1003=CARTESIAN_POINT('',(69.2504999885921,8.00720900180003,18.));
#1004=CARTESIAN_POINT('Origin',(67.5004999885921,8.00720900180003,16.));
#1005=CARTESIAN_POINT('Origin',(-67.5,-16.0125,18.));
#1006=CARTESIAN_POINT('',(-65.7500000000001,-16.0125,18.));
#1007=CARTESIAN_POINT('Origin',(-67.5,-16.0125,18.));
#1008=CARTESIAN_POINT('',(-65.7500000000001,-16.0125,16.));
#1009=CARTESIAN_POINT('',(-65.75,-16.0125,18.));
#1010=CARTESIAN_POINT('Origin',(-67.5,-16.0125,16.));
#1011=CARTESIAN_POINT('Origin',(-67.5,32.0294,18.));
#1012=CARTESIAN_POINT('',(-65.7500000000001,32.0294,18.));
#1013=CARTESIAN_POINT('Origin',(-67.5,32.0294,18.));
#1014=CARTESIAN_POINT('',(-65.7500000000001,32.0294,16.));
#1015=CARTESIAN_POINT('',(-65.75,32.0294,18.));
#1016=CARTESIAN_POINT('Origin',(-67.5,32.0294,16.));
#1017=CARTESIAN_POINT('Origin',(33.7507062119474,32.0284692483052,18.));
#1018=CARTESIAN_POINT('',(35.5007062119475,32.0284692483052,18.));
#1019=CARTESIAN_POINT('Origin',(33.7507062119474,32.0284692483052,18.));
#1020=CARTESIAN_POINT('',(35.5007062119475,32.0284692483052,16.));
#1021=CARTESIAN_POINT('',(35.5007062119474,32.0284692483052,18.));
#1022=CARTESIAN_POINT('Origin',(33.7507062119474,32.0284692483052,16.));
#1023=CARTESIAN_POINT('Origin',(67.5000583612544,-16.0137409941403,18.));
#1024=CARTESIAN_POINT('',(69.2500583612542,-16.0137409941403,18.));
#1025=CARTESIAN_POINT('Origin',(67.5000583612544,-16.0137409941403,18.));
#1026=CARTESIAN_POINT('',(69.2500583612542,-16.0137409941403,16.));
#1027=CARTESIAN_POINT('',(69.2500583612544,-16.0137409941403,18.));
#1028=CARTESIAN_POINT('Origin',(67.5000583612544,-16.0137409941403,16.));
#1029=CARTESIAN_POINT('Origin',(0.00047080796495288,32.0287794988702,18.));
#1030=CARTESIAN_POINT('',(1.75047080796495,32.0287794988702,18.));
#1031=CARTESIAN_POINT('Origin',(0.00047080796495288,32.0287794988702,18.));
#1032=CARTESIAN_POINT('',(1.75047080796495,32.0287794988702,16.));
#1033=CARTESIAN_POINT('',(1.75047080796495,32.0287794988702,18.));
#1034=CARTESIAN_POINT('Origin',(0.00047080796495288,32.0287794988702,16.));
#1035=CARTESIAN_POINT('Origin',(-33.7497645960175,32.0290897494351,18.));
#1036=CARTESIAN_POINT('',(-31.9997645960177,32.0290897494351,18.));
#1037=CARTESIAN_POINT('Origin',(-33.7497645960175,32.0290897494351,18.));
#1038=CARTESIAN_POINT('',(-31.9997645960177,32.0290897494351,16.));
#1039=CARTESIAN_POINT('',(-31.9997645960175,32.0290897494351,18.));
#1040=CARTESIAN_POINT('Origin',(-33.7497645960175,32.0290897494351,16.));
#1041=CARTESIAN_POINT('Origin',(-72.2625,-19.1875,16.));
#1042=CARTESIAN_POINT('',(-72.2625,-19.1875,16.));
#1043=CARTESIAN_POINT('',(72.2625,-19.1875,16.));
#1044=CARTESIAN_POINT('',(-72.2625,-19.1875,16.));
#1045=CARTESIAN_POINT('',(72.2625,-19.1875,18.));
#1046=CARTESIAN_POINT('',(72.2625,-19.1875,16.));
#1047=CARTESIAN_POINT('',(-72.2625,-19.1875,18.));
#1048=CARTESIAN_POINT('',(-72.2625,-19.1875,18.));
#1049=CARTESIAN_POINT('',(-72.2625,-19.1875,16.));
#1050=CARTESIAN_POINT('Origin',(-110.0125,-32.9273763435492,16.));
#1051=CARTESIAN_POINT('',(-110.0125,-32.9273763435492,16.));
#1052=CARTESIAN_POINT('',(-72.2625,-19.1875,16.));
#1053=CARTESIAN_POINT('',(-110.0125,-32.9273763435492,18.));
#1054=CARTESIAN_POINT('',(-72.2625,-19.1875,18.));
#1055=CARTESIAN_POINT('',(-110.0125,-32.9273763435492,16.));
#1056=CARTESIAN_POINT('Origin',(-110.0125,21.4645236564509,16.));
#1057=CARTESIAN_POINT('',(-110.0125,21.4645236564509,16.));
#1058=CARTESIAN_POINT('',(-110.0125,44.7294,16.));
#1059=CARTESIAN_POINT('',(-110.0125,21.4645236564509,18.));
#1060=CARTESIAN_POINT('',(-110.0125,44.7294,18.));
#1061=CARTESIAN_POINT('',(-110.0125,21.4645236564509,16.));
#1062=CARTESIAN_POINT('Origin',(-72.2625,35.2044,16.));
#1063=CARTESIAN_POINT('',(-72.2625,35.2044,16.));
#1064=CARTESIAN_POINT('',(-72.2625,35.2044,16.));
#1065=CARTESIAN_POINT('',(-72.2625,35.2044,18.));
#1066=CARTESIAN_POINT('',(-72.2625,35.2044,18.));
#1067=CARTESIAN_POINT('',(-72.2625,35.2044,16.));
#1068=CARTESIAN_POINT('Origin',(72.2635,35.2044,16.));
#1069=CARTESIAN_POINT('',(72.2635,35.2044,16.));
#1070=CARTESIAN_POINT('',(72.2635,35.2044,16.));
#1071=CARTESIAN_POINT('',(72.2635,35.2044,18.));
#1072=CARTESIAN_POINT('',(72.2635,35.2044,18.));
#1073=CARTESIAN_POINT('',(72.2635,35.2044,16.));
#1074=CARTESIAN_POINT('Origin',(110.0125,21.4648876266851,16.));
#1075=CARTESIAN_POINT('',(110.0125,21.4648876266851,16.));
#1076=CARTESIAN_POINT('',(72.2635,35.2044,16.));
#1077=CARTESIAN_POINT('',(110.0125,21.4648876266851,18.));
#1078=CARTESIAN_POINT('',(72.2635,35.2044,18.));
#1079=CARTESIAN_POINT('',(110.0125,21.4648876266851,16.));
#1080=CARTESIAN_POINT('Origin',(110.0125,-32.9273763435492,16.));
#1081=CARTESIAN_POINT('',(110.0125,-32.9273763435492,16.));
#1082=CARTESIAN_POINT('',(110.0125,-102.931879888187,16.));
#1083=CARTESIAN_POINT('',(110.0125,-32.9273763435492,18.));
#1084=CARTESIAN_POINT('',(110.0125,-102.931879888187,18.));
#1085=CARTESIAN_POINT('',(110.0125,-32.9273763435492,16.));
#1086=CARTESIAN_POINT('Origin',(72.2625,-19.1875,16.));
#1087=CARTESIAN_POINT('',(72.2625,-19.1875,16.));
#1088=CARTESIAN_POINT('',(72.2625,-19.1875,18.));
#1089=CARTESIAN_POINT('Origin',(0.,1.13851182822543,18.));
#1090=CARTESIAN_POINT('Origin',(0.,1.13851182822543,16.));
#1091=UNCERTAINTY_MEASURE_WITH_UNIT(LENGTH_MEASURE(0.01),#1095,
'DISTANCE_ACCURACY_VALUE',
'Maximum model space distance between geometric entities at asserted c
onnectivities');
#1092=UNCERTAINTY_MEASURE_WITH_UNIT(LENGTH_MEASURE(0.01),#1095,
'DISTANCE_ACCURACY_VALUE',
'Maximum model space distance between geometric entities at asserted c
onnectivities');
#1093=(
GEOMETRIC_REPRESENTATION_CONTEXT(3)
GLOBAL_UNCERTAINTY_ASSIGNED_CONTEXT((#1091))
GLOBAL_UNIT_ASSIGNED_CONTEXT((#1095,#1097,#1098))
REPRESENTATION_CONTEXT('','3D')
);
#1094=(
GEOMETRIC_REPRESENTATION_CONTEXT(3)
GLOBAL_UNCERTAINTY_ASSIGNED_CONTEXT((#1092))
GLOBAL_UNIT_ASSIGNED_CONTEXT((#1095,#1097,#1098))
REPRESENTATION_CONTEXT('','3D')
);
#1095=(
LENGTH_UNIT()
NAMED_UNIT(*)
SI_UNIT(.MILLI.,.METRE.)
);
#1096=(
LENGTH_UNIT()
NAMED_UNIT(*)
SI_UNIT($,.METRE.)
);
#1097=(
NAMED_UNIT(*)
PLANE_ANGLE_UNIT()
SI_UNIT($,.RADIAN.)
);
#1098=(
NAMED_UNIT(*)
SI_UNIT($,.STERADIAN.)
SOLID_ANGLE_UNIT()
);
#1099=SHAPE_DEFINITION_REPRESENTATION(#1100,#1101);
#1100=PRODUCT_DEFINITION_SHAPE('',$,#1103);
#1101=SHAPE_REPRESENTATION('',(#679),#1093);
#1102=PRODUCT_DEFINITION_CONTEXT('part definition',#1107,'design');
#1103=PRODUCT_DEFINITION('Component136','Component136',#1104,#1102);
#1104=PRODUCT_DEFINITION_FORMATION('',$,#1109);
#1105=PRODUCT_RELATED_PRODUCT_CATEGORY('Component136','Component136',(#1109));
#1106=APPLICATION_PROTOCOL_DEFINITION('international standard',
'automotive_design',2009,#1107);
#1107=APPLICATION_CONTEXT(
'Core Data for Automotive Mechanical Design Process');
#1108=PRODUCT_CONTEXT('part definition',#1107,'mechanical');
#1109=PRODUCT('Component136','Component136',$,(#1108));
#1110=PRESENTATION_STYLE_ASSIGNMENT((#1112));
#1111=PRESENTATION_STYLE_ASSIGNMENT((#1113));
#1112=SURFACE_STYLE_USAGE(.BOTH.,#1114);
#1113=SURFACE_STYLE_USAGE(.BOTH.,#1115);
#1114=SURFACE_SIDE_STYLE('',(#1116));
#1115=SURFACE_SIDE_STYLE('',(#1117));
#1116=SURFACE_STYLE_FILL_AREA(#1118);
#1117=SURFACE_STYLE_FILL_AREA(#1119);
#1118=FILL_AREA_STYLE('Steel - Satin',(#1120));
#1119=FILL_AREA_STYLE('Opaque(25,25,25)',(#1121));
#1120=FILL_AREA_STYLE_COLOUR('Steel - Satin',#1122);
#1121=FILL_AREA_STYLE_COLOUR('Opaque(25,25,25)',#1123);
#1122=COLOUR_RGB('Steel - Satin',0.627450980392157,0.627450980392157,0.627450980392157);
#1123=COLOUR_RGB('Opaque(25,25,25)',0.0980392156862745,0.0980392156862745,
0.0980392156862745);
ENDSEC;
END-ISO-10303-21;
