ISO-10303-21;
HEADER;
/* Generated by software containing ST-Developer
 * from STEP Tools, Inc. (www.steptools.com) 
 */

FILE_DESCRIPTION(
/* description */ (''),
/* implementation_level */ '2;1');

FILE_NAME(
/* name */ 'Motor_Mount(1).step',
/* time_stamp */ '2026-09-06T19:59:25+03:00',
/* author */ (''),
/* organization */ (''),
/* preprocessor_version */ 'ST-DEVELOPER v20.1',
/* originating_system */ 'Autodesk Translation Framework v15.8.0.0',
/* authorisation */ '');

FILE_SCHEMA (('AUTOMOTIVE_DESIGN { 1 0 10303 214 3 1 1 }'));
ENDSEC;

DATA;
#10=MECHANICAL_DESIGN_GEOMETRIC_PRESENTATION_REPRESENTATION('',(#13),#795);
#11=SHAPE_REPRESENTATION_RELATIONSHIP('SRR','None',#802,#12);
#12=ADVANCED_BREP_SHAPE_REPRESENTATION('',(#14),#794);
#13=STYLED_ITEM('',(#812),#14);
#14=MANIFOLD_SOLID_BREP('Body2',#459);
#15=FACE_BOUND('',#73,.T.);
#16=FACE_BOUND('',#74,.T.);
#17=FACE_BOUND('',#75,.T.);
#18=FACE_BOUND('',#76,.T.);
#19=FACE_BOUND('',#77,.T.);
#20=FACE_BOUND('',#79,.T.);
#21=FACE_BOUND('',#80,.T.);
#22=PLANE('',#476);
#23=PLANE('',#480);
#24=PLANE('',#481);
#25=PLANE('',#482);
#26=PLANE('',#483);
#27=PLANE('',#485);
#28=PLANE('',#486);
#29=PLANE('',#501);
#30=PLANE('',#520);
#31=PLANE('',#521);
#32=FACE_OUTER_BOUND('',#53,.T.);
#33=FACE_OUTER_BOUND('',#54,.T.);
#34=FACE_OUTER_BOUND('',#55,.T.);
#35=FACE_OUTER_BOUND('',#56,.T.);
#36=FACE_OUTER_BOUND('',#57,.T.);
#37=FACE_OUTER_BOUND('',#58,.T.);
#38=FACE_OUTER_BOUND('',#59,.T.);
#39=FACE_OUTER_BOUND('',#60,.T.);
#40=FACE_OUTER_BOUND('',#61,.T.);
#41=FACE_OUTER_BOUND('',#62,.T.);
#42=FACE_OUTER_BOUND('',#63,.T.);
#43=FACE_OUTER_BOUND('',#64,.T.);
#44=FACE_OUTER_BOUND('',#65,.T.);
#45=FACE_OUTER_BOUND('',#66,.T.);
#46=FACE_OUTER_BOUND('',#67,.T.);
#47=FACE_OUTER_BOUND('',#68,.T.);
#48=FACE_OUTER_BOUND('',#69,.T.);
#49=FACE_OUTER_BOUND('',#70,.T.);
#50=FACE_OUTER_BOUND('',#71,.T.);
#51=FACE_OUTER_BOUND('',#72,.T.);
#52=FACE_OUTER_BOUND('',#78,.T.);
#53=EDGE_LOOP('',(#295,#296,#297,#298));
#54=EDGE_LOOP('',(#299,#300,#301,#302));
#55=EDGE_LOOP('',(#303,#304,#305,#306));
#56=EDGE_LOOP('',(#307,#308,#309,#310));
#57=EDGE_LOOP('',(#311,#312,#313,#314,#315,#316));
#58=EDGE_LOOP('',(#317,#318,#319,#320));
#59=EDGE_LOOP('',(#321,#322,#323));
#60=EDGE_LOOP('',(#324,#325,#326,#327,#328,#329,#330,#331));
#61=EDGE_LOOP('',(#332,#333,#334,#335,#336,#337));
#62=EDGE_LOOP('',(#338,#339,#340,#341));
#63=EDGE_LOOP('',(#342,#343,#344,#345));
#64=EDGE_LOOP('',(#346,#347,#348,#349));
#65=EDGE_LOOP('',(#350,#351,#352,#353));
#66=EDGE_LOOP('',(#354,#355,#356,#357));
#67=EDGE_LOOP('',(#358,#359,#360,#361,#362,#363,#364,#365,#366,#367,#368,
#369,#370));
#68=EDGE_LOOP('',(#371,#372,#373,#374,#375,#376,#377,#378));
#69=EDGE_LOOP('',(#379,#380,#381,#382));
#70=EDGE_LOOP('',(#383,#384,#385,#386,#387,#388,#389,#390));
#71=EDGE_LOOP('',(#391,#392,#393,#394,#395,#396,#397,#398));
#72=EDGE_LOOP('',(#399,#400,#401,#402,#403,#404,#405));
#73=EDGE_LOOP('',(#406));
#74=EDGE_LOOP('',(#407));
#75=EDGE_LOOP('',(#408));
#76=EDGE_LOOP('',(#409));
#77=EDGE_LOOP('',(#410));
#78=EDGE_LOOP('',(#411,#412,#413,#414,#415,#416,#417,#418,#419,#420,#421,
#422,#423,#424));
#79=EDGE_LOOP('',(#425));
#80=EDGE_LOOP('',(#426));
#81=LINE('',#665,#119);
#82=LINE('',#670,#120);
#83=LINE('',#672,#121);
#84=LINE('',#674,#122);
#85=LINE('',#675,#123);
#86=LINE('',#681,#124);
#87=LINE('',#684,#125);
#88=LINE('',#688,#126);
#89=LINE('',#689,#127);
#90=LINE('',#690,#128);
#91=LINE('',#693,#129);
#92=LINE('',#695,#130);
#93=LINE('',#697,#131);
#94=LINE('',#699,#132);
#95=LINE('',#700,#133);
#96=LINE('',#702,#134);
#97=LINE('',#703,#135);
#98=LINE('',#709,#136);
#99=LINE('',#710,#137);
#100=LINE('',#713,#138);
#101=LINE('',#715,#139);
#102=LINE('',#717,#140);
#103=LINE('',#718,#141);
#104=LINE('',#720,#142);
#105=LINE('',#721,#143);
#106=LINE('',#724,#144);
#107=LINE('',#725,#145);
#108=LINE('',#726,#146);
#109=LINE('',#732,#147);
#110=LINE('',#738,#148);
#111=LINE('',#742,#149);
#112=LINE('',#747,#150);
#113=LINE('',#753,#151);
#114=LINE('',#757,#152);
#115=LINE('',#769,#153);
#116=LINE('',#776,#154);
#117=LINE('',#781,#155);
#118=LINE('',#787,#156);
#119=VECTOR('',#528,6.);
#120=VECTOR('',#533,10.);
#121=VECTOR('',#534,10.);
#122=VECTOR('',#535,10.);
#123=VECTOR('',#536,10.);
#124=VECTOR('',#541,10.);
#125=VECTOR('',#544,10.);
#126=VECTOR('',#547,10.);
#127=VECTOR('',#548,10.);
#128=VECTOR('',#549,10.);
#129=VECTOR('',#552,10.);
#130=VECTOR('',#553,10.);
#131=VECTOR('',#554,10.);
#132=VECTOR('',#555,10.);
#133=VECTOR('',#556,10.);
#134=VECTOR('',#559,10.);
#135=VECTOR('',#560,10.);
#136=VECTOR('',#565,10.);
#137=VECTOR('',#566,10.);
#138=VECTOR('',#569,10.);
#139=VECTOR('',#570,10.);
#140=VECTOR('',#571,10.);
#141=VECTOR('',#572,10.);
#142=VECTOR('',#573,10.);
#143=VECTOR('',#574,10.);
#144=VECTOR('',#577,10.);
#145=VECTOR('',#578,10.);
#146=VECTOR('',#579,10.);
#147=VECTOR('',#586,10.);
#148=VECTOR('',#593,10.);
#149=VECTOR('',#596,10.);
#150=VECTOR('',#601,10.);
#151=VECTOR('',#608,10.);
#152=VECTOR('',#611,10.);
#153=VECTOR('',#628,1.45);
#154=VECTOR('',#637,1.45);
#155=VECTOR('',#644,1.45);
#156=VECTOR('',#651,1.45);
#157=CIRCLE('',#474,6.);
#158=CIRCLE('',#475,6.);
#159=CIRCLE('',#478,14.);
#160=CIRCLE('',#479,14.);
#161=CIRCLE('',#484,17.65);
#162=CIRCLE('',#488,17.65);
#163=CIRCLE('',#490,17.65);
#164=CIRCLE('',#491,17.65);
#165=CIRCLE('',#493,17.65);
#166=CIRCLE('',#494,17.65);
#167=CIRCLE('',#496,17.65);
#168=CIRCLE('',#497,17.65);
#169=CIRCLE('',#499,17.65);
#170=CIRCLE('',#500,17.65);
#171=CIRCLE('',#502,1.45);
#172=CIRCLE('',#503,1.45);
#173=CIRCLE('',#504,1.45);
#174=CIRCLE('',#505,1.45);
#175=CIRCLE('',#507,1.45);
#176=CIRCLE('',#508,1.45);
#177=CIRCLE('',#509,1.45);
#178=CIRCLE('',#511,1.45);
#179=CIRCLE('',#512,1.45);
#180=CIRCLE('',#514,1.45);
#181=CIRCLE('',#515,1.45);
#182=CIRCLE('',#517,1.45);
#183=CIRCLE('',#518,1.45);
#184=CIRCLE('',#519,1.45);
#185=VERTEX_POINT('',#662);
#186=VERTEX_POINT('',#664);
#187=VERTEX_POINT('',#668);
#188=VERTEX_POINT('',#669);
#189=VERTEX_POINT('',#671);
#190=VERTEX_POINT('',#673);
#191=VERTEX_POINT('',#677);
#192=VERTEX_POINT('',#678);
#193=VERTEX_POINT('',#680);
#194=VERTEX_POINT('',#682);
#195=VERTEX_POINT('',#686);
#196=VERTEX_POINT('',#687);
#197=VERTEX_POINT('',#692);
#198=VERTEX_POINT('',#694);
#199=VERTEX_POINT('',#696);
#200=VERTEX_POINT('',#698);
#201=VERTEX_POINT('',#705);
#202=VERTEX_POINT('',#706);
#203=VERTEX_POINT('',#708);
#204=VERTEX_POINT('',#712);
#205=VERTEX_POINT('',#714);
#206=VERTEX_POINT('',#716);
#207=VERTEX_POINT('',#719);
#208=VERTEX_POINT('',#723);
#209=VERTEX_POINT('',#730);
#210=VERTEX_POINT('',#731);
#211=VERTEX_POINT('',#736);
#212=VERTEX_POINT('',#737);
#213=VERTEX_POINT('',#739);
#214=VERTEX_POINT('',#741);
#215=VERTEX_POINT('',#745);
#216=VERTEX_POINT('',#746);
#217=VERTEX_POINT('',#751);
#218=VERTEX_POINT('',#752);
#219=VERTEX_POINT('',#754);
#220=VERTEX_POINT('',#756);
#221=VERTEX_POINT('',#762);
#222=VERTEX_POINT('',#766);
#223=VERTEX_POINT('',#768);
#224=VERTEX_POINT('',#773);
#225=VERTEX_POINT('',#775);
#226=VERTEX_POINT('',#779);
#227=VERTEX_POINT('',#784);
#228=VERTEX_POINT('',#786);
#229=EDGE_CURVE('',#185,#185,#157,.T.);
#230=EDGE_CURVE('',#185,#186,#81,.T.);
#231=EDGE_CURVE('',#186,#186,#158,.T.);
#232=EDGE_CURVE('',#187,#188,#82,.T.);
#233=EDGE_CURVE('',#189,#188,#83,.T.);
#234=EDGE_CURVE('',#189,#190,#84,.T.);
#235=EDGE_CURVE('',#190,#187,#85,.T.);
#236=EDGE_CURVE('',#191,#192,#159,.T.);
#237=EDGE_CURVE('',#193,#192,#86,.T.);
#238=EDGE_CURVE('',#193,#194,#160,.T.);
#239=EDGE_CURVE('',#194,#191,#87,.T.);
#240=EDGE_CURVE('',#195,#196,#88,.T.);
#241=EDGE_CURVE('',#190,#196,#89,.T.);
#242=EDGE_CURVE('',#189,#195,#90,.T.);
#243=EDGE_CURVE('',#197,#191,#91,.T.);
#244=EDGE_CURVE('',#198,#194,#92,.T.);
#245=EDGE_CURVE('',#198,#199,#93,.T.);
#246=EDGE_CURVE('',#199,#200,#94,.T.);
#247=EDGE_CURVE('',#200,#197,#95,.T.);
#248=EDGE_CURVE('',#199,#195,#96,.T.);
#249=EDGE_CURVE('',#196,#198,#97,.T.);
#250=EDGE_CURVE('',#201,#202,#161,.T.);
#251=EDGE_CURVE('',#202,#203,#98,.T.);
#252=EDGE_CURVE('',#203,#201,#99,.T.);
#253=EDGE_CURVE('',#202,#204,#100,.T.);
#254=EDGE_CURVE('',#204,#205,#101,.T.);
#255=EDGE_CURVE('',#205,#206,#102,.T.);
#256=EDGE_CURVE('',#188,#206,#103,.T.);
#257=EDGE_CURVE('',#207,#187,#104,.T.);
#258=EDGE_CURVE('',#203,#207,#105,.T.);
#259=EDGE_CURVE('',#192,#208,#106,.T.);
#260=EDGE_CURVE('',#208,#201,#107,.T.);
#261=EDGE_CURVE('',#193,#207,#108,.T.);
#262=EDGE_CURVE('',#208,#204,#162,.T.);
#263=EDGE_CURVE('',#209,#210,#109,.T.);
#264=EDGE_CURVE('',#206,#210,#163,.T.);
#265=EDGE_CURVE('',#205,#209,#164,.T.);
#266=EDGE_CURVE('',#211,#212,#110,.T.);
#267=EDGE_CURVE('',#212,#213,#165,.T.);
#268=EDGE_CURVE('',#213,#214,#111,.T.);
#269=EDGE_CURVE('',#211,#214,#166,.T.);
#270=EDGE_CURVE('',#215,#216,#112,.T.);
#271=EDGE_CURVE('',#216,#197,#167,.T.);
#272=EDGE_CURVE('',#215,#200,#168,.T.);
#273=EDGE_CURVE('',#217,#218,#113,.T.);
#274=EDGE_CURVE('',#219,#218,#169,.T.);
#275=EDGE_CURVE('',#219,#220,#114,.T.);
#276=EDGE_CURVE('',#220,#217,#170,.T.);
#277=EDGE_CURVE('',#210,#211,#171,.T.);
#278=EDGE_CURVE('',#214,#219,#172,.T.);
#279=EDGE_CURVE('',#218,#221,#173,.T.);
#280=EDGE_CURVE('',#221,#215,#174,.T.);
#281=EDGE_CURVE('',#222,#222,#175,.T.);
#282=EDGE_CURVE('',#222,#223,#115,.T.);
#283=EDGE_CURVE('',#220,#223,#176,.T.);
#284=EDGE_CURVE('',#223,#213,#177,.T.);
#285=EDGE_CURVE('',#224,#224,#178,.T.);
#286=EDGE_CURVE('',#224,#225,#116,.T.);
#287=EDGE_CURVE('',#225,#225,#179,.T.);
#288=EDGE_CURVE('',#226,#226,#180,.T.);
#289=EDGE_CURVE('',#226,#221,#117,.T.);
#290=EDGE_CURVE('',#216,#217,#181,.T.);
#291=EDGE_CURVE('',#227,#227,#182,.T.);
#292=EDGE_CURVE('',#227,#228,#118,.T.);
#293=EDGE_CURVE('',#212,#228,#183,.T.);
#294=EDGE_CURVE('',#228,#209,#184,.T.);
#295=ORIENTED_EDGE('',*,*,#229,.F.);
#296=ORIENTED_EDGE('',*,*,#230,.T.);
#297=ORIENTED_EDGE('',*,*,#231,.F.);
#298=ORIENTED_EDGE('',*,*,#230,.F.);
#299=ORIENTED_EDGE('',*,*,#232,.T.);
#300=ORIENTED_EDGE('',*,*,#233,.F.);
#301=ORIENTED_EDGE('',*,*,#234,.T.);
#302=ORIENTED_EDGE('',*,*,#235,.T.);
#303=ORIENTED_EDGE('',*,*,#236,.T.);
#304=ORIENTED_EDGE('',*,*,#237,.F.);
#305=ORIENTED_EDGE('',*,*,#238,.T.);
#306=ORIENTED_EDGE('',*,*,#239,.T.);
#307=ORIENTED_EDGE('',*,*,#240,.T.);
#308=ORIENTED_EDGE('',*,*,#241,.F.);
#309=ORIENTED_EDGE('',*,*,#234,.F.);
#310=ORIENTED_EDGE('',*,*,#242,.T.);
#311=ORIENTED_EDGE('',*,*,#243,.T.);
#312=ORIENTED_EDGE('',*,*,#239,.F.);
#313=ORIENTED_EDGE('',*,*,#244,.F.);
#314=ORIENTED_EDGE('',*,*,#245,.T.);
#315=ORIENTED_EDGE('',*,*,#246,.T.);
#316=ORIENTED_EDGE('',*,*,#247,.T.);
#317=ORIENTED_EDGE('',*,*,#240,.F.);
#318=ORIENTED_EDGE('',*,*,#248,.F.);
#319=ORIENTED_EDGE('',*,*,#245,.F.);
#320=ORIENTED_EDGE('',*,*,#249,.F.);
#321=ORIENTED_EDGE('',*,*,#250,.T.);
#322=ORIENTED_EDGE('',*,*,#251,.T.);
#323=ORIENTED_EDGE('',*,*,#252,.T.);
#324=ORIENTED_EDGE('',*,*,#253,.T.);
#325=ORIENTED_EDGE('',*,*,#254,.T.);
#326=ORIENTED_EDGE('',*,*,#255,.T.);
#327=ORIENTED_EDGE('',*,*,#256,.F.);
#328=ORIENTED_EDGE('',*,*,#232,.F.);
#329=ORIENTED_EDGE('',*,*,#257,.F.);
#330=ORIENTED_EDGE('',*,*,#258,.F.);
#331=ORIENTED_EDGE('',*,*,#251,.F.);
#332=ORIENTED_EDGE('',*,*,#259,.T.);
#333=ORIENTED_EDGE('',*,*,#260,.T.);
#334=ORIENTED_EDGE('',*,*,#252,.F.);
#335=ORIENTED_EDGE('',*,*,#258,.T.);
#336=ORIENTED_EDGE('',*,*,#261,.F.);
#337=ORIENTED_EDGE('',*,*,#237,.T.);
#338=ORIENTED_EDGE('',*,*,#260,.F.);
#339=ORIENTED_EDGE('',*,*,#262,.T.);
#340=ORIENTED_EDGE('',*,*,#253,.F.);
#341=ORIENTED_EDGE('',*,*,#250,.F.);
#342=ORIENTED_EDGE('',*,*,#263,.T.);
#343=ORIENTED_EDGE('',*,*,#264,.F.);
#344=ORIENTED_EDGE('',*,*,#255,.F.);
#345=ORIENTED_EDGE('',*,*,#265,.T.);
#346=ORIENTED_EDGE('',*,*,#266,.T.);
#347=ORIENTED_EDGE('',*,*,#267,.T.);
#348=ORIENTED_EDGE('',*,*,#268,.T.);
#349=ORIENTED_EDGE('',*,*,#269,.F.);
#350=ORIENTED_EDGE('',*,*,#270,.T.);
#351=ORIENTED_EDGE('',*,*,#271,.T.);
#352=ORIENTED_EDGE('',*,*,#247,.F.);
#353=ORIENTED_EDGE('',*,*,#272,.F.);
#354=ORIENTED_EDGE('',*,*,#273,.T.);
#355=ORIENTED_EDGE('',*,*,#274,.F.);
#356=ORIENTED_EDGE('',*,*,#275,.T.);
#357=ORIENTED_EDGE('',*,*,#276,.T.);
#358=ORIENTED_EDGE('',*,*,#277,.T.);
#359=ORIENTED_EDGE('',*,*,#269,.T.);
#360=ORIENTED_EDGE('',*,*,#278,.T.);
#361=ORIENTED_EDGE('',*,*,#274,.T.);
#362=ORIENTED_EDGE('',*,*,#279,.T.);
#363=ORIENTED_EDGE('',*,*,#280,.T.);
#364=ORIENTED_EDGE('',*,*,#272,.T.);
#365=ORIENTED_EDGE('',*,*,#246,.F.);
#366=ORIENTED_EDGE('',*,*,#248,.T.);
#367=ORIENTED_EDGE('',*,*,#242,.F.);
#368=ORIENTED_EDGE('',*,*,#233,.T.);
#369=ORIENTED_EDGE('',*,*,#256,.T.);
#370=ORIENTED_EDGE('',*,*,#264,.T.);
#371=ORIENTED_EDGE('',*,*,#281,.F.);
#372=ORIENTED_EDGE('',*,*,#282,.T.);
#373=ORIENTED_EDGE('',*,*,#283,.F.);
#374=ORIENTED_EDGE('',*,*,#275,.F.);
#375=ORIENTED_EDGE('',*,*,#278,.F.);
#376=ORIENTED_EDGE('',*,*,#268,.F.);
#377=ORIENTED_EDGE('',*,*,#284,.F.);
#378=ORIENTED_EDGE('',*,*,#282,.F.);
#379=ORIENTED_EDGE('',*,*,#285,.F.);
#380=ORIENTED_EDGE('',*,*,#286,.T.);
#381=ORIENTED_EDGE('',*,*,#287,.F.);
#382=ORIENTED_EDGE('',*,*,#286,.F.);
#383=ORIENTED_EDGE('',*,*,#288,.F.);
#384=ORIENTED_EDGE('',*,*,#289,.T.);
#385=ORIENTED_EDGE('',*,*,#279,.F.);
#386=ORIENTED_EDGE('',*,*,#273,.F.);
#387=ORIENTED_EDGE('',*,*,#290,.F.);
#388=ORIENTED_EDGE('',*,*,#270,.F.);
#389=ORIENTED_EDGE('',*,*,#280,.F.);
#390=ORIENTED_EDGE('',*,*,#289,.F.);
#391=ORIENTED_EDGE('',*,*,#291,.F.);
#392=ORIENTED_EDGE('',*,*,#292,.T.);
#393=ORIENTED_EDGE('',*,*,#293,.F.);
#394=ORIENTED_EDGE('',*,*,#266,.F.);
#395=ORIENTED_EDGE('',*,*,#277,.F.);
#396=ORIENTED_EDGE('',*,*,#263,.F.);
#397=ORIENTED_EDGE('',*,*,#294,.F.);
#398=ORIENTED_EDGE('',*,*,#292,.F.);
#399=ORIENTED_EDGE('',*,*,#249,.T.);
#400=ORIENTED_EDGE('',*,*,#244,.T.);
#401=ORIENTED_EDGE('',*,*,#238,.F.);
#402=ORIENTED_EDGE('',*,*,#261,.T.);
#403=ORIENTED_EDGE('',*,*,#257,.T.);
#404=ORIENTED_EDGE('',*,*,#235,.F.);
#405=ORIENTED_EDGE('',*,*,#241,.T.);
#406=ORIENTED_EDGE('',*,*,#229,.T.);
#407=ORIENTED_EDGE('',*,*,#281,.T.);
#408=ORIENTED_EDGE('',*,*,#285,.T.);
#409=ORIENTED_EDGE('',*,*,#288,.T.);
#410=ORIENTED_EDGE('',*,*,#291,.T.);
#411=ORIENTED_EDGE('',*,*,#293,.T.);
#412=ORIENTED_EDGE('',*,*,#294,.T.);
#413=ORIENTED_EDGE('',*,*,#265,.F.);
#414=ORIENTED_EDGE('',*,*,#254,.F.);
#415=ORIENTED_EDGE('',*,*,#262,.F.);
#416=ORIENTED_EDGE('',*,*,#259,.F.);
#417=ORIENTED_EDGE('',*,*,#236,.F.);
#418=ORIENTED_EDGE('',*,*,#243,.F.);
#419=ORIENTED_EDGE('',*,*,#271,.F.);
#420=ORIENTED_EDGE('',*,*,#290,.T.);
#421=ORIENTED_EDGE('',*,*,#276,.F.);
#422=ORIENTED_EDGE('',*,*,#283,.T.);
#423=ORIENTED_EDGE('',*,*,#284,.T.);
#424=ORIENTED_EDGE('',*,*,#267,.F.);
#425=ORIENTED_EDGE('',*,*,#231,.T.);
#426=ORIENTED_EDGE('',*,*,#287,.T.);
#427=CYLINDRICAL_SURFACE('',#473,6.);
#428=CYLINDRICAL_SURFACE('',#477,14.);
#429=CYLINDRICAL_SURFACE('',#487,17.65);
#430=CYLINDRICAL_SURFACE('',#489,17.65);
#431=CYLINDRICAL_SURFACE('',#492,17.65);
#432=CYLINDRICAL_SURFACE('',#495,17.65);
#433=CYLINDRICAL_SURFACE('',#498,17.65);
#434=CYLINDRICAL_SURFACE('',#506,1.45);
#435=CYLINDRICAL_SURFACE('',#510,1.45);
#436=CYLINDRICAL_SURFACE('',#513,1.45);
#437=CYLINDRICAL_SURFACE('',#516,1.45);
#438=ADVANCED_FACE('',(#32),#427,.F.);
#439=ADVANCED_FACE('',(#33),#22,.T.);
#440=ADVANCED_FACE('',(#34),#428,.T.);
#441=ADVANCED_FACE('',(#35),#23,.T.);
#442=ADVANCED_FACE('',(#36),#24,.T.);
#443=ADVANCED_FACE('',(#37),#25,.F.);
#444=ADVANCED_FACE('',(#38),#26,.T.);
#445=ADVANCED_FACE('',(#39),#27,.F.);
#446=ADVANCED_FACE('',(#40),#28,.T.);
#447=ADVANCED_FACE('',(#41),#429,.F.);
#448=ADVANCED_FACE('',(#42),#430,.F.);
#449=ADVANCED_FACE('',(#43),#431,.F.);
#450=ADVANCED_FACE('',(#44),#432,.F.);
#451=ADVANCED_FACE('',(#45),#433,.F.);
#452=ADVANCED_FACE('',(#46),#29,.T.);
#453=ADVANCED_FACE('',(#47),#434,.F.);
#454=ADVANCED_FACE('',(#48),#435,.F.);
#455=ADVANCED_FACE('',(#49),#436,.F.);
#456=ADVANCED_FACE('',(#50),#437,.F.);
#457=ADVANCED_FACE('',(#51,#15,#16,#17,#18,#19),#30,.F.);
#458=ADVANCED_FACE('',(#52,#20,#21),#31,.F.);
#459=CLOSED_SHELL('',(#438,#439,#440,#441,#442,#443,#444,#445,#446,#447,
#448,#449,#450,#451,#452,#453,#454,#455,#456,#457,#458));
#460=DERIVED_UNIT_ELEMENT(#462,1.);
#461=DERIVED_UNIT_ELEMENT(#797,-3.);
#462=(
MASS_UNIT()
NAMED_UNIT(*)
SI_UNIT(.KILO.,.GRAM.)
);
#463=DERIVED_UNIT((#460,#461));
#464=MEASURE_REPRESENTATION_ITEM('density measure',
POSITIVE_RATIO_MEASURE(7850.),#463);
#465=PROPERTY_DEFINITION_REPRESENTATION(#470,#467);
#466=PROPERTY_DEFINITION_REPRESENTATION(#471,#468);
#467=REPRESENTATION('material name',(#469),#794);
#468=REPRESENTATION('density',(#464),#794);
#469=DESCRIPTIVE_REPRESENTATION_ITEM('Steel','Steel');
#470=PROPERTY_DEFINITION('material property','material name',#804);
#471=PROPERTY_DEFINITION('material property','density of part',#804);
#472=AXIS2_PLACEMENT_3D('',#660,#522,#523);
#473=AXIS2_PLACEMENT_3D('',#661,#524,#525);
#474=AXIS2_PLACEMENT_3D('',#663,#526,#527);
#475=AXIS2_PLACEMENT_3D('',#666,#529,#530);
#476=AXIS2_PLACEMENT_3D('',#667,#531,#532);
#477=AXIS2_PLACEMENT_3D('',#676,#537,#538);
#478=AXIS2_PLACEMENT_3D('',#679,#539,#540);
#479=AXIS2_PLACEMENT_3D('',#683,#542,#543);
#480=AXIS2_PLACEMENT_3D('',#685,#545,#546);
#481=AXIS2_PLACEMENT_3D('',#691,#550,#551);
#482=AXIS2_PLACEMENT_3D('',#701,#557,#558);
#483=AXIS2_PLACEMENT_3D('',#704,#561,#562);
#484=AXIS2_PLACEMENT_3D('',#707,#563,#564);
#485=AXIS2_PLACEMENT_3D('',#711,#567,#568);
#486=AXIS2_PLACEMENT_3D('',#722,#575,#576);
#487=AXIS2_PLACEMENT_3D('',#727,#580,#581);
#488=AXIS2_PLACEMENT_3D('',#728,#582,#583);
#489=AXIS2_PLACEMENT_3D('',#729,#584,#585);
#490=AXIS2_PLACEMENT_3D('',#733,#587,#588);
#491=AXIS2_PLACEMENT_3D('',#734,#589,#590);
#492=AXIS2_PLACEMENT_3D('',#735,#591,#592);
#493=AXIS2_PLACEMENT_3D('',#740,#594,#595);
#494=AXIS2_PLACEMENT_3D('',#743,#597,#598);
#495=AXIS2_PLACEMENT_3D('',#744,#599,#600);
#496=AXIS2_PLACEMENT_3D('',#748,#602,#603);
#497=AXIS2_PLACEMENT_3D('',#749,#604,#605);
#498=AXIS2_PLACEMENT_3D('',#750,#606,#607);
#499=AXIS2_PLACEMENT_3D('',#755,#609,#610);
#500=AXIS2_PLACEMENT_3D('',#758,#612,#613);
#501=AXIS2_PLACEMENT_3D('',#759,#614,#615);
#502=AXIS2_PLACEMENT_3D('',#760,#616,#617);
#503=AXIS2_PLACEMENT_3D('',#761,#618,#619);
#504=AXIS2_PLACEMENT_3D('',#763,#620,#621);
#505=AXIS2_PLACEMENT_3D('',#764,#622,#623);
#506=AXIS2_PLACEMENT_3D('',#765,#624,#625);
#507=AXIS2_PLACEMENT_3D('',#767,#626,#627);
#508=AXIS2_PLACEMENT_3D('',#770,#629,#630);
#509=AXIS2_PLACEMENT_3D('',#771,#631,#632);
#510=AXIS2_PLACEMENT_3D('',#772,#633,#634);
#511=AXIS2_PLACEMENT_3D('',#774,#635,#636);
#512=AXIS2_PLACEMENT_3D('',#777,#638,#639);
#513=AXIS2_PLACEMENT_3D('',#778,#640,#641);
#514=AXIS2_PLACEMENT_3D('',#780,#642,#643);
#515=AXIS2_PLACEMENT_3D('',#782,#645,#646);
#516=AXIS2_PLACEMENT_3D('',#783,#647,#648);
#517=AXIS2_PLACEMENT_3D('',#785,#649,#650);
#518=AXIS2_PLACEMENT_3D('',#788,#652,#653);
#519=AXIS2_PLACEMENT_3D('',#789,#654,#655);
#520=AXIS2_PLACEMENT_3D('',#790,#656,#657);
#521=AXIS2_PLACEMENT_3D('',#791,#658,#659);
#522=DIRECTION('axis',(0.,0.,1.));
#523=DIRECTION('refdir',(1.,0.,0.));
#524=DIRECTION('center_axis',(-1.,0.,0.));
#525=DIRECTION('ref_axis',(0.,1.,0.));
#526=DIRECTION('center_axis',(-1.,0.,0.));
#527=DIRECTION('ref_axis',(0.,1.,0.));
#528=DIRECTION('',(-1.,0.,0.));
#529=DIRECTION('center_axis',(1.,0.,0.));
#530=DIRECTION('ref_axis',(0.,1.,0.));
#531=DIRECTION('center_axis',(0.,1.,0.));
#532=DIRECTION('ref_axis',(0.,0.,-1.));
#533=DIRECTION('',(-1.,0.,0.));
#534=DIRECTION('',(0.,0.,-1.));
#535=DIRECTION('',(1.,0.,0.));
#536=DIRECTION('',(0.,0.,-1.));
#537=DIRECTION('center_axis',(-1.,0.,0.));
#538=DIRECTION('ref_axis',(0.,-1.,0.));
#539=DIRECTION('center_axis',(1.,0.,0.));
#540=DIRECTION('ref_axis',(0.,-1.,0.));
#541=DIRECTION('',(-1.,0.,0.));
#542=DIRECTION('center_axis',(-1.,0.,0.));
#543=DIRECTION('ref_axis',(0.,-1.,0.));
#544=DIRECTION('',(-1.,0.,0.));
#545=DIRECTION('center_axis',(0.,0.997909706021553,-0.0646236692549784));
#546=DIRECTION('ref_axis',(0.,0.0646236692549784,0.997909706021553));
#547=DIRECTION('',(1.,0.,0.));
#548=DIRECTION('',(0.,0.0646236692549784,0.997909706021553));
#549=DIRECTION('',(0.,0.0646236692549784,0.997909706021553));
#550=DIRECTION('center_axis',(0.,-0.972548028812953,0.232702238175828));
#551=DIRECTION('ref_axis',(0.,-0.232702238175828,-0.972548028812953));
#552=DIRECTION('',(0.,-0.232702238175828,-0.972548028812953));
#553=DIRECTION('',(0.,-0.232702238175828,-0.972548028812953));
#554=DIRECTION('',(-1.,0.,0.));
#555=DIRECTION('',(0.,-0.232702238175828,-0.972548028812953));
#556=DIRECTION('',(1.,0.,0.));
#557=DIRECTION('center_axis',(0.,-0.355553416295793,-0.934655962459124));
#558=DIRECTION('ref_axis',(-1.,0.,0.));
#559=DIRECTION('',(0.,0.934655962459124,-0.355553416295793));
#560=DIRECTION('',(0.,-0.934655962459124,0.355553416295793));
#561=DIRECTION('center_axis',(-1.,0.,0.));
#562=DIRECTION('ref_axis',(0.,-1.,0.));
#563=DIRECTION('center_axis',(1.,0.,0.));
#564=DIRECTION('ref_axis',(0.,1.,0.));
#565=DIRECTION('',(0.,-1.,0.));
#566=DIRECTION('',(0.,0.,1.));
#567=DIRECTION('center_axis',(0.,0.,1.));
#568=DIRECTION('ref_axis',(1.,0.,0.));
#569=DIRECTION('',(1.,0.,0.));
#570=DIRECTION('',(0.,1.,0.));
#571=DIRECTION('',(-1.,0.,0.));
#572=DIRECTION('',(0.,-1.,0.));
#573=DIRECTION('',(0.,1.,0.));
#574=DIRECTION('',(1.,0.,0.));
#575=DIRECTION('center_axis',(0.,-1.,0.));
#576=DIRECTION('ref_axis',(0.,0.,1.));
#577=DIRECTION('',(0.,0.,-1.));
#578=DIRECTION('',(-1.,0.,0.));
#579=DIRECTION('',(0.,0.,-1.));
#580=DIRECTION('center_axis',(-1.,0.,0.));
#581=DIRECTION('ref_axis',(0.,1.,0.));
#582=DIRECTION('center_axis',(1.,0.,0.));
#583=DIRECTION('ref_axis',(0.,1.,0.));
#584=DIRECTION('center_axis',(-1.,0.,0.));
#585=DIRECTION('ref_axis',(0.,1.,0.));
#586=DIRECTION('',(-1.,0.,0.));
#587=DIRECTION('center_axis',(1.,0.,0.));
#588=DIRECTION('ref_axis',(0.,1.,0.));
#589=DIRECTION('center_axis',(1.,0.,0.));
#590=DIRECTION('ref_axis',(0.,1.,0.));
#591=DIRECTION('center_axis',(-1.,0.,0.));
#592=DIRECTION('ref_axis',(0.,1.,0.));
#593=DIRECTION('',(1.,0.,0.));
#594=DIRECTION('center_axis',(1.,0.,0.));
#595=DIRECTION('ref_axis',(0.,1.,0.));
#596=DIRECTION('',(-1.,0.,0.));
#597=DIRECTION('center_axis',(1.,0.,0.));
#598=DIRECTION('ref_axis',(0.,1.,0.));
#599=DIRECTION('center_axis',(-1.,0.,0.));
#600=DIRECTION('ref_axis',(0.,1.,0.));
#601=DIRECTION('',(1.,0.,0.));
#602=DIRECTION('center_axis',(1.,0.,0.));
#603=DIRECTION('ref_axis',(0.,1.,0.));
#604=DIRECTION('center_axis',(1.,0.,0.));
#605=DIRECTION('ref_axis',(0.,1.,0.));
#606=DIRECTION('center_axis',(-1.,0.,0.));
#607=DIRECTION('ref_axis',(0.,1.,0.));
#608=DIRECTION('',(-1.,0.,0.));
#609=DIRECTION('center_axis',(1.,0.,0.));
#610=DIRECTION('ref_axis',(0.,1.,0.));
#611=DIRECTION('',(1.,0.,0.));
#612=DIRECTION('center_axis',(1.,0.,0.));
#613=DIRECTION('ref_axis',(0.,1.,0.));
#614=DIRECTION('center_axis',(-1.,0.,0.));
#615=DIRECTION('ref_axis',(0.,-1.,0.));
#616=DIRECTION('center_axis',(1.,0.,0.));
#617=DIRECTION('ref_axis',(0.,1.,0.));
#618=DIRECTION('center_axis',(1.,0.,0.));
#619=DIRECTION('ref_axis',(0.,1.,0.));
#620=DIRECTION('center_axis',(1.,0.,0.));
#621=DIRECTION('ref_axis',(0.,1.,0.));
#622=DIRECTION('center_axis',(1.,0.,0.));
#623=DIRECTION('ref_axis',(0.,1.,0.));
#624=DIRECTION('center_axis',(-1.,0.,0.));
#625=DIRECTION('ref_axis',(0.,1.,0.));
#626=DIRECTION('center_axis',(-1.,0.,0.));
#627=DIRECTION('ref_axis',(0.,1.,0.));
#628=DIRECTION('',(-1.,0.,0.));
#629=DIRECTION('center_axis',(1.,0.,0.));
#630=DIRECTION('ref_axis',(0.,1.,0.));
#631=DIRECTION('center_axis',(1.,0.,0.));
#632=DIRECTION('ref_axis',(0.,1.,0.));
#633=DIRECTION('center_axis',(-1.,0.,0.));
#634=DIRECTION('ref_axis',(0.,1.,0.));
#635=DIRECTION('center_axis',(-1.,0.,0.));
#636=DIRECTION('ref_axis',(0.,1.,0.));
#637=DIRECTION('',(-1.,0.,0.));
#638=DIRECTION('center_axis',(1.,0.,0.));
#639=DIRECTION('ref_axis',(0.,1.,0.));
#640=DIRECTION('center_axis',(-1.,0.,0.));
#641=DIRECTION('ref_axis',(0.,1.,0.));
#642=DIRECTION('center_axis',(-1.,0.,0.));
#643=DIRECTION('ref_axis',(0.,1.,0.));
#644=DIRECTION('',(-1.,0.,0.));
#645=DIRECTION('center_axis',(1.,0.,0.));
#646=DIRECTION('ref_axis',(0.,1.,0.));
#647=DIRECTION('center_axis',(-1.,0.,0.));
#648=DIRECTION('ref_axis',(0.,1.,0.));
#649=DIRECTION('center_axis',(-1.,0.,0.));
#650=DIRECTION('ref_axis',(0.,1.,0.));
#651=DIRECTION('',(-1.,0.,0.));
#652=DIRECTION('center_axis',(1.,0.,0.));
#653=DIRECTION('ref_axis',(0.,1.,0.));
#654=DIRECTION('center_axis',(1.,0.,0.));
#655=DIRECTION('ref_axis',(0.,1.,0.));
#656=DIRECTION('center_axis',(-1.,0.,0.));
#657=DIRECTION('ref_axis',(0.,-1.,0.));
#658=DIRECTION('center_axis',(1.,0.,0.));
#659=DIRECTION('ref_axis',(0.,1.,0.));
#660=CARTESIAN_POINT('',(0.,0.,0.));
#661=CARTESIAN_POINT('Origin',(57.7374999999999,-39.3380727951098,1.38816309394562));
#662=CARTESIAN_POINT('',(57.7374999999999,-45.3380727951098,1.38816309394562));
#663=CARTESIAN_POINT('Origin',(57.7374999999999,-39.3380727951098,1.38816309394562));
#664=CARTESIAN_POINT('',(54.7800001621247,-45.3380727951098,1.38816309394562));
#665=CARTESIAN_POINT('',(57.7374999999999,-45.3380727951098,1.38816309394562));
#666=CARTESIAN_POINT('Origin',(54.7800001621247,-39.3380727951098,1.38816309394562));
#667=CARTESIAN_POINT('Origin',(57.7374999999999,-20.3531626241538,1.00000000000303));
#668=CARTESIAN_POINT('',(57.7374999999999,-20.3531626241538,-15.9999999999981));
#669=CARTESIAN_POINT('',(54.7375,-20.3531626241538,-15.9999999999981));
#670=CARTESIAN_POINT('',(57.7374999999999,-20.3531626241538,-15.9999999999981));
#671=CARTESIAN_POINT('',(54.7375,-20.3531626241538,0.));
#672=CARTESIAN_POINT('',(54.7375,-20.3531626241538,1.00000000000303));
#673=CARTESIAN_POINT('',(57.7374999999999,-20.3531626241538,0.));
#674=CARTESIAN_POINT('',(56.2375000000001,-20.3531626241538,-3.39311911901062E-14));
#675=CARTESIAN_POINT('',(57.7374999999999,-20.3531626241538,1.00000000000303));
#676=CARTESIAN_POINT('Origin',(57.7374999999999,-34.3531626241538,1.00000000000303));
#677=CARTESIAN_POINT('',(54.7800001621247,-47.9688350275351,4.25783133446462));
#678=CARTESIAN_POINT('',(54.7800001621247,-48.3531626241537,1.00000000000303));
#679=CARTESIAN_POINT('Origin',(54.7800001621247,-34.3531626241538,1.00000000000303));
#680=CARTESIAN_POINT('',(57.7374999999999,-48.3531626241537,1.00000000000303));
#681=CARTESIAN_POINT('',(57.7374999999999,-48.3531626241537,1.00000000000303));
#682=CARTESIAN_POINT('',(57.7374999999999,-47.9688350275351,4.25783133446462));
#683=CARTESIAN_POINT('Origin',(57.7374999999999,-34.3531626241538,1.00000000000303));
#684=CARTESIAN_POINT('',(57.7374999999999,-47.9688350275351,4.25783133446462));
#685=CARTESIAN_POINT('Origin',(54.7375,-20.3531626241538,0.));
#686=CARTESIAN_POINT('',(54.7375,-19.3227413114535,15.9116224920313));
#687=CARTESIAN_POINT('',(57.7374999999999,-19.3227413114535,15.9116224920313));
#688=CARTESIAN_POINT('',(55.4875000000001,-19.3227413114535,15.9116224920314));
#689=CARTESIAN_POINT('',(57.7374999999999,-20.3531626241538,0.));
#690=CARTESIAN_POINT('',(54.7375,-20.3531626241538,0.));
#691=CARTESIAN_POINT('Origin',(54.7375,-42.5538990614782,26.8888354073949));
#692=CARTESIAN_POINT('',(54.7800001621247,-44.6263499570715,18.2273027589723));
#693=CARTESIAN_POINT('',(54.7800001621247,-45.3524109227941,15.1928276007319));
#694=CARTESIAN_POINT('',(57.7374999999999,-43.0231817416745,24.9275309130388));
#695=CARTESIAN_POINT('',(57.7374999999999,-42.5538990614782,26.8888354073949));
#696=CARTESIAN_POINT('',(54.7375,-43.0231817416745,24.9275309130387));
#697=CARTESIAN_POINT('',(55.4875000000001,-43.0231817416745,24.9275309130388));
#698=CARTESIAN_POINT('',(54.7375,-44.6263499570715,18.2273027589723));
#699=CARTESIAN_POINT('',(54.7375,-42.5538990614782,26.8888354073949));
#700=CARTESIAN_POINT('',(54.7800001621247,-44.6263499570715,18.2273027589723));
#701=CARTESIAN_POINT('Origin',(56.2375000000001,-31.5818063633305,20.5751057787792));
#702=CARTESIAN_POINT('',(54.7375,-29.1243086082203,19.6402465819579));
#703=CARTESIAN_POINT('',(57.7374999999999,-29.1243086082203,19.6402465819579));
#704=CARTESIAN_POINT('Origin',(54.7375,-34.3531626241538,-1.49999999999753));
#705=CARTESIAN_POINT('',(54.7375,-48.3531626241537,-13.785849406849));
#706=CARTESIAN_POINT('',(54.7375,-42.3669808852329,-15.9999999999981));
#707=CARTESIAN_POINT('Origin',(54.7375,-39.3380727951098,1.38816309394562));
#708=CARTESIAN_POINT('',(54.7375,-48.3531626241537,-15.999999999997));
#709=CARTESIAN_POINT('',(54.7375,-27.3531626241539,-15.9999999999981));
#710=CARTESIAN_POINT('',(54.7375,-48.3531626241537,1.00000000000303));
#711=CARTESIAN_POINT('Origin',(57.7374999999999,-20.3531626241538,-15.9999999999981));
#712=CARTESIAN_POINT('',(54.7800001621247,-42.3669808852329,-15.9999999999981));
#713=CARTESIAN_POINT('',(54.7800001621247,-42.3669808852329,-15.9999999999981));
#714=CARTESIAN_POINT('',(54.7800001621247,-36.3091647049867,-15.9999999999981));
#715=CARTESIAN_POINT('',(54.7800001621247,-29.8456177096318,-15.9999999999981));
#716=CARTESIAN_POINT('',(54.7375,-36.3091647049867,-15.9999999999981));
#717=CARTESIAN_POINT('',(54.7800001621247,-36.3091647049867,-15.9999999999981));
#718=CARTESIAN_POINT('',(54.7375,-27.3531626241539,-15.9999999999981));
#719=CARTESIAN_POINT('',(57.7374999999999,-48.3531626241537,-15.999999999997));
#720=CARTESIAN_POINT('',(57.7374999999999,-27.3531626241539,-15.9999999999981));
#721=CARTESIAN_POINT('',(57.7374999999999,-48.3531626241537,-15.9999999999981));
#722=CARTESIAN_POINT('Origin',(57.7374999999999,-48.3531626241537,-17.999999999997));
#723=CARTESIAN_POINT('',(54.7800001621247,-48.3531626241537,-13.785849406849));
#724=CARTESIAN_POINT('',(54.7800001621247,-48.3531626241537,-8.30591845302567));
#725=CARTESIAN_POINT('',(54.7800001621247,-48.3531626241537,-13.785849406849));
#726=CARTESIAN_POINT('',(57.7374999999999,-48.3531626241537,1.00000000000303));
#727=CARTESIAN_POINT('Origin',(54.7800001621247,-39.3380727951098,1.38816309394562));
#728=CARTESIAN_POINT('Origin',(54.7800001621247,-39.3380727951098,1.38816309394562));
#729=CARTESIAN_POINT('Origin',(54.7800001621247,-39.3380727951098,1.38816309394562));
#730=CARTESIAN_POINT('',(54.7800001621247,-30.5028165592272,-13.8912592526713));
#731=CARTESIAN_POINT('',(54.7375,-30.5028165592272,-13.8912592526713));
#732=CARTESIAN_POINT('',(57.7374999999999,-30.5028165592272,-13.8912592526713));
#733=CARTESIAN_POINT('Origin',(54.7375,-39.3380727951098,1.38816309394562));
#734=CARTESIAN_POINT('Origin',(54.7800001621247,-39.3380727951098,1.38816309394562));
#735=CARTESIAN_POINT('Origin',(54.7800001621247,-39.3380727951098,1.38816309394562));
#736=CARTESIAN_POINT('',(54.7375,-28.1810536459343,-12.2882188729684));
#737=CARTESIAN_POINT('',(54.7800001621247,-28.1810536459343,-12.2882188729684));
#738=CARTESIAN_POINT('',(57.7374999999999,-28.1810536459343,-12.2882188729684));
#739=CARTESIAN_POINT('',(54.7800001621247,-27.3245596339915,14.318669716953));
#740=CARTESIAN_POINT('Origin',(54.7800001621247,-39.3380727951098,1.38816309394562));
#741=CARTESIAN_POINT('',(54.7375,-27.3245596339915,14.318669716953));
#742=CARTESIAN_POINT('',(57.7374999999999,-27.3245596339915,14.318669716953));
#743=CARTESIAN_POINT('Origin',(54.7375,-39.3380727951098,1.38816309394562));
#744=CARTESIAN_POINT('Origin',(54.7800001621247,-39.3380727951098,1.38816309394562));
#745=CARTESIAN_POINT('',(54.7375,-38.2364510664014,19.0037507811855));
#746=CARTESIAN_POINT('',(54.7800001621247,-38.2364510664014,19.0037507811855));
#747=CARTESIAN_POINT('',(57.7374999999999,-38.2364510664013,19.0037507811855));
#748=CARTESIAN_POINT('Origin',(54.7800001621247,-39.3380727951098,1.38816309394562));
#749=CARTESIAN_POINT('Origin',(54.7375,-39.3380727951098,1.38816309394562));
#750=CARTESIAN_POINT('Origin',(54.7800001621247,-39.3380727951098,1.38816309394562));
#751=CARTESIAN_POINT('',(54.7800001621247,-35.4681830285424,18.6086872786102));
#752=CARTESIAN_POINT('',(54.7375,-35.4681830285424,18.6086872786102));
#753=CARTESIAN_POINT('',(57.7374999999999,-35.4681830285424,18.6086872786102));
#754=CARTESIAN_POINT('',(54.7375,-29.3204108153138,15.9198164224059));
#755=CARTESIAN_POINT('Origin',(54.7375,-39.3380727951098,1.38816309394562));
#756=CARTESIAN_POINT('',(54.7800001621247,-29.3204108153138,15.9198164224059));
#757=CARTESIAN_POINT('',(57.7374999999999,-29.3204108153138,15.9198164224059));
#758=CARTESIAN_POINT('Origin',(54.7800001621247,-39.3380727951098,1.38816309394562));
#759=CARTESIAN_POINT('Origin',(54.7375,-34.3531626241538,-1.49999999999753));
#760=CARTESIAN_POINT('Origin',(54.7375,-29.5324374063516,-12.8138251249102));
#761=CARTESIAN_POINT('Origin',(54.7375,-27.8954413409835,15.6515590884395));
#762=CARTESIAN_POINT('',(54.7375,-38.2480290773633,19.1866228169149));
#763=CARTESIAN_POINT('Origin',(54.7375,-36.7980290773633,19.1866228169149));
#764=CARTESIAN_POINT('Origin',(54.7375,-36.7980290773633,19.1866228169149));
#765=CARTESIAN_POINT('Origin',(57.7374999999999,-27.8954413409835,15.6515590884395));
#766=CARTESIAN_POINT('',(57.7374999999999,-29.3454413409835,15.6515590884395));
#767=CARTESIAN_POINT('Origin',(57.7374999999999,-27.8954413409835,15.6515590884395));
#768=CARTESIAN_POINT('',(54.7800001621247,-29.3454413409835,15.6515590884395));
#769=CARTESIAN_POINT('',(57.7374999999999,-29.3454413409835,15.6515590884395));
#770=CARTESIAN_POINT('Origin',(54.7800001621247,-27.8954413409835,15.6515590884395));
#771=CARTESIAN_POINT('Origin',(54.7800001621247,-27.8954413409835,15.6515590884395));
#772=CARTESIAN_POINT('Origin',(57.7374999999999,-39.0742577163694,-12.8138251249102));
#773=CARTESIAN_POINT('',(57.7374999999999,-40.5242577163694,-12.8138251249102));
#774=CARTESIAN_POINT('Origin',(57.7374999999999,-39.0742577163694,-12.8138251249102));
#775=CARTESIAN_POINT('',(54.7800001621247,-40.5242577163694,-12.8138251249102));
#776=CARTESIAN_POINT('',(57.7374999999999,-40.5242577163694,-12.8138251249102));
#777=CARTESIAN_POINT('Origin',(54.7800001621247,-39.0742577163694,-12.8138251249102));
#778=CARTESIAN_POINT('Origin',(57.7374999999999,-36.7980290773633,19.1866228169149));
#779=CARTESIAN_POINT('',(57.7374999999999,-38.2480290773633,19.1866228169149));
#780=CARTESIAN_POINT('Origin',(57.7374999999999,-36.7980290773633,19.1866228169149));
#781=CARTESIAN_POINT('',(57.7374999999999,-38.2480290773633,19.1866228169149));
#782=CARTESIAN_POINT('Origin',(54.7800001621247,-36.7980290773633,19.1866228169149));
#783=CARTESIAN_POINT('Origin',(57.7374999999999,-29.5324374063516,-12.8138251249102));
#784=CARTESIAN_POINT('',(57.7374999999999,-30.9824374063516,-12.8138251249102));
#785=CARTESIAN_POINT('Origin',(57.7374999999999,-29.5324374063516,-12.8138251249102));
#786=CARTESIAN_POINT('',(54.7800001621247,-30.9824374063516,-12.8138251249102));
#787=CARTESIAN_POINT('',(57.7374999999999,-30.9824374063516,-12.8138251249102));
#788=CARTESIAN_POINT('Origin',(54.7800001621247,-29.5324374063516,-12.8138251249102));
#789=CARTESIAN_POINT('Origin',(54.7800001621247,-29.5324374063516,-12.8138251249102));
#790=CARTESIAN_POINT('Origin',(57.7374999999999,-34.3531626241538,-1.49999999999753));
#791=CARTESIAN_POINT('Origin',(54.7800001621247,-39.3380727951098,1.38816309394562));
#792=UNCERTAINTY_MEASURE_WITH_UNIT(LENGTH_MEASURE(0.01),#796,
'DISTANCE_ACCURACY_VALUE',
'Maximum model space distance between geometric entities at asserted c
onnectivities');
#793=UNCERTAINTY_MEASURE_WITH_UNIT(LENGTH_MEASURE(0.01),#796,
'DISTANCE_ACCURACY_VALUE',
'Maximum model space distance between geometric entities at asserted c
onnectivities');
#794=(
GEOMETRIC_REPRESENTATION_CONTEXT(3)
GLOBAL_UNCERTAINTY_ASSIGNED_CONTEXT((#792))
GLOBAL_UNIT_ASSIGNED_CONTEXT((#796,#798,#799))
REPRESENTATION_CONTEXT('','3D')
);
#795=(
GEOMETRIC_REPRESENTATION_CONTEXT(3)
GLOBAL_UNCERTAINTY_ASSIGNED_CONTEXT((#793))
GLOBAL_UNIT_ASSIGNED_CONTEXT((#796,#798,#799))
REPRESENTATION_CONTEXT('','3D')
);
#796=(
LENGTH_UNIT()
NAMED_UNIT(*)
SI_UNIT(.MILLI.,.METRE.)
);
#797=(
LENGTH_UNIT()
NAMED_UNIT(*)
SI_UNIT($,.METRE.)
);
#798=(
NAMED_UNIT(*)
PLANE_ANGLE_UNIT()
SI_UNIT($,.RADIAN.)
);
#799=(
NAMED_UNIT(*)
SI_UNIT($,.STERADIAN.)
SOLID_ANGLE_UNIT()
);
#800=SHAPE_DEFINITION_REPRESENTATION(#801,#802);
#801=PRODUCT_DEFINITION_SHAPE('',$,#804);
#802=SHAPE_REPRESENTATION('',(#472),#794);
#803=PRODUCT_DEFINITION_CONTEXT('part definition',#808,'design');
#804=PRODUCT_DEFINITION('Component64','Component64',#805,#803);
#805=PRODUCT_DEFINITION_FORMATION('',$,#810);
#806=PRODUCT_RELATED_PRODUCT_CATEGORY('Component64','Component64',(#810));
#807=APPLICATION_PROTOCOL_DEFINITION('international standard',
'automotive_design',2009,#808);
#808=APPLICATION_CONTEXT(
'Core Data for Automotive Mechanical Design Process');
#809=PRODUCT_CONTEXT('part definition',#808,'mechanical');
#810=PRODUCT('Component64','Component64',$,(#809));
#811=PRESENTATION_STYLE_ASSIGNMENT((#813));
#812=PRESENTATION_STYLE_ASSIGNMENT((#814));
#813=SURFACE_STYLE_USAGE(.BOTH.,#815);
#814=SURFACE_STYLE_USAGE(.BOTH.,#816);
#815=SURFACE_SIDE_STYLE('',(#817));
#816=SURFACE_SIDE_STYLE('',(#818));
#817=SURFACE_STYLE_FILL_AREA(#819);
#818=SURFACE_STYLE_FILL_AREA(#820);
#819=FILL_AREA_STYLE('Steel - Satin',(#821));
#820=FILL_AREA_STYLE('Opaque(245,245,246)',(#822));
#821=FILL_AREA_STYLE_COLOUR('Steel - Satin',#823);
#822=FILL_AREA_STYLE_COLOUR('Opaque(245,245,246)',#824);
#823=COLOUR_RGB('Steel - Satin',0.627450980392157,0.627450980392157,0.627450980392157);
#824=COLOUR_RGB('Opaque(245,245,246)',0.96078431372549,0.96078431372549,
0.964705882352941);
ENDSEC;
END-ISO-10303-21;
