ISO-10303-21;
HEADER;
/* Generated by software containing ST-Developer
 * from STEP Tools, Inc. (www.steptools.com) 
 */

FILE_DESCRIPTION(
/* description */ (''),
/* implementation_level */ '2;1');

FILE_NAME(
/* name */ 'Shaft_Spacer.step',
/* time_stamp */ '2026-09-06T19:58:04+03:00',
/* author */ (''),
/* organization */ (''),
/* preprocessor_version */ 'ST-DEVELOPER v20.1',
/* originating_system */ 'Autodesk Translation Framework v15.8.0.0',
/* authorisation */ '');

FILE_SCHEMA (('AUTOMOTIVE_DESIGN { 1 0 10303 214 3 1 1 }'));
ENDSEC;

DATA;
#10=MECHANICAL_DESIGN_GEOMETRIC_PRESENTATION_REPRESENTATION('',(#13),#343);
#11=SHAPE_REPRESENTATION_RELATIONSHIP('SRR','None',#350,#12);
#12=ADVANCED_BREP_SHAPE_REPRESENTATION('',(#14),#342);
#13=STYLED_ITEM('',(#360),#14);
#14=MANIFOLD_SOLID_BREP('Body1',#195);
#15=FACE_BOUND('',#46,.T.);
#16=FACE_BOUND('',#47,.T.);
#17=FACE_BOUND('',#48,.T.);
#18=FACE_BOUND('',#49,.T.);
#19=FACE_BOUND('',#51,.T.);
#20=FACE_BOUND('',#52,.T.);
#21=FACE_BOUND('',#53,.T.);
#22=FACE_BOUND('',#54,.T.);
#23=PLANE('',#224);
#24=PLANE('',#228);
#25=PLANE('',#229);
#26=PLANE('',#230);
#27=FACE_OUTER_BOUND('',#37,.T.);
#28=FACE_OUTER_BOUND('',#38,.T.);
#29=FACE_OUTER_BOUND('',#39,.T.);
#30=FACE_OUTER_BOUND('',#40,.T.);
#31=FACE_OUTER_BOUND('',#41,.T.);
#32=FACE_OUTER_BOUND('',#42,.T.);
#33=FACE_OUTER_BOUND('',#43,.T.);
#34=FACE_OUTER_BOUND('',#44,.T.);
#35=FACE_OUTER_BOUND('',#45,.T.);
#36=FACE_OUTER_BOUND('',#50,.T.);
#37=EDGE_LOOP('',(#131,#132,#133,#134));
#38=EDGE_LOOP('',(#135,#136,#137,#138));
#39=EDGE_LOOP('',(#139,#140,#141,#142));
#40=EDGE_LOOP('',(#143,#144,#145,#146));
#41=EDGE_LOOP('',(#147,#148,#149,#150));
#42=EDGE_LOOP('',(#151,#152,#153,#154));
#43=EDGE_LOOP('',(#155,#156,#157,#158));
#44=EDGE_LOOP('',(#159,#160,#161,#162));
#45=EDGE_LOOP('',(#163,#164,#165,#166));
#46=EDGE_LOOP('',(#167));
#47=EDGE_LOOP('',(#168));
#48=EDGE_LOOP('',(#169));
#49=EDGE_LOOP('',(#170));
#50=EDGE_LOOP('',(#171,#172,#173,#174));
#51=EDGE_LOOP('',(#175));
#52=EDGE_LOOP('',(#176));
#53=EDGE_LOOP('',(#177));
#54=EDGE_LOOP('',(#178));
#55=LINE('',#294,#67);
#56=LINE('',#300,#68);
#57=LINE('',#306,#69);
#58=LINE('',#312,#70);
#59=LINE('',#319,#71);
#60=LINE('',#322,#72);
#61=LINE('',#325,#73);
#62=LINE('',#327,#74);
#63=LINE('',#328,#75);
#64=LINE('',#334,#76);
#65=LINE('',#336,#77);
#66=LINE('',#337,#78);
#67=VECTOR('',#237,2.0828);
#68=VECTOR('',#244,4.7625);
#69=VECTOR('',#251,2.0828);
#70=VECTOR('',#258,2.0828);
#71=VECTOR('',#265,10.);
#72=VECTOR('',#268,10.);
#73=VECTOR('',#271,10.);
#74=VECTOR('',#272,10.);
#75=VECTOR('',#273,10.);
#76=VECTOR('',#280,10.);
#77=VECTOR('',#283,10.);
#78=VECTOR('',#284,10.);
#79=CIRCLE('',#210,2.0828);
#80=CIRCLE('',#211,2.0828);
#81=CIRCLE('',#213,4.7625);
#82=CIRCLE('',#214,4.7625);
#83=CIRCLE('',#216,2.0828);
#84=CIRCLE('',#217,2.0828);
#85=CIRCLE('',#219,2.0828);
#86=CIRCLE('',#220,2.0828);
#87=CIRCLE('',#222,15.112500001);
#88=CIRCLE('',#223,15.112500001);
#89=CIRCLE('',#226,8.7625);
#90=CIRCLE('',#227,8.7625);
#91=VERTEX_POINT('',#291);
#92=VERTEX_POINT('',#293);
#93=VERTEX_POINT('',#297);
#94=VERTEX_POINT('',#299);
#95=VERTEX_POINT('',#303);
#96=VERTEX_POINT('',#305);
#97=VERTEX_POINT('',#309);
#98=VERTEX_POINT('',#311);
#99=VERTEX_POINT('',#315);
#100=VERTEX_POINT('',#316);
#101=VERTEX_POINT('',#318);
#102=VERTEX_POINT('',#320);
#103=VERTEX_POINT('',#324);
#104=VERTEX_POINT('',#326);
#105=VERTEX_POINT('',#330);
#106=VERTEX_POINT('',#332);
#107=EDGE_CURVE('',#91,#91,#79,.T.);
#108=EDGE_CURVE('',#91,#92,#55,.T.);
#109=EDGE_CURVE('',#92,#92,#80,.T.);
#110=EDGE_CURVE('',#93,#93,#81,.T.);
#111=EDGE_CURVE('',#93,#94,#56,.T.);
#112=EDGE_CURVE('',#94,#94,#82,.T.);
#113=EDGE_CURVE('',#95,#95,#83,.T.);
#114=EDGE_CURVE('',#95,#96,#57,.T.);
#115=EDGE_CURVE('',#96,#96,#84,.T.);
#116=EDGE_CURVE('',#97,#97,#85,.T.);
#117=EDGE_CURVE('',#97,#98,#58,.T.);
#118=EDGE_CURVE('',#98,#98,#86,.T.);
#119=EDGE_CURVE('',#99,#100,#87,.T.);
#120=EDGE_CURVE('',#99,#101,#59,.T.);
#121=EDGE_CURVE('',#102,#101,#88,.T.);
#122=EDGE_CURVE('',#100,#102,#60,.T.);
#123=EDGE_CURVE('',#100,#103,#61,.T.);
#124=EDGE_CURVE('',#104,#102,#62,.T.);
#125=EDGE_CURVE('',#103,#104,#63,.T.);
#126=EDGE_CURVE('',#103,#105,#89,.T.);
#127=EDGE_CURVE('',#106,#104,#90,.T.);
#128=EDGE_CURVE('',#105,#106,#64,.T.);
#129=EDGE_CURVE('',#105,#99,#65,.T.);
#130=EDGE_CURVE('',#101,#106,#66,.T.);
#131=ORIENTED_EDGE('',*,*,#107,.F.);
#132=ORIENTED_EDGE('',*,*,#108,.T.);
#133=ORIENTED_EDGE('',*,*,#109,.F.);
#134=ORIENTED_EDGE('',*,*,#108,.F.);
#135=ORIENTED_EDGE('',*,*,#110,.F.);
#136=ORIENTED_EDGE('',*,*,#111,.T.);
#137=ORIENTED_EDGE('',*,*,#112,.F.);
#138=ORIENTED_EDGE('',*,*,#111,.F.);
#139=ORIENTED_EDGE('',*,*,#113,.F.);
#140=ORIENTED_EDGE('',*,*,#114,.T.);
#141=ORIENTED_EDGE('',*,*,#115,.F.);
#142=ORIENTED_EDGE('',*,*,#114,.F.);
#143=ORIENTED_EDGE('',*,*,#116,.F.);
#144=ORIENTED_EDGE('',*,*,#117,.T.);
#145=ORIENTED_EDGE('',*,*,#118,.F.);
#146=ORIENTED_EDGE('',*,*,#117,.F.);
#147=ORIENTED_EDGE('',*,*,#119,.F.);
#148=ORIENTED_EDGE('',*,*,#120,.T.);
#149=ORIENTED_EDGE('',*,*,#121,.F.);
#150=ORIENTED_EDGE('',*,*,#122,.F.);
#151=ORIENTED_EDGE('',*,*,#123,.F.);
#152=ORIENTED_EDGE('',*,*,#122,.T.);
#153=ORIENTED_EDGE('',*,*,#124,.F.);
#154=ORIENTED_EDGE('',*,*,#125,.F.);
#155=ORIENTED_EDGE('',*,*,#126,.F.);
#156=ORIENTED_EDGE('',*,*,#125,.T.);
#157=ORIENTED_EDGE('',*,*,#127,.F.);
#158=ORIENTED_EDGE('',*,*,#128,.F.);
#159=ORIENTED_EDGE('',*,*,#129,.F.);
#160=ORIENTED_EDGE('',*,*,#128,.T.);
#161=ORIENTED_EDGE('',*,*,#130,.F.);
#162=ORIENTED_EDGE('',*,*,#120,.F.);
#163=ORIENTED_EDGE('',*,*,#130,.T.);
#164=ORIENTED_EDGE('',*,*,#127,.T.);
#165=ORIENTED_EDGE('',*,*,#124,.T.);
#166=ORIENTED_EDGE('',*,*,#121,.T.);
#167=ORIENTED_EDGE('',*,*,#118,.T.);
#168=ORIENTED_EDGE('',*,*,#115,.T.);
#169=ORIENTED_EDGE('',*,*,#112,.T.);
#170=ORIENTED_EDGE('',*,*,#109,.T.);
#171=ORIENTED_EDGE('',*,*,#129,.T.);
#172=ORIENTED_EDGE('',*,*,#119,.T.);
#173=ORIENTED_EDGE('',*,*,#123,.T.);
#174=ORIENTED_EDGE('',*,*,#126,.T.);
#175=ORIENTED_EDGE('',*,*,#116,.T.);
#176=ORIENTED_EDGE('',*,*,#113,.T.);
#177=ORIENTED_EDGE('',*,*,#110,.T.);
#178=ORIENTED_EDGE('',*,*,#107,.T.);
#179=CYLINDRICAL_SURFACE('',#209,2.0828);
#180=CYLINDRICAL_SURFACE('',#212,4.7625);
#181=CYLINDRICAL_SURFACE('',#215,2.0828);
#182=CYLINDRICAL_SURFACE('',#218,2.0828);
#183=CYLINDRICAL_SURFACE('',#221,15.112500001);
#184=CYLINDRICAL_SURFACE('',#225,8.7625);
#185=ADVANCED_FACE('',(#27),#179,.F.);
#186=ADVANCED_FACE('',(#28),#180,.F.);
#187=ADVANCED_FACE('',(#29),#181,.F.);
#188=ADVANCED_FACE('',(#30),#182,.F.);
#189=ADVANCED_FACE('',(#31),#183,.T.);
#190=ADVANCED_FACE('',(#32),#23,.T.);
#191=ADVANCED_FACE('',(#33),#184,.T.);
#192=ADVANCED_FACE('',(#34),#24,.T.);
#193=ADVANCED_FACE('',(#35,#15,#16,#17,#18),#25,.T.);
#194=ADVANCED_FACE('',(#36,#19,#20,#21,#22),#26,.F.);
#195=CLOSED_SHELL('',(#185,#186,#187,#188,#189,#190,#191,#192,#193,#194));
#196=DERIVED_UNIT_ELEMENT(#198,1.);
#197=DERIVED_UNIT_ELEMENT(#345,-3.);
#198=(
MASS_UNIT()
NAMED_UNIT(*)
SI_UNIT(.KILO.,.GRAM.)
);
#199=DERIVED_UNIT((#196,#197));
#200=MEASURE_REPRESENTATION_ITEM('density measure',
POSITIVE_RATIO_MEASURE(7850.),#199);
#201=PROPERTY_DEFINITION_REPRESENTATION(#206,#203);
#202=PROPERTY_DEFINITION_REPRESENTATION(#207,#204);
#203=REPRESENTATION('material name',(#205),#342);
#204=REPRESENTATION('density',(#200),#342);
#205=DESCRIPTIVE_REPRESENTATION_ITEM('Steel','Steel');
#206=PROPERTY_DEFINITION('material property','material name',#352);
#207=PROPERTY_DEFINITION('material property','density of part',#352);
#208=AXIS2_PLACEMENT_3D('',#289,#231,#232);
#209=AXIS2_PLACEMENT_3D('',#290,#233,#234);
#210=AXIS2_PLACEMENT_3D('',#292,#235,#236);
#211=AXIS2_PLACEMENT_3D('',#295,#238,#239);
#212=AXIS2_PLACEMENT_3D('',#296,#240,#241);
#213=AXIS2_PLACEMENT_3D('',#298,#242,#243);
#214=AXIS2_PLACEMENT_3D('',#301,#245,#246);
#215=AXIS2_PLACEMENT_3D('',#302,#247,#248);
#216=AXIS2_PLACEMENT_3D('',#304,#249,#250);
#217=AXIS2_PLACEMENT_3D('',#307,#252,#253);
#218=AXIS2_PLACEMENT_3D('',#308,#254,#255);
#219=AXIS2_PLACEMENT_3D('',#310,#256,#257);
#220=AXIS2_PLACEMENT_3D('',#313,#259,#260);
#221=AXIS2_PLACEMENT_3D('',#314,#261,#262);
#222=AXIS2_PLACEMENT_3D('',#317,#263,#264);
#223=AXIS2_PLACEMENT_3D('',#321,#266,#267);
#224=AXIS2_PLACEMENT_3D('',#323,#269,#270);
#225=AXIS2_PLACEMENT_3D('',#329,#274,#275);
#226=AXIS2_PLACEMENT_3D('',#331,#276,#277);
#227=AXIS2_PLACEMENT_3D('',#333,#278,#279);
#228=AXIS2_PLACEMENT_3D('',#335,#281,#282);
#229=AXIS2_PLACEMENT_3D('',#338,#285,#286);
#230=AXIS2_PLACEMENT_3D('',#339,#287,#288);
#231=DIRECTION('axis',(0.,0.,1.));
#232=DIRECTION('refdir',(1.,0.,0.));
#233=DIRECTION('center_axis',(-1.,0.,0.));
#234=DIRECTION('ref_axis',(0.,-1.,0.));
#235=DIRECTION('center_axis',(-1.,0.,0.));
#236=DIRECTION('ref_axis',(0.,-1.,0.));
#237=DIRECTION('',(-1.,0.,0.));
#238=DIRECTION('center_axis',(1.,0.,0.));
#239=DIRECTION('ref_axis',(0.,-1.,0.));
#240=DIRECTION('center_axis',(-1.,0.,0.));
#241=DIRECTION('ref_axis',(0.,1.,0.));
#242=DIRECTION('center_axis',(-1.,0.,0.));
#243=DIRECTION('ref_axis',(0.,1.,0.));
#244=DIRECTION('',(-1.,0.,0.));
#245=DIRECTION('center_axis',(1.,0.,0.));
#246=DIRECTION('ref_axis',(0.,1.,0.));
#247=DIRECTION('center_axis',(-1.,0.,0.));
#248=DIRECTION('ref_axis',(0.,-1.,0.));
#249=DIRECTION('center_axis',(-1.,0.,0.));
#250=DIRECTION('ref_axis',(0.,-1.,0.));
#251=DIRECTION('',(-1.,0.,0.));
#252=DIRECTION('center_axis',(1.,0.,0.));
#253=DIRECTION('ref_axis',(0.,-1.,0.));
#254=DIRECTION('center_axis',(-1.,0.,0.));
#255=DIRECTION('ref_axis',(0.,-1.,0.));
#256=DIRECTION('center_axis',(-1.,0.,0.));
#257=DIRECTION('ref_axis',(0.,-1.,0.));
#258=DIRECTION('',(-1.,0.,0.));
#259=DIRECTION('center_axis',(1.,0.,0.));
#260=DIRECTION('ref_axis',(0.,-1.,0.));
#261=DIRECTION('center_axis',(-1.,0.,0.));
#262=DIRECTION('ref_axis',(0.,-1.,0.));
#263=DIRECTION('center_axis',(1.,0.,0.));
#264=DIRECTION('ref_axis',(0.,-1.,0.));
#265=DIRECTION('',(-1.,0.,0.));
#266=DIRECTION('center_axis',(-1.,0.,0.));
#267=DIRECTION('ref_axis',(0.,-1.,0.));
#268=DIRECTION('',(-1.,0.,0.));
#269=DIRECTION('center_axis',(0.,-0.573576436351046,-0.819152044288992));
#270=DIRECTION('ref_axis',(0.,-0.819152044288992,0.573576436351046));
#271=DIRECTION('',(0.,0.819152044288992,-0.573576436351046));
#272=DIRECTION('',(0.,-0.819152044288992,0.573576436351046));
#273=DIRECTION('',(-1.,0.,0.));
#274=DIRECTION('center_axis',(-1.,0.,0.));
#275=DIRECTION('ref_axis',(0.,1.83697019872103E-16,-1.));
#276=DIRECTION('center_axis',(1.,0.,0.));
#277=DIRECTION('ref_axis',(0.,-1.,0.));
#278=DIRECTION('center_axis',(-1.,0.,0.));
#279=DIRECTION('ref_axis',(0.,-1.,0.));
#280=DIRECTION('',(-1.,0.,0.));
#281=DIRECTION('center_axis',(0.,0.573576436351047,-0.819152044288991));
#282=DIRECTION('ref_axis',(0.,-0.819152044288991,-0.573576436351047));
#283=DIRECTION('',(0.,0.819152044288991,0.573576436351047));
#284=DIRECTION('',(0.,-0.819152044288991,-0.573576436351047));
#285=DIRECTION('center_axis',(-1.,0.,0.));
#286=DIRECTION('ref_axis',(0.,-1.,0.));
#287=DIRECTION('center_axis',(-1.,0.,0.));
#288=DIRECTION('ref_axis',(0.,-1.,0.));
#289=CARTESIAN_POINT('',(0.,0.,0.));
#290=CARTESIAN_POINT('Origin',(-70.2625000000001,-110.592089559096,39.0956555001234));
#291=CARTESIAN_POINT('',(-70.2625000000001,-108.509289559096,39.0956555001234));
#292=CARTESIAN_POINT('Origin',(-70.2625000000001,-110.592089559096,39.0956555001234));
#293=CARTESIAN_POINT('',(-72.2625,-108.509289559096,39.0956555001234));
#294=CARTESIAN_POINT('',(-70.2625000000001,-108.509289559096,39.0956555001234));
#295=CARTESIAN_POINT('Origin',(-72.2625,-110.592089559096,39.0956555001234));
#296=CARTESIAN_POINT('Origin',(-70.2625000000001,-103.325,29.6250000000001));
#297=CARTESIAN_POINT('',(-70.2625000000001,-108.0875,29.6250000000001));
#298=CARTESIAN_POINT('Origin',(-70.2625000000001,-103.325,29.6250000000001));
#299=CARTESIAN_POINT('',(-72.2625,-108.0875,29.6250000000001));
#300=CARTESIAN_POINT('',(-70.2625000000001,-108.0875,29.6250000000001));
#301=CARTESIAN_POINT('Origin',(-72.2625,-103.325,29.6250000000001));
#302=CARTESIAN_POINT('Origin',(-70.2625000000001,-103.325,41.5625000005003));
#303=CARTESIAN_POINT('',(-70.2625000000001,-101.2422,41.5625000005003));
#304=CARTESIAN_POINT('Origin',(-70.2625000000001,-103.325,41.5625000005003));
#305=CARTESIAN_POINT('',(-72.2625,-101.2422,41.5625000005003));
#306=CARTESIAN_POINT('',(-70.2625000000001,-101.2422,41.5625000005003));
#307=CARTESIAN_POINT('Origin',(-72.2625,-103.325,41.5625000005003));
#308=CARTESIAN_POINT('Origin',(-70.2625000000001,-96.0579104409038,39.0956555001234));
#309=CARTESIAN_POINT('',(-70.2625000000001,-93.9751104409041,39.0956555001234));
#310=CARTESIAN_POINT('Origin',(-70.2625000000001,-96.0579104409038,39.0956555001234));
#311=CARTESIAN_POINT('',(-72.2625,-93.9751104409041,39.0956555001234));
#312=CARTESIAN_POINT('',(-70.2625000000001,-93.9751104409038,39.0956555001234));
#313=CARTESIAN_POINT('Origin',(-72.2625,-96.0579104409038,39.0956555001234));
#314=CARTESIAN_POINT('Origin',(-70.2625000000001,-103.325,29.6250000000001));
#315=CARTESIAN_POINT('',(-70.2625000000001,-90.9455647298634,38.2931738949288));
#316=CARTESIAN_POINT('',(-70.2625000000001,-115.704435270137,38.2931738949288));
#317=CARTESIAN_POINT('Origin',(-70.2625000000001,-103.325,29.6250000000001));
#318=CARTESIAN_POINT('',(-72.2625,-90.9455647298634,38.2931738949288));
#319=CARTESIAN_POINT('',(-70.2625000000001,-90.9455647298634,38.2931738949288));
#320=CARTESIAN_POINT('',(-72.2625,-115.704435270137,38.2931738949288));
#321=CARTESIAN_POINT('Origin',(-72.2625,-103.325,29.6250000000001));
#322=CARTESIAN_POINT('',(-70.2625000000001,-115.704435270137,38.2931738949288));
#323=CARTESIAN_POINT('Origin',(-70.2625000000001,-110.502819788082,34.6509635235262));
#324=CARTESIAN_POINT('',(-70.2625000000001,-110.502819788082,34.6509635235262));
#325=CARTESIAN_POINT('',(-70.2625000000001,-103.325,29.6250000000001));
#326=CARTESIAN_POINT('',(-72.2625,-110.502819788082,34.6509635235262));
#327=CARTESIAN_POINT('',(-72.2625,-103.325,29.6250000000001));
#328=CARTESIAN_POINT('',(-70.2625000000001,-110.502819788082,34.6509635235262));
#329=CARTESIAN_POINT('Origin',(-70.2625000000001,-103.325,29.6250000000001));
#330=CARTESIAN_POINT('',(-70.2625000000001,-96.1471802119177,34.6509635235262));
#331=CARTESIAN_POINT('Origin',(-70.2625000000001,-103.325,29.6250000000001));
#332=CARTESIAN_POINT('',(-72.2625,-96.1471802119177,34.6509635235262));
#333=CARTESIAN_POINT('Origin',(-72.2625,-103.325,29.6250000000001));
#334=CARTESIAN_POINT('',(-70.2625000000001,-96.1471802119177,34.6509635235262));
#335=CARTESIAN_POINT('Origin',(-70.2625000000001,-90.9455647298634,38.2931738949288));
#336=CARTESIAN_POINT('',(-70.2625000000001,-90.9455647298634,38.2931738949288));
#337=CARTESIAN_POINT('',(-72.2625,-90.9455647298634,38.2931738949288));
#338=CARTESIAN_POINT('Origin',(-72.2625,-103.325,32.8000000005002));
#339=CARTESIAN_POINT('Origin',(-70.2625000000001,-103.325,32.8000000005002));
#340=UNCERTAINTY_MEASURE_WITH_UNIT(LENGTH_MEASURE(0.01),#344,
'DISTANCE_ACCURACY_VALUE',
'Maximum model space distance between geometric entities at asserted c
onnectivities');
#341=UNCERTAINTY_MEASURE_WITH_UNIT(LENGTH_MEASURE(0.01),#344,
'DISTANCE_ACCURACY_VALUE',
'Maximum model space distance between geometric entities at asserted c
onnectivities');
#342=(
GEOMETRIC_REPRESENTATION_CONTEXT(3)
GLOBAL_UNCERTAINTY_ASSIGNED_CONTEXT((#340))
GLOBAL_UNIT_ASSIGNED_CONTEXT((#344,#346,#347))
REPRESENTATION_CONTEXT('','3D')
);
#343=(
GEOMETRIC_REPRESENTATION_CONTEXT(3)
GLOBAL_UNCERTAINTY_ASSIGNED_CONTEXT((#341))
GLOBAL_UNIT_ASSIGNED_CONTEXT((#344,#346,#347))
REPRESENTATION_CONTEXT('','3D')
);
#344=(
LENGTH_UNIT()
NAMED_UNIT(*)
SI_UNIT(.MILLI.,.METRE.)
);
#345=(
LENGTH_UNIT()
NAMED_UNIT(*)
SI_UNIT($,.METRE.)
);
#346=(
NAMED_UNIT(*)
PLANE_ANGLE_UNIT()
SI_UNIT($,.RADIAN.)
);
#347=(
NAMED_UNIT(*)
SI_UNIT($,.STERADIAN.)
SOLID_ANGLE_UNIT()
);
#348=SHAPE_DEFINITION_REPRESENTATION(#349,#350);
#349=PRODUCT_DEFINITION_SHAPE('',$,#352);
#350=SHAPE_REPRESENTATION('',(#208),#342);
#351=PRODUCT_DEFINITION_CONTEXT('part definition',#356,'design');
#352=PRODUCT_DEFINITION('Component139','Component139',#353,#351);
#353=PRODUCT_DEFINITION_FORMATION('',$,#358);
#354=PRODUCT_RELATED_PRODUCT_CATEGORY('Component139','Component139',(#358));
#355=APPLICATION_PROTOCOL_DEFINITION('international standard',
'automotive_design',2009,#356);
#356=APPLICATION_CONTEXT(
'Core Data for Automotive Mechanical Design Process');
#357=PRODUCT_CONTEXT('part definition',#356,'mechanical');
#358=PRODUCT('Component139','Component139',$,(#357));
#359=PRESENTATION_STYLE_ASSIGNMENT((#361));
#360=PRESENTATION_STYLE_ASSIGNMENT((#362));
#361=SURFACE_STYLE_USAGE(.BOTH.,#363);
#362=SURFACE_STYLE_USAGE(.BOTH.,#364);
#363=SURFACE_SIDE_STYLE('',(#365));
#364=SURFACE_SIDE_STYLE('',(#366));
#365=SURFACE_STYLE_FILL_AREA(#367);
#366=SURFACE_STYLE_FILL_AREA(#368);
#367=FILL_AREA_STYLE('Steel - Satin',(#369));
#368=FILL_AREA_STYLE('Opaque(202,202,0)',(#370));
#369=FILL_AREA_STYLE_COLOUR('Steel - Satin',#371);
#370=FILL_AREA_STYLE_COLOUR('Opaque(202,202,0)',#372);
#371=COLOUR_RGB('Steel - Satin',0.627450980392157,0.627450980392157,0.627450980392157);
#372=COLOUR_RGB('Opaque(202,202,0)',0.792156862745098,0.792156862745098,
0.);
ENDSEC;
END-ISO-10303-21;
