ISO-10303-21;
HEADER;
/* Generated by software containing ST-Developer
 * from STEP Tools, Inc. (www.steptools.com) 
 */

FILE_DESCRIPTION(
/* description */ (''),
/* implementation_level */ '2;1');

FILE_NAME(
/* name */ 'Small_Top.step',
/* time_stamp */ '2026-09-06T19:56:18+03:00',
/* author */ (''),
/* organization */ (''),
/* preprocessor_version */ 'ST-DEVELOPER v20.1',
/* originating_system */ 'Autodesk Translation Framework v15.8.0.0',
/* authorisation */ '');

FILE_SCHEMA (('AUTOMOTIVE_DESIGN { 1 0 10303 214 3 1 1 }'));
ENDSEC;

DATA;
#10=MECHANICAL_DESIGN_GEOMETRIC_PRESENTATION_REPRESENTATION('',(#13),#1452);
#11=SHAPE_REPRESENTATION_RELATIONSHIP('SRR','None',#1459,#12);
#12=ADVANCED_BREP_SHAPE_REPRESENTATION('',(#14),#1451);
#13=STYLED_ITEM('',(#1469),#14);
#14=MANIFOLD_SOLID_BREP('Body1',#864);
#15=FACE_BOUND('',#148,.T.);
#16=FACE_BOUND('',#149,.T.);
#17=FACE_BOUND('',#150,.T.);
#18=FACE_BOUND('',#151,.T.);
#19=FACE_BOUND('',#152,.T.);
#20=FACE_BOUND('',#153,.T.);
#21=FACE_BOUND('',#154,.T.);
#22=FACE_BOUND('',#155,.T.);
#23=FACE_BOUND('',#156,.T.);
#24=FACE_BOUND('',#157,.T.);
#25=FACE_BOUND('',#158,.T.);
#26=FACE_BOUND('',#159,.T.);
#27=FACE_BOUND('',#160,.T.);
#28=FACE_BOUND('',#161,.T.);
#29=FACE_BOUND('',#162,.T.);
#30=FACE_BOUND('',#163,.T.);
#31=FACE_BOUND('',#164,.T.);
#32=FACE_BOUND('',#166,.T.);
#33=FACE_BOUND('',#167,.T.);
#34=FACE_BOUND('',#168,.T.);
#35=FACE_BOUND('',#169,.T.);
#36=FACE_BOUND('',#170,.T.);
#37=FACE_BOUND('',#171,.T.);
#38=FACE_BOUND('',#172,.T.);
#39=FACE_BOUND('',#173,.T.);
#40=FACE_BOUND('',#174,.T.);
#41=FACE_BOUND('',#175,.T.);
#42=FACE_BOUND('',#176,.T.);
#43=FACE_BOUND('',#177,.T.);
#44=FACE_BOUND('',#178,.T.);
#45=FACE_BOUND('',#179,.T.);
#46=FACE_BOUND('',#180,.T.);
#47=FACE_BOUND('',#181,.T.);
#48=FACE_BOUND('',#182,.T.);
#49=PLANE('',#893);
#50=PLANE('',#897);
#51=PLANE('',#901);
#52=PLANE('',#902);
#53=PLANE('',#903);
#54=PLANE('',#907);
#55=PLANE('',#911);
#56=PLANE('',#912);
#57=PLANE('',#916);
#58=PLANE('',#920);
#59=PLANE('',#924);
#60=PLANE('',#925);
#61=PLANE('',#959);
#62=PLANE('',#960);
#63=PLANE('',#961);
#64=PLANE('',#962);
#65=PLANE('',#963);
#66=PLANE('',#964);
#67=FACE_OUTER_BOUND('',#108,.T.);
#68=FACE_OUTER_BOUND('',#109,.T.);
#69=FACE_OUTER_BOUND('',#110,.T.);
#70=FACE_OUTER_BOUND('',#111,.T.);
#71=FACE_OUTER_BOUND('',#112,.T.);
#72=FACE_OUTER_BOUND('',#113,.T.);
#73=FACE_OUTER_BOUND('',#114,.T.);
#74=FACE_OUTER_BOUND('',#115,.T.);
#75=FACE_OUTER_BOUND('',#116,.T.);
#76=FACE_OUTER_BOUND('',#117,.T.);
#77=FACE_OUTER_BOUND('',#118,.T.);
#78=FACE_OUTER_BOUND('',#119,.T.);
#79=FACE_OUTER_BOUND('',#120,.T.);
#80=FACE_OUTER_BOUND('',#121,.T.);
#81=FACE_OUTER_BOUND('',#122,.T.);
#82=FACE_OUTER_BOUND('',#123,.T.);
#83=FACE_OUTER_BOUND('',#124,.T.);
#84=FACE_OUTER_BOUND('',#125,.T.);
#85=FACE_OUTER_BOUND('',#126,.T.);
#86=FACE_OUTER_BOUND('',#127,.T.);
#87=FACE_OUTER_BOUND('',#128,.T.);
#88=FACE_OUTER_BOUND('',#129,.T.);
#89=FACE_OUTER_BOUND('',#130,.T.);
#90=FACE_OUTER_BOUND('',#131,.T.);
#91=FACE_OUTER_BOUND('',#132,.T.);
#92=FACE_OUTER_BOUND('',#133,.T.);
#93=FACE_OUTER_BOUND('',#134,.T.);
#94=FACE_OUTER_BOUND('',#135,.T.);
#95=FACE_OUTER_BOUND('',#136,.T.);
#96=FACE_OUTER_BOUND('',#137,.T.);
#97=FACE_OUTER_BOUND('',#138,.T.);
#98=FACE_OUTER_BOUND('',#139,.T.);
#99=FACE_OUTER_BOUND('',#140,.T.);
#100=FACE_OUTER_BOUND('',#141,.T.);
#101=FACE_OUTER_BOUND('',#142,.T.);
#102=FACE_OUTER_BOUND('',#143,.T.);
#103=FACE_OUTER_BOUND('',#144,.T.);
#104=FACE_OUTER_BOUND('',#145,.T.);
#105=FACE_OUTER_BOUND('',#146,.T.);
#106=FACE_OUTER_BOUND('',#147,.T.);
#107=FACE_OUTER_BOUND('',#165,.T.);
#108=EDGE_LOOP('',(#566,#567,#568,#569));
#109=EDGE_LOOP('',(#570,#571,#572,#573));
#110=EDGE_LOOP('',(#574,#575,#576,#577));
#111=EDGE_LOOP('',(#578,#579,#580,#581));
#112=EDGE_LOOP('',(#582,#583,#584,#585));
#113=EDGE_LOOP('',(#586,#587,#588,#589));
#114=EDGE_LOOP('',(#590,#591,#592,#593));
#115=EDGE_LOOP('',(#594,#595,#596,#597));
#116=EDGE_LOOP('',(#598,#599,#600,#601));
#117=EDGE_LOOP('',(#602,#603,#604,#605));
#118=EDGE_LOOP('',(#606,#607,#608,#609));
#119=EDGE_LOOP('',(#610,#611,#612,#613));
#120=EDGE_LOOP('',(#614,#615,#616,#617));
#121=EDGE_LOOP('',(#618,#619,#620,#621));
#122=EDGE_LOOP('',(#622,#623,#624,#625));
#123=EDGE_LOOP('',(#626,#627,#628,#629));
#124=EDGE_LOOP('',(#630,#631,#632,#633));
#125=EDGE_LOOP('',(#634,#635,#636,#637));
#126=EDGE_LOOP('',(#638,#639,#640,#641));
#127=EDGE_LOOP('',(#642,#643,#644,#645));
#128=EDGE_LOOP('',(#646,#647,#648,#649));
#129=EDGE_LOOP('',(#650,#651,#652,#653));
#130=EDGE_LOOP('',(#654,#655,#656,#657));
#131=EDGE_LOOP('',(#658,#659,#660,#661));
#132=EDGE_LOOP('',(#662,#663,#664,#665));
#133=EDGE_LOOP('',(#666,#667,#668,#669));
#134=EDGE_LOOP('',(#670,#671,#672,#673));
#135=EDGE_LOOP('',(#674,#675,#676,#677));
#136=EDGE_LOOP('',(#678,#679,#680,#681));
#137=EDGE_LOOP('',(#682,#683,#684,#685));
#138=EDGE_LOOP('',(#686,#687,#688,#689));
#139=EDGE_LOOP('',(#690,#691,#692,#693));
#140=EDGE_LOOP('',(#694,#695,#696,#697));
#141=EDGE_LOOP('',(#698,#699,#700,#701));
#142=EDGE_LOOP('',(#702,#703,#704,#705));
#143=EDGE_LOOP('',(#706,#707,#708,#709));
#144=EDGE_LOOP('',(#710,#711,#712,#713));
#145=EDGE_LOOP('',(#714,#715,#716,#717));
#146=EDGE_LOOP('',(#718,#719,#720,#721));
#147=EDGE_LOOP('',(#722,#723,#724,#725));
#148=EDGE_LOOP('',(#726));
#149=EDGE_LOOP('',(#727));
#150=EDGE_LOOP('',(#728));
#151=EDGE_LOOP('',(#729));
#152=EDGE_LOOP('',(#730,#731,#732,#733,#734,#735,#736));
#153=EDGE_LOOP('',(#737,#738,#739,#740,#741,#742,#743));
#154=EDGE_LOOP('',(#744,#745,#746,#747,#748,#749,#750));
#155=EDGE_LOOP('',(#751));
#156=EDGE_LOOP('',(#752));
#157=EDGE_LOOP('',(#753));
#158=EDGE_LOOP('',(#754));
#159=EDGE_LOOP('',(#755));
#160=EDGE_LOOP('',(#756));
#161=EDGE_LOOP('',(#757));
#162=EDGE_LOOP('',(#758));
#163=EDGE_LOOP('',(#759));
#164=EDGE_LOOP('',(#760));
#165=EDGE_LOOP('',(#761,#762,#763,#764));
#166=EDGE_LOOP('',(#765));
#167=EDGE_LOOP('',(#766));
#168=EDGE_LOOP('',(#767));
#169=EDGE_LOOP('',(#768));
#170=EDGE_LOOP('',(#769,#770,#771,#772,#773,#774,#775));
#171=EDGE_LOOP('',(#776,#777,#778,#779,#780,#781,#782));
#172=EDGE_LOOP('',(#783,#784,#785,#786,#787,#788,#789));
#173=EDGE_LOOP('',(#790));
#174=EDGE_LOOP('',(#791));
#175=EDGE_LOOP('',(#792));
#176=EDGE_LOOP('',(#793));
#177=EDGE_LOOP('',(#794));
#178=EDGE_LOOP('',(#795));
#179=EDGE_LOOP('',(#796));
#180=EDGE_LOOP('',(#797));
#181=EDGE_LOOP('',(#798));
#182=EDGE_LOOP('',(#799));
#183=LINE('',#1217,#254);
#184=LINE('',#1223,#255);
#185=LINE('',#1229,#256);
#186=LINE('',#1235,#257);
#187=LINE('',#1242,#258);
#188=LINE('',#1245,#259);
#189=LINE('',#1248,#260);
#190=LINE('',#1250,#261);
#191=LINE('',#1251,#262);
#192=LINE('',#1256,#263);
#193=LINE('',#1260,#264);
#194=LINE('',#1262,#265);
#195=LINE('',#1263,#266);
#196=LINE('',#1268,#267);
#197=LINE('',#1272,#268);
#198=LINE('',#1274,#269);
#199=LINE('',#1275,#270);
#200=LINE('',#1277,#271);
#201=LINE('',#1278,#272);
#202=LINE('',#1282,#273);
#203=LINE('',#1284,#274);
#204=LINE('',#1286,#275);
#205=LINE('',#1287,#276);
#206=LINE('',#1292,#277);
#207=LINE('',#1296,#278);
#208=LINE('',#1298,#279);
#209=LINE('',#1299,#280);
#210=LINE('',#1304,#281);
#211=LINE('',#1308,#282);
#212=LINE('',#1310,#283);
#213=LINE('',#1311,#284);
#214=LINE('',#1314,#285);
#215=LINE('',#1316,#286);
#216=LINE('',#1317,#287);
#217=LINE('',#1324,#288);
#218=LINE('',#1326,#289);
#219=LINE('',#1328,#290);
#220=LINE('',#1329,#291);
#221=LINE('',#1334,#292);
#222=LINE('',#1338,#293);
#223=LINE('',#1340,#294);
#224=LINE('',#1341,#295);
#225=LINE('',#1346,#296);
#226=LINE('',#1350,#297);
#227=LINE('',#1352,#298);
#228=LINE('',#1353,#299);
#229=LINE('',#1356,#300);
#230=LINE('',#1358,#301);
#231=LINE('',#1359,#302);
#232=LINE('',#1367,#303);
#233=LINE('',#1373,#304);
#234=LINE('',#1379,#305);
#235=LINE('',#1385,#306);
#236=LINE('',#1391,#307);
#237=LINE('',#1397,#308);
#238=LINE('',#1403,#309);
#239=LINE('',#1409,#310);
#240=LINE('',#1415,#311);
#241=LINE('',#1421,#312);
#242=LINE('',#1426,#313);
#243=LINE('',#1428,#314);
#244=LINE('',#1430,#315);
#245=LINE('',#1431,#316);
#246=LINE('',#1435,#317);
#247=LINE('',#1437,#318);
#248=LINE('',#1439,#319);
#249=LINE('',#1440,#320);
#250=LINE('',#1442,#321);
#251=LINE('',#1443,#322);
#252=LINE('',#1445,#323);
#253=LINE('',#1446,#324);
#254=VECTOR('',#971,1.45);
#255=VECTOR('',#978,1.45);
#256=VECTOR('',#985,1.45);
#257=VECTOR('',#992,1.45);
#258=VECTOR('',#999,10.);
#259=VECTOR('',#1002,10.);
#260=VECTOR('',#1005,10.);
#261=VECTOR('',#1006,10.);
#262=VECTOR('',#1007,10.);
#263=VECTOR('',#1012,10.);
#264=VECTOR('',#1017,10.);
#265=VECTOR('',#1018,10.);
#266=VECTOR('',#1019,10.);
#267=VECTOR('',#1024,10.);
#268=VECTOR('',#1029,10.);
#269=VECTOR('',#1030,10.);
#270=VECTOR('',#1031,10.);
#271=VECTOR('',#1034,10.);
#272=VECTOR('',#1035,10.);
#273=VECTOR('',#1038,10.);
#274=VECTOR('',#1039,10.);
#275=VECTOR('',#1040,10.);
#276=VECTOR('',#1041,10.);
#277=VECTOR('',#1046,10.);
#278=VECTOR('',#1051,10.);
#279=VECTOR('',#1052,10.);
#280=VECTOR('',#1053,10.);
#281=VECTOR('',#1058,10.);
#282=VECTOR('',#1063,10.);
#283=VECTOR('',#1064,10.);
#284=VECTOR('',#1065,10.);
#285=VECTOR('',#1068,10.);
#286=VECTOR('',#1069,10.);
#287=VECTOR('',#1070,10.);
#288=VECTOR('',#1079,10.);
#289=VECTOR('',#1080,10.);
#290=VECTOR('',#1081,10.);
#291=VECTOR('',#1082,10.);
#292=VECTOR('',#1087,10.);
#293=VECTOR('',#1092,10.);
#294=VECTOR('',#1093,10.);
#295=VECTOR('',#1094,10.);
#296=VECTOR('',#1099,10.);
#297=VECTOR('',#1104,10.);
#298=VECTOR('',#1105,10.);
#299=VECTOR('',#1106,10.);
#300=VECTOR('',#1109,10.);
#301=VECTOR('',#1110,10.);
#302=VECTOR('',#1111,10.);
#303=VECTOR('',#1122,1.75);
#304=VECTOR('',#1129,1.75);
#305=VECTOR('',#1136,1.75);
#306=VECTOR('',#1143,1.75);
#307=VECTOR('',#1150,1.75);
#308=VECTOR('',#1157,1.75);
#309=VECTOR('',#1164,1.75);
#310=VECTOR('',#1171,1.905);
#311=VECTOR('',#1178,1.905);
#312=VECTOR('',#1185,1.905);
#313=VECTOR('',#1190,10.);
#314=VECTOR('',#1191,10.);
#315=VECTOR('',#1192,10.);
#316=VECTOR('',#1193,10.);
#317=VECTOR('',#1196,10.);
#318=VECTOR('',#1197,10.);
#319=VECTOR('',#1198,10.);
#320=VECTOR('',#1199,10.);
#321=VECTOR('',#1202,10.);
#322=VECTOR('',#1203,10.);
#323=VECTOR('',#1206,10.);
#324=VECTOR('',#1207,10.);
#325=CIRCLE('',#879,1.45);
#326=CIRCLE('',#880,1.45);
#327=CIRCLE('',#882,1.45);
#328=CIRCLE('',#883,1.45);
#329=CIRCLE('',#885,1.45);
#330=CIRCLE('',#886,1.45);
#331=CIRCLE('',#888,1.45);
#332=CIRCLE('',#889,1.45);
#333=CIRCLE('',#891,0.999999999999995);
#334=CIRCLE('',#892,0.999999999999995);
#335=CIRCLE('',#895,0.999999999999988);
#336=CIRCLE('',#896,0.999999999999988);
#337=CIRCLE('',#899,0.999999999999993);
#338=CIRCLE('',#900,0.999999999999993);
#339=CIRCLE('',#905,0.999999999999988);
#340=CIRCLE('',#906,0.999999999999988);
#341=CIRCLE('',#909,0.999999999999993);
#342=CIRCLE('',#910,0.999999999999993);
#343=CIRCLE('',#914,0.999999999999995);
#344=CIRCLE('',#915,0.999999999999995);
#345=CIRCLE('',#918,0.999999999999988);
#346=CIRCLE('',#919,0.999999999999988);
#347=CIRCLE('',#922,0.999999999999993);
#348=CIRCLE('',#923,0.999999999999993);
#349=CIRCLE('',#927,0.999999999999995);
#350=CIRCLE('',#928,0.999999999999995);
#351=CIRCLE('',#930,1.75);
#352=CIRCLE('',#931,1.75);
#353=CIRCLE('',#933,1.75);
#354=CIRCLE('',#934,1.75);
#355=CIRCLE('',#936,1.75);
#356=CIRCLE('',#937,1.75);
#357=CIRCLE('',#939,1.75);
#358=CIRCLE('',#940,1.75);
#359=CIRCLE('',#942,1.75);
#360=CIRCLE('',#943,1.75);
#361=CIRCLE('',#945,1.75);
#362=CIRCLE('',#946,1.75);
#363=CIRCLE('',#948,1.75);
#364=CIRCLE('',#949,1.75);
#365=CIRCLE('',#951,1.905);
#366=CIRCLE('',#952,1.905);
#367=CIRCLE('',#954,1.905);
#368=CIRCLE('',#955,1.905);
#369=CIRCLE('',#957,1.905);
#370=CIRCLE('',#958,1.905);
#371=VERTEX_POINT('',#1214);
#372=VERTEX_POINT('',#1216);
#373=VERTEX_POINT('',#1220);
#374=VERTEX_POINT('',#1222);
#375=VERTEX_POINT('',#1226);
#376=VERTEX_POINT('',#1228);
#377=VERTEX_POINT('',#1232);
#378=VERTEX_POINT('',#1234);
#379=VERTEX_POINT('',#1238);
#380=VERTEX_POINT('',#1239);
#381=VERTEX_POINT('',#1241);
#382=VERTEX_POINT('',#1243);
#383=VERTEX_POINT('',#1247);
#384=VERTEX_POINT('',#1249);
#385=VERTEX_POINT('',#1253);
#386=VERTEX_POINT('',#1255);
#387=VERTEX_POINT('',#1259);
#388=VERTEX_POINT('',#1261);
#389=VERTEX_POINT('',#1265);
#390=VERTEX_POINT('',#1267);
#391=VERTEX_POINT('',#1271);
#392=VERTEX_POINT('',#1273);
#393=VERTEX_POINT('',#1280);
#394=VERTEX_POINT('',#1281);
#395=VERTEX_POINT('',#1283);
#396=VERTEX_POINT('',#1285);
#397=VERTEX_POINT('',#1289);
#398=VERTEX_POINT('',#1291);
#399=VERTEX_POINT('',#1295);
#400=VERTEX_POINT('',#1297);
#401=VERTEX_POINT('',#1301);
#402=VERTEX_POINT('',#1303);
#403=VERTEX_POINT('',#1307);
#404=VERTEX_POINT('',#1309);
#405=VERTEX_POINT('',#1313);
#406=VERTEX_POINT('',#1315);
#407=VERTEX_POINT('',#1322);
#408=VERTEX_POINT('',#1323);
#409=VERTEX_POINT('',#1325);
#410=VERTEX_POINT('',#1327);
#411=VERTEX_POINT('',#1331);
#412=VERTEX_POINT('',#1333);
#413=VERTEX_POINT('',#1337);
#414=VERTEX_POINT('',#1339);
#415=VERTEX_POINT('',#1343);
#416=VERTEX_POINT('',#1345);
#417=VERTEX_POINT('',#1349);
#418=VERTEX_POINT('',#1351);
#419=VERTEX_POINT('',#1355);
#420=VERTEX_POINT('',#1357);
#421=VERTEX_POINT('',#1364);
#422=VERTEX_POINT('',#1366);
#423=VERTEX_POINT('',#1370);
#424=VERTEX_POINT('',#1372);
#425=VERTEX_POINT('',#1376);
#426=VERTEX_POINT('',#1378);
#427=VERTEX_POINT('',#1382);
#428=VERTEX_POINT('',#1384);
#429=VERTEX_POINT('',#1388);
#430=VERTEX_POINT('',#1390);
#431=VERTEX_POINT('',#1394);
#432=VERTEX_POINT('',#1396);
#433=VERTEX_POINT('',#1400);
#434=VERTEX_POINT('',#1402);
#435=VERTEX_POINT('',#1406);
#436=VERTEX_POINT('',#1408);
#437=VERTEX_POINT('',#1412);
#438=VERTEX_POINT('',#1414);
#439=VERTEX_POINT('',#1418);
#440=VERTEX_POINT('',#1420);
#441=VERTEX_POINT('',#1424);
#442=VERTEX_POINT('',#1425);
#443=VERTEX_POINT('',#1427);
#444=VERTEX_POINT('',#1429);
#445=VERTEX_POINT('',#1433);
#446=VERTEX_POINT('',#1434);
#447=VERTEX_POINT('',#1436);
#448=VERTEX_POINT('',#1438);
#449=EDGE_CURVE('',#371,#371,#325,.T.);
#450=EDGE_CURVE('',#371,#372,#183,.T.);
#451=EDGE_CURVE('',#372,#372,#326,.T.);
#452=EDGE_CURVE('',#373,#373,#327,.T.);
#453=EDGE_CURVE('',#373,#374,#184,.T.);
#454=EDGE_CURVE('',#374,#374,#328,.T.);
#455=EDGE_CURVE('',#375,#375,#329,.T.);
#456=EDGE_CURVE('',#375,#376,#185,.T.);
#457=EDGE_CURVE('',#376,#376,#330,.T.);
#458=EDGE_CURVE('',#377,#377,#331,.T.);
#459=EDGE_CURVE('',#377,#378,#186,.T.);
#460=EDGE_CURVE('',#378,#378,#332,.T.);
#461=EDGE_CURVE('',#379,#380,#333,.T.);
#462=EDGE_CURVE('',#379,#381,#187,.T.);
#463=EDGE_CURVE('',#382,#381,#334,.T.);
#464=EDGE_CURVE('',#380,#382,#188,.T.);
#465=EDGE_CURVE('',#383,#379,#189,.T.);
#466=EDGE_CURVE('',#383,#384,#190,.T.);
#467=EDGE_CURVE('',#381,#384,#191,.T.);
#468=EDGE_CURVE('',#385,#383,#335,.T.);
#469=EDGE_CURVE('',#385,#386,#192,.T.);
#470=EDGE_CURVE('',#384,#386,#336,.T.);
#471=EDGE_CURVE('',#387,#385,#193,.T.);
#472=EDGE_CURVE('',#387,#388,#194,.T.);
#473=EDGE_CURVE('',#386,#388,#195,.T.);
#474=EDGE_CURVE('',#389,#387,#337,.T.);
#475=EDGE_CURVE('',#389,#390,#196,.T.);
#476=EDGE_CURVE('',#388,#390,#338,.T.);
#477=EDGE_CURVE('',#391,#389,#197,.T.);
#478=EDGE_CURVE('',#391,#392,#198,.T.);
#479=EDGE_CURVE('',#390,#392,#199,.T.);
#480=EDGE_CURVE('',#380,#391,#200,.T.);
#481=EDGE_CURVE('',#392,#382,#201,.T.);
#482=EDGE_CURVE('',#393,#394,#202,.T.);
#483=EDGE_CURVE('',#393,#395,#203,.T.);
#484=EDGE_CURVE('',#396,#395,#204,.T.);
#485=EDGE_CURVE('',#394,#396,#205,.T.);
#486=EDGE_CURVE('',#397,#393,#339,.T.);
#487=EDGE_CURVE('',#397,#398,#206,.T.);
#488=EDGE_CURVE('',#395,#398,#340,.T.);
#489=EDGE_CURVE('',#399,#397,#207,.T.);
#490=EDGE_CURVE('',#399,#400,#208,.T.);
#491=EDGE_CURVE('',#398,#400,#209,.T.);
#492=EDGE_CURVE('',#401,#399,#341,.T.);
#493=EDGE_CURVE('',#401,#402,#210,.T.);
#494=EDGE_CURVE('',#400,#402,#342,.T.);
#495=EDGE_CURVE('',#403,#401,#211,.T.);
#496=EDGE_CURVE('',#403,#404,#212,.T.);
#497=EDGE_CURVE('',#402,#404,#213,.T.);
#498=EDGE_CURVE('',#405,#403,#214,.T.);
#499=EDGE_CURVE('',#405,#406,#215,.T.);
#500=EDGE_CURVE('',#404,#406,#216,.T.);
#501=EDGE_CURVE('',#394,#405,#343,.T.);
#502=EDGE_CURVE('',#406,#396,#344,.T.);
#503=EDGE_CURVE('',#407,#408,#217,.T.);
#504=EDGE_CURVE('',#407,#409,#218,.T.);
#505=EDGE_CURVE('',#410,#409,#219,.T.);
#506=EDGE_CURVE('',#408,#410,#220,.T.);
#507=EDGE_CURVE('',#411,#407,#345,.T.);
#508=EDGE_CURVE('',#411,#412,#221,.T.);
#509=EDGE_CURVE('',#409,#412,#346,.T.);
#510=EDGE_CURVE('',#413,#411,#222,.T.);
#511=EDGE_CURVE('',#413,#414,#223,.T.);
#512=EDGE_CURVE('',#412,#414,#224,.T.);
#513=EDGE_CURVE('',#415,#413,#347,.T.);
#514=EDGE_CURVE('',#415,#416,#225,.T.);
#515=EDGE_CURVE('',#414,#416,#348,.T.);
#516=EDGE_CURVE('',#417,#415,#226,.T.);
#517=EDGE_CURVE('',#417,#418,#227,.T.);
#518=EDGE_CURVE('',#416,#418,#228,.T.);
#519=EDGE_CURVE('',#419,#417,#229,.T.);
#520=EDGE_CURVE('',#419,#420,#230,.T.);
#521=EDGE_CURVE('',#418,#420,#231,.T.);
#522=EDGE_CURVE('',#408,#419,#349,.T.);
#523=EDGE_CURVE('',#420,#410,#350,.T.);
#524=EDGE_CURVE('',#421,#421,#351,.T.);
#525=EDGE_CURVE('',#421,#422,#232,.T.);
#526=EDGE_CURVE('',#422,#422,#352,.T.);
#527=EDGE_CURVE('',#423,#423,#353,.T.);
#528=EDGE_CURVE('',#423,#424,#233,.T.);
#529=EDGE_CURVE('',#424,#424,#354,.T.);
#530=EDGE_CURVE('',#425,#425,#355,.T.);
#531=EDGE_CURVE('',#425,#426,#234,.T.);
#532=EDGE_CURVE('',#426,#426,#356,.T.);
#533=EDGE_CURVE('',#427,#427,#357,.T.);
#534=EDGE_CURVE('',#427,#428,#235,.T.);
#535=EDGE_CURVE('',#428,#428,#358,.T.);
#536=EDGE_CURVE('',#429,#429,#359,.T.);
#537=EDGE_CURVE('',#429,#430,#236,.T.);
#538=EDGE_CURVE('',#430,#430,#360,.T.);
#539=EDGE_CURVE('',#431,#431,#361,.T.);
#540=EDGE_CURVE('',#431,#432,#237,.T.);
#541=EDGE_CURVE('',#432,#432,#362,.T.);
#542=EDGE_CURVE('',#433,#433,#363,.T.);
#543=EDGE_CURVE('',#433,#434,#238,.T.);
#544=EDGE_CURVE('',#434,#434,#364,.T.);
#545=EDGE_CURVE('',#435,#435,#365,.T.);
#546=EDGE_CURVE('',#435,#436,#239,.T.);
#547=EDGE_CURVE('',#436,#436,#366,.T.);
#548=EDGE_CURVE('',#437,#437,#367,.T.);
#549=EDGE_CURVE('',#437,#438,#240,.T.);
#550=EDGE_CURVE('',#438,#438,#368,.T.);
#551=EDGE_CURVE('',#439,#439,#369,.T.);
#552=EDGE_CURVE('',#439,#440,#241,.T.);
#553=EDGE_CURVE('',#440,#440,#370,.T.);
#554=EDGE_CURVE('',#441,#442,#242,.T.);
#555=EDGE_CURVE('',#442,#443,#243,.T.);
#556=EDGE_CURVE('',#443,#444,#244,.T.);
#557=EDGE_CURVE('',#444,#441,#245,.T.);
#558=EDGE_CURVE('',#445,#446,#246,.T.);
#559=EDGE_CURVE('',#446,#447,#247,.T.);
#560=EDGE_CURVE('',#447,#448,#248,.T.);
#561=EDGE_CURVE('',#448,#445,#249,.T.);
#562=EDGE_CURVE('',#445,#442,#250,.T.);
#563=EDGE_CURVE('',#448,#443,#251,.T.);
#564=EDGE_CURVE('',#441,#446,#252,.T.);
#565=EDGE_CURVE('',#444,#447,#253,.T.);
#566=ORIENTED_EDGE('',*,*,#449,.F.);
#567=ORIENTED_EDGE('',*,*,#450,.T.);
#568=ORIENTED_EDGE('',*,*,#451,.F.);
#569=ORIENTED_EDGE('',*,*,#450,.F.);
#570=ORIENTED_EDGE('',*,*,#452,.F.);
#571=ORIENTED_EDGE('',*,*,#453,.T.);
#572=ORIENTED_EDGE('',*,*,#454,.F.);
#573=ORIENTED_EDGE('',*,*,#453,.F.);
#574=ORIENTED_EDGE('',*,*,#455,.F.);
#575=ORIENTED_EDGE('',*,*,#456,.T.);
#576=ORIENTED_EDGE('',*,*,#457,.F.);
#577=ORIENTED_EDGE('',*,*,#456,.F.);
#578=ORIENTED_EDGE('',*,*,#458,.F.);
#579=ORIENTED_EDGE('',*,*,#459,.T.);
#580=ORIENTED_EDGE('',*,*,#460,.F.);
#581=ORIENTED_EDGE('',*,*,#459,.F.);
#582=ORIENTED_EDGE('',*,*,#461,.F.);
#583=ORIENTED_EDGE('',*,*,#462,.T.);
#584=ORIENTED_EDGE('',*,*,#463,.F.);
#585=ORIENTED_EDGE('',*,*,#464,.F.);
#586=ORIENTED_EDGE('',*,*,#465,.F.);
#587=ORIENTED_EDGE('',*,*,#466,.T.);
#588=ORIENTED_EDGE('',*,*,#467,.F.);
#589=ORIENTED_EDGE('',*,*,#462,.F.);
#590=ORIENTED_EDGE('',*,*,#468,.F.);
#591=ORIENTED_EDGE('',*,*,#469,.T.);
#592=ORIENTED_EDGE('',*,*,#470,.F.);
#593=ORIENTED_EDGE('',*,*,#466,.F.);
#594=ORIENTED_EDGE('',*,*,#471,.F.);
#595=ORIENTED_EDGE('',*,*,#472,.T.);
#596=ORIENTED_EDGE('',*,*,#473,.F.);
#597=ORIENTED_EDGE('',*,*,#469,.F.);
#598=ORIENTED_EDGE('',*,*,#474,.F.);
#599=ORIENTED_EDGE('',*,*,#475,.T.);
#600=ORIENTED_EDGE('',*,*,#476,.F.);
#601=ORIENTED_EDGE('',*,*,#472,.F.);
#602=ORIENTED_EDGE('',*,*,#477,.F.);
#603=ORIENTED_EDGE('',*,*,#478,.T.);
#604=ORIENTED_EDGE('',*,*,#479,.F.);
#605=ORIENTED_EDGE('',*,*,#475,.F.);
#606=ORIENTED_EDGE('',*,*,#480,.F.);
#607=ORIENTED_EDGE('',*,*,#464,.T.);
#608=ORIENTED_EDGE('',*,*,#481,.F.);
#609=ORIENTED_EDGE('',*,*,#478,.F.);
#610=ORIENTED_EDGE('',*,*,#482,.F.);
#611=ORIENTED_EDGE('',*,*,#483,.T.);
#612=ORIENTED_EDGE('',*,*,#484,.F.);
#613=ORIENTED_EDGE('',*,*,#485,.F.);
#614=ORIENTED_EDGE('',*,*,#486,.F.);
#615=ORIENTED_EDGE('',*,*,#487,.T.);
#616=ORIENTED_EDGE('',*,*,#488,.F.);
#617=ORIENTED_EDGE('',*,*,#483,.F.);
#618=ORIENTED_EDGE('',*,*,#489,.F.);
#619=ORIENTED_EDGE('',*,*,#490,.T.);
#620=ORIENTED_EDGE('',*,*,#491,.F.);
#621=ORIENTED_EDGE('',*,*,#487,.F.);
#622=ORIENTED_EDGE('',*,*,#492,.F.);
#623=ORIENTED_EDGE('',*,*,#493,.T.);
#624=ORIENTED_EDGE('',*,*,#494,.F.);
#625=ORIENTED_EDGE('',*,*,#490,.F.);
#626=ORIENTED_EDGE('',*,*,#495,.F.);
#627=ORIENTED_EDGE('',*,*,#496,.T.);
#628=ORIENTED_EDGE('',*,*,#497,.F.);
#629=ORIENTED_EDGE('',*,*,#493,.F.);
#630=ORIENTED_EDGE('',*,*,#498,.F.);
#631=ORIENTED_EDGE('',*,*,#499,.T.);
#632=ORIENTED_EDGE('',*,*,#500,.F.);
#633=ORIENTED_EDGE('',*,*,#496,.F.);
#634=ORIENTED_EDGE('',*,*,#501,.F.);
#635=ORIENTED_EDGE('',*,*,#485,.T.);
#636=ORIENTED_EDGE('',*,*,#502,.F.);
#637=ORIENTED_EDGE('',*,*,#499,.F.);
#638=ORIENTED_EDGE('',*,*,#503,.F.);
#639=ORIENTED_EDGE('',*,*,#504,.T.);
#640=ORIENTED_EDGE('',*,*,#505,.F.);
#641=ORIENTED_EDGE('',*,*,#506,.F.);
#642=ORIENTED_EDGE('',*,*,#507,.F.);
#643=ORIENTED_EDGE('',*,*,#508,.T.);
#644=ORIENTED_EDGE('',*,*,#509,.F.);
#645=ORIENTED_EDGE('',*,*,#504,.F.);
#646=ORIENTED_EDGE('',*,*,#510,.F.);
#647=ORIENTED_EDGE('',*,*,#511,.T.);
#648=ORIENTED_EDGE('',*,*,#512,.F.);
#649=ORIENTED_EDGE('',*,*,#508,.F.);
#650=ORIENTED_EDGE('',*,*,#513,.F.);
#651=ORIENTED_EDGE('',*,*,#514,.T.);
#652=ORIENTED_EDGE('',*,*,#515,.F.);
#653=ORIENTED_EDGE('',*,*,#511,.F.);
#654=ORIENTED_EDGE('',*,*,#516,.F.);
#655=ORIENTED_EDGE('',*,*,#517,.T.);
#656=ORIENTED_EDGE('',*,*,#518,.F.);
#657=ORIENTED_EDGE('',*,*,#514,.F.);
#658=ORIENTED_EDGE('',*,*,#519,.F.);
#659=ORIENTED_EDGE('',*,*,#520,.T.);
#660=ORIENTED_EDGE('',*,*,#521,.F.);
#661=ORIENTED_EDGE('',*,*,#517,.F.);
#662=ORIENTED_EDGE('',*,*,#522,.F.);
#663=ORIENTED_EDGE('',*,*,#506,.T.);
#664=ORIENTED_EDGE('',*,*,#523,.F.);
#665=ORIENTED_EDGE('',*,*,#520,.F.);
#666=ORIENTED_EDGE('',*,*,#524,.F.);
#667=ORIENTED_EDGE('',*,*,#525,.T.);
#668=ORIENTED_EDGE('',*,*,#526,.F.);
#669=ORIENTED_EDGE('',*,*,#525,.F.);
#670=ORIENTED_EDGE('',*,*,#527,.F.);
#671=ORIENTED_EDGE('',*,*,#528,.T.);
#672=ORIENTED_EDGE('',*,*,#529,.F.);
#673=ORIENTED_EDGE('',*,*,#528,.F.);
#674=ORIENTED_EDGE('',*,*,#530,.F.);
#675=ORIENTED_EDGE('',*,*,#531,.T.);
#676=ORIENTED_EDGE('',*,*,#532,.F.);
#677=ORIENTED_EDGE('',*,*,#531,.F.);
#678=ORIENTED_EDGE('',*,*,#533,.F.);
#679=ORIENTED_EDGE('',*,*,#534,.T.);
#680=ORIENTED_EDGE('',*,*,#535,.F.);
#681=ORIENTED_EDGE('',*,*,#534,.F.);
#682=ORIENTED_EDGE('',*,*,#536,.F.);
#683=ORIENTED_EDGE('',*,*,#537,.T.);
#684=ORIENTED_EDGE('',*,*,#538,.F.);
#685=ORIENTED_EDGE('',*,*,#537,.F.);
#686=ORIENTED_EDGE('',*,*,#539,.F.);
#687=ORIENTED_EDGE('',*,*,#540,.T.);
#688=ORIENTED_EDGE('',*,*,#541,.F.);
#689=ORIENTED_EDGE('',*,*,#540,.F.);
#690=ORIENTED_EDGE('',*,*,#542,.F.);
#691=ORIENTED_EDGE('',*,*,#543,.T.);
#692=ORIENTED_EDGE('',*,*,#544,.F.);
#693=ORIENTED_EDGE('',*,*,#543,.F.);
#694=ORIENTED_EDGE('',*,*,#545,.F.);
#695=ORIENTED_EDGE('',*,*,#546,.T.);
#696=ORIENTED_EDGE('',*,*,#547,.F.);
#697=ORIENTED_EDGE('',*,*,#546,.F.);
#698=ORIENTED_EDGE('',*,*,#548,.F.);
#699=ORIENTED_EDGE('',*,*,#549,.T.);
#700=ORIENTED_EDGE('',*,*,#550,.F.);
#701=ORIENTED_EDGE('',*,*,#549,.F.);
#702=ORIENTED_EDGE('',*,*,#551,.F.);
#703=ORIENTED_EDGE('',*,*,#552,.T.);
#704=ORIENTED_EDGE('',*,*,#553,.F.);
#705=ORIENTED_EDGE('',*,*,#552,.F.);
#706=ORIENTED_EDGE('',*,*,#554,.T.);
#707=ORIENTED_EDGE('',*,*,#555,.T.);
#708=ORIENTED_EDGE('',*,*,#556,.T.);
#709=ORIENTED_EDGE('',*,*,#557,.T.);
#710=ORIENTED_EDGE('',*,*,#558,.T.);
#711=ORIENTED_EDGE('',*,*,#559,.T.);
#712=ORIENTED_EDGE('',*,*,#560,.T.);
#713=ORIENTED_EDGE('',*,*,#561,.T.);
#714=ORIENTED_EDGE('',*,*,#562,.F.);
#715=ORIENTED_EDGE('',*,*,#561,.F.);
#716=ORIENTED_EDGE('',*,*,#563,.T.);
#717=ORIENTED_EDGE('',*,*,#555,.F.);
#718=ORIENTED_EDGE('',*,*,#564,.F.);
#719=ORIENTED_EDGE('',*,*,#557,.F.);
#720=ORIENTED_EDGE('',*,*,#565,.T.);
#721=ORIENTED_EDGE('',*,*,#559,.F.);
#722=ORIENTED_EDGE('',*,*,#562,.T.);
#723=ORIENTED_EDGE('',*,*,#554,.F.);
#724=ORIENTED_EDGE('',*,*,#564,.T.);
#725=ORIENTED_EDGE('',*,*,#558,.F.);
#726=ORIENTED_EDGE('',*,*,#449,.T.);
#727=ORIENTED_EDGE('',*,*,#452,.T.);
#728=ORIENTED_EDGE('',*,*,#455,.T.);
#729=ORIENTED_EDGE('',*,*,#458,.T.);
#730=ORIENTED_EDGE('',*,*,#461,.T.);
#731=ORIENTED_EDGE('',*,*,#480,.T.);
#732=ORIENTED_EDGE('',*,*,#477,.T.);
#733=ORIENTED_EDGE('',*,*,#474,.T.);
#734=ORIENTED_EDGE('',*,*,#471,.T.);
#735=ORIENTED_EDGE('',*,*,#468,.T.);
#736=ORIENTED_EDGE('',*,*,#465,.T.);
#737=ORIENTED_EDGE('',*,*,#482,.T.);
#738=ORIENTED_EDGE('',*,*,#501,.T.);
#739=ORIENTED_EDGE('',*,*,#498,.T.);
#740=ORIENTED_EDGE('',*,*,#495,.T.);
#741=ORIENTED_EDGE('',*,*,#492,.T.);
#742=ORIENTED_EDGE('',*,*,#489,.T.);
#743=ORIENTED_EDGE('',*,*,#486,.T.);
#744=ORIENTED_EDGE('',*,*,#503,.T.);
#745=ORIENTED_EDGE('',*,*,#522,.T.);
#746=ORIENTED_EDGE('',*,*,#519,.T.);
#747=ORIENTED_EDGE('',*,*,#516,.T.);
#748=ORIENTED_EDGE('',*,*,#513,.T.);
#749=ORIENTED_EDGE('',*,*,#510,.T.);
#750=ORIENTED_EDGE('',*,*,#507,.T.);
#751=ORIENTED_EDGE('',*,*,#524,.T.);
#752=ORIENTED_EDGE('',*,*,#527,.T.);
#753=ORIENTED_EDGE('',*,*,#530,.T.);
#754=ORIENTED_EDGE('',*,*,#533,.T.);
#755=ORIENTED_EDGE('',*,*,#536,.T.);
#756=ORIENTED_EDGE('',*,*,#539,.T.);
#757=ORIENTED_EDGE('',*,*,#542,.T.);
#758=ORIENTED_EDGE('',*,*,#545,.T.);
#759=ORIENTED_EDGE('',*,*,#548,.T.);
#760=ORIENTED_EDGE('',*,*,#551,.T.);
#761=ORIENTED_EDGE('',*,*,#565,.F.);
#762=ORIENTED_EDGE('',*,*,#556,.F.);
#763=ORIENTED_EDGE('',*,*,#563,.F.);
#764=ORIENTED_EDGE('',*,*,#560,.F.);
#765=ORIENTED_EDGE('',*,*,#451,.T.);
#766=ORIENTED_EDGE('',*,*,#454,.T.);
#767=ORIENTED_EDGE('',*,*,#457,.T.);
#768=ORIENTED_EDGE('',*,*,#460,.T.);
#769=ORIENTED_EDGE('',*,*,#463,.T.);
#770=ORIENTED_EDGE('',*,*,#467,.T.);
#771=ORIENTED_EDGE('',*,*,#470,.T.);
#772=ORIENTED_EDGE('',*,*,#473,.T.);
#773=ORIENTED_EDGE('',*,*,#476,.T.);
#774=ORIENTED_EDGE('',*,*,#479,.T.);
#775=ORIENTED_EDGE('',*,*,#481,.T.);
#776=ORIENTED_EDGE('',*,*,#484,.T.);
#777=ORIENTED_EDGE('',*,*,#488,.T.);
#778=ORIENTED_EDGE('',*,*,#491,.T.);
#779=ORIENTED_EDGE('',*,*,#494,.T.);
#780=ORIENTED_EDGE('',*,*,#497,.T.);
#781=ORIENTED_EDGE('',*,*,#500,.T.);
#782=ORIENTED_EDGE('',*,*,#502,.T.);
#783=ORIENTED_EDGE('',*,*,#505,.T.);
#784=ORIENTED_EDGE('',*,*,#509,.T.);
#785=ORIENTED_EDGE('',*,*,#512,.T.);
#786=ORIENTED_EDGE('',*,*,#515,.T.);
#787=ORIENTED_EDGE('',*,*,#518,.T.);
#788=ORIENTED_EDGE('',*,*,#521,.T.);
#789=ORIENTED_EDGE('',*,*,#523,.T.);
#790=ORIENTED_EDGE('',*,*,#526,.T.);
#791=ORIENTED_EDGE('',*,*,#529,.T.);
#792=ORIENTED_EDGE('',*,*,#532,.T.);
#793=ORIENTED_EDGE('',*,*,#535,.T.);
#794=ORIENTED_EDGE('',*,*,#538,.T.);
#795=ORIENTED_EDGE('',*,*,#541,.T.);
#796=ORIENTED_EDGE('',*,*,#544,.T.);
#797=ORIENTED_EDGE('',*,*,#547,.T.);
#798=ORIENTED_EDGE('',*,*,#550,.T.);
#799=ORIENTED_EDGE('',*,*,#553,.T.);
#800=CYLINDRICAL_SURFACE('',#878,1.45);
#801=CYLINDRICAL_SURFACE('',#881,1.45);
#802=CYLINDRICAL_SURFACE('',#884,1.45);
#803=CYLINDRICAL_SURFACE('',#887,1.45);
#804=CYLINDRICAL_SURFACE('',#890,0.999999999999995);
#805=CYLINDRICAL_SURFACE('',#894,0.999999999999988);
#806=CYLINDRICAL_SURFACE('',#898,0.999999999999993);
#807=CYLINDRICAL_SURFACE('',#904,0.999999999999988);
#808=CYLINDRICAL_SURFACE('',#908,0.999999999999993);
#809=CYLINDRICAL_SURFACE('',#913,0.999999999999995);
#810=CYLINDRICAL_SURFACE('',#917,0.999999999999988);
#811=CYLINDRICAL_SURFACE('',#921,0.999999999999993);
#812=CYLINDRICAL_SURFACE('',#926,0.999999999999995);
#813=CYLINDRICAL_SURFACE('',#929,1.75);
#814=CYLINDRICAL_SURFACE('',#932,1.75);
#815=CYLINDRICAL_SURFACE('',#935,1.75);
#816=CYLINDRICAL_SURFACE('',#938,1.75);
#817=CYLINDRICAL_SURFACE('',#941,1.75);
#818=CYLINDRICAL_SURFACE('',#944,1.75);
#819=CYLINDRICAL_SURFACE('',#947,1.75);
#820=CYLINDRICAL_SURFACE('',#950,1.905);
#821=CYLINDRICAL_SURFACE('',#953,1.905);
#822=CYLINDRICAL_SURFACE('',#956,1.905);
#823=ADVANCED_FACE('',(#67),#800,.F.);
#824=ADVANCED_FACE('',(#68),#801,.F.);
#825=ADVANCED_FACE('',(#69),#802,.F.);
#826=ADVANCED_FACE('',(#70),#803,.F.);
#827=ADVANCED_FACE('',(#71),#804,.F.);
#828=ADVANCED_FACE('',(#72),#49,.F.);
#829=ADVANCED_FACE('',(#73),#805,.F.);
#830=ADVANCED_FACE('',(#74),#50,.F.);
#831=ADVANCED_FACE('',(#75),#806,.F.);
#832=ADVANCED_FACE('',(#76),#51,.F.);
#833=ADVANCED_FACE('',(#77),#52,.F.);
#834=ADVANCED_FACE('',(#78),#53,.F.);
#835=ADVANCED_FACE('',(#79),#807,.F.);
#836=ADVANCED_FACE('',(#80),#54,.F.);
#837=ADVANCED_FACE('',(#81),#808,.F.);
#838=ADVANCED_FACE('',(#82),#55,.F.);
#839=ADVANCED_FACE('',(#83),#56,.F.);
#840=ADVANCED_FACE('',(#84),#809,.F.);
#841=ADVANCED_FACE('',(#85),#57,.F.);
#842=ADVANCED_FACE('',(#86),#810,.F.);
#843=ADVANCED_FACE('',(#87),#58,.F.);
#844=ADVANCED_FACE('',(#88),#811,.F.);
#845=ADVANCED_FACE('',(#89),#59,.F.);
#846=ADVANCED_FACE('',(#90),#60,.F.);
#847=ADVANCED_FACE('',(#91),#812,.F.);
#848=ADVANCED_FACE('',(#92),#813,.F.);
#849=ADVANCED_FACE('',(#93),#814,.F.);
#850=ADVANCED_FACE('',(#94),#815,.F.);
#851=ADVANCED_FACE('',(#95),#816,.F.);
#852=ADVANCED_FACE('',(#96),#817,.F.);
#853=ADVANCED_FACE('',(#97),#818,.F.);
#854=ADVANCED_FACE('',(#98),#819,.F.);
#855=ADVANCED_FACE('',(#99),#820,.F.);
#856=ADVANCED_FACE('',(#100),#821,.F.);
#857=ADVANCED_FACE('',(#101),#822,.F.);
#858=ADVANCED_FACE('',(#102),#61,.T.);
#859=ADVANCED_FACE('',(#103),#62,.T.);
#860=ADVANCED_FACE('',(#104),#63,.T.);
#861=ADVANCED_FACE('',(#105),#64,.T.);
#862=ADVANCED_FACE('',(#106,#15,#16,#17,#18,#19,#20,#21,#22,#23,#24,#25,
#26,#27,#28,#29,#30,#31),#65,.T.);
#863=ADVANCED_FACE('',(#107,#32,#33,#34,#35,#36,#37,#38,#39,#40,#41,#42,
#43,#44,#45,#46,#47,#48),#66,.T.);
#864=CLOSED_SHELL('',(#823,#824,#825,#826,#827,#828,#829,#830,#831,#832,
#833,#834,#835,#836,#837,#838,#839,#840,#841,#842,#843,#844,#845,#846,#847,
#848,#849,#850,#851,#852,#853,#854,#855,#856,#857,#858,#859,#860,#861,#862,
#863));
#865=DERIVED_UNIT_ELEMENT(#867,1.);
#866=DERIVED_UNIT_ELEMENT(#1454,-3.);
#867=(
MASS_UNIT()
NAMED_UNIT(*)
SI_UNIT(.KILO.,.GRAM.)
);
#868=DERIVED_UNIT((#865,#866));
#869=MEASURE_REPRESENTATION_ITEM('density measure',
POSITIVE_RATIO_MEASURE(7850.),#868);
#870=PROPERTY_DEFINITION_REPRESENTATION(#875,#872);
#871=PROPERTY_DEFINITION_REPRESENTATION(#876,#873);
#872=REPRESENTATION('material name',(#874),#1451);
#873=REPRESENTATION('density',(#869),#1451);
#874=DESCRIPTIVE_REPRESENTATION_ITEM('Steel','Steel');
#875=PROPERTY_DEFINITION('material property','material name',#1461);
#876=PROPERTY_DEFINITION('material property','density of part',#1461);
#877=AXIS2_PLACEMENT_3D('',#1212,#965,#966);
#878=AXIS2_PLACEMENT_3D('',#1213,#967,#968);
#879=AXIS2_PLACEMENT_3D('',#1215,#969,#970);
#880=AXIS2_PLACEMENT_3D('',#1218,#972,#973);
#881=AXIS2_PLACEMENT_3D('',#1219,#974,#975);
#882=AXIS2_PLACEMENT_3D('',#1221,#976,#977);
#883=AXIS2_PLACEMENT_3D('',#1224,#979,#980);
#884=AXIS2_PLACEMENT_3D('',#1225,#981,#982);
#885=AXIS2_PLACEMENT_3D('',#1227,#983,#984);
#886=AXIS2_PLACEMENT_3D('',#1230,#986,#987);
#887=AXIS2_PLACEMENT_3D('',#1231,#988,#989);
#888=AXIS2_PLACEMENT_3D('',#1233,#990,#991);
#889=AXIS2_PLACEMENT_3D('',#1236,#993,#994);
#890=AXIS2_PLACEMENT_3D('',#1237,#995,#996);
#891=AXIS2_PLACEMENT_3D('',#1240,#997,#998);
#892=AXIS2_PLACEMENT_3D('',#1244,#1000,#1001);
#893=AXIS2_PLACEMENT_3D('',#1246,#1003,#1004);
#894=AXIS2_PLACEMENT_3D('',#1252,#1008,#1009);
#895=AXIS2_PLACEMENT_3D('',#1254,#1010,#1011);
#896=AXIS2_PLACEMENT_3D('',#1257,#1013,#1014);
#897=AXIS2_PLACEMENT_3D('',#1258,#1015,#1016);
#898=AXIS2_PLACEMENT_3D('',#1264,#1020,#1021);
#899=AXIS2_PLACEMENT_3D('',#1266,#1022,#1023);
#900=AXIS2_PLACEMENT_3D('',#1269,#1025,#1026);
#901=AXIS2_PLACEMENT_3D('',#1270,#1027,#1028);
#902=AXIS2_PLACEMENT_3D('',#1276,#1032,#1033);
#903=AXIS2_PLACEMENT_3D('',#1279,#1036,#1037);
#904=AXIS2_PLACEMENT_3D('',#1288,#1042,#1043);
#905=AXIS2_PLACEMENT_3D('',#1290,#1044,#1045);
#906=AXIS2_PLACEMENT_3D('',#1293,#1047,#1048);
#907=AXIS2_PLACEMENT_3D('',#1294,#1049,#1050);
#908=AXIS2_PLACEMENT_3D('',#1300,#1054,#1055);
#909=AXIS2_PLACEMENT_3D('',#1302,#1056,#1057);
#910=AXIS2_PLACEMENT_3D('',#1305,#1059,#1060);
#911=AXIS2_PLACEMENT_3D('',#1306,#1061,#1062);
#912=AXIS2_PLACEMENT_3D('',#1312,#1066,#1067);
#913=AXIS2_PLACEMENT_3D('',#1318,#1071,#1072);
#914=AXIS2_PLACEMENT_3D('',#1319,#1073,#1074);
#915=AXIS2_PLACEMENT_3D('',#1320,#1075,#1076);
#916=AXIS2_PLACEMENT_3D('',#1321,#1077,#1078);
#917=AXIS2_PLACEMENT_3D('',#1330,#1083,#1084);
#918=AXIS2_PLACEMENT_3D('',#1332,#1085,#1086);
#919=AXIS2_PLACEMENT_3D('',#1335,#1088,#1089);
#920=AXIS2_PLACEMENT_3D('',#1336,#1090,#1091);
#921=AXIS2_PLACEMENT_3D('',#1342,#1095,#1096);
#922=AXIS2_PLACEMENT_3D('',#1344,#1097,#1098);
#923=AXIS2_PLACEMENT_3D('',#1347,#1100,#1101);
#924=AXIS2_PLACEMENT_3D('',#1348,#1102,#1103);
#925=AXIS2_PLACEMENT_3D('',#1354,#1107,#1108);
#926=AXIS2_PLACEMENT_3D('',#1360,#1112,#1113);
#927=AXIS2_PLACEMENT_3D('',#1361,#1114,#1115);
#928=AXIS2_PLACEMENT_3D('',#1362,#1116,#1117);
#929=AXIS2_PLACEMENT_3D('',#1363,#1118,#1119);
#930=AXIS2_PLACEMENT_3D('',#1365,#1120,#1121);
#931=AXIS2_PLACEMENT_3D('',#1368,#1123,#1124);
#932=AXIS2_PLACEMENT_3D('',#1369,#1125,#1126);
#933=AXIS2_PLACEMENT_3D('',#1371,#1127,#1128);
#934=AXIS2_PLACEMENT_3D('',#1374,#1130,#1131);
#935=AXIS2_PLACEMENT_3D('',#1375,#1132,#1133);
#936=AXIS2_PLACEMENT_3D('',#1377,#1134,#1135);
#937=AXIS2_PLACEMENT_3D('',#1380,#1137,#1138);
#938=AXIS2_PLACEMENT_3D('',#1381,#1139,#1140);
#939=AXIS2_PLACEMENT_3D('',#1383,#1141,#1142);
#940=AXIS2_PLACEMENT_3D('',#1386,#1144,#1145);
#941=AXIS2_PLACEMENT_3D('',#1387,#1146,#1147);
#942=AXIS2_PLACEMENT_3D('',#1389,#1148,#1149);
#943=AXIS2_PLACEMENT_3D('',#1392,#1151,#1152);
#944=AXIS2_PLACEMENT_3D('',#1393,#1153,#1154);
#945=AXIS2_PLACEMENT_3D('',#1395,#1155,#1156);
#946=AXIS2_PLACEMENT_3D('',#1398,#1158,#1159);
#947=AXIS2_PLACEMENT_3D('',#1399,#1160,#1161);
#948=AXIS2_PLACEMENT_3D('',#1401,#1162,#1163);
#949=AXIS2_PLACEMENT_3D('',#1404,#1165,#1166);
#950=AXIS2_PLACEMENT_3D('',#1405,#1167,#1168);
#951=AXIS2_PLACEMENT_3D('',#1407,#1169,#1170);
#952=AXIS2_PLACEMENT_3D('',#1410,#1172,#1173);
#953=AXIS2_PLACEMENT_3D('',#1411,#1174,#1175);
#954=AXIS2_PLACEMENT_3D('',#1413,#1176,#1177);
#955=AXIS2_PLACEMENT_3D('',#1416,#1179,#1180);
#956=AXIS2_PLACEMENT_3D('',#1417,#1181,#1182);
#957=AXIS2_PLACEMENT_3D('',#1419,#1183,#1184);
#958=AXIS2_PLACEMENT_3D('',#1422,#1186,#1187);
#959=AXIS2_PLACEMENT_3D('',#1423,#1188,#1189);
#960=AXIS2_PLACEMENT_3D('',#1432,#1194,#1195);
#961=AXIS2_PLACEMENT_3D('',#1441,#1200,#1201);
#962=AXIS2_PLACEMENT_3D('',#1444,#1204,#1205);
#963=AXIS2_PLACEMENT_3D('',#1447,#1208,#1209);
#964=AXIS2_PLACEMENT_3D('',#1448,#1210,#1211);
#965=DIRECTION('axis',(0.,0.,1.));
#966=DIRECTION('refdir',(1.,0.,0.));
#967=DIRECTION('center_axis',(-8.07434927000114E-16,-0.355553416295791,
-0.934655962459124));
#968=DIRECTION('ref_axis',(-1.,-2.81958594527912E-15,1.93648616718995E-15));
#969=DIRECTION('center_axis',(-1.99013594630058E-31,-0.355553416295793,
-0.934655962459124));
#970=DIRECTION('ref_axis',(-1.,-2.81958594527912E-15,1.93648616718995E-15));
#971=DIRECTION('',(-8.07434927000114E-16,-0.355553416295791,-0.934655962459124));
#972=DIRECTION('center_axis',(0.,0.355553416295793,0.934655962459124));
#973=DIRECTION('ref_axis',(-1.,-2.81958594527912E-15,1.93648616718995E-15));
#974=DIRECTION('center_axis',(-8.07434927000114E-16,-0.355553416295791,
-0.934655962459124));
#975=DIRECTION('ref_axis',(-1.,-2.81958594527912E-15,1.93648616718995E-15));
#976=DIRECTION('center_axis',(-1.99013594630058E-31,-0.355553416295793,
-0.934655962459124));
#977=DIRECTION('ref_axis',(-1.,-2.81958594527912E-15,1.93648616718995E-15));
#978=DIRECTION('',(-8.07434927000114E-16,-0.355553416295791,-0.934655962459124));
#979=DIRECTION('center_axis',(0.,0.355553416295793,0.934655962459124));
#980=DIRECTION('ref_axis',(-1.,-2.81958594527912E-15,1.93648616718995E-15));
#981=DIRECTION('center_axis',(-8.07434927000114E-16,-0.355553416295791,
-0.934655962459124));
#982=DIRECTION('ref_axis',(-1.,-2.81958594527912E-15,1.93648616718995E-15));
#983=DIRECTION('center_axis',(-1.99013594630058E-31,-0.355553416295793,
-0.934655962459124));
#984=DIRECTION('ref_axis',(-1.,-2.81958594527912E-15,1.93648616718995E-15));
#985=DIRECTION('',(-8.07434927000114E-16,-0.355553416295791,-0.934655962459124));
#986=DIRECTION('center_axis',(0.,0.355553416295793,0.934655962459124));
#987=DIRECTION('ref_axis',(-1.,-2.81958594527912E-15,1.93648616718995E-15));
#988=DIRECTION('center_axis',(-8.07434927000114E-16,-0.355553416295791,
-0.934655962459124));
#989=DIRECTION('ref_axis',(-1.,-2.81958594527912E-15,1.93648616718995E-15));
#990=DIRECTION('center_axis',(-1.99013594630058E-31,-0.355553416295793,
-0.934655962459124));
#991=DIRECTION('ref_axis',(-1.,-2.81958594527912E-15,1.93648616718995E-15));
#992=DIRECTION('',(-8.07434927000114E-16,-0.355553416295791,-0.934655962459124));
#993=DIRECTION('center_axis',(0.,0.355553416295793,0.934655962459124));
#994=DIRECTION('ref_axis',(-1.,-2.81958594527912E-15,1.93648616718995E-15));
#995=DIRECTION('center_axis',(0.,-0.355553416295793,-0.934655962459124));
#996=DIRECTION('ref_axis',(-1.,4.88969139141241E-31,-1.86009242831407E-31));
#997=DIRECTION('center_axis',(-1.99013594630058E-31,-0.355553416295793,
-0.934655962459124));
#998=DIRECTION('ref_axis',(-1.,5.59729102601264E-31,4.37905770101505E-47));
#999=DIRECTION('',(0.,-0.355553416295793,-0.934655962459124));
#1000=DIRECTION('center_axis',(0.,0.355553416295793,0.934655962459124));
#1001=DIRECTION('ref_axis',(-1.,4.88969139141241E-31,-1.86009242831407E-31));
#1002=DIRECTION('',(0.,-0.355553416295793,-0.934655962459124));
#1003=DIRECTION('center_axis',(-5.23154143108166E-31,-0.934655962459124,
0.355553416295793));
#1004=DIRECTION('ref_axis',(-1.,5.59729102601264E-31,2.18952885050753E-47));
#1005=DIRECTION('',(-1.,5.59729102601264E-31,-2.18952885050753E-47));
#1006=DIRECTION('',(0.,-0.355553416295793,-0.934655962459124));
#1007=DIRECTION('',(1.,-4.88969139141241E-31,1.86009242831407E-31));
#1008=DIRECTION('center_axis',(0.,-0.355553416295793,-0.934655962459124));
#1009=DIRECTION('ref_axis',(-8.88178419700135E-15,-0.934655962459124,0.355553416295793));
#1010=DIRECTION('center_axis',(-1.99013594630058E-31,-0.355553416295793,
-0.934655962459124));
#1011=DIRECTION('ref_axis',(-8.88178419700136E-15,-0.934655962459123,0.355553416295793));
#1012=DIRECTION('',(0.,-0.355553416295793,-0.934655962459124));
#1013=DIRECTION('center_axis',(0.,0.355553416295793,0.934655962459124));
#1014=DIRECTION('ref_axis',(-8.88178419700135E-15,-0.934655962459124,0.355553416295793));
#1015=DIRECTION('center_axis',(1.,-4.88969139141241E-31,1.86009242831407E-31));
#1016=DIRECTION('ref_axis',(-5.23154143108166E-31,-0.934655962459123,0.355553416295794));
#1017=DIRECTION('',(-5.23154143108166E-31,-0.934655962459124,0.355553416295793));
#1018=DIRECTION('',(0.,-0.355553416295793,-0.934655962459124));
#1019=DIRECTION('',(5.23154143108166E-31,0.934655962459124,-0.355553416295793));
#1020=DIRECTION('center_axis',(0.,-0.355553416295793,-0.934655962459124));
#1021=DIRECTION('ref_axis',(1.,-8.30141255700251E-15,3.15794871404581E-15));
#1022=DIRECTION('center_axis',(-1.99013594630058E-31,-0.355553416295793,
-0.934655962459124));
#1023=DIRECTION('ref_axis',(1.,-8.30141255700251E-15,3.15794871404581E-15));
#1024=DIRECTION('',(0.,-0.355553416295793,-0.934655962459124));
#1025=DIRECTION('center_axis',(0.,0.355553416295793,0.934655962459124));
#1026=DIRECTION('ref_axis',(1.,-8.30141255700251E-15,3.15794871404581E-15));
#1027=DIRECTION('center_axis',(5.23154143108166E-31,0.934655962459124,-0.355553416295793));
#1028=DIRECTION('ref_axis',(1.,-5.59729102601264E-31,-2.18952885050753E-47));
#1029=DIRECTION('',(1.,-5.59729102601264E-31,2.18952885050753E-47));
#1030=DIRECTION('',(0.,-0.355553416295793,-0.934655962459124));
#1031=DIRECTION('',(-1.,4.88969139141241E-31,-1.86009242831407E-31));
#1032=DIRECTION('center_axis',(-1.,1.0376765696253E-15,-3.94743589255723E-16));
#1033=DIRECTION('ref_axis',(1.11022302462515E-15,0.934655962459123,-0.355553416295794));
#1034=DIRECTION('',(1.11022302462516E-15,0.934655962459124,-0.355553416295793));
#1035=DIRECTION('',(-1.11022302462516E-15,-0.934655962459124,0.355553416295793));
#1036=DIRECTION('center_axis',(-5.23154143108166E-31,-0.934655962459124,
0.355553416295793));
#1037=DIRECTION('ref_axis',(-1.,5.59729102601264E-31,2.18952885050753E-47));
#1038=DIRECTION('',(-1.,5.59729102601264E-31,-2.18952885050753E-47));
#1039=DIRECTION('',(0.,-0.355553416295793,-0.934655962459124));
#1040=DIRECTION('',(1.,-4.88969139141241E-31,1.86009242831407E-31));
#1041=DIRECTION('',(0.,-0.355553416295793,-0.934655962459124));
#1042=DIRECTION('center_axis',(0.,-0.355553416295793,-0.934655962459124));
#1043=DIRECTION('ref_axis',(-8.88178419700135E-15,-0.934655962459124,0.355553416295793));
#1044=DIRECTION('center_axis',(-1.99013594630058E-31,-0.355553416295793,
-0.934655962459124));
#1045=DIRECTION('ref_axis',(-8.88178419700136E-15,-0.934655962459123,0.355553416295793));
#1046=DIRECTION('',(0.,-0.355553416295793,-0.934655962459124));
#1047=DIRECTION('center_axis',(0.,0.355553416295793,0.934655962459124));
#1048=DIRECTION('ref_axis',(-8.88178419700135E-15,-0.934655962459124,0.355553416295793));
#1049=DIRECTION('center_axis',(1.,-4.88969139141241E-31,1.86009242831407E-31));
#1050=DIRECTION('ref_axis',(-5.23154143108166E-31,-0.934655962459123,0.355553416295794));
#1051=DIRECTION('',(-5.23154143108166E-31,-0.934655962459124,0.355553416295793));
#1052=DIRECTION('',(0.,-0.355553416295793,-0.934655962459124));
#1053=DIRECTION('',(5.23154143108166E-31,0.934655962459124,-0.355553416295793));
#1054=DIRECTION('center_axis',(0.,-0.355553416295793,-0.934655962459124));
#1055=DIRECTION('ref_axis',(1.,-8.30141255700251E-15,3.15794871404581E-15));
#1056=DIRECTION('center_axis',(-1.99013594630058E-31,-0.355553416295793,
-0.934655962459124));
#1057=DIRECTION('ref_axis',(1.,-8.30141255700251E-15,3.15794871404581E-15));
#1058=DIRECTION('',(0.,-0.355553416295793,-0.934655962459124));
#1059=DIRECTION('center_axis',(0.,0.355553416295793,0.934655962459124));
#1060=DIRECTION('ref_axis',(1.,-8.30141255700251E-15,3.15794871404581E-15));
#1061=DIRECTION('center_axis',(5.23154143108166E-31,0.934655962459124,-0.355553416295793));
#1062=DIRECTION('ref_axis',(1.,-5.59729102601264E-31,-2.18952885050753E-47));
#1063=DIRECTION('',(1.,-5.59729102601264E-31,2.18952885050753E-47));
#1064=DIRECTION('',(0.,-0.355553416295793,-0.934655962459124));
#1065=DIRECTION('',(-1.,4.88969139141241E-31,-1.86009242831407E-31));
#1066=DIRECTION('center_axis',(-1.,1.0376765696253E-15,-3.94743589255723E-16));
#1067=DIRECTION('ref_axis',(1.11022302462515E-15,0.934655962459123,-0.355553416295794));
#1068=DIRECTION('',(1.11022302462516E-15,0.934655962459124,-0.355553416295793));
#1069=DIRECTION('',(0.,-0.355553416295793,-0.934655962459124));
#1070=DIRECTION('',(-1.11022302462516E-15,-0.934655962459124,0.355553416295793));
#1071=DIRECTION('center_axis',(0.,-0.355553416295793,-0.934655962459124));
#1072=DIRECTION('ref_axis',(-1.,4.88969139141241E-31,-1.86009242831407E-31));
#1073=DIRECTION('center_axis',(-1.99013594630058E-31,-0.355553416295793,
-0.934655962459124));
#1074=DIRECTION('ref_axis',(-1.,5.59729102601264E-31,4.37905770101505E-47));
#1075=DIRECTION('center_axis',(0.,0.355553416295793,0.934655962459124));
#1076=DIRECTION('ref_axis',(-1.,4.88969139141241E-31,-1.86009242831407E-31));
#1077=DIRECTION('center_axis',(-5.23154143108166E-31,-0.934655962459124,
0.355553416295793));
#1078=DIRECTION('ref_axis',(-1.,5.59729102601264E-31,2.18952885050753E-47));
#1079=DIRECTION('',(-1.,5.59729102601264E-31,-2.18952885050753E-47));
#1080=DIRECTION('',(0.,-0.355553416295793,-0.934655962459124));
#1081=DIRECTION('',(1.,-4.88969139141241E-31,1.86009242831407E-31));
#1082=DIRECTION('',(0.,-0.355553416295793,-0.934655962459124));
#1083=DIRECTION('center_axis',(0.,-0.355553416295793,-0.934655962459124));
#1084=DIRECTION('ref_axis',(-8.88178419700135E-15,-0.934655962459124,0.355553416295793));
#1085=DIRECTION('center_axis',(-1.99013594630058E-31,-0.355553416295793,
-0.934655962459124));
#1086=DIRECTION('ref_axis',(-8.88178419700136E-15,-0.934655962459123,0.355553416295793));
#1087=DIRECTION('',(0.,-0.355553416295793,-0.934655962459124));
#1088=DIRECTION('center_axis',(0.,0.355553416295793,0.934655962459124));
#1089=DIRECTION('ref_axis',(-8.88178419700135E-15,-0.934655962459124,0.355553416295793));
#1090=DIRECTION('center_axis',(1.,-4.88969139141241E-31,1.86009242831407E-31));
#1091=DIRECTION('ref_axis',(-5.23154143108166E-31,-0.934655962459123,0.355553416295794));
#1092=DIRECTION('',(-5.23154143108166E-31,-0.934655962459124,0.355553416295793));
#1093=DIRECTION('',(0.,-0.355553416295793,-0.934655962459124));
#1094=DIRECTION('',(5.23154143108166E-31,0.934655962459124,-0.355553416295793));
#1095=DIRECTION('center_axis',(0.,-0.355553416295793,-0.934655962459124));
#1096=DIRECTION('ref_axis',(1.,-8.30141255700251E-15,3.15794871404581E-15));
#1097=DIRECTION('center_axis',(-1.99013594630058E-31,-0.355553416295793,
-0.934655962459124));
#1098=DIRECTION('ref_axis',(1.,-8.30141255700251E-15,3.15794871404581E-15));
#1099=DIRECTION('',(0.,-0.355553416295793,-0.934655962459124));
#1100=DIRECTION('center_axis',(0.,0.355553416295793,0.934655962459124));
#1101=DIRECTION('ref_axis',(1.,-8.30141255700251E-15,3.15794871404581E-15));
#1102=DIRECTION('center_axis',(5.23154143108166E-31,0.934655962459124,-0.355553416295793));
#1103=DIRECTION('ref_axis',(1.,-5.59729102601264E-31,-2.18952885050753E-47));
#1104=DIRECTION('',(1.,-5.59729102601264E-31,2.18952885050753E-47));
#1105=DIRECTION('',(0.,-0.355553416295793,-0.934655962459124));
#1106=DIRECTION('',(-1.,4.88969139141241E-31,-1.86009242831407E-31));
#1107=DIRECTION('center_axis',(-1.,1.0376765696253E-15,-3.94743589255723E-16));
#1108=DIRECTION('ref_axis',(1.11022302462515E-15,0.934655962459123,-0.355553416295794));
#1109=DIRECTION('',(1.11022302462516E-15,0.934655962459124,-0.355553416295793));
#1110=DIRECTION('',(0.,-0.355553416295793,-0.934655962459124));
#1111=DIRECTION('',(-1.11022302462516E-15,-0.934655962459124,0.355553416295793));
#1112=DIRECTION('center_axis',(0.,-0.355553416295793,-0.934655962459124));
#1113=DIRECTION('ref_axis',(-1.,4.88969139141241E-31,-1.86009242831407E-31));
#1114=DIRECTION('center_axis',(-1.99013594630058E-31,-0.355553416295793,
-0.934655962459124));
#1115=DIRECTION('ref_axis',(-1.,5.59729102601264E-31,4.37905770101505E-47));
#1116=DIRECTION('center_axis',(0.,0.355553416295793,0.934655962459124));
#1117=DIRECTION('ref_axis',(-1.,4.88969139141241E-31,-1.86009242831407E-31));
#1118=DIRECTION('center_axis',(0.,-0.355553416295794,-0.934655962459123));
#1119=DIRECTION('ref_axis',(-1.,4.88969139141241E-31,-1.86009242831407E-31));
#1120=DIRECTION('center_axis',(-1.99013594630058E-31,-0.355553416295793,
-0.934655962459124));
#1121=DIRECTION('ref_axis',(-1.,5.59729102601264E-31,4.37905770101505E-47));
#1122=DIRECTION('',(0.,-0.355553416295794,-0.934655962459123));
#1123=DIRECTION('center_axis',(0.,0.355553416295793,0.934655962459124));
#1124=DIRECTION('ref_axis',(-1.,4.88969139141241E-31,-1.86009242831407E-31));
#1125=DIRECTION('center_axis',(0.,-0.355553416295794,-0.934655962459123));
#1126=DIRECTION('ref_axis',(-1.,4.88969139141241E-31,-1.86009242831407E-31));
#1127=DIRECTION('center_axis',(-1.99013594630058E-31,-0.355553416295793,
-0.934655962459124));
#1128=DIRECTION('ref_axis',(-1.,5.59729102601264E-31,4.37905770101505E-47));
#1129=DIRECTION('',(0.,-0.355553416295794,-0.934655962459123));
#1130=DIRECTION('center_axis',(0.,0.355553416295793,0.934655962459124));
#1131=DIRECTION('ref_axis',(-1.,4.88969139141241E-31,-1.86009242831407E-31));
#1132=DIRECTION('center_axis',(0.,-0.355553416295794,-0.934655962459123));
#1133=DIRECTION('ref_axis',(-1.,4.88969139141241E-31,-1.86009242831407E-31));
#1134=DIRECTION('center_axis',(-1.99013594630058E-31,-0.355553416295793,
-0.934655962459124));
#1135=DIRECTION('ref_axis',(-1.,5.59729102601264E-31,4.37905770101505E-47));
#1136=DIRECTION('',(0.,-0.355553416295794,-0.934655962459123));
#1137=DIRECTION('center_axis',(0.,0.355553416295793,0.934655962459124));
#1138=DIRECTION('ref_axis',(-1.,4.88969139141241E-31,-1.86009242831407E-31));
#1139=DIRECTION('center_axis',(0.,-0.355553416295794,-0.934655962459123));
#1140=DIRECTION('ref_axis',(-1.,4.88969139141241E-31,-1.86009242831407E-31));
#1141=DIRECTION('center_axis',(-1.99013594630058E-31,-0.355553416295793,
-0.934655962459124));
#1142=DIRECTION('ref_axis',(-1.,5.59729102601264E-31,4.37905770101505E-47));
#1143=DIRECTION('',(0.,-0.355553416295794,-0.934655962459123));
#1144=DIRECTION('center_axis',(0.,0.355553416295793,0.934655962459124));
#1145=DIRECTION('ref_axis',(-1.,4.88969139141241E-31,-1.86009242831407E-31));
#1146=DIRECTION('center_axis',(0.,-0.355553416295794,-0.934655962459123));
#1147=DIRECTION('ref_axis',(-1.,4.88969139141241E-31,-1.86009242831407E-31));
#1148=DIRECTION('center_axis',(-1.99013594630058E-31,-0.355553416295793,
-0.934655962459124));
#1149=DIRECTION('ref_axis',(-1.,5.59729102601264E-31,4.37905770101505E-47));
#1150=DIRECTION('',(0.,-0.355553416295794,-0.934655962459123));
#1151=DIRECTION('center_axis',(0.,0.355553416295793,0.934655962459124));
#1152=DIRECTION('ref_axis',(-1.,4.88969139141241E-31,-1.86009242831407E-31));
#1153=DIRECTION('center_axis',(0.,-0.355553416295794,-0.934655962459123));
#1154=DIRECTION('ref_axis',(-1.,4.88969139141241E-31,-1.86009242831407E-31));
#1155=DIRECTION('center_axis',(-1.99013594630058E-31,-0.355553416295793,
-0.934655962459124));
#1156=DIRECTION('ref_axis',(-1.,5.59729102601264E-31,4.37905770101505E-47));
#1157=DIRECTION('',(0.,-0.355553416295794,-0.934655962459123));
#1158=DIRECTION('center_axis',(0.,0.355553416295793,0.934655962459124));
#1159=DIRECTION('ref_axis',(-1.,4.88969139141241E-31,-1.86009242831407E-31));
#1160=DIRECTION('center_axis',(0.,-0.355553416295794,-0.934655962459123));
#1161=DIRECTION('ref_axis',(-1.,4.88969139141241E-31,-1.86009242831407E-31));
#1162=DIRECTION('center_axis',(-1.99013594630058E-31,-0.355553416295793,
-0.934655962459124));
#1163=DIRECTION('ref_axis',(-1.,5.59729102601264E-31,4.37905770101505E-47));
#1164=DIRECTION('',(0.,-0.355553416295794,-0.934655962459123));
#1165=DIRECTION('center_axis',(0.,0.355553416295793,0.934655962459124));
#1166=DIRECTION('ref_axis',(-1.,4.88969139141241E-31,-1.86009242831407E-31));
#1167=DIRECTION('center_axis',(0.,-0.355553416295795,-0.934655962459123));
#1168=DIRECTION('ref_axis',(-1.,4.8896913914124E-31,-1.86009242831407E-31));
#1169=DIRECTION('center_axis',(-1.99013594630058E-31,-0.355553416295793,
-0.934655962459124));
#1170=DIRECTION('ref_axis',(-1.,5.59729102601264E-31,2.18952885050753E-46));
#1171=DIRECTION('',(0.,-0.355553416295795,-0.934655962459123));
#1172=DIRECTION('center_axis',(0.,0.355553416295793,0.934655962459124));
#1173=DIRECTION('ref_axis',(-1.,4.88969139141241E-31,-1.86009242831406E-31));
#1174=DIRECTION('center_axis',(0.,-0.355553416295793,-0.934655962459124));
#1175=DIRECTION('ref_axis',(-1.,4.88969139141241E-31,-1.86009242831407E-31));
#1176=DIRECTION('center_axis',(-1.99013594630058E-31,-0.355553416295793,
-0.934655962459124));
#1177=DIRECTION('ref_axis',(-1.,5.59729102601264E-31,4.37905770101505E-47));
#1178=DIRECTION('',(0.,-0.355553416295793,-0.934655962459124));
#1179=DIRECTION('center_axis',(0.,0.355553416295793,0.934655962459124));
#1180=DIRECTION('ref_axis',(-1.,4.88969139141241E-31,-1.86009242831407E-31));
#1181=DIRECTION('center_axis',(0.,-0.355553416295793,-0.934655962459124));
#1182=DIRECTION('ref_axis',(-1.,4.88969139141241E-31,-1.86009242831407E-31));
#1183=DIRECTION('center_axis',(-1.99013594630058E-31,-0.355553416295793,
-0.934655962459124));
#1184=DIRECTION('ref_axis',(-1.,5.59729102601264E-31,4.37905770101505E-47));
#1185=DIRECTION('',(0.,-0.355553416295793,-0.934655962459124));
#1186=DIRECTION('center_axis',(0.,0.355553416295793,0.934655962459124));
#1187=DIRECTION('ref_axis',(-1.,4.88969139141241E-31,-1.86009242831407E-31));
#1188=DIRECTION('center_axis',(1.,0.,0.));
#1189=DIRECTION('ref_axis',(0.,0.,-1.));
#1190=DIRECTION('',(0.,-0.934655962459123,0.355553416295794));
#1191=DIRECTION('',(0.,-0.355553416295793,-0.934655962459124));
#1192=DIRECTION('',(0.,0.934655962459123,-0.355553416295794));
#1193=DIRECTION('',(0.,0.355553416295793,0.934655962459124));
#1194=DIRECTION('center_axis',(-1.,0.,0.));
#1195=DIRECTION('ref_axis',(0.,0.,1.));
#1196=DIRECTION('',(0.,0.934655962459124,-0.355553416295793));
#1197=DIRECTION('',(0.,-0.355553416295793,-0.934655962459124));
#1198=DIRECTION('',(0.,-0.934655962459124,0.355553416295793));
#1199=DIRECTION('',(0.,0.355553416295793,0.934655962459124));
#1200=DIRECTION('center_axis',(3.38963670212154E-32,-0.934655962459124,
0.355553416295793));
#1201=DIRECTION('ref_axis',(-1.,-1.76061069357691E-17,-4.62818020275178E-17));
#1202=DIRECTION('',(1.,1.76061069357691E-17,4.62818020275178E-17));
#1203=DIRECTION('',(1.,0.,0.));
#1204=DIRECTION('center_axis',(0.,0.934655962459124,-0.355553416295793));
#1205=DIRECTION('ref_axis',(1.,0.,0.));
#1206=DIRECTION('',(-1.,0.,0.));
#1207=DIRECTION('',(-1.,0.,0.));
#1208=DIRECTION('center_axis',(1.99013594630058E-31,0.355553416295793,0.934655962459124));
#1209=DIRECTION('ref_axis',(-1.,7.07599634600233E-32,1.86009242831407E-31));
#1210=DIRECTION('center_axis',(0.,-0.355553416295793,-0.934655962459124));
#1211=DIRECTION('ref_axis',(-1.,0.,0.));
#1212=CARTESIAN_POINT('',(0.,0.,0.));
#1213=CARTESIAN_POINT('Origin',(68.7333459204632,-24.4270132015009,19.9931684955169));
#1214=CARTESIAN_POINT('',(70.1833459204632,-24.4270132015009,19.9931684955169));
#1215=CARTESIAN_POINT('Origin',(68.7333459204632,-24.4270132015009,19.9931684955169));
#1216=CARTESIAN_POINT('',(70.1833459204632,-25.1381200340925,18.1238565705986));
#1217=CARTESIAN_POINT('',(70.1833459204632,-24.4270132015009,19.9931684955169));
#1218=CARTESIAN_POINT('Origin',(68.7333459204632,-25.1381200340925,18.1238565705986));
#1219=CARTESIAN_POINT('Origin',(-69.2648917881013,-43.1461020179662,27.1141159306859));
#1220=CARTESIAN_POINT('',(-67.8148917881013,-43.1461020179662,27.1141159306859));
#1221=CARTESIAN_POINT('Origin',(-69.2648917881013,-43.1461020179662,27.1141159306859));
#1222=CARTESIAN_POINT('',(-67.8148917881013,-43.8572088505578,25.2448040057675));
#1223=CARTESIAN_POINT('',(-67.8148917881013,-43.1461020179662,27.1141159306859));
#1224=CARTESIAN_POINT('Origin',(-69.2648917881013,-43.8572088505578,25.2448040057676));
#1225=CARTESIAN_POINT('Origin',(68.7333459204632,-43.537101262174,27.262856347086));
#1226=CARTESIAN_POINT('',(70.1833459204632,-43.537101262174,27.262856347086));
#1227=CARTESIAN_POINT('Origin',(68.7333459204632,-43.537101262174,27.262856347086));
#1228=CARTESIAN_POINT('',(70.1833459204632,-44.2482080947656,25.3935444221677));
#1229=CARTESIAN_POINT('',(70.1833459204632,-43.537101262174,27.262856347086));
#1230=CARTESIAN_POINT('Origin',(68.7333459204632,-44.2482080947656,25.3935444221677));
#1231=CARTESIAN_POINT('Origin',(-69.2648917881014,-24.5247630125533,20.0303535996173));
#1232=CARTESIAN_POINT('',(-67.8148917881014,-24.5247630125533,20.0303535996173));
#1233=CARTESIAN_POINT('Origin',(-69.2648917881014,-24.5247630125533,20.0303535996173));
#1234=CARTESIAN_POINT('',(-67.8148917881014,-25.2358698451449,18.161041674699));
#1235=CARTESIAN_POINT('',(-67.8148917881014,-24.5247630125533,20.0303535996173));
#1236=CARTESIAN_POINT('Origin',(-69.2648917881014,-25.2358698451449,18.161041674699));
#1237=CARTESIAN_POINT('Origin',(6.64000129699706,-38.241703659127,25.2484288100764));
#1238=CARTESIAN_POINT('',(6.64000129699706,-39.1763596215861,25.6039822263723));
#1239=CARTESIAN_POINT('',(5.64000129699707,-38.241703659127,25.2484288100764));
#1240=CARTESIAN_POINT('Origin',(6.64000129699706,-38.241703659127,25.2484288100764));
#1241=CARTESIAN_POINT('',(6.64000129699706,-39.8874664541778,23.734670301454));
#1242=CARTESIAN_POINT('',(6.64000129699706,-39.1763596215861,25.6039822263723));
#1243=CARTESIAN_POINT('',(5.64000129699707,-38.9528104917185,23.3791168851582));
#1244=CARTESIAN_POINT('Origin',(6.64000129699706,-38.9528104917185,23.3791168851582));
#1245=CARTESIAN_POINT('',(5.64000129699707,-38.241703659127,25.2484288100764));
#1246=CARTESIAN_POINT('Origin',(39.6400012969971,-39.1763596215861,25.6039822263723));
#1247=CARTESIAN_POINT('',(39.6400012969971,-39.1763596215861,25.6039822263723));
#1248=CARTESIAN_POINT('',(19.8200006484985,-39.1763596215861,25.6039822263723));
#1249=CARTESIAN_POINT('',(39.6400012969971,-39.8874664541778,23.734670301454));
#1250=CARTESIAN_POINT('',(39.6400012969971,-39.1763596215861,25.6039822263723));
#1251=CARTESIAN_POINT('',(19.8200006484985,-39.8874664541778,23.7346703014539));
#1252=CARTESIAN_POINT('Origin',(39.6400012969971,-38.241703659127,25.2484288100764));
#1253=CARTESIAN_POINT('',(40.6400012969971,-38.241703659127,25.2484288100764));
#1254=CARTESIAN_POINT('Origin',(39.6400012969971,-38.241703659127,25.2484288100764));
#1255=CARTESIAN_POINT('',(40.6400012969971,-38.9528104917185,23.3791168851582));
#1256=CARTESIAN_POINT('',(40.6400012969971,-38.241703659127,25.2484288100764));
#1257=CARTESIAN_POINT('Origin',(39.6400012969971,-38.9528104917185,23.3791168851582));
#1258=CARTESIAN_POINT('Origin',(40.6400012969971,-37.3070476966678,24.8928753937806));
#1259=CARTESIAN_POINT('',(40.6400012969971,-37.3070476966678,24.8928753937806));
#1260=CARTESIAN_POINT('',(40.6400012969971,-35.5402661987171,24.2207722642058));
#1261=CARTESIAN_POINT('',(40.6400012969971,-38.0181545292595,23.0235634688624));
#1262=CARTESIAN_POINT('',(40.6400012969971,-37.3070476966678,24.8928753937806));
#1263=CARTESIAN_POINT('',(40.6400012969971,-36.2513730313088,22.3514603392875));
#1264=CARTESIAN_POINT('Origin',(39.6400012969971,-37.3070476966678,24.8928753937806));
#1265=CARTESIAN_POINT('',(39.6400012969971,-36.3723917342087,24.5373219774848));
#1266=CARTESIAN_POINT('Origin',(39.6400012969971,-37.3070476966678,24.8928753937806));
#1267=CARTESIAN_POINT('',(39.6400012969971,-37.0834985668002,22.6680100525666));
#1268=CARTESIAN_POINT('',(39.6400012969971,-36.3723917342087,24.5373219774848));
#1269=CARTESIAN_POINT('Origin',(39.6400012969971,-38.0181545292595,23.0235634688623));
#1270=CARTESIAN_POINT('Origin',(5.64000129699707,-36.3723917342087,24.5373219774848));
#1271=CARTESIAN_POINT('',(5.64000129699707,-36.3723917342087,24.5373219774848));
#1272=CARTESIAN_POINT('',(2.82000064849852,-36.3723917342087,24.5373219774848));
#1273=CARTESIAN_POINT('',(5.64000129699707,-37.0834985668004,22.6680100525666));
#1274=CARTESIAN_POINT('',(5.64000129699707,-36.3723917342087,24.5373219774848));
#1275=CARTESIAN_POINT('',(2.82000064849852,-37.0834985668004,22.6680100525666));
#1276=CARTESIAN_POINT('Origin',(5.64000129699707,-38.241703659127,25.2484288100764));
#1277=CARTESIAN_POINT('',(5.64000129699707,-36.0075941799468,24.3985489723537));
#1278=CARTESIAN_POINT('',(5.64000129699707,-36.7187010125382,22.5292370474354));
#1279=CARTESIAN_POINT('Origin',(39.6400012969971,-32.0542811876475,22.8946651941983));
#1280=CARTESIAN_POINT('',(39.6400012969971,-32.0542811876475,22.8946651941983));
#1281=CARTESIAN_POINT('',(6.64000129699706,-32.0542811876475,22.8946651941983));
#1282=CARTESIAN_POINT('',(19.8200006484985,-32.0542811876475,22.8946651941983));
#1283=CARTESIAN_POINT('',(39.6400012969971,-32.7653880202392,21.02535326928));
#1284=CARTESIAN_POINT('',(39.6400012969971,-32.0542811876475,22.8946651941983));
#1285=CARTESIAN_POINT('',(6.64000129699706,-32.7653880202392,21.02535326928));
#1286=CARTESIAN_POINT('',(19.8200006484985,-32.7653880202392,21.02535326928));
#1287=CARTESIAN_POINT('',(6.64000129699706,-32.0542811876475,22.8946651941983));
#1288=CARTESIAN_POINT('Origin',(39.6400012969971,-31.1196252251884,22.5391117779025));
#1289=CARTESIAN_POINT('',(40.6400012969971,-31.1196252251884,22.5391117779025));
#1290=CARTESIAN_POINT('Origin',(39.6400012969971,-31.1196252251884,22.5391117779025));
#1291=CARTESIAN_POINT('',(40.6400012969971,-31.8307320577802,20.6697998529842));
#1292=CARTESIAN_POINT('',(40.6400012969971,-31.1196252251884,22.5391117779025));
#1293=CARTESIAN_POINT('Origin',(39.6400012969971,-31.8307320577802,20.6697998529842));
#1294=CARTESIAN_POINT('Origin',(40.6400012969971,-30.1849692627294,22.1835583616067));
#1295=CARTESIAN_POINT('',(40.6400012969971,-30.1849692627294,22.1835583616067));
#1296=CARTESIAN_POINT('',(40.6400012969971,-31.9792269817478,22.8661137481188));
#1297=CARTESIAN_POINT('',(40.6400012969971,-30.8960760953209,20.3142464366884));
#1298=CARTESIAN_POINT('',(40.6400012969971,-30.1849692627294,22.1835583616067));
#1299=CARTESIAN_POINT('',(40.6400012969971,-32.6903338143395,20.9968018232006));
#1300=CARTESIAN_POINT('Origin',(39.6400012969971,-30.1849692627294,22.1835583616067));
#1301=CARTESIAN_POINT('',(39.6400012969971,-29.2503133002701,21.8280049453109));
#1302=CARTESIAN_POINT('Origin',(39.6400012969971,-30.1849692627294,22.1835583616067));
#1303=CARTESIAN_POINT('',(39.6400012969971,-29.9614201328618,19.9586930203926));
#1304=CARTESIAN_POINT('',(39.6400012969971,-29.2503133002701,21.8280049453109));
#1305=CARTESIAN_POINT('Origin',(39.6400012969971,-30.8960760953209,20.3142464366884));
#1306=CARTESIAN_POINT('Origin',(5.64000129699707,-29.2503133002701,21.8280049453109));
#1307=CARTESIAN_POINT('',(5.64000129699707,-29.2503133002701,21.8280049453109));
#1308=CARTESIAN_POINT('',(2.82000064849852,-29.2503133002701,21.8280049453109));
#1309=CARTESIAN_POINT('',(5.64000129699707,-29.9614201328618,19.9586930203926));
#1310=CARTESIAN_POINT('',(5.64000129699707,-29.2503133002701,21.8280049453109));
#1311=CARTESIAN_POINT('',(2.82000064849852,-29.9614201328618,19.9586930203926));
#1312=CARTESIAN_POINT('Origin',(5.64000129699707,-31.1196252251884,22.5391117779025));
#1313=CARTESIAN_POINT('',(5.64000129699707,-31.1196252251884,22.5391117779025));
#1314=CARTESIAN_POINT('',(5.64000129699707,-32.4465549629775,23.0438904562667));
#1315=CARTESIAN_POINT('',(5.64000129699707,-31.8307320577802,20.6697998529842));
#1316=CARTESIAN_POINT('',(5.64000129699707,-31.1196252251884,22.5391117779025));
#1317=CARTESIAN_POINT('',(5.64000129699707,-33.1576617955692,21.1745785313485));
#1318=CARTESIAN_POINT('Origin',(6.64000129699706,-31.1196252251884,22.5391117779025));
#1319=CARTESIAN_POINT('Origin',(6.64000129699706,-31.1196252251884,22.5391117779025));
#1320=CARTESIAN_POINT('Origin',(6.64000129699706,-31.8307320577802,20.6697998529842));
#1321=CARTESIAN_POINT('Origin',(39.6400012969971,-24.9322027537091,20.1853481620243));
#1322=CARTESIAN_POINT('',(39.6400012969971,-24.9322027537091,20.1853481620243));
#1323=CARTESIAN_POINT('',(6.64000129699706,-24.9322027537091,20.1853481620243));
#1324=CARTESIAN_POINT('',(19.8200006484985,-24.9322027537091,20.1853481620243));
#1325=CARTESIAN_POINT('',(39.6400012969971,-25.6433095863006,18.3160362371061));
#1326=CARTESIAN_POINT('',(39.6400012969971,-24.9322027537091,20.1853481620243));
#1327=CARTESIAN_POINT('',(6.64000129699706,-25.6433095863006,18.3160362371061));
#1328=CARTESIAN_POINT('',(19.8200006484985,-25.6433095863006,18.3160362371061));
#1329=CARTESIAN_POINT('',(6.64000129699706,-24.9322027537091,20.1853481620243));
#1330=CARTESIAN_POINT('Origin',(39.6400012969971,-23.99754679125,19.8297947457285));
#1331=CARTESIAN_POINT('',(40.6400012969971,-23.9975467912499,19.8297947457285));
#1332=CARTESIAN_POINT('Origin',(39.6400012969971,-23.99754679125,19.8297947457285));
#1333=CARTESIAN_POINT('',(40.6400012969971,-24.7086536238415,17.9604828208103));
#1334=CARTESIAN_POINT('',(40.6400012969971,-23.9975467912499,19.8297947457285));
#1335=CARTESIAN_POINT('Origin',(39.6400012969971,-24.7086536238415,17.9604828208103));
#1336=CARTESIAN_POINT('Origin',(40.6400012969971,-23.0628908287908,19.4742413294327));
#1337=CARTESIAN_POINT('',(40.6400012969971,-23.0628908287908,19.4742413294327));
#1338=CARTESIAN_POINT('',(40.6400012969971,-28.4181877647788,21.5114552320318));
#1339=CARTESIAN_POINT('',(40.6400012969971,-23.7739976613824,17.6049294045145));
#1340=CARTESIAN_POINT('',(40.6400012969971,-23.0628908287908,19.4742413294327));
#1341=CARTESIAN_POINT('',(40.6400012969971,-29.1292945973702,19.6421433071136));
#1342=CARTESIAN_POINT('Origin',(39.6400012969971,-23.0628908287908,19.4742413294327));
#1343=CARTESIAN_POINT('',(39.6400012969971,-22.1282348663317,19.1186879131369));
#1344=CARTESIAN_POINT('Origin',(39.6400012969971,-23.0628908287908,19.4742413294327));
#1345=CARTESIAN_POINT('',(39.6400012969971,-22.8393416989233,17.2493759882187));
#1346=CARTESIAN_POINT('',(39.6400012969971,-22.1282348663317,19.1186879131369));
#1347=CARTESIAN_POINT('Origin',(39.6400012969971,-23.7739976613824,17.6049294045145));
#1348=CARTESIAN_POINT('Origin',(5.64000129699707,-22.1282348663317,19.1186879131369));
#1349=CARTESIAN_POINT('',(5.64000129699707,-22.1282348663317,19.1186879131369));
#1350=CARTESIAN_POINT('',(2.82000064849852,-22.1282348663317,19.1186879131369));
#1351=CARTESIAN_POINT('',(5.64000129699707,-22.8393416989233,17.2493759882187));
#1352=CARTESIAN_POINT('',(5.64000129699707,-22.1282348663317,19.1186879131369));
#1353=CARTESIAN_POINT('',(2.82000064849852,-22.8393416989233,17.2493759882187));
#1354=CARTESIAN_POINT('Origin',(5.64000129699707,-23.9975467912499,19.8297947457285));
#1355=CARTESIAN_POINT('',(5.64000129699707,-23.9975467912499,19.8297947457285));
#1356=CARTESIAN_POINT('',(5.64000129699707,-28.8855157460082,21.6892319401797));
#1357=CARTESIAN_POINT('',(5.64000129699707,-24.7086536238415,17.9604828208103));
#1358=CARTESIAN_POINT('',(5.64000129699707,-23.9975467912499,19.8297947457285));
#1359=CARTESIAN_POINT('',(5.64000129699707,-29.5966225785999,19.8199200152615));
#1360=CARTESIAN_POINT('Origin',(6.64000129699706,-23.9975467912499,19.8297947457285));
#1361=CARTESIAN_POINT('Origin',(6.64000129699706,-23.9975467912499,19.8297947457285));
#1362=CARTESIAN_POINT('Origin',(6.64000129699706,-24.7086536238415,17.9604828208103));
#1363=CARTESIAN_POINT('Origin',(-35.0233000000001,-44.9950724028395,27.817484617536));
#1364=CARTESIAN_POINT('',(-33.2733,-44.9950724028395,27.817484617536));
#1365=CARTESIAN_POINT('Origin',(-35.0233000000001,-44.9950724028395,27.817484617536));
#1366=CARTESIAN_POINT('',(-33.2733,-45.7061792354313,25.9481726926176));
#1367=CARTESIAN_POINT('',(-33.2733000000001,-44.9950724028395,27.817484617536));
#1368=CARTESIAN_POINT('Origin',(-35.0233000000001,-45.7061792354313,25.9481726926176));
#1369=CARTESIAN_POINT('Origin',(35.0233000000001,-44.9950724028395,27.817484617536));
#1370=CARTESIAN_POINT('',(36.7732999999999,-44.9950724028395,27.817484617536));
#1371=CARTESIAN_POINT('Origin',(35.0233000000001,-44.9950724028395,27.817484617536));
#1372=CARTESIAN_POINT('',(36.7732999999999,-45.7061792354313,25.9481726926176));
#1373=CARTESIAN_POINT('',(36.7733000000001,-44.9950724028395,27.817484617536));
#1374=CARTESIAN_POINT('Origin',(35.0233000000001,-45.7061792354313,25.9481726926176));
#1375=CARTESIAN_POINT('Origin',(-48.8790000000001,-44.9950724028395,27.817484617536));
#1376=CARTESIAN_POINT('',(-47.1289999999999,-44.9950724028395,27.817484617536));
#1377=CARTESIAN_POINT('Origin',(-48.8790000000001,-44.9950724028395,27.817484617536));
#1378=CARTESIAN_POINT('',(-47.1289999999999,-45.7061792354313,25.9481726926176));
#1379=CARTESIAN_POINT('',(-47.1290000000001,-44.9950724028395,27.817484617536));
#1380=CARTESIAN_POINT('Origin',(-48.8790000000001,-45.7061792354313,25.9481726926176));
#1381=CARTESIAN_POINT('Origin',(-21.1676,-44.9950724028395,27.817484617536));
#1382=CARTESIAN_POINT('',(-19.4176,-44.9950724028395,27.817484617536));
#1383=CARTESIAN_POINT('Origin',(-21.1676,-44.9950724028395,27.817484617536));
#1384=CARTESIAN_POINT('',(-19.4176,-45.7061792354313,25.9481726926176));
#1385=CARTESIAN_POINT('',(-19.4176,-44.9950724028395,27.817484617536));
#1386=CARTESIAN_POINT('Origin',(-21.1676,-45.7061792354313,25.9481726926176));
#1387=CARTESIAN_POINT('Origin',(21.1676,-44.9950724028395,27.817484617536));
#1388=CARTESIAN_POINT('',(22.9176,-44.9950724028395,27.817484617536));
#1389=CARTESIAN_POINT('Origin',(21.1676,-44.9950724028395,27.817484617536));
#1390=CARTESIAN_POINT('',(22.9176,-45.7061792354313,25.9481726926176));
#1391=CARTESIAN_POINT('',(22.9176,-44.9950724028395,27.817484617536));
#1392=CARTESIAN_POINT('Origin',(21.1676,-45.7061792354313,25.9481726926176));
#1393=CARTESIAN_POINT('Origin',(7.31189999999999,-44.9950724028395,27.817484617536));
#1394=CARTESIAN_POINT('',(9.0619,-44.9950724028395,27.817484617536));
#1395=CARTESIAN_POINT('Origin',(7.31189999999999,-44.9950724028395,27.817484617536));
#1396=CARTESIAN_POINT('',(9.0619,-45.7061792354313,25.9481726926176));
#1397=CARTESIAN_POINT('',(9.06189999999999,-44.9950724028395,27.817484617536));
#1398=CARTESIAN_POINT('Origin',(7.31189999999999,-45.7061792354313,25.9481726926176));
#1399=CARTESIAN_POINT('Origin',(-7.31189999999999,-44.9950724028395,27.817484617536));
#1400=CARTESIAN_POINT('',(-5.5619,-44.9950724028395,27.817484617536));
#1401=CARTESIAN_POINT('Origin',(-7.31189999999999,-44.9950724028395,27.817484617536));
#1402=CARTESIAN_POINT('',(-5.5619,-45.7061792354313,25.9481726926176));
#1403=CARTESIAN_POINT('',(-5.56189999999999,-44.9950724028395,27.817484617536));
#1404=CARTESIAN_POINT('Origin',(-7.31189999999999,-45.7061792354313,25.9481726926176));
#1405=CARTESIAN_POINT('Origin',(48.1125000000001,-39.3691260162077,25.6773126847522));
#1406=CARTESIAN_POINT('',(50.0175000000001,-39.3691260162077,25.6773126847522));
#1407=CARTESIAN_POINT('Origin',(48.1125000000001,-39.3691260162077,25.6773126847522));
#1408=CARTESIAN_POINT('',(50.0175000000001,-40.0802328487994,23.808000759834));
#1409=CARTESIAN_POINT('',(50.0175000000001,-39.3691260162077,25.6773126847522));
#1410=CARTESIAN_POINT('Origin',(48.1125000000001,-40.0802328487994,23.808000759834));
#1411=CARTESIAN_POINT('Origin',(48.1125000000001,-30.4618546939724,22.2888886274533));
#1412=CARTESIAN_POINT('',(50.0175000000001,-30.4618546939724,22.2888886274533));
#1413=CARTESIAN_POINT('Origin',(48.1125000000001,-30.4618546939724,22.2888886274533));
#1414=CARTESIAN_POINT('',(50.0175000000001,-31.1729615265639,20.4195767025351));
#1415=CARTESIAN_POINT('',(50.0175000000001,-30.4618546939724,22.2888886274533));
#1416=CARTESIAN_POINT('Origin',(48.1125000000001,-31.1729615265639,20.4195767025351));
#1417=CARTESIAN_POINT('Origin',(48.1125000000001,-21.5545833717369,18.9004645701544));
#1418=CARTESIAN_POINT('',(50.0175000000001,-21.5545833717369,18.9004645701544));
#1419=CARTESIAN_POINT('Origin',(48.1125000000001,-21.5545833717369,18.9004645701544));
#1420=CARTESIAN_POINT('',(50.0175000000001,-22.2656902043285,17.0311526452362));
#1421=CARTESIAN_POINT('',(50.0175000000001,-21.5545833717369,18.9004645701544));
#1422=CARTESIAN_POINT('Origin',(48.1125000000001,-22.2656902043285,17.0311526452362));
#1423=CARTESIAN_POINT('Origin',(72.2625,-19.1875,18.));
#1424=CARTESIAN_POINT('',(72.2625,-19.1875,18.));
#1425=CARTESIAN_POINT('',(72.2625,-48.359469401533,29.0973382692619));
#1426=CARTESIAN_POINT('',(72.2625,-48.359469401533,29.0973382692619));
#1427=CARTESIAN_POINT('',(72.2625,-49.0705762341247,27.2280263443436));
#1428=CARTESIAN_POINT('',(72.2625,-48.359469401533,29.0973382692619));
#1429=CARTESIAN_POINT('',(72.2625,-19.8986068325916,16.1306880750818));
#1430=CARTESIAN_POINT('',(72.2625,-49.0705762341247,27.2280263443436));
#1431=CARTESIAN_POINT('',(72.2625,-19.1875,18.));
#1432=CARTESIAN_POINT('Origin',(-72.2625,-48.359469401533,29.0973382692619));
#1433=CARTESIAN_POINT('',(-72.2625,-48.359469401533,29.0973382692619));
#1434=CARTESIAN_POINT('',(-72.2625,-19.1875,18.));
#1435=CARTESIAN_POINT('',(-72.2625,-19.1875,18.));
#1436=CARTESIAN_POINT('',(-72.2625,-19.8986068325916,16.1306880750818));
#1437=CARTESIAN_POINT('',(-72.2625,-19.1875,18.));
#1438=CARTESIAN_POINT('',(-72.2625,-49.0705762341247,27.2280263443436));
#1439=CARTESIAN_POINT('',(-72.2625,-19.8986068325916,16.1306880750818));
#1440=CARTESIAN_POINT('',(-72.2625,-48.359469401533,29.0973382692619));
#1441=CARTESIAN_POINT('Origin',(67.2624999999999,-48.359469401533,29.0973382692619));
#1442=CARTESIAN_POINT('',(-67.2624999999999,-48.359469401533,29.0973382692619));
#1443=CARTESIAN_POINT('',(67.2624999999999,-49.0705762341247,27.2280263443436));
#1444=CARTESIAN_POINT('Origin',(-67.2624999999999,-19.1875,18.));
#1445=CARTESIAN_POINT('',(-67.2624999999999,-19.1875,18.));
#1446=CARTESIAN_POINT('',(-67.2624999999999,-19.8986068325916,16.1306880750818));
#1447=CARTESIAN_POINT('Origin',(-2.35491066616733E-60,-33.7734847007665,
23.5486691346309));
#1448=CARTESIAN_POINT('Origin',(0.,-34.4845915333582,21.6793572097127));
#1449=UNCERTAINTY_MEASURE_WITH_UNIT(LENGTH_MEASURE(0.01),#1453,
'DISTANCE_ACCURACY_VALUE',
'Maximum model space distance between geometric entities at asserted c
onnectivities');
#1450=UNCERTAINTY_MEASURE_WITH_UNIT(LENGTH_MEASURE(0.01),#1453,
'DISTANCE_ACCURACY_VALUE',
'Maximum model space distance between geometric entities at asserted c
onnectivities');
#1451=(
GEOMETRIC_REPRESENTATION_CONTEXT(3)
GLOBAL_UNCERTAINTY_ASSIGNED_CONTEXT((#1449))
GLOBAL_UNIT_ASSIGNED_CONTEXT((#1453,#1455,#1456))
REPRESENTATION_CONTEXT('','3D')
);
#1452=(
GEOMETRIC_REPRESENTATION_CONTEXT(3)
GLOBAL_UNCERTAINTY_ASSIGNED_CONTEXT((#1450))
GLOBAL_UNIT_ASSIGNED_CONTEXT((#1453,#1455,#1456))
REPRESENTATION_CONTEXT('','3D')
);
#1453=(
LENGTH_UNIT()
NAMED_UNIT(*)
SI_UNIT(.MILLI.,.METRE.)
);
#1454=(
LENGTH_UNIT()
NAMED_UNIT(*)
SI_UNIT($,.METRE.)
);
#1455=(
NAMED_UNIT(*)
PLANE_ANGLE_UNIT()
SI_UNIT($,.RADIAN.)
);
#1456=(
NAMED_UNIT(*)
SI_UNIT($,.STERADIAN.)
SOLID_ANGLE_UNIT()
);
#1457=SHAPE_DEFINITION_REPRESENTATION(#1458,#1459);
#1458=PRODUCT_DEFINITION_SHAPE('',$,#1461);
#1459=SHAPE_REPRESENTATION('',(#877),#1451);
#1460=PRODUCT_DEFINITION_CONTEXT('part definition',#1465,'design');
#1461=PRODUCT_DEFINITION('Component89','Component89',#1462,#1460);
#1462=PRODUCT_DEFINITION_FORMATION('',$,#1467);
#1463=PRODUCT_RELATED_PRODUCT_CATEGORY('Component89','Component89',(#1467));
#1464=APPLICATION_PROTOCOL_DEFINITION('international standard',
'automotive_design',2009,#1465);
#1465=APPLICATION_CONTEXT(
'Core Data for Automotive Mechanical Design Process');
#1466=PRODUCT_CONTEXT('part definition',#1465,'mechanical');
#1467=PRODUCT('Component89','Component89',$,(#1466));
#1468=PRESENTATION_STYLE_ASSIGNMENT((#1470));
#1469=PRESENTATION_STYLE_ASSIGNMENT((#1471));
#1470=SURFACE_STYLE_USAGE(.BOTH.,#1472);
#1471=SURFACE_STYLE_USAGE(.BOTH.,#1473);
#1472=SURFACE_SIDE_STYLE('',(#1474));
#1473=SURFACE_SIDE_STYLE('',(#1475));
#1474=SURFACE_STYLE_FILL_AREA(#1476);
#1475=SURFACE_STYLE_FILL_AREA(#1477);
#1476=FILL_AREA_STYLE('Steel - Satin',(#1478));
#1477=FILL_AREA_STYLE('Opaque(25,25,25)',(#1479));
#1478=FILL_AREA_STYLE_COLOUR('Steel - Satin',#1480);
#1479=FILL_AREA_STYLE_COLOUR('Opaque(25,25,25)',#1481);
#1480=COLOUR_RGB('Steel - Satin',0.627450980392157,0.627450980392157,0.627450980392157);
#1481=COLOUR_RGB('Opaque(25,25,25)',0.0980392156862745,0.0980392156862745,
0.0980392156862745);
ENDSEC;
END-ISO-10303-21;
